<?xml version="1.0" encoding="utf-8" ?>
<svg baseProfile="full" height="300mm" version="1.1" viewBox="0,0,200,300" width="200mm" xmlns="http://www.w3.org/2000/svg" xmlns:ev="http://www.w3.org/2001/xml-events" xmlns:xlink="http://www.w3.org/1999/xlink"><defs /><rect fill="#222222" height="300" width="200" x="0" y="0" /><text fill="#FFFFFF" style="font-size:12px; font-family:Arial; font-weight:bold;" x="10" y="20">Over 10km Workouts</text><text fill="#FFFFFF" style="font-size:9px; font-family:Arial" x="10" y="290">Kin Azem</text><text fill="#FFFFFF" style="font-size:4px; font-family:Arial" x="65" y="280">SPECIAL TRACKS</text><rect fill="yellow" height="2.6" width="2.6" x="65" y="283" /><text fill="#FFFFFF" style="font-size:3px; font-family:Arial" x="70" y="285.5">Over 20.0 km</text><rect fill="red" height="2.6" width="2.6" x="65" y="287" /><text fill="#FFFFFF" style="font-size:3px; font-family:Arial" x="70" y="289.5">Over 40.0 km</text><text fill="#FFFFFF" style="font-size:4px; font-family:Arial" x="120" y="280">STATISTICS</text><text fill="#FFFFFF" style="font-size:3px; font-family:Arial" x="120" y="285">Number: 4</text><text fill="#FFFFFF" style="font-size:3px; font-family:Arial" x="120" y="290">Weekly: 1.3</text><text fill="#FFFFFF" style="font-size:3px; font-family:Arial" x="141" y="285">Total: 230.4 km</text><text fill="#FFFFFF" style="font-size:3px; font-family:Arial" x="141" y="290">Avg: 57.6 km</text><text fill="#FFFFFF" style="font-size:3px; font-family:Arial" x="167" y="285">Min: 10.4 km</text><text fill="#FFFFFF" style="font-size:3px; font-family:Arial" x="167" y="290">Max: 160.1 km</text><polyline fill="none" opacity="1" points="34.40325342467986,53.843416273302864 36.93450342467986,49.40690204908606 39.50042808218859,48.89499284833437 36.24101027403958,58.023924944747705 40.15924657532014,55.848360499716364 41.26883561629802,52.35036504431628 42.482448630267754,52.60631714775809 41.16481164377183,53.843416273302864 41.16481164377183,57.55468672837014 38.98030821909197,59.858213596598944 40.43664383562282,59.09037303572404 41.442208904074505,59.30366225374746 43.03724315064028,56.27494285724242 45.741866438416764,55.080510911910096 48.16909246589057,51.625166374782566 48.79323630128056,49.961469483183464 48.307791095925495,44.671712623676285 48.96660958905704,44.287775464588776 50.24957191781141,44.586393292440334 53.3009417806752,47.65787577399169 55.208047945285216,46.378094768180745 56.45633561653085,47.44457927317126 59.923801369965076,48.681697121064644 64.77825342467986,49.49222017469583 69.87542808218859,49.321583902376005 69.07791095878929,53.5021479971183 73.6202910959255,56.40291746027651 80.27782534249127,58.57847836823203 83.91866438370198,61.30857438434032 82.98244863026775,65.61696270754328 83.98801369871944,65.95821886262274 83.3291952055879,66.12884681206197 82.94777397275902,65.23304912482854 83.84931506845169,62.11906743250438 85.89511986309662,62.88690117542865 86.93535958905704,62.58829936967231 86.48458904121071,61.991094974044245 87.00470890430734,61.393889532773755 88.66909246589057,62.58829936967231 88.49571917811409,62.07640995172551 90.61087328777649,62.92955855495529 92.1365582193248,62.84424379066331 91.16566780814901,61.82046495459508 92.79537671245635,60.19947551327641 93.41952054807916,58.15189889172325 95.01455479487777,57.426712557382416 95.46532534249127,58.83442579806433 94.35573630151339,59.858213596598944 95.01455479487777,59.47429353222833 95.0839041096624,59.98618685541442 94.63313356158324,59.81555583290174 95.5,59.30366225374746 94.70248287683353,60.32744864397682 95.0839041096624,59.81555583290174 94.45976027403958,59.602266935107764 95.25727739743888,59.55960913939634 94.56378424656577,57.597344774752855 93.28082191781141,58.10924091463676 92.76070205471478,60.114160066033946 91.13099315064028,62.03375246550422 92.10188356181607,62.801586400542874 90.40282534249127,62.97221592903952 88.35702054784633,61.94843747722916 88.49571917811409,62.460327087377664 86.93535958905704,61.30857438434032 86.79666095878929,62.58829936967231 84.78553082211874,62.758929005096434 83.71061643841676,62.161724908073666 83.57191780814901,60.967313577304594 80.00042808218859,58.45050458132755 73.79366438346915,56.48823383584386 69.07791095878929,53.54480655025691 69.97945205494761,49.44956111465581 64.2234589040745,49.49222017469583 59.29965753434226,48.63903795974329 55.138698630267754,46.292775863723364 53.3009417806752,47.57255718961824 50.076198630034924,44.41575456573628 49.1053082193248,44.287775464588776 48.37714041094296,44.84235122235259 48.16909246589057,46.847348361246986 48.82791095902212,49.79083344567334 48.06506849313155,51.8384602611477 45.395119863096625,55.379119290359085 43.279965753434226,56.104309978167294 40.92208904097788,59.943529107782524 36.24101027403958,64.63584935970721 35.06207191781141,66.68338705858332 33.0509417806752,66.72604396336828 30.589041095692664,68.68825581279816 27.607020547846332,69.20013530857977 25.0410958903376,67.70715129905147 25.145119862863794,64.67850652040215 24.31292808218859,63.61207590124104 23.13398972596042,69.32810506242095 26.254708904074505,73.42311183849233 26.601455479394644,75.17200600143406 23.16866438346915,85.19598249610863 20.60273972596042,88.26709932708764 21.122859589057043,91.08226546813967 20.429366438416764,92.23391764835105 20.741438356228173,93.64148725575069 19.354452054714784,94.57986376748886 16.71917808218859,94.5372103457048 14.777397260069847,95.73150414071279 14.5,96.71252805899712 15.22816780814901,97.1817124139925 15.678938355995342,96.07273017140687 16.372431506868452,95.98742369565298 17.03124999976717,97.82150822193944 18.556934931548312,98.50395576120354 19.59717465774156,100.93516402554815 17.75941780814901,102.17208789641154 19.077054794412106,105.11509562961874 21.36558219161816,104.04879141264246 22.82191780814901,101.7029104042158 21.192208904074505,102.64126474328805 21.885702054714784,100.2527213494177 22.717893835622817,99.5702773083467 23.446061643771827,99.78354121791199 27.086900684982538,105.71222453541122" stroke="#4dd2ff" stroke-dasharray="none" stroke-linecap="round" stroke-linejoin="round" stroke-width="0.5"><title>2026-07-21 10.4km</title><desc>1784599135000</desc></polyline><polyline fill="none" opacity="1" points="152.17599476026953,60.86835030205839 152.2609177751583,59.3010223510646 152.47649158228887,58.625853911238664 152.34584079007618,58.58566508987133 152.0976042849652,58.92325040797732 151.9669534927816,58.87502404258703 152.05840904731303,57.68542890171375 151.92775825512945,57.70954253547097 151.69258682921645,58.27219142026297 151.4508828636899,58.35256943009881 150.86295429887832,57.910489131492795 149.02077812922653,57.227268140384695 148.61576067347778,57.15492666883074 148.2368733761541,57.28353367304226 147.21126465758425,57.058471246687986 147.12634164269548,56.841446017322596 147.27005751404795,56.30289876236202 147.13287418227992,56.198403995826084 146.7474543453427,56.68068611544004 146.04847260724637,57.03435736852407 145.74797578522703,56.84948400186113 145.20577499768115,56.92986379186914 144.8007575419615,56.60030601363542 144.42840278425138,56.72891412825993 144.31081707129488,56.55207790426357 144.59824881408713,55.99745204397914 144.59171627447358,55.772385111537005 144.2716218336136,55.66788948197063 143.73595358571038,56.02960439850722 143.3113385111501,55.8688424648426 143.1349599417299,55.33028705546167 142.77567026324687,55.17756156533869 142.86059327813564,54.55861770322372 142.75607264440623,54.325507429814024 142.07015598547878,54.48627322615357 141.90684249528567,54.33354572917597 141.90684249528567,53.98789794771437 141.76965916345944,53.88339941507729 140.75058298447402,53.95574457117618 140.4239560040587,53.73870885842189 140.3063702911022,53.449326767273305 140.35209806839703,52.25159257999621 140.5415417170152,51.23068741861789 141.27971869282192,49.502346413675696 141.34504408887005,47.709645903189084 141.1294702818268,46.28670449175843 140.60686711312155,45.37021705827647 140.7767131429573,44.42155839386396 140.75711552411667,43.81055047776317 139.95361315223272,42.25888582345215 139.94054807303473,41.607657880260376 140.09079648402985,40.884063529803825 141.10987266298616,38.60066788701806 139.76416950355633,36.936310737954045 140.51541155859013,36.30110991838592 141.01841710845474,34.5 140.45661870209733,36.37347488593514 139.51593299844535,37.169484145320894 139.39834728548885,37.072998700146854 139.59432347374968,37.41069712380704 139.17624093880295,36.90414882219193 140.2737075930636,38.26297572272597 140.80937584096682,38.455942891247105 140.9988194896432,38.64890947977983 140.84203853903455,38.68107052145933 140.9988194896432,38.64890947977983 139.56166077568196,37.330292898353946 140.29330521190423,38.25493541144533 140.848571078619,38.44790260415175 140.9400266331504,38.383580271023675 140.82897345980746,38.2710160330098 139.10438300311216,44.59842802133062 138.36620602727635,45.66767493971565 138.3858036461461,53.02328964928893 139.3918147458753,53.119751131038356 140.23451235541143,53.545787609204126 139.79683220165316,54.49431150539749 139.1697083991603,55.20971433028171 139.32648934979807,56.198403995826084 138.91493935443577,57.58093638416176 138.29434809158556,58.48921181599144 138.92147189407842,62.909838088889956 137.11195842243615,66.15679526531312 137.04010048674536,67.28997684299247 136.73960366472602,67.95701764750993 136.10594732267782,68.61601501621772 135.8381131986971,69.25089633331663 135.66826716886135,69.38751554349437 134.47281242045574,70.18311576119595 133.85222115763463,70.05453457513067 133.610517192079,70.50456760074303 133.56478941484238,71.07514065592113 133.75423306348966,71.87071998069587 133.7019727466395,72.65825345063786 133.85875369724818,73.45381317782449 134.54467035614653,74.44222215103218 134.62306083145086,74.80383139214246 132.89847037475556,79.15101880241127 132.99645846890053,81.50528777854197 133.21203227594378,82.26056399492518 133.11404418182792,83.05600488419441 131.977382289886,84.23709592691011 131.73567832435947,85.85202203114022 130.71006960581872,87.07323274626106 130.27238945200224,87.26605337040382 129.99149024882354,87.19374570412765 129.65833072879468,87.41870262107113 129.20105295619578,88.33459051453247 128.9854791490652,88.52740735602129 128.84829581729718,89.1701259849724 127.85534979676595,90.39127368108166 126.90159901388688,92.18278392508364 126.47045139971306,92.72906411427539 126.3006053698482,93.56454248636146 125.59509109210921,94.40804329307866 125.5493633148435,95.49252807392622 123.96195618994534,97.25176449018181 123.58306889259256,98.3442341175396 123.13885619922075,99.01095278678986 123.26297445176169,99.0430836324158 123.57653635303723,99.70979505756259 123.57653635303723,100.28814153960411 123.08006334272795,100.68976798146468 122.79916413954925,100.6576379584003 122.75343636231264,100.77812546213681 122.92981493173284,100.890580261992 124.59561253199354,100.09535995672923 125.07902046304662,100.03109930070787 125.47097283956828,100.13552283415629 126.48351647891104,100.85845033923397 127.17596567742294,101.6777583561634 132.35626958720968,105.32435568686196 133.9502092517796,105.81430124955659 135.99489414933487,106.91465719144617 137.77174492288032,107.10741833889915 139.06518776546,106.95481581146305 139.9797433106869,107.07529152109782 140.91389647475444,107.3724639735592 143.09576470404863,108.52098243965884 144.89874563607736,108.96271485191392 146.453490062966,108.6896442640791 147.78612814316875,108.90649453151127 149.00771304999944,109.80601376276172 150.9478773138253,110.49670749400684 151.45741540327435,110.78583290092502 152.51568681991193,111.7977615941054 153.06442014707136,112.86589128301421 153.9985733111389,114.1267433605899 154.54077409865567,114.44797560969164 156.63118677347666,114.35963690104836 157.8462391406938,113.97415748050116 158.79345738395932,113.9179415387407 167.24656363771646,115.5" stroke="#ffe200" stroke-dasharray="none" stroke-linecap="round" stroke-linejoin="round" stroke-width="0.5"><title>2026-06-28 27.3km</title><desc>1782622347000</desc></polyline><polyline fill="none" opacity="1" points="87.311938685918,244.6403681081756 87.50337632521405,244.58788044101675 87.26271186440135,244.33200236843913 87.81514619488735,244.33856335906967 87.93000877846498,244.12205026761148 88.59183604564168,244.20078239645954 89.37399554325384,243.91865842916013 89.8826726990228,243.48562821571977 90.4351070295088,243.32816186421405 90.30383550544502,242.73765915414697 90.54449996622861,241.8125258859327 90.76328583969735,241.53695135832822 92.04318319939193,241.25481414579554 92.7925248160027,241.3926022620799 93.47623067052336,241.13670977981383 94.26932946179295,240.97267553029087 94.37325275171315,240.91362308437965 94.36778310488444,240.72990397068497 94.45529745423119,240.89393892208318 95.00773178474628,240.74302678426466 95.09524613409303,240.63804419075313 95.23745695184334,240.64460560855514 95.2921534202178,240.78239520673742 95.35231953542097,240.5855528211723 95.35231953542097,240.80207940774199 95.33591059490573,240.5593071181611 95.33044094807701,240.63804419075313 95.41795529748197,240.61835993285422 95.33591059490573,240.66428985734456 95.33044094807701,240.5855528211723 95.5,240.6774126860837 95.3960767101089,240.72334256276736 95.43983388479683,240.6577284418454 95.35231953542097,240.59867566810863 95.37966776959365,240.6708512721052 95.30856236073305,240.65116702558225 95.40154635693762,240.71678115409668 95.39060706325108,240.60523709045083 95.2921534202178,240.62492135292632 95.30856236073305,240.72990397068497 95.3960767101089,240.74302678426466 95.31403200756176,240.74302678426466 95.25386589235859,240.5199385408996 95.37966776959365,240.66428985734456 95.28668377338909,240.76271099891892 95.24292659867206,240.56586854506168 95.33044094807701,240.66428985734456 95.04054966574768,240.6708512721052 94.96397461002925,240.78239520673742 94.29667769599473,240.9661141504548 94.26932946179295,241.11046433175943 94.16540617193095,240.98579828771108 92.77064622862963,241.39916359260678 91.91738132215687,241.28105952708938 90.79063407387002,241.53039004373568 90.56637855360168,241.7797194647319 90.35306232693256,242.63924143832992 90.42416773585137,243.34128407686512 89.88814234585152,243.53811690245493 89.07863461406669,244.08268416223655 88.52073063678108,244.23358741789707 87.91359983794973,244.14829432272018 87.82608548854478,244.35168533806063 87.2080153960269,244.33200236843913 87.25724221757264,244.46978301243144 87.19707610236946,244.56163658923106 87.0384563441039,244.6010023623603 86.72121682760189,244.47634398712762 86.62823283136822,244.60756332188248 86.18519143763115,244.62724619593428 85.88436086164438,244.8175136263526 85.93905732998974,245.50640760694296 85.79684651223943,245.7097937545659 85.34833547164453,245.6769895865109 85.22800324126729,246.73327427269032 84.73573502601357,246.77919924783055 84.68650820446783,246.65454565738037 84.89982443107874,246.69390997868322 84.56617597406148,246.75295640944023 84.68650820446783,246.65454565738037 84.57711526774801,246.53645252964998 84.89982443107874,246.41835915619959 84.73026537915575,246.75951712017923 84.97092983996845,246.77263853938348 84.10125599298044,246.72015284438385 84.05749881826341,246.99570220152236 83.92075764737092,246.88417048004703 83.93716658788617,246.95633808955245 83.8113647106511,246.94321671285434 83.54335201566573,248.03884121990995 82.5259977040987,250.07913947205088 82.26892430279986,250.3809136944692 81.83682220272021,250.57772210554322 78.99807549463003,250.70892733381697 75.49750151933404,250.72860809190752 75.07633871294092,250.92541529738082 74.99429401039379,252.2636861979554 72.85566209736862,252.3424070330584 72.09538118712953,252.18496525368755 70.7662570058601,251.66015616854565 68.9995610777114,251.37806928032296 68.63856438652147,251.40430998022566 68.10253899657982,251.19438404129323 67.38054561417084,250.84669249707076 67.03595786346705,250.49243854452652 66.80623269634089,250.41371514369894 66.47805388615234,250.1119410956817 66.24832871899707,250.0528981594689 65.20909582011518,249.23285102830414 64.72229725166108,248.97699389828995 64.3175433857541,248.89170793198718 64.29566479841014,242.00936401478975 63.56820176917245,241.5041447777985 63.16344790329458,241.34667292714948 61.52802349920967,240.9661141504548 61.20531433587894,239.8703530717903 61.28188939156826,239.2601296439716 61.041224930784665,237.6722056608087 59.61911675333977,235.6970811602405 59.17607535957359,234.92932317487066 58.897123370930785,233.95812724676216 58.361097980930936,231.22819016625363 58.13137281383388,230.512872426596 57.73208859475562,229.7253562240985 54.89334188669454,225.63665882436544 54.30808967517805,224.96721318618802 52.240563171042595,223.10322486499354 49.0517590654199,218.4167299747969 48.24225133363507,217.68155836651204 45.87389425348374,216.3490355230315 45.08626510904287,215.731994629361 40.10888648792752,210.08641497499048 39.66037544736173,209.75160130640143 37.96478492807364,208.98349188571592 37.17715578363277,208.30728437616926 34.0649267337576,204.4337072010494 33.33199405766209,203.36350274727738 33.41403876020922,203.2715824035622 34.278242960368516,203.29127963262727 34.63377000470064,202.9170311092239 34.98382740226225,202.85137321862203 35.14791680732742,203.04178089174457 35.3120062124508,203.61300007130922 35.80974407456233,204.51906006001082 36.575494631630136,205.1953127817833 36.772401917754905,205.75337933712217 36.63566074683331,205.9372118223182 36.37311769867665,205.9109500752529 36.03946924165939,205.54984981844973 34.62830035787192,203.5013829832351 34.36028766288655,203.36350274727738 33.43044770069537,203.29127963262727 33.2335404145997,203.1862276651409 33.063981362676714,202.59530671814719 33.053042069019284,201.21646720348144 32.910831251268974,200.67805409118955 32.019278816937,199.2860354961158 30.783138631901238,197.6575929669416 30.657336754666176,197.67072575525526 30.482308055914473,197.88741632269375 28.90704976703273,201.15737333141806 28.633567425218644,201.0063553782711 25.647140252549434,198.00561082822242 24.93608616379788,198.695073861516 24.651664528326364,199.02338664193667 24.700891349843005,199.06278404769546 24.580559119436657,198.98398920876207 24.356303599168314,199.16784366245338 23.85309609019896,199.24663824562595 14.751603754470125,198.34706023655963 14.5,198.695073861516 14.576575055689318,198.64254364006047 15.369673846988007,199.13501255376468 16.862887433322612,200.5073366699471 16.381558511726325,200.10023920449385 15.342325612786226,200.4679402688962" stroke="#ffd900" stroke-dasharray="none" stroke-linecap="round" stroke-linejoin="round" stroke-width="0.5"><title>2024-09-26 32.6km</title><desc>1727327929000</desc></polyline><polyline fill="none" opacity="1" points="185.5,199.82610963712204 185.44055940765975,199.97434287507986 185.27519263154682,200.2017511108511 185.0084720249106,200.46597824385844 183.9728340122856,201.39852704302575 183.80289488291237,201.59091461918433 183.74878870271277,201.67652095935682 183.700778993516,201.7796155173096 183.70001693463928,201.81643467141248 183.77317458674588,202.6899180339642 183.72592693642582,203.14917082320335 183.69011016924924,203.25960833607405 183.64133840117938,203.55502098552006 183.6139042816394,203.6194397013137 183.520171039876,203.74551478901276 183.28393278828662,203.89827456968396 183.28088455277975,203.91759938870428 183.31593926108326,203.9866162081239 183.32508396759658,203.96453089244233 183.32508396759658,203.97557355811068 183.34565955724975,203.97097244931774 183.33727690961314,204.00225993551203 183.3258460264733,203.9994992800207 183.30984279007316,204.02342492843945 183.30222220131327,204.0142227646661 183.29764984806025,204.02618557545065 183.2732639640235,204.02986643661188 183.27859837615324,204.0473505033724 183.27631219952673,204.03722815371293 183.26716749300977,204.0547122039493 183.27173984627007,204.0427494369751 183.2610710220033,204.0547122039493 183.2549745509932,204.03814836785978 182.46395743759786,204.65742783720543 181.64169591028258,205.10552359144276 181.63255120376925,205.14232702562003 181.05567263456032,205.54623329346305 181.0183317496303,205.51403196723186 181.03052469164322,205.5241523983841 181.02519027951348,205.51679208612177 164.3818244253962,207.2168395984363 163.1853919899113,206.65847743793802 162.67252636629564,206.48921313410165 144.9112201409298,223.19647413779694 144.53171482063408,223.0670407540083 144.26956656725088,222.94219517972033 144.08362420148114,222.8861976211556 144.08210008373135,222.8751816608592 143.72469447083495,222.81826561913658 142.98625941989303,222.6704655788635 142.70353557685667,222.64935105966742 142.42614614595368,222.66587547083782 134.5632226623129,229.25633611533613 134.20124469616349,229.7479668580154 133.48719552925468,230.81275545117478 133.2402884533949,231.21075302676036 133.08711461929852,231.43266917894834 132.86764166297507,231.6903408067701 132.56662840691934,231.95809026419283 132.23513279581675,232.18181910938438 131.87696512404727,232.35419600259047 131.56299686708735,232.4550530682518 130.7788382835788,232.64301050670838 130.58679944680262,232.70260582830542 130.3383682531894,232.80162474725148 129.98477293468022,232.99232433270845 129.32178171246778,233.43604967619012 129.11145346266494,233.59373115793733 128.75938226189828,233.8953340117796 128.07352927340617,234.64699893976103 127.63991777290357,235.14012540086878 127.20249597802103,235.5690652603589 126.21791591009605,236.30590729249525 126.14780649349268,236.29765944305564 126.07388678250936,236.338898603718 126.01749442567962,236.35081209874352 125.20818789925397,236.76135843430075 125.13884054153095,236.7247033831345 125.06644494830107,236.71095769488875 124.93308464498114,236.7302016517042 124.16035694461243,236.94096571473983 123.84410251102963,237.0426802629845 123.35943306582703,237.25160331603365 122.9014356812877,237.5127493262935 122.63014272139844,237.70425088871798 122.32608122982856,237.95347081893942 122.04259532791912,238.22558797338843 121.91304531897913,238.375843916343 121.19442379881366,239.0547084643713 114.93258601386697,243.4315663635416 113.72777093074183,244.56407935848165 113.1958538352228,245.1234093118528 112.7172808610303,245.65890079289602 112.07257905184815,246.35910399465774 111.85996462541152,246.56686474440903 111.53837577969534,246.81214351615017 110.60104336208678,247.44635511754313 109.68504859301174,248.07868560197585 109.56692946721523,248.17110592709287 109.41451769199193,248.31934220695985 109.300208860579,248.47123575214482 109.17523120489932,248.67436592217837 109.08607031639622,248.86285140146356 109.01215060540926,249.08335539693508 108.98700266249944,249.252617768444 108.96566501396956,250.0586228166767 104.98238326857245,250.1738903628775 105.00829327035899,250.14644586172108 104.91074973421928,249.96165040242886 104.85892973064256,249.79423295829656 104.74995531136301,249.88388864332865 104.70346971991603,249.84637975617534 104.62802589118292,249.74208581581934 104.59449530063284,249.71646954944026 104.5990676538895,249.73110742612425 104.63183618556286,249.7475750049407 104.61888118466959,249.7475750049407 104.59449530063284,249.71463981294528 104.63412236219301,249.70183164559967 104.62116736129974,249.7118952074079 104.60211588939637,249.71646954944026 104.62802589118292,249.69725729508173 104.52895823728613,249.74391554595059 104.57391971098332,249.7484898694238 104.58306441749664,249.73842635428446 104.57773000535963,249.76129796103578 104.53886500267981,249.7347668910552 104.55334412132288,249.7375114886363 104.58077824086286,249.71463981294528 104.57087147547645,249.70366138506506 104.59982971276986,249.69817216539923 104.57773000535963,249.71463981294528 104.56477500446636,249.71098033868202 104.5891608885031,249.70732086272255 104.58687471187659,249.69634242466145 104.60059177164294,249.70274651538602 104.5701094165961,249.69725729508173 104.58382647636972,249.66981113629026 104.59830559501643,249.681704483487 104.58458853524644,249.69451268350167 104.59601941838991,249.72104388882053 104.59754353613971,249.69451268350167 104.60211588939637,249.70549112410845 104.60745030152611,249.69725729508173 104.5990676538895,249.68719371461066 104.63183618556286,249.67438550271618 104.64021883319947,249.68993832873912 104.55029588581965,249.7137249445368 104.55105794469637,249.70000190571318 104.55182000357308,249.72744795949893 104.53505470829987,249.7512344622328 104.54191323818304,249.76404254939098 104.53657882604966,249.75580878146047 104.52209970740296,249.77410603185945 104.51752735414993,249.76495741196504 104.54191323818304,249.75580878146047 104.50838264763661,249.76404254939098 104.50762058875989,249.77685061575903 104.5,249.76495741196504 104.51600323639286,249.76221282392635 104.51524117751978,249.77959519870728 104.50914470650969,249.76678713679212 104.57391971098332,249.70091677570872 104.56325088671292,249.70000190571318 104.53886500267981,249.74666014035301 104.51981353078008,249.75397905408772 104.52438588403311,249.73842635428446 104.51981353078008,249.74940473379866 104.51066882426312,249.7375114886363 104.58535059412316,249.6990870356076 104.58001618198978,249.70915060091374 104.58077824086286,249.6990870356076 104.57087147547645,249.70366138506506 104.54877176806986,249.6780449939506 104.5701094165961,249.7475750049407 104.59220912400633,249.7631276867096 104.58230235861629,249.76953172323556" stroke="red" stroke-dasharray="none" stroke-linecap="round" stroke-linejoin="round" stroke-width="0.5"><title>2024-09-25 160.1km</title><desc>1727226501000</desc></polyline></svg>