<?xml version="1.0" encoding="utf-8" ?>
<svg baseProfile="full" height="300mm" version="1.1" viewBox="0,0,200,300" width="200mm" xmlns="http://www.w3.org/2000/svg" xmlns:ev="http://www.w3.org/2001/xml-events" xmlns:xlink="http://www.w3.org/1999/xlink"><defs /><rect fill="#222222" height="300" width="200" x="0" y="0" /><text fill="#FFFFFF" style="font-size:12px; font-family:Arial; font-weight:bold;" x="10" y="20">Over 10km Workouts</text><text fill="#FFFFFF" style="font-size:9px; font-family:Arial" x="10" y="290">Kin Azem</text><text fill="#FFFFFF" style="font-size:4px; font-family:Arial" x="65" y="280">SPECIAL TRACKS</text><rect fill="yellow" height="2.6" width="2.6" x="65" y="283" /><text fill="#FFFFFF" style="font-size:3px; font-family:Arial" x="70" y="285.5">Over 20.0 km</text><rect fill="red" height="2.6" width="2.6" x="65" y="287" /><text fill="#FFFFFF" style="font-size:3px; font-family:Arial" x="70" y="289.5">Over 40.0 km</text><text fill="#FFFFFF" style="font-size:4px; font-family:Arial" x="120" y="280">STATISTICS</text><text fill="#FFFFFF" style="font-size:3px; font-family:Arial" x="120" y="285">Number: 2</text><text fill="#FFFFFF" style="font-size:3px; font-family:Arial" x="120" y="290">Weekly: 2.0</text><text fill="#FFFFFF" style="font-size:3px; font-family:Arial" x="141" y="285">Total: 192.7 km</text><text fill="#FFFFFF" style="font-size:3px; font-family:Arial" x="141" y="290">Avg: 96.4 km</text><text fill="#FFFFFF" style="font-size:3px; font-family:Arial" x="167" y="285">Min: 32.6 km</text><text fill="#FFFFFF" style="font-size:3px; font-family:Arial" x="167" y="290">Max: 160.1 km</text><polyline fill="none" opacity="1" points="141.42485587880947,117.17683594597474 141.25110604640213,116.2302863916193 141.68548062743503,115.9697660722668 142.27912588819163,115.9176618999627 142.36600080440985,115.76134916616866 142.82933369086822,115.93502996142342 143.42297895162483,115.7352970122156 143.52433302052668,115.81345344691363 143.46641640973394,115.90029383449291 143.50261429147213,115.81345344691363 143.60396836037398,115.9176618999627 143.4084997989412,115.93502996142342 143.8428743799741,115.86555769150436 143.16235420297016,115.99581814488192 143.4157393752539,115.92634593118419 143.0971980158356,115.58766796927375 143.82839522726135,115.59635203865037 143.98042633064324,115.30977721884847 144.85641506905085,115.41398637075326 145.89167448721128,115.0405695738882 146.56495508781518,114.46741459950863 147.29615229924093,114.25899352435226 147.1224024668336,113.4774093411761 147.4409438262519,112.25291110021499 147.73052688030293,111.88816308401147 149.42458774635452,111.51472875587206 150.41640970640583,111.69710389231477 151.32135675023892,111.35840685787116 152.37109532108298,111.1412925707773 152.50864727178123,111.06313127377507 152.5014076954394,110.81996227393392 152.6172409170249,111.03707749002933 153.34843812845065,110.8373315143399 153.46427135006525,110.69837747874408 153.65250033518532,110.7070621135208 153.7248960986908,110.88943921138707 153.8045314385672,110.62890036455065 153.8045314385672,110.9154930463701 153.78281270948355,110.59416178333777 153.77557313314173,110.69837747874408 153.89140635478543,110.67232356845489 153.78281270948355,110.73311601174646 153.77557313314173,110.62890036455065 154.0,110.75048527221952 153.86244804935995,110.81127765223937 153.9203646601527,110.72443138001836 153.8045314385672,110.64626964910713 153.8407293203054,110.74180064249958 153.74661482774536,110.71574674727162 153.86968762570177,110.80259302954073 153.85520847298903,110.6549542898938 153.7248960986908,110.68100820623658 153.74661482774536,110.81996227393392 153.86244804935995,110.8373315143399 153.75385440408718,110.8373315143399 153.67421906423988,110.54205388141418 153.8407293203054,110.73311601174646 153.717656522349,110.86338536738913 153.65973991152714,110.6028464301562 153.77557313314173,110.73311601174646 153.39187558658887,110.74180064249958 153.2905215176288,110.88943921138707 152.40729320285027,111.13260798624833 152.37109532108298,111.3236686141172 152.23354337044293,111.1586617368448 150.38745140098035,111.7057884115784 149.258077490289,111.54946691126679 147.76672476204112,111.87947858584084 147.46990213167737,112.20948881022923 147.18755865396815,113.34714451984473 147.2816731465573,114.27636196937237 146.572194664157,114.53688816270733 145.50073736425838,115.25767258869018 144.76230057651992,115.45740680803283 143.95870760158869,115.34451361891115 143.8428743799741,115.6137201744059 143.02480225233012,115.58766796927375 143.08995843949378,115.77003321545635 143.01032309964648,115.89160980023735 142.80037538547185,115.94371399063675 142.38047995709348,115.77871726373996 142.25740715913707,115.95239801883872 141.6710014747223,115.97845009747834 141.27282477545668,116.2302863916193 141.34522053893306,117.14210039337195 141.1569915538421,117.41130050599895 140.56334629305638,117.3678811982536 140.40407561336178,118.76597030024277 139.75251374181244,118.82675619262591 139.68735755464877,118.66176579882449 139.96970103232889,118.71386806759983 139.52808687492507,118.79202140299458 139.68735755464877,118.66176579882449 139.5425660276378,118.50545877567492 139.96970103232889,118.34915142729005 139.74527416544151,118.80070510191581 140.06381552488892,118.81807249673875 138.912722885143,118.74860289337084 138.85480627429206,119.11331759417226 138.6738168655429,118.96569519051263 138.69553559459746,119.06121560246538 138.52902533853194,119.04384826390014 138.17428609734634,120.49400720612175 136.82772489610943,123.1945279922802 136.48746480763657,123.59395369365666 135.91553827590542,123.85444757215737 132.1581981499039,124.02810965603567 127.52486928543658,124.05415893400641 126.96742190641817,124.31465121678048 126.8588282611745,126.08597478710726 124.02815390803153,126.19016899071721 123.02185279529658,125.98178043901135 121.26263574205223,125.28714775886328 118.92425258079311,124.91378003953287 118.446440541622,124.94851199867844 117.73696205930901,124.67065587590332 116.78133798099589,124.21045441204478 116.32524467087933,123.74156700236199 116.02118246417376,123.63736940278613 115.58680788311176,123.23794393225398 115.28274567634799,123.15979522220732 113.90722616974381,122.07438806615392 113.26290387453628,121.7357378236411 112.72717522454332,121.62285407023592 112.69821691914694,112.51344431291363 111.735353264492,111.84474058313936 111.19962461455725,111.6363122293551 109.03499128570547,111.13260798624833 108.60785628101439,109.68226827905164 108.70921034991625,108.87458192765916 108.39066899049794,106.77281973731442 106.50837913932628,104.15856235437968 105.92197345488239,103.14236465090653 105.55275506101316,101.85689827924216 104.84327657861286,98.24357761738065 104.53921437190729,97.29678936098935 104.01072529828525,96.25443985544553 100.25338517228374,90.84267600929888 99.47875050274888,89.95660366217635 96.74219064219506,87.48944514686445 92.52151762970607,81.28644181049458 91.45006032977835,80.3133751485584 88.31532376992982,78.54965965594602 87.27282477542758,77.73294976683246 80.6848102962831,70.26051028865186 80.0911650355556,69.81735386749642 77.84689636679832,68.8006910073309 76.80439737229608,67.90566870685143 72.68507842876716,62.77863609423366 71.7149751977413,61.36212291052652 71.82356884301407,61.240457953637815 72.96742190641817,61.26652903244394 73.43799436921836,60.7711769849775 73.90132725567673,60.68427277959563 74.11851454616408,60.93629469774896 74.33570183673874,61.69235536988708 74.9945032846299,62.89160838616954 76.00804397370666,63.786690529144835 76.26866872236133,64.5253425037663 76.08767931358307,64.76866156112374 75.74017964873929,64.73390174414817 75.29856549136457,64.2559526264813 73.43075479287654,61.54461997574981 73.07601555166184,61.36212291052652 71.84528757203952,61.26652903244394 71.58466282344307,61.12748317405931 71.3602359565557,60.34534541618632 71.34575680387206,58.52032558575593 71.15752781875199,57.80768673516286 69.9774768735806,55.96522319005453 68.34133261829265,53.80983100928279 68.17482236222713,53.82721345216123 67.94315591902705,54.11402317760803 65.85815793002257,58.442109457471815 65.49617911246605,58.24222342555004 61.543370424973546,54.270464383524086 60.60222549937316,55.183031578417285 60.22576752916211,55.617583481282054 60.290923716296675,55.669729540357366 60.131653036602074,55.56543738592882 59.834830406238325,55.80878552059585 59.168789381947136,55.91307733649592 47.12213433434954,54.722403811334516 46.789113822218496,55.183031578417285 46.89046789112035,55.11350304022926 47.94020646199351,55.765330554466345 49.91661080572521,57.58172666087194 49.279528086888604,57.04289604319638 47.90400858022622,57.52958193163067 46.87598873843672,58.12924412833672 46.94114492557128,58.18138844050554 46.97734280733857,58.094481233398255 46.71671805871301,58.04233686076623 47.09317602895317,57.96412023382436 47.15833221608773,57.83375900759711 46.74567636413849,57.3905291430201 46.217187290487345,56.15642434274196 46.173749832378235,55.78271254393621 46.0,55.64365651535627 46.81807212761487,55.14826731739595 46.86150958572398,54.9396814126012" stroke="#ffff00" stroke-dasharray="none" stroke-linecap="round" stroke-linejoin="round" stroke-width="0.5"><title>2024-09-26 32.6km</title><desc>1727327929000</desc></polyline><polyline fill="none" opacity="1" points="154.0,176.08491149343354 153.8982215835931,176.14944675097104 153.8478362289352,176.2748631688719 153.293597327709,176.84956738946767 153.19988056804868,177.03219971973067 153.11019463675984,177.3377972341641 153.03159348349436,177.5338131720564 152.81292104428212,177.83452601644512 152.46022356168396,178.18392625897286 151.09074962211162,179.41708037486205 150.86603094033853,179.67148371718395 150.79448373673222,179.78468509691265 150.73099818985793,179.92101198787987 150.72999048276688,179.96969972568604 150.82673036371125,181.1247487747587 150.76425252393165,181.732040819732 150.71689029055415,181.87807765305024 150.65239703659608,182.26871600342474 150.61611958124195,182.35389996869526 150.4921716087847,182.52061511909415 150.17978240991215,182.7226167220615 150.17575158153704,182.74817085942686 150.2221061078235,182.8394351182078 150.23419859294154,182.8102306433775 150.23419859294154,182.82483289114316 150.26140668445805,182.8187486237557 150.2503219064347,182.86012157111418 150.23520630003623,182.85647102361963 150.21404445108055,182.8881090589157 150.20396738014824,182.87594059529965 150.19792113759104,182.89175959519525 150.16567451060837,182.89662697489166 150.17272846026026,182.91974699703678 150.16970533897984,182.9063617273805 150.1576128538618,182.9294817276741 150.16365909642627,182.9136627857124 150.14955119711885,182.9294817276741 150.14148954037228,182.9075785707928 149.09548957769584,183.72648158926313 148.00817362419912,184.31902015040214 147.99608113908107,184.36768710099568 147.23324686957858,184.90179177955997 147.1838692220117,184.85921041758138 147.19999253550122,184.87259315030406 147.19293858585297,184.8628602555018 125.18461567171471,187.11091482260963 123.60251553548369,186.37256569064994 122.92432866180388,186.14873936313143 99.43769944202722,208.24155390576016 98.93586130964468,208.07039791896932 98.58921006960372,207.9053086132708 98.3433295388786,207.83126034911038 98.34131412469287,207.81669341514134 97.86869949800894,207.74143059653943 96.89223132476036,207.5459874967728 96.51837199320653,207.51806675281387 96.15156661130095,207.53991777623014 85.75404482430531,216.25480076855274 85.27538395506053,216.90490773815418 84.33116240879463,218.3129288919854 84.00466531061466,218.83922022267598 83.80211618489557,219.13267062087198 83.5118965420661,219.47340220369188 83.11385224027981,219.82746018515445 82.67549965476792,220.1233075944656 82.20187732099293,220.35124984856793 81.78670199861517,220.48461799589404 80.74977139977636,220.73316315412285 80.49582921231195,220.8119689133291 80.16731669994624,220.94290639087376 79.6997406087321,221.19507762192734 78.8230354376974,221.7818369787865 78.54490827999325,221.9903467837321 78.0793476029612,222.38917073901666 77.17241121913685,223.3831334147908 76.59902588314071,224.03521824478776 76.02060201168206,224.60242604524956 74.7186444473482,225.57678769313497 74.6259353947753,225.56588116524927 74.52818780674352,225.62041369025155 74.4536174818495,225.63616747754713 73.38343254893698,226.17905263691682 73.2917312034624,226.1305819003146 73.19599902961636,226.11240531582735 73.01965028831182,226.1378525252121 71.99783529587148,226.41655597970748 71.57963685222057,226.55105801748323 70.93873514098595,226.82732701595523 70.33310317800715,227.1726529417274 69.97435945285542,227.4258846654875 69.57228432268676,227.75544016219465 69.19741728404188,228.11527375944297 69.02610707820713,228.31396441740708 68.07583928937675,229.21165965038745 59.79551010506111,234.9993892982584 58.20232519080673,236.49696568488434 57.498945639799786,237.23659457589383 56.866105585308105,237.94470070874377 56.01358538451677,238.8706130695582 55.732435105528566,239.14534509849364 55.30718271222213,239.46968901184482 54.067702987660596,240.308337506488 52.8564390617139,241.14449850972687 52.700244462273986,241.2667103493768 52.49870304364231,241.46273030973225 52.347546979675826,241.66358644786578 52.18228301640556,241.9321952385926 52.06438128650916,242.18143865059847 51.966633698470105,242.47302168606984 51.93337936439639,242.69684545837754 51.905163565788826,243.762664687938 46.637878589957836,243.91508850656646 46.6721406311226,243.87879732310194 46.54315412320284,243.63443340195772 46.47463004086603,243.41304926582598 46.33052792655144,243.53160528896387 46.26905779386652,243.48200548398017 46.16929479164537,243.344092591994 46.124955679544655,243.31021897127994 46.1310019221055,243.32957533943772 46.174333327111526,243.35135121069925 46.157202306527324,243.35135121069925 46.124955679544655,243.30779942273603 46.17735644838831,243.29086256721348 46.160225427807745,243.30417009886878 46.135032750480605,243.31021897127994 46.16929479164537,243.28481368358007 46.0382928695326,243.34651213212328 46.09774758803542,243.35256097999445 46.109840073153464,243.3392535100511 46.102786123497935,243.3694977353698 46.05139306174897,243.3344144258699 46.070539496515266,243.33804373921703 46.106816951869405,243.30779942273603 46.09371675966031,243.2932821196864 46.132009629200184,243.2860234605896 46.102786123497935,243.30779942273603 46.085655102913734,243.3029603239629 46.1179017298964,243.29812122294697 46.11487860861598,243.2836039064341 46.13301733629123,243.29207234352089 46.092709052561986,243.28481368358007 46.110847780240874,243.248520308146 46.12999421501445,243.26424745299937 46.1118554873392,243.2811843517211 46.126971093737666,243.3162678401868 46.12898650791976,243.2811843517211 46.135032750480605,243.2957016716 46.14208670012886,243.28481368358007 46.1310019221055,243.27150612724654 46.174333327111526,243.2545692128151 46.185418105134886,243.2751354624752 46.0665086681438,243.30658964825125 46.067516375234845,243.28844301418394 46.06852408233317,243.32473625076454 46.04635452628645,243.35619028703059 46.05542389012044,243.37312703651696 46.04836994046855,243.36223912928745 46.02922350569861,243.3864344632575 46.023177263141406,243.3743368032874 46.05542389012044,243.36223912928745 46.01108477802336,243.37312703651696 46.01007707093231,243.39006375851295 46.0,243.3743368032874 46.02116184895203,243.37070750255862 46.02015414185735,243.39369305250966 46.01209248511441,243.37675633640356 46.09774758803542,243.28965279076874 46.083639688728,243.28844301418394 46.05139306174897,243.35014144126671 46.02620038442183,243.35981959280525 46.03224662697903,243.3392535100511 46.02620038442183,243.35377074914504 46.01410789930378,243.33804373921703 46.11286319443025,243.28723323745544 46.10580924477836,243.3005407737346 46.106816951869405,243.28723323745544 46.09371675966031,243.2932821196864 46.0644932539617,243.25940833403 46.092709052561986,243.35135121069925 46.121932558264234,243.37191726960555 46.10883236605878,243.38038563502232 46.1370481646627,243.35014144126671 46.15821001361837,243.3574000557619 46.336574169105006,243.57394639937866 46.465560677032045,243.44208351848465 46.49075335435555,243.4396640005143 46.563308265060186,243.6683059702582" stroke="red" stroke-dasharray="none" stroke-linecap="round" stroke-linejoin="round" stroke-width="0.5"><title>2024-09-25 160.1km</title><desc>1727226501000</desc></polyline></svg>