<?xml version="1.0" encoding="utf-8" ?>
<svg baseProfile="full" height="300mm" version="1.1" viewBox="0,0,200,300" width="200mm" xmlns="http://www.w3.org/2000/svg" xmlns:ev="http://www.w3.org/2001/xml-events" xmlns:xlink="http://www.w3.org/1999/xlink"><defs /><rect fill="#222222" height="300" width="200" x="0" y="0" /><text fill="#FFFFFF" style="font-size:12px; font-family:Arial; font-weight:bold;" x="10" y="20">Over 10km Workouts</text><text fill="#FFFFFF" style="font-size:9px; font-family:Arial" x="10" y="290">Kin Azem</text><text fill="#FFFFFF" style="font-size:4px; font-family:Arial" x="65" y="280">SPECIAL TRACKS</text><rect fill="yellow" height="2.6" width="2.6" x="65" y="283" /><text fill="#FFFFFF" style="font-size:3px; font-family:Arial" x="70" y="285.5">Over 20.0 km</text><rect fill="red" height="2.6" width="2.6" x="65" y="287" /><text fill="#FFFFFF" style="font-size:3px; font-family:Arial" x="70" y="289.5">Over 40.0 km</text><text fill="#FFFFFF" style="font-size:4px; font-family:Arial" x="120" y="280">STATISTICS</text><text fill="#FFFFFF" style="font-size:3px; font-family:Arial" x="120" y="285">Number: 3</text><text fill="#FFFFFF" style="font-size:3px; font-family:Arial" x="120" y="290">Weekly: 1.5</text><text fill="#FFFFFF" style="font-size:3px; font-family:Arial" x="141" y="285">Total: 220.0 km</text><text fill="#FFFFFF" style="font-size:3px; font-family:Arial" x="141" y="290">Avg: 73.3 km</text><text fill="#FFFFFF" style="font-size:3px; font-family:Arial" x="167" y="285">Min: 27.3 km</text><text fill="#FFFFFF" style="font-size:3px; font-family:Arial" x="167" y="290">Max: 160.1 km</text><polyline fill="none" opacity="1" points="65.09699574302067,57.34716611879412 64.95324190531392,57.23766649144818 64.5493620756024,57.743047900730744 63.81690204545157,58.113658522677724 63.50201268668752,57.919930497562746 62.933842756727245,58.00416014219809 62.50942666447372,57.65881792935397 62.11923767646658,57.793585832972894 61.996020101272734,57.608279895932355 62.29721861836151,57.0270897843875 62.29037319749477,56.79124309035251 61.95494757621782,56.68174255864869 61.39362306712428,57.06078210176929 60.94867071235785,56.892320346109045 60.763844349596184,56.32797039263096 60.387346203264315,56.16792999242898 60.476336674182676,55.51934131667076 60.3668099406932,55.275066039394005 59.64804075221764,55.443531842734956 59.476905231160345,55.28348933956295 59.476905231160345,54.92128647986101 59.33315139345359,54.811782906028384 58.265265741967596,54.88759309150919 57.92299469985301,54.66016227889486 57.79977712468826,54.35691999994742 57.847695070609916,53.101819371302554 58.04621227501775,52.03201713685121 58.8197448302526,50.220895850638044 58.88819903865806,48.34233250862599 58.66230015087058,46.851238174858736 58.11466648345231,45.89085483929375 58.292647425376344,44.89675940583402 58.272111162834335,44.25648677459685 57.430124399164924,42.630503894797585 57.41643355751876,41.94808486595866 57.57387823690078,41.189833382624784 58.64176388832857,38.79707267064805 57.231607194727985,37.05299979849951 58.01883059166721,36.38737552524981 58.54592799654347,34.5 57.95722180407029,36.463206471074955 56.971481202723226,37.297341233592306 56.84826362755848,37.19623454048269 57.053626252833055,37.55010730151116 56.61551931890426,37.01929746194219 57.76555002047098,38.443206468793505 58.32687452956452,38.64541595491755 58.52539173403056,38.84762483326631 58.361101633810904,38.881326253882435 58.52539173403056,38.84762483326631 57.019399148615776,37.465852051071124 57.78608628301299,38.43478106033581 58.367947054619435,38.636990571802016 58.46378294643364,38.569587468846294 58.34741079210653,38.45163187619619 56.54021968963207,45.08210034623335 55.76668713436811,46.202559704986925 55.787223396939225,53.910477491845086 56.841418206720846,54.01155907377688 57.72447749541607,54.458000911414274 57.26583429897437,55.45195512182545 56.60867389803752,56.20162273988535 56.772963998286286,57.23766649144818 56.34170248519513,58.686416379488946 55.69138750512502,59.63819439298095 56.34854790606187,64.27055011352059 54.452366332610836,67.67302291307715 54.377066703367746,68.86047913300717 54.06217734457459,69.55946839287208 53.398171522829216,70.25002897010563 53.11750926825334,70.91531843805569 52.93952832635841,71.05848113509273 51.686816312139854,71.89218726454419 51.03650133209885,71.75744757924986 50.78322076090262,72.22903529825999 50.73530281498097,72.82693640841171 50.93382001944701,73.66062064425205 50.87905665271683,74.48587366257561 51.043346752936486,75.31953736218566 51.76211594141205,76.3552869774212 51.844260991492774,76.73421578371199 50.037069889047416,81.2896152282774 50.139751201699255,83.756643808847 50.365650089486735,84.54809458652744 50.262968776864,85.38163375639124 49.07186555021326,86.61929410368612 48.81858497901703,88.31156839138566 47.743853906780714,89.59126997504063 47.28521071028081,89.79332589792466 46.990857614029665,89.71755499786377 46.64174115107744,89.95328640711523 46.16256169209373,90.91304148721247 45.936662804248044,91.11509344626393 45.792908966570394,91.78859560042474 44.75240499849315,93.06823114671715 43.75297355544171,94.94554721346503 43.30117577983765,95.51799193129409 43.12319483788451,96.39348621138197 42.383889386896044,97.27738716705062 42.33597144097439,98.4138142179363 40.67253417620668,100.25731067602464 40.2754997673328,101.40210501405818 39.810011150024366,102.10075670972583 39.940074146026745,102.13442648802447 40.26865434652427,102.83307059262734 40.26865434652427,103.4391174441771 39.74840236242744,103.85998010719777 39.4540492662054,103.82631119086727 39.40613132031285,103.95256954041542 39.59095768304542,104.0704104532706 41.33653999795206,103.23710243247479 41.84310114031541,103.16976396070095 42.253826390893664,103.27918894319009 43.31486662151292,104.03674164204858 44.04048123082612,104.8952910748194 49.46889995908714,108.71654511497763 51.13918264475069,109.229957014104 53.28179936850211,110.38301538804808 55.143753837706754,110.58500898555212 56.49914716457715,110.42509743743722 57.45750608257367,110.55134342799283 58.4364012630831,110.86274919386778 60.722771824512165,112.0662768748225 62.61210797712556,112.5291664159231 64.24131813767599,112.24301689284766 65.6377839896013,112.47025337810192 66.9178776871995,113.41285580575641 68.95096767749055,114.13663086828456 69.48491050317534,114.43960416889604 70.59386867971625,115.5" stroke="#ffff00" stroke-dasharray="none" stroke-linecap="round" stroke-linejoin="round" stroke-width="0.5"><title>2026-06-28 27.3km</title><desc>1782622347000</desc></polyline><polyline fill="none" opacity="1" points="182.22024539878475,94.85750894880766 183.04846625766368,94.54752843593451 184.0092024539772,94.34882224361354 184.13509202454588,94.27728787375236 184.12846625767997,94.0547360247001 184.23447852759273,94.2534430672531 184.90368098160252,94.07063260926225 185.00969325154438,93.943459829934 185.18196319020353,93.9514081355519 185.24822085889173,94.11832234082976 185.32110429450404,93.87987335204525 185.32110429450404,94.14216719421529 185.3012269938481,93.8480800910329 185.2946012270113,93.943459829934 185.40061349698226,93.91961490762333 185.3012269938481,93.97525304682495 185.2946012270113,93.87987335204525 185.5,93.99114964975888 185.37411042946042,94.04678773105115 185.4271165644168,93.96730474399374 185.32110429450404,93.89576997702534 185.35423312883358,93.98320134876121 185.26809815951856,93.95935644023848 185.38073619632632,94.03883943648543 185.3674846625654,93.90371828814386 185.24822085889173,93.92756321599882 185.26809815951856,94.0547360247001 185.37411042946042,94.07063260926225 185.27472392638447,94.07063260926225 185.20184049080126,93.80039017195668 185.35423312883358,93.97525304682495 185.24159509202582,94.09447747918603 185.18858895704034,93.85602840768115 185.2946012270113,93.97525304682495 184.94343558285618,93.98320134876121 184.85067484661704,94.11832234082976 184.04233128836495,94.34087398397969 184.0092024539772,94.51573548376473 183.88331288346671,94.36471876014548 182.19374233129201,94.86545714871318 181.1601226993953,94.72238940995885 179.79521472391207,95.02442095359584 179.52355828223517,95.32645117000357 179.2651533742319,96.36765042619663 179.35128834357602,97.21808391773811 178.70196319019306,97.45652132584655 177.7213496932527,98.11619384528603 177.0455214724061,98.29899354369263 176.31006134970812,98.19567203478073 176.20404907976626,98.44205383815279 175.45533742330736,98.41821047642588 175.51496932515875,98.58511383485893 175.44208588960464,98.69638251533615 175.24993865031865,98.74406903756608 174.86564417177578,98.59306160371489 174.75300613496802,98.75201678804297 174.21631901839282,98.77586003400211 173.8519018405059,99.006344318419 173.91815950919408,99.84084991830605 173.74588957056403,100.08722582506743 173.20257668709382,100.0474878353125 173.0568098159565,101.32703956681507 172.46049079758814,101.38267171052576 172.40085889573675,101.23167007281882 172.65926380368182,101.27935483634792 172.25509202454123,101.35088191962859 172.40085889573675,101.23167007281882 172.26834355830215,101.08861558377248 172.65926380368182,100.945560797074 172.45386503069312,101.35882936873531 172.74539877302595,101.37472426419117 171.6919018405024,101.31114466032886 171.63889570551692,101.64493692453107 171.47325153375277,101.50983072712552 171.4931288343796,101.59725241457636 171.34073619631818,101.58135757061245 171.0160736196267,102.90856438656192 169.78368098160718,105.3801207723227 169.47226993867662,105.74568105533399 168.94883435583324,105.98408888842823 165.51006134971976,106.14302698458778 161.2695705521328,106.16686766732892 160.75938650305034,106.40527404000022 160.6600000000035,108.02641545239749 158.06932515336666,108.12177552168578 157.1483435583068,107.93105525086867 155.53828220858122,107.29531719427905 153.39815950920456,106.95360556011292 152.96085889570531,106.98539276050724 152.31153374235146,106.73109474580997 151.43693251535296,106.30991159012046 151.01950920245145,105.88077892891306 150.74122699387954,105.78541575158306 150.34368098160485,105.41985567983647 150.06539877300384,105.34833282974432 148.80650306749158,104.35495221908059 148.21680981596,104.04501453086414 147.72650306747528,103.94170165765536 147.69999999998254,95.60463572148001 146.81877300611814,94.99262822204037 146.3284662576625,94.80187152377766 144.34736196318408,94.34087398397969 143.9564417178044,93.01350172926323 144.04920245398534,92.27429528815264 143.7576687116525,90.3507315853567 142.03496932517737,87.95812473636033 141.49828220860218,87.02808563572034 141.16036809817888,85.85160788526264 140.5110429447668,82.54464361325518 140.2327607361949,81.67812906057225 139.7490797546052,80.72415544561954 136.3103067484917,75.77122949121258 135.60134969322826,74.96028303266212 133.09680981596466,72.70230323318538 129.23398773008375,67.02522324718302 128.2533742331143,66.13465831081703 125.38441717790556,64.52047992315784 124.43030674845795,63.77301500746398 118.40085889570764,56.934128373388376 117.85754601229564,56.52854509174358 115.8035582822049,55.5980802728518 114.8494478527573,54.778942685210495 111.07938650308643,50.086606948090775 110.19153374232701,48.79019322572276 110.29092024540296,48.67884366580256 111.3377914110315,48.702704300987534 111.76846625766484,48.24935081361764 112.19251533743227,48.16981480528921 112.39128834355506,48.40046897553111 112.59006134970696,49.09242683485354 113.19300613497035,50.1900008530647 114.12061349692522,51.009193209443765 114.35914110430167,51.685218372469535 114.19349693253753,51.90790755637863 113.87546012268285,51.87609486008296 113.47128834357136,51.43866879030247 111.76184049079893,48.95721722688904 111.43717791410745,48.79019322572276 110.31079754600069,48.702704300987534 110.07226993865333,48.575447484094184 109.86687116566463,47.85962349194597 109.85361963193282,46.18933847168955 109.68134969327366,45.53712090277986 108.60134969325736,43.85087113799818 107.10392638036865,41.8782244783215 106.95153374230722,41.89413314597914 106.73950920245261,42.15662562967918 104.83128834355739,46.11775391942501 104.5,45.934815279906616" stroke="#fff500" stroke-dasharray="none" stroke-linecap="round" stroke-linejoin="round" stroke-width="0.5"><title>2024-09-26 32.6km</title><desc>1727327929000</desc></polyline><polyline fill="none" opacity="1" points="95.5,200.17960377803183 95.44471574414274,200.26707405953175 95.39566070020737,200.37241333682186 95.39488204872032,200.41003416919784 95.46963259185213,201.30253623684393 95.4213561994111,201.77178852205225 95.38475957933406,201.88463063537483 95.33492588391528,202.1864754234307 95.30689443023948,202.25229675387118 95.2111202968481,202.38111692523808 94.96973833464654,202.53720280614607 94.96662372868013,202.55694839223497 95.00244169726648,202.62746794266377 95.01178551515841,202.60490175450786 95.01178551515841,202.6161848565839 95.03280910541434,202.61148356599597 95.02424393901674,202.64345228723005 95.01256416665274,202.64063152287463 94.99621248534095,202.66507811407382 94.9884259704304,202.65567558788143 94.98375406148625,202.66789886976449 94.95883721377322,202.671659875798 94.9642877742117,202.68952463018695 94.96195181973599,202.67918188253088 94.95260800184406,202.69704662003596 94.95727991079548,202.68482338291733 94.94637878991853,202.69704662003596 94.94014957798936,202.68012213287102 94.13190933036094,203.3128854235506 93.29174437159963,203.77073774713926 93.2824005537077,203.80834251731312 92.69296137504352,204.2210431990211 92.65480745198147,204.188140740343 92.66726587583616,204.19848152771874 92.66181531540133,204.19096095641316 75.65606675254458,205.92802428799814 74.43358391171569,205.35750468326887 73.90955145829139,205.18455491956456 55.7615211581724,222.2555898468304 55.37375271566998,222.1233382578398 55.10589660277401,221.99577437057496 54.915905638976255,221.93855755461163 54.91434833599487,221.9273017393748 54.549160786726134,221.86914644175022 53.79464749197359,221.71812829166493 53.505767788821686,221.69655403753814 53.222338646108255,221.7134382413692 45.18821256224692,228.44739564013753 44.81835310403403,228.94973085700758 44.08875665699088,230.03770352110632 43.83647357391601,230.44436685821938 43.67996462422889,230.67111488017736 43.45571299482617,230.93439689614343 43.14814565589404,231.20797617035305 42.80943225732335,231.4365763538085 42.44346605656756,231.61270647854553 42.122661642282765,231.71575954572245 41.321429258070566,231.90780945719644 41.12520908234728,231.96870237173562 40.87136869629103,232.06987726949 40.51007440447938,232.2647290338341 39.83264760733073,232.7181157879536 39.61773979582358,232.87923053211807 39.25800280698968,233.18740030638355 38.55721646511665,233.9554315376149 38.1141637667497,234.45929503979323 37.667217810932925,234.89757437962226 36.6612000845962,235.65045997012612 36.589564147427154,235.6420325369395 36.51403495280101,235.68416961445791 36.45641474246804,235.6963425068093 35.62948685905576,236.11582783309905 35.5586295733774,236.0783746767397 35.48465768173628,236.06432969808657 35.3483936708144,236.08399266132574 34.55884105896621,236.29934577520226 34.23570069021298,236.4032749952762 33.74047834195517,236.61674701411494 33.27250879587882,236.8835790616463 32.995308865098195,237.07925026472685 32.684626920192386,237.33389656087502 32.39496856555343,237.6119386317382 32.262597812085005,237.7654661578622 31.52832945609771,238.45911189714343 25.1301501547714,242.93126888636425 23.89910214754127,244.08844054292285 23.35560340684242,244.65994901266868 22.866610270510137,245.20709996542655 22.207871109148982,245.92254897354405 21.990627343166125,246.1348333817864 21.66203641397442,246.3854527070239 20.704295080078737,247.03347325307686 19.76835598792968,247.6795717238515 19.647665006825264,247.77400435393474 19.491934708628833,247.92546824203282 19.375136984985147,248.08066902655946 19.247438140468148,248.28822203160735 19.156335916024545,248.48081148115534 19.080806721398403,248.7061165989403 19.055111222194682,248.87906438824257 19.033308980448055,249.7026189090525 14.9632976371322,249.82039622196726 14.989771787826612,249.79235416063193 14.89010439698177,249.60353507536865 14.837156095592945,249.43247238378854 14.725808932387736,249.52408017816515 14.67831119143375,249.48575459490212 14.601224693829863,249.37918982057408 14.566964028224902,249.35301580090754 14.571635937169049,249.3679723939781 14.605117951283319,249.38479852802038 14.591880875937932,249.38479852802038 14.566964028224902,249.35114622482388 14.607453905755392,249.33805918009102 14.594216830410005,249.34834185988484 14.574750543135451,249.35301580090754 14.601224693829863,249.3333852303963 14.5,249.38105939015577 14.545940437972604,249.38573331221733 14.555284255864535,249.37545068010832 14.54983369542606,249.39882027956583 14.51012246938626,249.3717115379127 14.52491684771303,249.37451589472266 14.552948301388824,249.35114622482388 14.542825832006201,249.33992875921058 14.572414588663378,249.33432002055406 14.54983369542606,249.35114622482388 14.536596620077034,249.34740707135325 14.561513467790064,249.34366791614912 14.55917751331799,249.33245044013393" stroke="red" stroke-dasharray="none" stroke-linecap="round" stroke-linejoin="round" stroke-width="0.5"><title>2024-09-25 160.1km</title><desc>1727226501000</desc></polyline></svg>