<?xml version="1.0" encoding="utf-8" ?>
<svg baseProfile="full" height="300mm" version="1.1" viewBox="0,0,200,300" width="200mm" xmlns="http://www.w3.org/2000/svg" xmlns:ev="http://www.w3.org/2001/xml-events" xmlns:xlink="http://www.w3.org/1999/xlink"><defs /><rect fill="#222222" height="300" width="200" x="0" y="0" /><text fill="#FFFFFF" style="font-size:12px; font-family:Arial; font-weight:bold;" x="10" y="20">Over 10km Workouts</text><text fill="#FFFFFF" style="font-size:9px; font-family:Arial" x="10" y="290">Kin Azem</text><text fill="#FFFFFF" style="font-size:4px; font-family:Arial" x="65" y="280">SPECIAL TRACKS</text><rect fill="yellow" height="2.6" width="2.6" x="65" y="283" /><text fill="#FFFFFF" style="font-size:3px; font-family:Arial" x="70" y="285.5">Over 20.0 km</text><rect fill="red" height="2.6" width="2.6" x="65" y="287" /><text fill="#FFFFFF" style="font-size:3px; font-family:Arial" x="70" y="289.5">Over 40.0 km</text><text fill="#FFFFFF" style="font-size:4px; font-family:Arial" x="120" y="280">STATISTICS</text><text fill="#FFFFFF" style="font-size:3px; font-family:Arial" x="120" y="285">Number: 3</text><text fill="#FFFFFF" style="font-size:3px; font-family:Arial" x="120" y="290">Weekly: 1.5</text><text fill="#FFFFFF" style="font-size:3px; font-family:Arial" x="141" y="285">Total: 220.0 km</text><text fill="#FFFFFF" style="font-size:3px; font-family:Arial" x="141" y="290">Avg: 73.3 km</text><text fill="#FFFFFF" style="font-size:3px; font-family:Arial" x="167" y="285">Min: 27.3 km</text><text fill="#FFFFFF" style="font-size:3px; font-family:Arial" x="167" y="290">Max: 160.1 km</text><polyline fill="none" opacity="1" points="68.91097301017726,60.26143420286098 68.72322474519024,59.94381840443748 67.91942748564179,59.57567063228635 67.55566522217123,59.55401480786168 66.45264416528516,59.85719561051883 65.81899377089576,59.4168610642846 65.17360910994466,59.65507525241628 63.33132925958489,60.00878541449856 62.961699862848036,59.929381281141104 62.556867666426115,59.99434830748578 61.9349515385984,59.763354103717575 61.172224212030414,59.75613551996139 60.655916483287,59.626200857721415 60.403629752167035,59.445735563709604 60.04573462199187,58.810493238699564 59.869720623566536,58.18246270171221 59.94599335620296,56.7747832179557 60.139608754514484,56.168387625879404 60.02226608886849,56.13229244919057 59.7993150241964,56.43549123156481 59.68197235855041,56.39217721735986 59.76411222448223,55.32375457312082 59.646769558865344,55.345411985337705 59.43555276072584,55.85074929600523 59.218468829320045,55.922939979082 58.69042683398584,55.525890104403516 57.03589524864219,54.91226219618693 56.67213298520073,54.84728944733797 56.33183925488265,54.962796505817096 55.41069932971732,54.760659001698514 55.33442659705179,54.56574002342313 55.463503529230366,54.082049343775 55.34029373031808,53.9881984436397 54.994132866704604,54.4213551704961 54.3663496056397,54.73900136996599 54.09646147469175,54.572959256591275 53.6094894123089,54.6451515385088 53.24572714889655,54.34916260853424 52.91130055184476,54.4646706643216 52.80569215276046,54.30584702799024 53.06384601717582,53.80771551429643 53.05797888388042,53.60557396308286 52.77048935307539,53.51172228782525 52.289384424017044,53.83659282092049 51.9080207607185,53.69220614316873 51.74960816212115,53.208508139719925 51.42691583166015,53.07133931110002 51.50318856429658,52.5154412453885 51.40931443180307,52.30607565018727 50.79326543727075,52.45046579715927 50.646587105235085,52.31329516611004 50.646587105235085,52.00285516517761 50.5233773063228,51.90900088255512 49.608104514394654,51.97397694064057 49.31474785035243,51.77904854681765 49.20913945126813,51.51914299710916 49.250209384277696,50.44341035202888 49.42035624940763,49.52649487839153 50.08334231021581,47.97420317578144 50.14201364299515,46.36410764501488 49.94839824474184,45.086107447168615 49.47902758221608,44.26297368220912 49.631573047547136,43.41094565697131 49.61397164769005,42.86217517956902 48.892314254073426,41.46856352467876 48.88057998754084,40.88366984349341 49.015524053014815,40.2337810177014 49.93079684488475,38.182972699236416 48.722167388914386,36.68814743889743 49.396887716284255,36.117648354000266 49.84865697895293,34.5 49.3440835167421,36.18264220554556 48.4992163242423,36.8975697372116 48.3936079251871,36.81091232670224 48.56962192361243,37.11421269366474 48.19412539360928,36.659261544948095 49.17980378487846,37.87967795406439 49.660908713936806,38.05298943236994 49.83105557912495,38.22630038974967 49.69024438035558,38.25518549865592 49.83105557912495,38.22630038974967 48.54028625719366,37.041998465294455 49.197405184735544,37.87245663115755 49.69611151362187,38.04576813118183 49.7782513795828,37.98799768905519 49.67851011379389,37.88689927607629 48.12958692753455,43.56979929429144 47.46660086669726,44.53013241992812 47.48420226655435,51.13650214014706 48.3877407918917,51.22313802815552 49.14460098519339,51.60577831046612 48.751503055362264,52.4576852950122 48.18825826031389,53.10021698633864 48.32906945908326,53.9881984436397 47.9594400623464,55.22990569288231 47.40206240059342,56.04566393299683 47.9653071956418,60.016003966669814 46.34011127668782,62.932225169130106 46.275572810613085,63.9499805516316 46.00568467966514,64.54907639162775 45.43657275135047,65.14094810245297 45.196020286821295,65.71116022948627 45.043474821490236,65.83386336837793 43.96978943099384,66.54842352346168 43.412411769269966,66.43293965328485 43.195327837835066,66.83713218795674 43.15425790488371,67.3495865107725 43.32440477004275,68.0641279010888 43.27746770379599,68.77144298961866 43.41827890256536,69.48596677856403 44.03432789709768,70.37369613492774 44.104733496467816,70.69847175672476 42.55581031017937,74.60285343103169 42.64381730943569,76.71731590511263 42.837432707689004,77.39565947302617 42.74942570849089,78.11007652892295 41.72854451747844,79.17086130483585 41.511460586072644,80.62129058051141 40.59032066093641,81.71810842768537 40.19722273107618,81.8912882886616 39.944935999956215,81.82634590166344 39.6457122026186,82.02838864359 39.23501287295949,82.85098393784938 39.04139747461886,83.02416040147 38.91818767573568,83.60141152956567 38.026383416960016,84.69817277685434 37.16978195786942,86.3071992820187 36.78255116130458,86.79783521702848 36.63000569597352,87.54821152644945 35.99635530158412,88.30579310303801 35.95528536863276,89.2798119581712 34.529571981256595,90.85985205678298 34.18927825090941,91.84104241970999 33.790313187782886,92.43984893722518 33.90178872013348,92.46870692585071 34.18341111767222,93.06750693715003 34.18341111767222,93.58694288338302 33.737508988240734,93.94765954256945 33.48522225714987,93.91880229272283 33.44415232419851,94.02701690534013 33.60256492276676,94.12801702755678 35.09868390954216,93.41379808692 35.532851772382855,93.35608303945264 35.884879769262625,93.44986996232183 36.79428542786627,94.09915986779379 37.41620155569399,94.83501293899099 42.068838247825624,98.1101668368683 43.50041876852629,98.55020640633302 45.336831485590665,99.53847978157137 46.932691738096764,99.7116062241621 48.094384127820376,99.574547833221 48.91578278722591,99.68275185308448 49.75478284645942,99.9496542357083 51.71440536240698,100.9811842868512 53.33373414809466,101.37792171098044 54.73011186905205,101.13266617025147 55.92700705846073,101.32742800827327 57.024160982109606,102.13532195687003 58.76669956668047,102.7556614298046 59.22433596258634,103.01533644121082 60.17481155419955,103.92418979224021 60.667650749819586,104.88351948971103 61.5066508090822,106.01594081897565 61.993622871435946,106.3044522605669 63.871105521480786,106.22511175770342 64.96239231180516,105.87889737967998 65.81312663762947,105.8284076095988 73.40519710371154,107.24931714969352 73.57534396887058,108.38890463380085 73.94497336560744,109.5284696495255 73.86870063297101,109.67992913097987 73.4580013032537,109.82417588720637 73.69268663451658,110.86995410447707 74.3087356290489,111.45413921679574 74.85437902424019,112.78115506498216 75.20053988782456,112.65855161711806 75.2709454872238,112.75951918130522 75.64644201722695,113.71870224563463 75.54670075143804,114.54084649094875 75.64644201722695,115.31249755786484 75.85765881536645,115.4711535100214 76.55584767583059,115.5" stroke="#ffff00" stroke-dasharray="none" stroke-linecap="round" stroke-linejoin="round" stroke-width="0.5"><title>2026-06-28 27.3km</title><desc>1782622347000</desc></polyline><polyline fill="none" opacity="1" points="174.85239308216842,96.6396450071079 174.91754926933208,96.56800444139299 174.89583054027753,96.69825994767598 174.90126022254117,96.60056834619536 174.8089556240884,96.60708112488646 174.8795414934866,96.49636378454306 174.84696339990478,96.62010668004223 174.8089556240884,96.50287657530498 174.8904008580139,96.60056834619536 174.8361040353775,96.6396450071079 175.11301783082308,96.62661945647051 175.11301783082308,96.53544051775316 175.12387719535036,96.69825994767598 175.30848639228498,96.62010668004223 175.78086874916335,96.64615778129519 175.7482906555815,96.72431101277834 175.68313446844695,96.68523441058278 175.78629843142699,96.7047727150748 175.80801716045244,96.54846608946536 175.65055637486512,96.6526705547185 175.79172811369062,96.60056834619536 175.85145461859065,95.81251656579116 176.01977476873435,95.74087494822379 176.0686419091071,95.42825591433939 175.93832953477977,94.7183437485728 176.264110470569,94.52295350905842 176.70934441612917,94.48387537983217 176.77450060329284,94.36664082948482 177.12200026813662,94.4969014259259 177.5672342136968,94.34710171401821 177.64324976538774,94.40571904004537 177.59981230727863,94.4708493307262 177.62696071859682,94.40571904004537 177.70297627028776,94.48387537983217 177.55637484919862,94.4969014259259 177.88215578495874,94.44479722348478 177.3717656522058,94.54249256351977 177.56180453143315,94.49038840324647 177.32289851186215,94.23637993181546 177.87129642043146,94.2428929838461 177.98531974796788,94.02796186899286 178.64231130178086,94.10611873292146 179.4187558653939,93.8260561352763 179.9237163158541,93.39618990449162 180.47211422442342,93.23987409811889 180.3418018501252,92.6536859607404 180.5807078696962,91.73531228001957 180.79789516021265,91.46175126786693 182.0684408097586,91.18167552176237 182.81230727978982,91.31845687409077 183.49101756268647,91.0644340982617 184.27832149079768,90.9015983829413 184.38148545380682,90.84297741018963 184.37605577154318,90.66060066030695 184.4629306877614,90.82343707237669 185.0113285963307,90.67362759061507 185.09820351251983,90.56941206391275 185.23937525137444,90.57592553999712 185.29367207401083,90.71270836339681 185.35339857891086,90.5173042282695 185.35339857891086,90.73224873963409 185.33710953209084,90.49125029236166 185.3316798498272,90.56941206391275 185.41855476607452,90.5498716311995 185.33710953209084,90.59546596366636 185.3316798498272,90.5173042282695 185.5,90.60849290902115 185.39683603701997,90.65408719403786 185.44027349509997,90.58895248987028 185.35339857891086,90.5303311916905 185.38054699019995,90.60197943673484 185.30996112080174,90.58243901531387 185.4022657192545,90.6475737270157 185.39140635472722,90.53684467228231 185.29367207401083,90.55638510953577 185.30996112080174,90.66060066030695 185.39683603701997,90.67362759061507 185.31539080303628,90.67362759061507 185.25566429816536,90.45216936591532 185.38054699019995,90.59546596366636 185.2882423917472,90.69316798040018 185.24480493363808,90.49776377747548 185.3316798498272,90.59546596366636 185.04390668991255,90.60197943673484 184.9678911382216,90.71270836339681 184.30546990214498,90.89508494454276 184.27832149079768,91.03838041544441 184.17515752781765,90.91462525749375 182.79058855073527,91.32497026354395 181.94355811769492,91.2077291383066 180.82504357150174,91.45523789423896 180.60242659875075,91.70274556252843 180.39066899046884,92.55598734474188 180.46125485989614,93.25290043188579 179.92914599811775,93.44829507689064 179.1255530231865,93.98888339637779 178.57172543235356,94.13868406087931 177.96903070117696,94.05401416903987 177.88215578495874,94.25591908566639 177.26860168922576,94.23637993181546 177.3174688295985,94.3731538664506 177.2577423247276,94.46433630503816 177.10028153908206,94.50341444783407 176.7853599678201,94.37966690266694 176.69305536933825,94.50992746898555 176.25325110604172,94.5294665279689 175.95461858157068,94.7183437485728 176.00891540417797,95.40220424988729 175.86774366535246,95.60410433436118 175.4225097197923,95.57153985354671 175.30305671002134,96.62010668004223 174.81438530635205,96.66569609932776 174.7655181659793,96.54195330397852 174.9772757742321,96.58103000555639 174.64606515617925,96.6396450071079 174.7655181659793,96.54195330397852 174.65692452070653,96.4247230366127 174.9772757742321,96.30749252532405 174.8089556240884,96.64615778129519 175.04786164365942,96.65918332741057 174.18454216382816,96.60708112488646 174.14110470571904,96.88061715048389 174.00536264915718,96.7699003477428 174.0216516959481,96.84154065670737 173.8967690038844,96.82851515278526 173.6307145729952,97.91613435944964 172.6207936720748,99.94152494906666 172.36559860571288,100.24109422509719 171.9366537069145,100.43646463397454 169.1186486124352,100.56671119688326 165.6436519640556,100.58624815536314 165.22556642981363,100.78161736744369 165.14412119585904,102.11011004519241 163.0211154310091,102.1882556978926 162.2663895964506,102.03196428411684 160.9469768065319,101.51098977400761 159.19318943558028,101.23096398450798 158.83483040620922,101.25701295386898 158.30272154445993,101.048620861784 157.5860034857178,100.70346976389192 157.24393350313767,100.351804206628 157.01588684812305,100.27365600694975 156.69010591233382,99.974086904047 156.462059257261,99.915475371512 155.43041962728603,99.1014200044774 154.94717790588038,98.84743232258916 154.5453814184002,98.76276950753527 154.52366268934566,91.93071218954356 153.801514948369,91.42918439221103 153.39971846088883,91.27286312687647 151.77624346426455,90.89508494454276 151.45589221073897,89.80733016414888 151.5319077624299,89.20156540059907 151.2930017428589,87.62524375784415 149.88128435448743,85.66455072064491 149.4414800911618,84.90240244304005 149.16456629574532,83.93830266428995 148.63245743393782,81.228312167892 148.4044107789232,80.51822097560216 148.00804397370666,79.73645884644066 145.19003887919826,75.67763596183067 144.6090628770471,75.01308170149059 142.55664298162446,73.16271281500303 139.39113822227228,68.51046031272926 138.58754524731194,67.78066031627895 136.23649282744736,66.4578736968142 135.45461858154158,65.84534127998268 130.51360772221233,60.24101167134722 130.06837377665215,59.90864435547701 128.38517227509874,59.14614721035832 127.60329802922206,58.47488048499872 124.51380882156081,54.629606025533576 123.78623139829142,53.567221137749584 123.867676632246,53.47597242008851 124.72556642981363,53.495525729191286 125.07849577689194,53.124011693591456 125.42599544173572,53.05883353955505 125.58888590961578,53.24784997817187 125.75177637752495,53.81489548227182 126.24587746345787,54.714335244483664 127.00603298028,55.385646851718775 127.20150154174189,55.93963583268123 127.06575948518002,56.12212512570113 126.80513473652536,56.09605526296946 126.4739241185016,55.73759342471749 125.0730660946283,53.70409393666705 124.8070116637391,53.567221137749584 123.88396567900782,53.495525729191286 123.68849711757503,53.39124133540463 123.52017696740222,52.80463801699443 123.50931760290405,51.43587314417891 123.36814586404944,50.90139400622866 122.48310765516362,49.51954634740105 121.25599946369766,47.90300221182042 121.13111677166307,47.916039043979254 120.95736693925573,48.13114633806617 119.39361844750238,51.37721104796219 119.12213433434954,51.22729652401904 116.15752781872288,48.248477242501394 115.45166912450804,48.93290263867311 115.16932564685703,49.25881656582351 115.21819278720068,49.297926110124536 115.09873977742973,49.21970699430676 114.87612280464964,49.402218095307035 114.37659203645308,49.480436957233906 105.3416007507476,48.587431813361036 105.09183536664932,48.93290263867311 105.16785091834026,48.88075623502664 105.95515484648058,49.36962687070627 107.43745810427936,50.73192395051228 106.95964606513735,50.327800987251976 105.92800643516239,50.692815403581335 105.15699155381299,51.14256205111087 105.20585869415663,51.18167028523749 105.23300710550393,51.11648987990702 105.03753854401293,51.07738160042936 105.31988202169305,51.01871913022842 105.3687491620658,50.92094821055798 105.05925727309659,50.58852581212341 104.66289046785096,49.66294721191662 104.63031237426912,49.38266336280867 104.5,49.27837134137371 105.11355409570388,48.90682944290893 105.14613218928571,48.75039001430923 105.72710819143686,48.20936696823628 105.8031237430987,47.90300221182042 105.62937391069136,48.11810955577312 105.61851454616408,48.3397344433688 105.52620994768222,48.26803236944761 105.58593645261135,48.19633020409674 105.64566295748227,48.25499561891411 110.3857755731151,47.8117443021074" stroke="#fff500" stroke-dasharray="none" stroke-linecap="round" stroke-linejoin="round" stroke-width="0.5"><title>2024-09-26 32.6km</title><desc>1727327929000</desc></polyline><polyline fill="none" opacity="1" points="95.5,199.769215901209 95.42751978745582,199.79810911152526 95.35279791885841,199.80623530720368 94.98740798140352,199.74664300448467 94.85515027397923,199.75476925500152 94.76324237560038,199.79810911152526 94.5824154535876,199.95701981166076 94.50694636630215,200.0048729533787 94.46958543200162,200.09786970970254 94.05861515470315,200.52401510004256 93.98912381690388,200.65943767548106 93.92262135384954,200.88603940800385 93.86433829634188,201.03138597998395 93.70219184147572,201.2543657108772 93.44066530137934,201.5134473347821 92.4251951071019,202.42783585540246 92.258565340122,202.61647691237067 92.20551281341977,202.70041617090146 92.15843803619646,202.80150308497514 92.15769081751205,202.83760522984994 92.22942381137182,203.69407854297106 92.18309625283655,204.14438793044565 92.1479769745929,204.25267480412458 92.10015497869244,204.54233464363188 92.07325510599549,204.60549888156538 91.981347207613,204.72911880690435 91.74970941495485,204.8789037725628 91.74672054020994,204.89785226372078 91.78109259976554,204.96552506268108 91.79005922400029,204.94386983225104 91.79005922400029,204.9546974551413 91.81023412851937,204.95018594746898 91.80201472297631,204.9808641470877 91.79080644268834,204.9781572520783 91.77511485027935,205.00161697695467 91.7676426634207,204.9925940143744 91.76315935130697,205.00432386364946 91.73924835335129,205.00793304441777 91.74447888415307,205.02507662977632 91.7422372280962,205.01515140083575 91.73327060386146,205.03229496999165 91.73775391598247,205.0205651636743 91.72729285437526,205.03229496999165 91.72131510488543,205.016053694907 90.94570210881648,205.62327343325296 90.13945314662124,206.0626430557104 90.13048652238649,206.09872978678686 89.56484197708778,206.49477046053198 89.52822826147167,206.4631962168237 89.54018376044405,206.47311956461817 89.53495322964591,206.46590258568176 73.21569712736164,208.13284369499206 72.04256379033541,207.58535497336743 71.53968561465808,207.41938689049903 54.12425970000186,223.80129386033195 53.75214479437636,223.67438103772474 53.495101566390076,223.55196668248527 53.312780207004835,223.4970596097619 53.311285769636015,223.48625817218772 52.96084020589478,223.43045050267392 52.236785299162875,223.2855286923682 51.95956716665751,223.26482535331706 51.68757956495028,223.28102797123665 43.97777716278142,229.7431472343901 43.62284828693009,230.22520405317664 42.92270437814659,231.26925715510788 42.68060552388124,231.65950420134823 42.53041456799474,231.8770988004535 42.31521558642271,232.1297525798377 42.02006420545513,232.39228793507982 41.69502407704567,232.61165992714814 41.34383129462731,232.7806799854111 41.03597719599202,232.87957297969297 40.26708916809366,233.0638701706216 40.07879005922587,233.12230494422238 39.83519676758442,233.21939558751092 39.48848729728343,233.4063815253876 38.83840704046088,233.84146584563996 38.632174683123594,233.99607666810107 38.28695965018778,234.2918061651376 37.61446283278565,235.0288333127928 37.189295400450646,235.51235672267057 36.76039187468632,235.93294348864356 35.79498533237347,236.65543639871748 35.72624121325862,236.64734916633506 35.65376100071808,236.6877852433995 35.5984668179517,236.699466737281 34.804920573416894,237.10201817131974 34.736923672993726,237.06607693367232 34.665937897822005,237.05259892635422 34.535174627770175,237.07146813000236 33.77749488016707,237.27812781362582 33.46739912547491,237.3778615920378 32.99216804117896,237.58271611715418 32.54308961089191,237.838776619511 32.277079758678155,238.02654891680913 31.978939502958383,238.27091558534948 31.700974151768605,238.53773358191393 31.5739469751461,238.6850634691168 30.869319754245225,239.3507079376186 24.72942381136454,243.64233173570938 23.548071068795252,244.75279038725876 23.026512425967667,245.30122805514065 22.557259091157903,245.82629147658645 21.925112082801206,246.51285905392297 21.716638069407054,246.71657391021608 21.401311783913116,246.95707616964955 20.48223280012826,247.5789372545346 19.584075939557806,248.19895385497375 19.468257043223275,248.289574404198 19.318813306024822,248.43492395884914 19.206730503123254,248.5838595579271 19.08418663862176,248.78303400953337 18.996762052360282,248.96784895832343 18.924281839816103,249.18405890078475 18.899623623176012,249.35002508895468 18.878701499968884,250.14033414765936 14.972989428239089,250.25335699551533 14.99839486356359,250.22644694337168 14.902750871755416,250.04525015582612 14.851940001102776,249.88109296726543 14.745087729006627,249.96900271448249 14.699507389159407,249.93222426828697 14.62553273924641,249.8299613283566 14.592655117059621,249.8048439082927 14.597138429176994,249.81919672974163 14.629268832675734,249.83534362204955 14.616566115011665,249.83534362204955 14.592655117059621,249.80304980374012 14.631510488732602,249.79049106021694 14.61880777107217,249.80035864613092 14.600127303921909,249.8048439082927 14.62553273924641,249.7860057897342 14.52839431006214,249.83175542667004 14.57248021254054,249.8362406706351 14.581446836775285,249.82637313048144 14.576216305969865,249.8487993398985 14.538108152984933,249.822784930946 14.552305308017822,249.82547608075402 14.57920518071478,249.80304980374012 14.569491337795625,249.79228516768308 14.597885647865041,249.78690284404047 14.576216305969865,249.80304980374012 14.563513588309434,249.79946159338488 14.587424586261477,249.79587338136616 14.58518293020461,249.78510873532696 14.598632866549451,249.79138811400298 14.568744119107578,249.7860057897342 14.582194055456057,249.75909411223665 14.596391210492584,249.7707558506445 14.582941274144105,249.78331462619963 14.594149554435717,249.8093291678556 14.595643991808174,249.78331462619963 14.600127303921909,249.79407927473494 14.605357834720053,249.7860057897342 14.597138429176994,249.77613818552163 14.629268832675734,249.7635793983177 14.637488238218793,249.77882935155503 14.549316433272907,249.80215275130558 14.550063651957316,249.78869695233834 14.550810870645364,249.81560852687562 14.534372059555608,249.83893181576423 14.54109702772621,249.85149048066023 14.535866496924427,249.84341705556608 14.521669341891538,249.86135798877876 14.517186029777804,249.85238752737405 14.54109702772621,249.84341705556608 14.508219405543059,249.85149048066023 14.50747218685865,249.8640491251722 14.5,249.85238752737405 14.515691592401708,249.84969638692246 14.514944373717299,249.866740260632 14.508966624227469,249.854181620487 14.57248021254054,249.78959400632948 14.562019150933338,249.78869695233834 14.538108152984933,249.83444657336122 14.519427685834671,249.84162295995748 14.523910997948406,249.82637313048144 14.519427685834671,249.83713771911425 14.510461061603564,249.82547608075402 14.583688492828514,249.78779989824034 14.578457962026732,249.7976674875831 14.57920518071478,249.78779989824034 14.569491337795625,249.79228516768308 14.547821995904087,249.7671676253135 14.568744119107578,249.83534362204955 14.590413461002754,249.85059343384182 14.580699618087237,249.85687275937426 14.601621741294366,249.83444657336122 14.617313333699713,249.83982886393187 14.749571041120362,250.0003988107328 14.845215032932174,249.9026219773 14.863895500082435,249.90082789541793 14.917695245472714,250.0703667955213 15.002130956989276,250.23272596391098 14.97896717772528,250.25066599451065 15.006614269106649,250.2300349557304 18.352659545023926,249.8362406706351 18.193501964906318,249.67387318262126" stroke="red" stroke-dasharray="none" stroke-linecap="round" stroke-linejoin="round" stroke-width="0.5"><title>2024-09-25 160.1km</title><desc>1727226501000</desc></polyline></svg>