<?xml version="1.0" encoding="utf-8" ?>
<svg baseProfile="full" height="300mm" version="1.1" viewBox="0,0,200,300" width="200mm" xmlns="http://www.w3.org/2000/svg" xmlns:ev="http://www.w3.org/2001/xml-events" xmlns:xlink="http://www.w3.org/1999/xlink"><defs /><rect fill="#222222" height="300" width="200" x="0" y="0" /><text fill="#FFFFFF" style="font-size:12px; font-family:Arial; font-weight:bold;" x="10" y="20">Over 10km Workouts</text><text fill="#FFFFFF" style="font-size:9px; font-family:Arial" x="10" y="290">Kin Azem</text><text fill="#FFFFFF" style="font-size:4px; font-family:Arial" x="65" y="280">SPECIAL TRACKS</text><rect fill="yellow" height="2.6" width="2.6" x="65" y="283" /><text fill="#FFFFFF" style="font-size:3px; font-family:Arial" x="70" y="285.5">Over 20.0 km</text><rect fill="red" height="2.6" width="2.6" x="65" y="287" /><text fill="#FFFFFF" style="font-size:3px; font-family:Arial" x="70" y="289.5">Over 40.0 km</text><text fill="#FFFFFF" style="font-size:4px; font-family:Arial" x="120" y="280">STATISTICS</text><text fill="#FFFFFF" style="font-size:3px; font-family:Arial" x="120" y="285">Number: 3</text><text fill="#FFFFFF" style="font-size:3px; font-family:Arial" x="120" y="290">Weekly: 1.5</text><text fill="#FFFFFF" style="font-size:3px; font-family:Arial" x="141" y="285">Total: 220.0 km</text><text fill="#FFFFFF" style="font-size:3px; font-family:Arial" x="141" y="290">Avg: 73.3 km</text><text fill="#FFFFFF" style="font-size:3px; font-family:Arial" x="167" y="285">Min: 27.3 km</text><text fill="#FFFFFF" style="font-size:3px; font-family:Arial" x="167" y="290">Max: 160.1 km</text><polyline fill="none" opacity="1" points="67.15818522922928,58.585006410190545 66.91330071454286,58.66644210318191 66.31763567883172,58.218544530864165 64.45121856688638,57.526333128909755 64.04087154226727,57.45303972590773 63.65699851923273,57.58333905196196 62.61789395692176,57.35531506015832 62.531853451771894,57.13543402571668 62.677460460487055,56.589800101668516 62.538471952138934,56.48393030290754 62.14798042870825,56.97255870644585 61.439800886262674,57.33088387079624 61.13534986798186,57.14357778098929 60.58601433504373,57.22501527757413 60.175667310424615,56.89112089396076 59.79841278781532,57.02142134503811 59.679279780655634,56.84225815755053 59.97049379814416,56.280334052025864 59.963875297718914,56.052305494842585 59.63956877824967,55.9464348216934 59.09685174570768,56.31290949495451 58.66664921992924,56.15003211716248 58.48794970920426,55.60438993139542 58.123932187387254,55.44965474759374 58.20997269250802,54.822566288523376 58.10407668616972,54.586388549156254 57.409134144487325,54.74926984044578 57.243671634583734,54.5945326233923 57.243671634583734,54.244336510426365 57.10468312620651,54.13846289600042 56.07219706426258,54.21176003203436 55.7412720444554,53.99186837625166 55.62213903729571,53.69867834605975 55.66846854009782,52.48518333971151 55.860405051585985,51.45084422804939 56.60829559646663,49.69976022207993 56.674480600398965,47.88346981268842 56.456070087326225,46.44180411137495 55.92659005554742,45.513256746096886 56.09867106587626,44.552114813093795 56.07881556468783,43.93306672805193 55.264740015845746,42.36098393244902 55.25150301508256,41.70118657052808 55.403728524193866,40.96807054175588 56.436214586137794,38.654628010466695 55.072803504328476,36.96836981510569 55.83393105000141,36.32481047551846 56.34355558056268,34.5 55.774364546407014,36.398127683700295 54.821300489245914,37.20461151920608 54.70216748211533,37.10685643535544 54.90072249402874,37.4489985860273 54.47713846861734,36.93578468513442 55.58904653531499,38.31249220154132 56.13176356785698,38.507998598433915 56.32370007937425,38.70350440769835 56.1648560698668,38.736088652090984 56.32370007937425,38.70350440769835 54.86762999201892,37.36753633245098 55.60890203650342,38.30434608890937 56.17147457023384,38.49985251030739 56.264133575808955,38.43468376846431 56.15161906904541,38.32063831315463 54.40433496425976,44.73131184360682 53.65644441937911,45.81462883479253 53.67629992059665,53.26703506436752 54.695548981719185,53.364765869460825 55.54933553293813,53.79640850290889 55.1058960063674,54.75741389430186 54.4705199682212,55.482230606343364 54.62936397775775,56.48393030290754 54.21239845274249,57.88465524435742 53.58364091502153,58.80488254738884 54.21901695316774,63.28367923203041 52.385692343174014,66.57336267035862 52.312888838816434,67.72145562820515 52.00843782056472,68.39727393072098 51.36644328205148,69.0649429549594 51.09508476575138,69.708178587789 50.92300375542254,69.84659555132384 49.711818182782736,70.65266496261756 49.08306064509088,70.52239179444587 48.83817613037536,70.97834674260957 48.79184662757325,71.5564278899692 48.98378313911962,72.36247613340674 48.930835135950474,73.16037264771876 49.08967914545792,73.96640103568643 49.784621687140316,74.96781634632498 49.86404369189404,75.33418395358603 48.11675958710839,79.73857540373137 48.21603709307965,82.12382388079277 48.43444760615239,82.88903867278714 48.335170100210235,83.69494665907405 47.18355103110662,84.89157951600646 46.9386665164202,86.5277562102201 45.899561954138335,87.76503666880308 45.4561224275094,87.96039459296298 45.17152691044612,87.88713544006896 44.833983390184585,88.11505253407086 44.370688362425426,89.04299247007293 44.15227784929448,89.23834656179679 44.01328934097546,89.88952263659303 43.00727728064521,91.12673924689443 42.04097622266272,92.94182372724026 41.604155196488136,93.49529234213696 41.432074186130194,94.34176465895871 40.71727614325937,95.19636497650936 40.67094664048636,96.295120343093 39.06265104401973,98.07750630884402 38.67877802098519,99.18435159343062 38.228719993989216,99.85984352174273 38.354471501515945,99.89239717274177 38.67215952061815,100.56788176162081 38.67215952061815,101.15383862530143 38.16915349042392,101.56075001414138 37.88455797333154,101.52819719653053 37.83822847058764,101.6502701787249 38.016927981283516,101.76420475578925 39.704645582532976,100.95852025615022 40.19441461190581,100.89341400301782 40.59152463573264,100.99921163134422 41.61739219725132,101.73165203980898 42.31895323932986,102.5617412179854 47.567424054141156,106.25632362028409 49.182338151033036,106.75271630909992 51.25392877528793,107.86755168314266 53.05416088324273,108.06284934795985 54.3646239618829,107.90823874490889 55.291214017459424,108.03029977779079 56.237659574253485,108.33138268159382 58.44823870679829,109.49501434386912 60.27494481636677,109.9425594520435 61.850147910852684,109.66589556598046 63.20032199184061,109.88559933619399 64.4379815660941,110.79695521701069 66.40367618401069,111.49673769185029 66.919919214939,111.78966766014491 67.99211627925979,112.81491218350857 68.54807031262317,113.8970972437528 69.49451586938812,115.17454070001259 70.04385140235536,115.5 72.16177152941236,115.4104988544641" stroke="#ffff00" stroke-dasharray="none" stroke-linecap="round" stroke-linejoin="round" stroke-width="0.5"><title>2026-06-28 27.3km</title><desc>1782622347000</desc></polyline><polyline fill="none" opacity="1" points="179.7739140392514,95.72079922491685 179.62550576380454,95.0532097422547 179.89758760211407,94.00730558399664 180.14493472783943,93.69575636807713 181.59191541338805,93.37678774601955 182.4390793190396,93.53256331774173 183.2120390869677,93.24326552631828 184.1086724177294,93.05781753783958 184.2261623024824,92.99105613074062 184.21997862434364,92.78335353094735 184.31891747462214,92.96880231293471 184.9434689671034,92.79818945325678 185.0424078173819,92.67950197884784 185.2031834491063,92.68691995244444 185.26502023055218,92.84269719952135 185.33304069013684,92.62015815930499 185.33304069013684,92.86495106109214 185.31448965569143,92.59048622893897 185.30830597755266,92.67950197884784 185.40724482788937,92.65724805295758 185.31448965569143,92.70917386803922 185.30830597755266,92.62015815930499 185.5,92.72400980748353 185.3825101152761,92.77593556851934 185.43197954041534,92.70175589704013 185.33304069013684,92.63499411932571 185.3639590808598,92.71659183820157 185.2835712649976,92.6943379251752 185.38869379341486,92.76851760524005 185.37632643713732,92.64241209805914 185.26502023055218,92.6646660291226 185.2835712649976,92.78335353094735 185.3825101152761,92.79818945325678 185.28975494313636,92.79818945325678 185.2217344835517,92.54597830767307 185.3639590808598,92.70917386803922 185.2588365524134,92.8204433302526 185.20936712724506,92.59790421282378 185.30830597755266,92.70917386803922 184.9805710359651,92.71659183820157 184.89399954193505,92.84269719952135 184.13959080848144,93.05039960715658 184.1086724177294,93.21359388418932 183.9911825330346,93.07265339665173 182.41434460645542,93.53998119268363 181.44969081610907,93.406459312675 180.17585311856237,93.68833851115778 179.92232231469825,93.97021647096699 179.68115886708256,94.94194415301172 179.76154668297386,95.73563446784829 179.1555462249089,95.958162700088 178.2403618596727,96.57382012050948 177.60962668908178,96.74442293851462 176.92323841515463,96.647995314539 176.82429956484702,96.87793787093688 176.12554393464234,96.85568540149688 176.18119703794946,97.01145252546848 176.1131765783939,97.11529706465808 175.9338499122241,97.15980181573104 175.5751965798845,97.01886999812268 175.47007405143813,97.16721927122126 174.96919612184865,97.18947163261328 174.62909382395446,97.40457739465637 174.69093060537125,98.18340256899683 174.53015497367596,98.41333962221688 174.0230933658895,98.37625305646361 173.8870524467493,99.57042970488692 173.3305214138818,99.62234992450976 173.27486831057467,99.48142351631395 173.51603175816126,99.52592662602547 173.13882739140536,99.59268123272341 173.27486831057467,99.48142351631395 173.151194747712,99.34791400195536 173.51603175816126,99.2144042098007 173.32433773571393,99.60009840696148 173.59641957402346,99.61493275286193 172.6132147492317,99.55559534869099 172.56374532406335,99.86711610828206 172.40915337050683,99.74102455447428 172.42770440492313,99.82261323522107 172.28547980761505,99.80777893737104 171.98247957858257,101.04643099669192 170.83231544392765,103.35307858932356 170.54168257120182,103.69424772130878 170.05317199786077,103.91674835186132 166.84384304148261,104.06508167696302 162.8862890297023,104.0873316461657 162.4101458126388,104.30983091372764 162.31739064049907,105.82280547412665 159.89957248643623,105.91180286682356 159.04004122453625,105.7338079580004 157.5374074356805,105.14048802962498 155.54007939537405,104.82157630141592 155.1319566378952,104.85124257555435 154.52595617988845,104.61391199843638 153.70971066495986,104.22083129927341 153.32013894192642,103.82033150667121 153.06042445989442,103.73133121330466 152.6894037713064,103.3901622784906 152.4296892892453,103.32341162253579 151.2547904420062,102.3963119992477 150.70444308727747,102.10705417511053 150.24685090463026,102.01063461064041 150.2221161920752,94.22983981182188 149.39968699900783,93.65866707492387 148.94209481638973,93.48063816918875 147.09317505153012,93.05039960715658 146.72833804108086,91.81159314758406 146.81490953508182,91.12170851955307 146.5428276967723,89.326490085572 144.93507137952838,87.09352430735453 144.4341934498807,86.22553988065192 144.11882586457068,85.12755984406249 143.51282540650573,82.04124499367026 143.25311092450283,81.23254658870428 142.8017024200235,80.34222462193429 139.59237346364534,75.71977101534867 138.93071990227327,74.9629330539974 136.59328956410172,72.85561165170657 132.98820520652225,67.55732148994139 132.07302084128605,66.7261774066501 129.3954882051912,65.21970127952954 128.5050385525392,64.52210920423386 122.87789144209819,58.13953121342638 122.37082983434084,57.76100952336128 120.45388960989658,56.892627783468924 119.56343995724455,56.12814522686676 116.04492709369515,51.74889456755773 115.21631422245991,50.53898100499646 115.30906939462875,50.43506098285434 116.28609054125263,50.457329573218885 116.68802962056361,50.034225032177346 117.08378502176492,49.95999587713595 117.26929536604439,50.175260189775145 117.45480571038206,50.821048786630854 118.01752042141743,51.84538975713804 118.88323536148528,52.609923428157344 119.10584777462645,53.24084240044613 118.95125582106994,53.44867317174794 118.65443927017623,53.4189831028707 118.27723490342032,53.01074325990339 116.68184594242484,50.69486072209838 116.37884571339237,50.53898100499646 115.32762042901595,50.457329573218885 115.10500801587477,50.3385636684543 114.91331399345654,49.67050135041063 114.900946637179,48.11166217393475 114.74017100542551,47.50296228998195 113.73223146804958,45.92922357905627 112.3347202076402,44.088197133176436 112.19249561033212,44.103044332361605 111.99461790977512,44.348022621787095 110.21371860447107,48.04485393274081 109.90453469729982,47.87412144414702 106.5282464310294,44.481646748237836 105.72436827237834,45.261115261870145 105.40281700892956,45.632287409760465 105.45847011220758,45.6768279229218 105.32242919306736,45.587746865610825 105.06889838920324,45.79560247326299 104.5,45.884683241434686" stroke="#fff500" stroke-dasharray="none" stroke-linecap="round" stroke-linejoin="round" stroke-width="0.5"><title>2024-09-26 32.6km</title><desc>1727327929000</desc></polyline><polyline fill="none" opacity="1" points="95.5,199.99430320578676 94.45803911175244,200.93254549051426 94.28706245385547,201.12610764958708 94.23262593946129,201.21223664172385 94.18432311682409,201.3159606223703 94.18355640535447,201.35300456827235 94.2571607065147,202.23182080446668 94.20962459534712,202.69387746748316 94.17358915623845,202.80498923395362 94.12451962213527,203.1022054647833 94.09691800919973,203.1670174758433 94.00261249834512,203.29386228915018 93.76493194252544,203.44755471335293 93.7618650966433,203.4669975160955 93.79713382428235,203.53643570356007 93.80633436192511,203.51421555051047 93.80633436192511,203.52532563491013 93.82703557162677,203.52069643499044 93.81860174545363,203.5521749405193 93.80710107339837,203.54939743041223 93.79100013251809,203.5734691519733 93.78333301781458,203.56421080627524 93.77873274899684,203.57624665354842 93.75419798194343,203.57994998745335 93.75956496223444,203.59754079959976 93.75726482782193,203.58735665000995 93.74806429017553,203.6049474455308 93.75266455900419,203.59291164233537 93.74193059841491,203.6049474455308 93.73579690665065,203.58828248233522 92.9399504003959,204.21134283555466 92.11266872385386,204.66217434657892 92.10346818620746,204.69920247658 91.5230676031315,205.10557471135735 91.48549874107994,205.07317678652862 91.49776612460482,205.08335900589964 91.49239914431382,205.07595375675874 74.74742063116719,206.78638056072168 73.54368362266541,206.22460943449323 73.02768680309964,206.05431172214185 55.157942562898825,222.8635754836073 54.77612025064809,222.7333518708224 54.512371504835755,222.6077440774684 54.32529390606214,222.55140463728776 54.323760483122896,222.54032142130336 53.964172803513065,222.4830578903543 53.221229388713255,222.33435548722673 52.9367794332029,222.31311205766224 52.65769645797991,222.3297373552382 44.74676750657818,228.96043470643372 44.38257955814697,229.45506699984844 43.66417091040057,230.52635644152588 43.41575639399525,230.92678390973606 43.26164738844818,231.15005492550836 43.040834484974766,231.4092997146422 42.737983454175264,231.6786838614994 42.40446396456173,231.90377863729964 42.044109573482274,232.07720794229817 41.728224447684624,232.17868077010144 40.939278344660124,232.36778574417576 40.74606705412589,232.42774491279442 40.49611911478132,232.5273683714554 40.140364992523246,232.7192322341457 39.4733260132889,233.16566665176697 39.26171364746551,233.32431082548328 38.90749294814668,233.62775505373384 38.21745262480181,234.38400911787312 37.78119379815689,234.8801462615188 37.34110141415658,235.3117049254056 36.350510194424714,236.05304559554816 36.279972739146615,236.04474739055468 36.2056017265204,236.08623832845979 36.14886507771371,236.09822455888707 35.334617496166175,236.5112774009517 35.264846752361336,236.47439855988387 35.192009162678005,236.46056895015545 35.05783465535569,236.47993039700532 34.28038922439009,236.6919812368301 33.96220396418357,236.79431678240098 33.47457546901933,237.00451537233084 33.013781875321,237.26725575603132 32.74083259186591,237.4599264919957 32.434914715177,237.710667983421 32.14969804820066,237.98444649338444 32.01935709823374,238.1356197932023 31.296348181662324,238.8186290095905 24.9962800295325,243.22220891759162 23.784109194857592,244.36163623850507 23.24894458852941,244.92438106626696 22.767449785133067,245.4631418807944 22.118811881191505,246.167620029692 21.904899380951974,246.3766492201189 21.581347140450816,246.62342549112918 20.638292031879246,247.26150914146774 19.716704844482592,247.89770019007165 19.597864566570934,247.990684768542 19.444522272493487,248.1398260746323 19.32951555193722,248.2926469747258 19.203774870798952,248.49701731437972 19.11406962876208,248.6866535531267 19.039698616132227,248.90850379054928 19.014397137609194,249.0787995587748 18.992929216437915,249.8897255056322 14.985328360751737,250.00569679421233 15.011396550744394,249.97808473627856 14.913257482538029,249.7921610461858 14.861121102549077,249.6237214691605 14.75148136228745,249.713924528603 14.7047119625895,249.6761866386264 14.628807527024037,249.5712559529943 14.595072222324234,249.54548329174986 14.59967249114925,249.56021053699033 14.632641084375791,249.57677865523465 14.619606989377644,249.57677865523465 14.595072222324234,249.5436423841743 14.634941218788299,249.53075601918817 14.621907123790152,249.54088102201104 14.60273933703138,249.54548329174986 14.628807527024037,249.5261537409101 14.52913503587115,249.57309685416703 14.574371012629854,249.57769910523484 14.583571550272609,249.56757414936556 14.57820456997797,249.5905853940244 14.539102284990804,249.56389234403514 14.55366980292456,249.56665369819393 14.581271415860101,249.5436423841743 14.571304166744085,249.53259692975234 14.60043920262251,249.5270741967811 14.57820456997797,249.5436423841743 14.56517047498346,249.53996056774076 14.589705242036871,249.53627874960102 14.587405107624363,249.52523328493635 14.601205914088496,249.53167647452437 14.570537455270824,249.5261537409101 14.584338261742232,249.49854001522226 14.598905779679626,249.51050597481253 14.585104973211855,249.52339237266688 14.596605645270756,249.55008555882205 14.598139068210003,249.52339237266688 14.60273933703138,249.5344378398927 14.608106317322381,249.5261537409101 14.59967249114925,249.51602871931163 14.632641084375791,249.5031423095038 14.641074910548923,249.51879009011873 14.550602957042429,249.54272193022416 14.551369668512052,249.52891510819927 14.552136379985313,249.55652872824203 14.53526872763905,249.5804604545924 14.542169130869297,249.5933467389018 14.536802150578296,249.58506270138923 14.522234632640902,249.60347166190013 14.517634363819525,249.59426718698205 14.542169130869297,249.58506270138923 14.508433826173132,249.5933467389018 14.507667114703509,249.60623300229463 14.5,249.59426718698205 14.51610094087664,249.59150584242298" stroke="red" stroke-dasharray="none" stroke-linecap="round" stroke-linejoin="round" stroke-width="0.5"><title>2024-09-25 160.1km</title><desc>1727226501000</desc></polyline></svg>