<?xml version="1.0" encoding="utf-8" ?>
<svg baseProfile="full" height="300mm" version="1.1" viewBox="0,0,200,300" width="200mm" xmlns="http://www.w3.org/2000/svg" xmlns:ev="http://www.w3.org/2001/xml-events" xmlns:xlink="http://www.w3.org/1999/xlink"><defs /><rect fill="#222222" height="300" width="200" x="0" y="0" /><text fill="#FFFFFF" style="font-size:12px; font-family:Arial; font-weight:bold;" x="10" y="20">Over 10km Workouts</text><text fill="#FFFFFF" style="font-size:9px; font-family:Arial" x="10" y="290">Kin Azem</text><text fill="#FFFFFF" style="font-size:4px; font-family:Arial" x="65" y="280">SPECIAL TRACKS</text><rect fill="yellow" height="2.6" width="2.6" x="65" y="283" /><text fill="#FFFFFF" style="font-size:3px; font-family:Arial" x="70" y="285.5">Over 20.0 km</text><rect fill="red" height="2.6" width="2.6" x="65" y="287" /><text fill="#FFFFFF" style="font-size:3px; font-family:Arial" x="70" y="289.5">Over 40.0 km</text><text fill="#FFFFFF" style="font-size:4px; font-family:Arial" x="120" y="280">STATISTICS</text><text fill="#FFFFFF" style="font-size:3px; font-family:Arial" x="120" y="285">Number: 2</text><text fill="#FFFFFF" style="font-size:3px; font-family:Arial" x="120" y="290">Weekly: 2.0</text><text fill="#FFFFFF" style="font-size:3px; font-family:Arial" x="141" y="285">Total: 192.7 km</text><text fill="#FFFFFF" style="font-size:3px; font-family:Arial" x="141" y="290">Avg: 96.4 km</text><text fill="#FFFFFF" style="font-size:3px; font-family:Arial" x="167" y="285">Min: 32.6 km</text><text fill="#FFFFFF" style="font-size:3px; font-family:Arial" x="167" y="290">Max: 160.1 km</text><polyline fill="none" opacity="1" points="139.80319077623426,118.85286000946508 139.89006569248158,118.7573392551858 139.861107387027,118.93101326355827 139.86834696339793,118.80075779492472 139.74527416544151,118.80944149984134 139.83938865800155,118.66181837938348 139.79595119989244,118.82680890671327 139.74527416544151,118.67050210040179 139.8538678106852,118.80075779492472 139.7814720471797,118.85286000946508 140.15069044110714,118.83549260862492 140.15069044110714,118.71392069033027 140.16516959381988,118.93101326355827 140.4113151897327,118.82680890671327 141.0411583322275,118.86154370838631 140.9977208741475,118.96574801702809 140.91084595795837,118.91364588076976 141.04839790859842,118.93969695342821 141.0773562139657,118.73128811927745 140.86740849984926,118.8702274062889 141.05563748494023,118.80075779492472 141.13527282481664,117.75002208771184 141.3596996916749,117.65449993095535 141.42485587880947,117.23767455244524 141.25110604640213,116.2911249980898 141.68548062743503,116.03060467873729 142.27912588819163,115.97850050643319 142.36600080440985,115.82218777263915 142.82933369086822,115.99586856789392 143.42297895162483,115.7961356186861 143.52433302052668,115.87429205338412 143.46641640973394,115.96113244096341 143.50261429147213,115.87429205338412 143.60396836037398,115.97850050643319 143.4084997989412,115.99586856789392 143.8428743799741,115.92639629797486 143.16235420297016,116.05665675135242 143.4157393752539,115.98718453765468 143.0971980158356,115.64850657574425 143.82839522726135,115.65719064512086 143.98042633064324,115.37061582531896 144.85641506905085,115.47482497722376 145.89167448721128,115.1014081803587 146.56495508781518,114.52825320597913 147.29615229924093,114.31983213082276 147.1224024668336,113.5382479476466 147.4409438262519,112.31374970668548 147.73052688030293,111.94900169048196 149.42458774635452,111.57556736234255 150.41640970640583,111.75794249878527 151.32135675023892,111.41924546434166 152.37109532108298,111.2021311772478 152.50864727178123,111.12396988024557 152.5014076954394,110.88080088040442 152.6172409170249,111.09791609649983 153.34843812845065,110.89817012081039 153.46427135006525,110.75921608521458 153.65250033518532,110.7679007199913 153.7248960986908,110.95027781785757 153.8045314385672,110.68973897102114 153.8045314385672,110.9763316528406 153.78281270948355,110.65500038980827 153.77557313314173,110.75921608521458 153.89140635478543,110.73316217492538 153.78281270948355,110.79395461821696 153.77557313314173,110.68973897102114 154.0,110.81132387869002 153.86244804935995,110.87211625870987 153.9203646601527,110.78526998648886 153.8045314385672,110.70710825557762 153.8407293203054,110.80263924897008 153.74661482774536,110.77658535374212 153.86968762570177,110.86343163601123 153.85520847298903,110.71579289636429 153.7248960986908,110.74184681270708 153.74661482774536,110.88080088040442 153.86244804935995,110.89817012081039 153.75385440408718,110.89817012081039 153.67421906423988,110.60289248788467 153.8407293203054,110.79395461821696 153.717656522349,110.92422397385963 153.65973991152714,110.6636850366267 153.77557313314173,110.79395461821696 153.39187558658887,110.80263924897008 153.2905215176288,110.95027781785757 152.40729320285027,111.19344659271883 152.37109532108298,111.3845072205877 152.23354337044293,111.2195003433153 150.38745140098035,111.7666270180489 149.258077490289,111.61030551773729 147.76672476204112,111.94031719231134 147.46990213167737,112.27032741669973 147.18755865396815,113.40798312631523 147.2816731465573,114.33720057584287 146.572194664157,114.59772676917783 145.50073736425838,115.31851119516068 144.76230057651992,115.51824541450333 143.95870760158869,115.40535222538165 143.8428743799741,115.6745587808764 143.02480225233012,115.64850657574425 143.08995843949378,115.83087182192685 143.01032309964648,115.95244840670784 142.80037538547185,116.00455259710725 142.38047995709348,115.83955587021046 142.25740715913707,116.01323662530922 141.6710014747223,116.03928870394884 141.27282477545668,116.2911249980898 141.34522053893306,117.20293899984244 141.1569915538421,117.47213911246945 140.56334629305638,117.4287198047241 140.40407561336178,118.82680890671327 139.75251374181244,118.8875947990964 139.68735755464877,118.72260440529499 139.96970103232889,118.77470667407033 139.52808687492507,118.85286000946508 139.68735755464877,118.72260440529499 139.5425660276378,118.56629738214542 139.96970103232889,118.40999003376055 139.74527416544151,118.86154370838631 140.06381552488892,118.87891110320925 138.912722885143,118.80944149984134 138.85480627429206,119.17415620064276 138.6738168655429,119.02653379698313 138.69553559459746,119.12205420893588 138.52902533853194,119.10468687037064 138.17428609734634,120.55484581259225 136.82772489610943,123.2553665987507 136.48746480763657,123.65479230012716 135.91553827590542,123.91528617862787 132.1581981499039,124.08894826250616 127.52486928543658,124.1149975404769 126.96742190641817,124.37548982325097 126.8588282611745,126.14681339357776 124.02815390803153,126.25100759718771 123.02185279529658,126.04261904548184 121.26263574205223,125.34798636533378 118.92425258079311,124.97461864600336 118.446440541622,125.00935060514894 117.73696205930901,124.73149448237382 116.78133798099589,124.27129301851528 116.32524467087933,123.80240560883249 116.02118246417376,123.69820800925663 115.58680788311176,123.29878253872448 115.28274567634799,123.22063382867782 113.90722616974381,122.13522667262441 113.26290387453628,121.7965764301116 112.72717522454332,121.68369267670641 112.69821691914694,112.57428291938413 111.735353264492,111.90557918960985 111.19962461455725,111.6971508358256 109.03499128570547,111.19344659271883 108.60785628101439,109.74310688552214 108.70921034991625,108.93542053412966 108.39066899049794,106.83365834378492 106.50837913932628,104.21940096085018 105.92197345488239,103.20320325737703 105.55275506101316,101.91773688571266 104.84327657861286,98.30441622385115 104.53921437190729,97.35762796745985 104.01072529828525,96.31527846191602 100.25338517228374,90.90351461576938 99.47875050274888,90.01744226864685 96.74219064219506,87.55028375333495 92.52151762970607,81.34728041696508 91.45006032977835,80.3742137550289 88.31532376992982,78.61049826241651 87.27282477542758,77.79378837330296 80.6848102962831,70.32134889512236 80.0911650355556,69.87819247396692 77.84689636679832,68.8615296138014 76.80439737229608,67.96650731332193 72.68507842876716,62.83947470070416 71.7149751977413,61.42296151699702 71.82356884301407,61.30129656010831 72.96742190641817,61.32736763891444 73.43799436921836,60.832015591448 73.90132725567673,60.74511138606613 74.11851454616408,60.99713330421946 74.33570183673874,61.75319397635758 74.9945032846299,62.952446992640034 76.00804397370666,63.84752913561533 76.26866872236133,64.5861811102368 76.08767931358307,64.82950016759423 75.74017964873929,64.79474035061867 75.29856549136457,64.3167912329518 73.43075479287654,61.60545858222031 73.07601555166184,61.42296151699702 71.84528757203952,61.32736763891444 71.58466282344307,61.188321780529805 71.3602359565557,60.40618402265682 71.34575680387206,58.581164192226424 71.15752781875199,57.86852534163336 69.9774768735806,56.02606179652503 68.34133261829265,53.870669615753286 68.17482236222713,53.88805205863173 67.94315591902705,54.17486178407853 65.85815793002257,58.50294806394231 65.49617911246605,58.303062032020534 61.543370424973546,54.33130298999458 60.60222549937316,55.24387018488778 60.22576752916211,55.67842208775255 60.290923716296675,55.73056814682786 60.131653036602074,55.626275992399314 59.834830406238325,55.869624127066345 59.168789381947136,55.973915942966414 47.12213433434954,54.78324241780501 46.789113822218496,55.24387018488778 46.89046789112035,55.17434164669976 47.94020646199351,55.82616916093684 49.91661080572521,57.642565267342434 49.279528086888604,57.103734649666876 47.90400858022622,57.59042053810117 46.87598873843672,58.19008273480722 46.94114492557128,58.24222704697604 46.97734280733857,58.15531983986875 46.71671805871301,58.103175467236724 47.09317602895317,58.02495884029486 47.15833221608773,57.89459761406761 46.74567636413849,57.4513677494906 46.217187290487345,56.217262949212454 46.173749832378235,55.84355115040671 46.0,55.70449512182677 46.81807212761487,55.209105923866446 46.86150958572398,55.0005200190717 47.63614425525884,54.279155957643525 47.7374983241607,53.870669615753286 47.50583188096061,54.15747940768779 47.491352728247875,54.45297925781779 47.368279930291465,54.35737649258954 47.44791527016787,54.26177360545262 47.52755061001517,54.33999415854487 53.847700764163164,53.748992402805015" stroke="#ffff00" stroke-dasharray="none" stroke-linecap="round" stroke-linejoin="round" stroke-width="0.5"><title>2024-09-26 32.6km</title><desc>1727327929000</desc></polyline><polyline fill="none" opacity="1" points="154.0,176.35895453494595 153.90335971660897,176.39747881536732 153.80373055847667,176.40831374293884 153.3165439752047,176.3288573393129 153.14020036530565,176.33969234000233 153.0176565008005,176.39747881536732 152.776553938118,176.60935974888162 152.6759284884065,176.67316393783858 152.6261139093367,176.79715961293732 152.07815353960177,177.36535346672372 151.9854984225385,177.5459169006417 151.89682847180302,177.84805254400544 151.81911772845342,178.04184797331254 151.60292245530218,178.33915428117052 151.25422040183548,178.68459644637642 149.90026014280375,179.90378114053692 149.67808712016267,180.15530254982787 149.60735041789303,180.26722156120286 149.54458404826437,180.4020041133008 149.54358775668516,180.4501403064669 149.63923174849333,181.5921047239617 149.57746167044752,182.1925172405954 149.53063596612628,182.33689973883338 149.46687330492205,182.72311285817705 149.43100680799034,182.80733184208748 149.3084629434852,182.9721584092067 148.99961255327435,183.1718716967507 148.99562738694658,183.19713635162861 149.0414567996886,183.28736675024174 149.05341229866463,183.25849310966896 149.05341229866463,183.272929940189 149.08031217136158,183.2669145966256 149.0693529639684,183.3078188627842 149.05440859025111,183.30420966943802 149.03348646704035,183.33548930260713 149.0235235512264,183.32345868583343 149.0175458017402,183.33909848486655 148.98566447113626,183.34391072589096 148.9926385122053,183.36676883970267 148.9896496374604,183.35353520111494 148.97769413848437,183.3763932933225 148.9836718879742,183.36075355156663 148.96972380583247,183.3763932933225 148.96175347318058,183.35473825987629 147.92760281175651,184.16436457767122 146.85260419549377,184.7501907409478 146.84064869651775,184.7983063823831 146.08645596944916,185.32636061404355 146.03763768196222,185.2842616224325 146.05357834725874,185.29749275282484 146.04660430619697,185.28787011424265 124.28759616981552,187.51045825998972 122.72341838711509,186.78047329782385 122.05291415287866,186.55918252066658 98.83234626667036,208.40172514710957 98.33619305916727,208.23250805029966 97.99346875518677,208.06928890998097 97.75037360933857,207.99607947968252 97.74838102618014,207.98167756291787 97.2811202745288,207.90726733689917 96.31571373221959,207.71403825649122 95.94608955554213,207.68643380442336 95.58343941993371,207.7080372949822 85.30370288370978,216.32419631252105 84.83046438257225,216.96693873756976 83.89693917086333,218.35900954014414 83.57414069851075,218.87933893513127 83.37388609065965,219.16946506727163 83.08695411523149,219.50633677311725 82.69341894060562,219.85638391344037 82.26003210272756,220.1488799028648 81.79177505950065,220.37423998054874 81.38130292798814,220.5060973062582 80.35611889079155,220.75182689416215 80.10505341229873,220.82973992562984 79.78026235678044,220.95919411668183 79.31798306304336,221.2085087005171 78.45120938727996,221.78862112752086 78.17623291083146,221.99476889080233 77.71594620024916,222.38907488685072 76.81928377705117,223.37177775039072 76.25239386726753,224.01647563022743 75.68052249958419,224.577257984859 74.39331377649796,225.54058186495695 74.30165495101392,225.52979888844766 74.20501466762289,225.5837136578666 74.1312890906047,225.59928898304224 73.07322743122495,226.13602422842723 72.98256489732375,226.08810257823097 72.88791719709843,226.07013190180623 72.71356617036145,226.09529084000405 71.70332650688943,226.37083708483442 71.289865500632,226.5038154560507 70.65622405490649,226.77695482287254 70.05745281452255,227.11836882601528 69.70277301156966,227.36873188907975 69.30525267060875,227.6945541137993 68.93463220235571,228.0503114425528 68.76526263352935,228.24675129215575 67.82575967232697,229.13427725015845 59.63923174848969,234.85644231427978 58.064094758396095,236.33705384967834 57.36868323462477,237.06830407352118 56.74301212154387,237.7683886354489 55.900149443736154,238.6838120718976 55.62218409254274,238.95543188028842 55.201749045216275,239.27610155953334 53.976310400172224,240.1052496727134 52.77876791940798,240.93193847329894 52.62434272429891,241.0527658722649 52.42508440803067,241.24656527846582 52.27564067083222,241.44514607723704 52.11224885149932,241.71071201271207 51.995682736480376,241.95713194443215 51.89904245308935,242.2454118677133 51.86616483090256,242.46670011860715 51.83826866662639,243.52044553021278 46.63065257098424,243.6711426606871 46.66452648475024,243.63526259116315 46.53700116233813,243.39366687443544 46.469253334806126,243.17479062302118 46.326783638676716,243.2920036193109 46.266009852213756,243.2429656910499 46.167376985664305,243.10661510447608 46.12354015608071,243.07312521105723 46.12951790557054,243.09226230632248 46.172358443567646,243.11379149606637 46.155421486684645,243.11379149606637 46.12354015608071,243.0707330716541 46.17534731831256,243.05398808028986 46.15841036142956,243.0671448615085 46.1335030718983,243.07312521105723 46.167376985664305,243.0480077196462 46.03785908008285,243.10900723556097 46.09664028338739,243.11498756084802 46.10859578236705,243.10183084064192 46.101621741294366,243.1317324531983 46.050810870645364,243.09704657459588 46.06974041068679,243.1006347743396 46.105606907618494,243.0707330716541 46.09265511705962,243.05638022357834 46.13051419715339,243.04920379205487 46.101621741294366,243.0707330716541 46.084684784411365,243.06594879117984 46.1165661150153,243.06116450848822 46.11357724027039,243.0468116471029 46.1315104887326,243.05518415200459 46.09165882547677,243.0480077196462 46.10959207394262,243.0121254829828 46.12852161398769,243.0276744675266 46.11058836552547,243.0444195015998 46.12553273925005,243.0791055571417 46.127525322408474,243.0444195015998 46.1335030718983,243.05877236631386 46.14047711296371,243.0480077196462 46.12951790557054,243.03485091402945 46.172358443567646,243.0181058644239 46.18331765096082,243.03843913540732 46.06575524436266,243.06953700174108 46.066751535945514,243.05159593645112 46.067747827528365,243.08747803583447 46.04582941274202,243.1185757543526 46.05479603696949,243.13532064088122 46.04782199590045,243.124556074089 46.028892455855384,243.148477318372 46.02291470636919,243.1365167031663 46.05479603696949,243.124556074089 46.01095920739317,243.13532064088122 46.00996291581032,243.1520655002305 46.0,243.1365167031663 46.02092212319985,243.13292851589722 46.01992583162064,243.155653680843 46.011955498972384,243.1389088273172 46.09664028338739,243.0527920084396 46.08269220124566,243.05159593645112 46.050810870645364,243.1125954311492 46.02590358111411,243.12216394661027 46.0318813306003,243.10183084064192 46.02590358111411,243.11618362548597 46.013948082138086,243.1006347743396 46.111584657108324,243.05039986432075 46.10461061603928,243.06355665011142 46.105606907618494,243.05039986432075 46.09265511705962,243.05638022357834 46.06376266120424,243.02289016708528 46.09165882547677,243.11379149606637 46.12055128133579,243.13412457845607 46.10759949078056,243.142497012499 46.13549565505673,243.1125954311492 46.15641777826386,243.11977181857583 46.33276138816291,243.33386508097738 46.46028671057502,243.20349596973392 46.485194000109914,243.20110386055785 46.556926993962406,243.42715572736233 46.66950794265358,243.64363461854828 46.638622903632495,243.66755465934784 46.67548569214341,243.64004660764112 51.136879393365234,243.11498756084802 50.924669286545395,242.89849757682896" stroke="red" stroke-dasharray="none" stroke-linecap="round" stroke-linejoin="round" stroke-width="0.5"><title>2024-09-25 160.1km</title><desc>1727226501000</desc></polyline></svg>