<?xml version="1.0" encoding="utf-8" ?>
<svg baseProfile="full" height="300mm" version="1.1" viewBox="0,0,200,300" width="200mm" xmlns="http://www.w3.org/2000/svg" xmlns:ev="http://www.w3.org/2001/xml-events" xmlns:xlink="http://www.w3.org/1999/xlink"><defs /><rect fill="#222222" height="300" width="200" x="0" y="0" /><text fill="#FFFFFF" style="font-size:12px; font-family:Arial; font-weight:bold;" x="10" y="20">Over 10km Workouts</text><text fill="#FFFFFF" style="font-size:9px; font-family:Arial" x="10" y="290">Kin Azem</text><text fill="#FFFFFF" style="font-size:4px; font-family:Arial" x="65" y="280">SPECIAL TRACKS</text><rect fill="yellow" height="2.6" width="2.6" x="65" y="283" /><text fill="#FFFFFF" style="font-size:3px; font-family:Arial" x="70" y="285.5">Over 20.0 km</text><rect fill="red" height="2.6" width="2.6" x="65" y="287" /><text fill="#FFFFFF" style="font-size:3px; font-family:Arial" x="70" y="289.5">Over 40.0 km</text><text fill="#FFFFFF" style="font-size:4px; font-family:Arial" x="120" y="280">STATISTICS</text><text fill="#FFFFFF" style="font-size:3px; font-family:Arial" x="120" y="285">Number: 4</text><text fill="#FFFFFF" style="font-size:3px; font-family:Arial" x="120" y="290">Weekly: 1.3</text><text fill="#FFFFFF" style="font-size:3px; font-family:Arial" x="141" y="285">Total: 230.4 km</text><text fill="#FFFFFF" style="font-size:3px; font-family:Arial" x="141" y="290">Avg: 57.6 km</text><text fill="#FFFFFF" style="font-size:3px; font-family:Arial" x="167" y="285">Min: 10.4 km</text><text fill="#FFFFFF" style="font-size:3px; font-family:Arial" x="167" y="290">Max: 160.1 km</text><polyline fill="none" opacity="1" points="41.16481164377183,61.158821115473984 38.98030821909197,63.462347983702784 40.43664383562282,62.69450742282788 41.442208904074505,62.9077966408513 43.03724315064028,59.87907724434626 45.741866438416764,58.68464529901394 48.16909246589057,55.22930076188641 48.79323630128056,53.565603870287305 48.307791095925495,48.275847010780126 48.96660958905704,47.89190985169262 50.24957191781141,48.190527679544175 53.3009417806752,51.26201016109553 55.208047945285216,49.982229155284585 56.45633561653085,51.0487136602751 59.923801369965076,52.285831508168485 64.77825342467986,53.09635456179967 69.87542808218859,52.925718289479846 69.07791095878929,57.10628238422214 73.6202910959255,60.00705184738035 80.27782534249127,62.18261275533587 83.91866438370198,64.91270877144416 82.98244863026775,69.22109709464712 83.98801369871944,69.56235324972658 83.3291952055879,69.7329811991658 82.94777397275902,68.83718351193238 83.84931506845169,65.72320181960822 85.89511986309662,66.49103556253249 86.93535958905704,66.19243375677615 86.48458904121071,65.59522936114809 87.00470890430734,64.9980239198776 88.66909246589057,66.19243375677615 88.49571917811409,65.68054433882935 90.61087328777649,66.53369294205913 92.1365582193248,66.44837817776715 91.16566780814901,65.42459934169892 92.79537671245635,63.80360990038025 93.41952054807916,61.75603327882709 95.01455479487777,61.03084694448626 95.46532534249127,62.43856018516817 94.35573630151339,63.462347983702784 95.01455479487777,63.07842791933217 95.0839041096624,63.59032124251826 94.63313356158324,63.41969022000558 95.5,62.9077966408513 94.70248287683353,63.93158303108066 95.0839041096624,63.41969022000558 94.45976027403958,63.206401322211605 95.25727739743888,63.163743526500184 94.56378424656577,61.201479161856696 93.28082191781141,61.7133753017406 92.76070205471478,63.71829445313779 91.13099315064028,65.63788685260806 92.10188356181607,66.40572078764671 90.40282534249127,66.57635031614336 88.35702054784633,65.552571864333 88.49571917811409,66.0644614744815 86.93535958905704,64.91270877144416 86.79666095878929,66.19243375677615 84.78553082211874,66.36306339220027 83.71061643841676,65.7658592951775 83.57191780814901,64.57144796440843 80.00042808218859,62.05463896843139 73.79366438346915,60.0923682229477 69.07791095878929,57.14894093736075 69.97945205494761,53.05369550175965 64.2234589040745,53.09635456179967 59.29965753434226,52.24317234684713 55.138698630267754,49.896910250827204 53.3009417806752,51.17669157672208 50.076198630034924,48.01988895284012 49.1053082193248,47.89190985169262 48.37714041094296,48.44648560945643 48.16909246589057,50.45148274835083 48.82791095902212,53.39496783277718 48.06506849313155,55.44259464825154 45.395119863096625,58.983253677462926 43.279965753434226,59.708444365271134 40.92208904097788,63.547663494886365 36.24101027403958,68.23998374681105 35.06207191781141,70.28752144568716 33.0509417806752,70.33017835047212 30.589041095692664,72.292390199902 27.607020547846332,72.80426969568362 25.0410958903376,71.31128568615532 25.145119862863794,68.28264090750599 24.31292808218859,67.21621028834488 23.13398972596042,72.93223944952479 26.254708904074505,77.02724622559617 26.601455479394644,78.7761403885379 23.16866438346915,88.80011688321247 20.60273972596042,91.87123371419148 21.122859589057043,94.68639985524351 20.429366438416764,95.8380520354549 20.741438356228173,97.24562164285453 19.354452054714784,98.1839981545927 16.71917808218859,98.14134473280865 14.777397260069847,99.33563852781663 14.5,100.31666244610096 15.22816780814901,100.78584680109634 15.678938355995342,99.67686455851072 16.372431506868452,99.59155808275682 17.03124999976717,101.42564260904328 18.556934931548312,102.10809014830738" stroke="#4dd2ff" stroke-dasharray="none" stroke-linecap="round" stroke-linejoin="round" stroke-width="0.5"><title>2026-07-21 10.4km</title><desc>1784599135000</desc></polyline><polyline fill="none" opacity="1" points="157.15818522922928,58.585006410190545 156.91330071454286,58.66644210318191 156.31763567883172,58.218544530864165 154.45121856688638,57.526333128909755 154.04087154226727,57.45303972590773 153.65699851923273,57.58333905196196 152.61789395692176,57.35531506015832 152.5318534517719,57.13543402571668 152.67746046048705,56.589800101668516 152.53847195213893,56.48393030290754 152.14798042870825,56.97255870644585 151.43980088626267,57.33088387079624 151.13534986798186,57.14357778098929 150.58601433504373,57.22501527757413 150.17566731042461,56.89112089396076 149.79841278781532,57.02142134503811 149.67927978065563,56.84225815755053 149.97049379814416,56.280334052025864 149.96387529771891,56.052305494842585 149.63956877824967,55.9464348216934 149.09685174570768,56.31290949495451 148.66664921992924,56.15003211716248 148.48794970920426,55.60438993139542 148.12393218738725,55.44965474759374 148.20997269250802,54.822566288523376 148.10407668616972,54.586388549156254 147.40913414448733,54.74926984044578 147.24367163458373,54.5945326233923 147.24367163458373,54.244336510426365 147.1046831262065,54.13846289600042 146.07219706426258,54.21176003203436 145.7412720444554,53.99186837625166 145.6221390372957,53.69867834605975 145.66846854009782,52.48518333971151 145.86040505158599,51.45084422804939 146.60829559646663,49.69976022207993 146.67448060039897,47.88346981268842 146.45607008732622,46.44180411137495 145.92659005554742,45.513256746096886 146.09867106587626,44.552114813093795 146.07881556468783,43.93306672805193 145.26474001584575,42.36098393244902 145.25150301508256,41.70118657052808 145.40372852419387,40.96807054175588 146.4362145861378,38.654628010466695 145.07280350432848,36.96836981510569 145.8339310500014,36.32481047551846 146.34355558056268,34.5 145.774364546407,36.398127683700295 144.8213004892459,37.20461151920608 144.70216748211533,37.10685643535544 144.90072249402874,37.4489985860273 144.47713846861734,36.93578468513442 145.589046535315,38.31249220154132 146.13176356785698,38.507998598433915 146.32370007937425,38.70350440769835 146.1648560698668,38.736088652090984 146.32370007937425,38.70350440769835 144.86762999201892,37.36753633245098 145.60890203650342,38.30434608890937 146.17147457023384,38.49985251030739 146.26413357580896,38.43468376846431 146.1516190690454,38.32063831315463 144.40433496425976,44.73131184360682 143.6564444193791,45.81462883479253 143.67629992059665,53.26703506436752 144.69554898171918,53.364765869460825 145.54933553293813,53.79640850290889 145.1058960063674,54.75741389430186 144.4705199682212,55.482230606343364 144.62936397775775,56.48393030290754 144.2123984527425,57.88465524435742 143.58364091502153,58.80488254738884 144.21901695316774,63.28367923203041 142.38569234317401,66.57336267035862 142.31288883881643,67.72145562820515 142.00843782056472,68.39727393072098 141.36644328205148,69.0649429549594 141.09508476575138,69.708178587789 140.92300375542254,69.84659555132384 139.71181818278274,70.65266496261756 139.08306064509088,70.52239179444587 138.83817613037536,70.97834674260957 138.79184662757325,71.5564278899692 138.98378313911962,72.36247613340674 138.93083513595047,73.16037264771876 139.08967914545792,73.96640103568643 139.78462168714032,74.96781634632498 139.86404369189404,75.33418395358603 138.1167595871084,79.73857540373137 138.21603709307965,82.12382388079277 138.4344476061524,82.88903867278714 138.33517010021023,83.69494665907405 137.18355103110662,84.89157951600646 136.9386665164202,86.5277562102201 135.89956195413833,87.76503666880308 135.4561224275094,87.96039459296298 135.17152691044612,87.88713544006896 134.83398339018459,88.11505253407086 134.37068836242543,89.04299247007293 134.15227784929448,89.23834656179679 134.01328934097546,89.88952263659303 133.0072772806452,91.12673924689443 132.04097622266272,92.94182372724026 131.60415519648814,93.49529234213696 131.4320741861302,94.34176465895871 130.71727614325937,95.19636497650936 130.67094664048636,96.295120343093 129.06265104401973,98.07750630884402 128.6787780209852,99.18435159343062 128.22871999398922,99.85984352174273 128.35447150151595,99.89239717274177 128.67215952061815,100.56788176162081 128.67215952061815,101.15383862530143 128.16915349042392,101.56075001414138 127.88455797333154,101.52819719653053 127.83822847058764,101.6502701787249 128.01692798128352,101.76420475578925 129.70464558253298,100.95852025615022 130.1944146119058,100.89341400301782 130.59152463573264,100.99921163134422 131.61739219725132,101.73165203980898 132.31895323932986,102.5617412179854 137.56742405414116,106.25632362028409 139.18233815103304,106.75271630909992 141.25392877528793,107.86755168314266 143.05416088324273,108.06284934795985 144.3646239618829,107.90823874490889 145.29121401745942,108.03029977779079 146.23765957425348,108.33138268159382 148.4482387067983,109.49501434386912 150.27494481636677,109.9425594520435 151.85014791085268,109.66589556598046 153.2003219918406,109.88559933619399 154.4379815660941,110.79695521701069 156.4036761840107,111.49673769185029 156.919919214939,111.78966766014491 157.9921162792598,112.81491218350857 158.54807031262317,113.8970972437528 159.49451586938812,115.17454070001259 160.04385140235536,115.5 162.16177152941236,115.4104988544641" stroke="#ffe200" stroke-dasharray="none" stroke-linecap="round" stroke-linejoin="round" stroke-width="0.5"><title>2026-06-28 27.3km</title><desc>1782622347000</desc></polyline><polyline fill="none" opacity="1" points="89.7739140392514,245.72079922491685 89.62550576380454,245.0532097422547 89.89758760211407,244.00730558399664 90.14493472783943,243.69575636807713 91.59191541338805,243.37678774601955 92.43907931903959,243.53256331774173 93.2120390869677,243.24326552631828 94.1086724177294,243.05781753783958 94.22616230248241,242.99105613074062 94.21997862434364,242.78335353094735 94.31891747462214,242.9688023129347 94.9434689671034,242.79818945325678 95.0424078173819,242.67950197884784 95.20318344910629,242.68691995244444 95.26502023055218,242.84269719952135 95.33304069013684,242.620158159305 95.33304069013684,242.86495106109214 95.31448965569143,242.59048622893897 95.30830597755266,242.67950197884784 95.40724482788937,242.65724805295758 95.31448965569143,242.70917386803922 95.30830597755266,242.620158159305 95.5,242.72400980748353 95.38251011527609,242.77593556851934 95.43197954041534,242.70175589704013 95.33304069013684,242.6349941193257 95.36395908085979,242.71659183820157 95.28357126499759,242.6943379251752 95.38869379341486,242.76851760524005 95.37632643713732,242.64241209805914 95.26502023055218,242.6646660291226 95.28357126499759,242.78335353094735 95.38251011527609,242.79818945325678 95.28975494313636,242.79818945325678 95.2217344835517,242.54597830767307 95.36395908085979,242.70917386803922 95.25883655241341,242.8204433302526 95.20936712724506,242.59790421282378 95.30830597755266,242.70917386803922 94.98057103596511,242.71659183820157 94.89399954193505,242.84269719952135 94.13959080848144,243.05039960715658 94.1086724177294,243.21359388418932 93.99118253303459,243.07265339665173 92.41434460645542,243.53998119268363 91.44969081610907,243.406459312675 90.17585311856237,243.68833851115778 89.92232231469825,243.970216470967 89.68115886708256,244.94194415301172 89.76154668297386,245.73563446784829 89.1555462249089,245.958162700088 88.2403618596727,246.57382012050948 87.60962668908178,246.74442293851462 86.92323841515463,246.647995314539 86.82429956484702,246.87793787093688 86.12554393464234,246.85568540149688 86.18119703794946,247.01145252546848 86.1131765783939,247.11529706465808 85.9338499122241,247.15980181573104 85.5751965798845,247.01886999812268 85.47007405143813,247.16721927122126 84.96919612184865,247.18947163261328 84.62909382395446,247.40457739465637 84.69093060537125,248.18340256899683 84.53015497367596,248.41333962221688 84.02309336588951,248.3762530564636 83.8870524467493,249.57042970488692 83.3305214138818,249.62234992450976 83.27486831057467,249.48142351631395 83.51603175816126,249.52592662602547 83.13882739140536,249.5926812327234 83.27486831057467,249.48142351631395 83.151194747712,249.34791400195536 83.51603175816126,249.2144042098007 83.32433773571393,249.60009840696148 83.59641957402346,249.61493275286193 82.6132147492317,249.55559534869099 82.56374532406335,249.86711610828206 82.40915337050683,249.74102455447428 82.42770440492313,249.82261323522107 82.28547980761505,249.80777893737104 81.98247957858257,251.04643099669192 80.83231544392765,253.35307858932356 80.54168257120182,253.69424772130878 80.05317199786077,253.91674835186132 76.84384304148261,254.06508167696302 72.88628902970231,254.0873316461657 72.4101458126388,254.30983091372764 72.31739064049907,255.82280547412665 69.89957248643623,255.91180286682356 69.04004122453625,255.7338079580004 67.5374074356805,255.14048802962498 65.54007939537405,254.82157630141592 65.1319566378952,254.85124257555435 64.52595617988845,254.61391199843638 63.70971066495986,254.2208312992734 63.320138941926416,253.8203315066712 63.06042445989442,253.73133121330466 62.68940377130639,253.3901622784906 62.42968928924529,253.3234116225358 61.2547904420062,252.3963119992477 60.70444308727747,252.10705417511053 60.246850904630264,252.0106346106404 60.22211619207519,244.22983981182188 59.39968699900783,243.65866707492387 58.94209481638973,243.48063816918875 57.093175051530125,243.05039960715658 56.72833804108086,241.81159314758406 56.814909535081824,241.12170851955307 56.54282769677229,239.326490085572 54.93507137952838,237.09352430735453 54.434193449880695,236.22553988065192 54.11882586457068,235.1275598440625 53.512825406505726,232.04124499367026 53.253110924502835,231.23254658870428 52.8017024200235,230.3422246219343 49.592373463645345,225.71977101534867 48.93071990227327,224.9629330539974 46.593289564101724,222.85561165170657 42.98820520652225,217.5573214899414 42.07302084128605,216.7261774066501 39.395488205191214,215.21970127952954 38.50503855253919,214.52210920423386 32.87789144209819,208.13953121342638 32.37082983434084,207.76100952336128 30.453889609896578,206.89262778346892 29.563439957244555,206.12814522686676 26.04492709369515,201.74889456755773 25.216314222459914,200.53898100499646 25.30906939462875,200.43506098285434 26.286090541252634,200.45732957321889 26.68802962056361,200.03422503217735 27.083785021764925,199.95999587713595 27.26929536604439,200.17526018977514 27.45480571038206,200.82104878663085 28.01752042141743,201.84538975713804 28.883235361485276,202.60992342815734 29.105847774626454,203.24084240044613 28.951255821069935,203.44867317174794 28.654439270176226,203.4189831028707 28.27723490342032,203.0107432599034 26.681845942424843,200.69486072209838 26.378845713392366,200.53898100499646 25.32762042901595,200.45732957321889 25.105008015874773,200.3385636684543 24.91331399345654,199.67050135041063 24.900946637179004,198.11166217393475 24.74017100542551,197.50296228998195 23.732231468049577,195.92922357905627 22.334720207640203,194.08819713317644 22.192495610332116,194.1030443323616 21.994617909775116,194.3480226217871 20.21371860447107,198.0448539327408 19.904534697299823,197.87412144414702 16.5282464310294,194.48164674823784 15.724368272378342,195.26111526187015 15.40281700892956,195.63228740976047 15.458470112207578,195.6768279229218 15.322429193067364,195.58774686561082 15.068898389203241,195.795602473263 14.5,195.8846832414347" stroke="#ffd900" stroke-dasharray="none" stroke-linecap="round" stroke-linejoin="round" stroke-width="0.5"><title>2024-09-26 32.6km</title><desc>1727327929000</desc></polyline><polyline fill="none" opacity="1" points="185.5,199.99430320578676 184.45803911175244,200.93254549051426 184.28706245385547,201.12610764958708 184.2326259394613,201.21223664172385 184.1843231168241,201.3159606223703 184.18355640535447,201.35300456827235 184.2571607065147,202.23182080446668 184.20962459534712,202.69387746748316 184.17358915623845,202.80498923395362 184.12451962213527,203.1022054647833 184.09691800919973,203.1670174758433 184.00261249834512,203.29386228915018 183.76493194252544,203.44755471335293 183.7618650966433,203.4669975160955 183.79713382428235,203.53643570356007 183.8063343619251,203.51421555051047 183.8063343619251,203.52532563491013 183.82703557162677,203.52069643499044 183.81860174545363,203.5521749405193 183.80710107339837,203.54939743041223 183.7910001325181,203.5734691519733 183.78333301781458,203.56421080627524 183.77873274899684,203.57624665354842 183.75419798194343,203.57994998745335 183.75956496223444,203.59754079959976 183.75726482782193,203.58735665000995 183.74806429017553,203.6049474455308 183.7526645590042,203.59291164233537 183.7419305984149,203.6049474455308 183.73579690665065,203.58828248233522 182.9399504003959,204.21134283555466 182.11266872385386,204.66217434657892 182.10346818620746,204.69920247658 181.5230676031315,205.10557471135735 181.48549874107994,205.07317678652862 181.49776612460482,205.08335900589964 181.49239914431382,205.07595375675874 164.7474206311672,206.78638056072168 163.5436836226654,206.22460943449323 163.02768680309964,206.05431172214185 145.15794256289882,222.8635754836073 144.7761202506481,222.7333518708224 144.51237150483576,222.6077440774684 144.32529390606214,222.55140463728776 144.3237604831229,222.54032142130336 143.96417280351307,222.4830578903543 143.22122938871325,222.33435548722673 142.9367794332029,222.31311205766224 142.6576964579799,222.3297373552382 134.74676750657818,228.96043470643372 134.38257955814697,229.45506699984844 133.66417091040057,230.52635644152588 133.41575639399525,230.92678390973606 133.26164738844818,231.15005492550836 133.04083448497477,231.4092997146422 132.73798345417526,231.6786838614994 132.40446396456173,231.90377863729964 132.04410957348227,232.07720794229817 131.72822444768462,232.17868077010144 130.93927834466012,232.36778574417576 130.7460670541259,232.42774491279442 130.49611911478132,232.5273683714554 130.14036499252325,232.7192322341457 129.4733260132889,233.16566665176697 129.2617136474655,233.32431082548328 128.90749294814668,233.62775505373384 128.2174526248018,234.38400911787312 127.78119379815689,234.8801462615188 127.34110141415658,235.3117049254056 126.35051019442471,236.05304559554816 126.27997273914661,236.04474739055468 126.2056017265204,236.08623832845979 126.14886507771371,236.09822455888707 125.33461749616617,236.5112774009517 125.26484675236134,236.47439855988387 125.192009162678,236.46056895015545 125.05783465535569,236.47993039700532 124.28038922439009,236.6919812368301 123.96220396418357,236.79431678240098 123.47457546901933,237.00451537233084 123.013781875321,237.26725575603132 122.74083259186591,237.4599264919957 122.434914715177,237.710667983421 122.14969804820066,237.98444649338444 122.01935709823374,238.1356197932023 121.29634818166232,238.8186290095905 114.9962800295325,243.22220891759162 113.78410919485759,244.36163623850507 113.24894458852941,244.92438106626696 112.76744978513307,245.4631418807944 112.1188118811915,246.167620029692 111.90489938095197,246.3766492201189 111.58134714045082,246.62342549112918 110.63829203187925,247.26150914146774 109.71670484448259,247.89770019007165 109.59786456657093,247.990684768542 109.44452227249349,248.1398260746323 109.32951555193722,248.2926469747258 109.20377487079895,248.49701731437972 109.11406962876208,248.6866535531267 109.03969861613223,248.90850379054928 109.0143971376092,249.0787995587748 108.99292921643791,249.8897255056322 104.98532836075174,250.00569679421233 105.0113965507444,249.97808473627856 104.91325748253803,249.7921610461858 104.86112110254908,249.6237214691605 104.75148136228745,249.713924528603 104.7047119625895,249.6761866386264 104.62880752702404,249.5712559529943 104.59507222232423,249.54548329174986 104.59967249114925,249.56021053699033 104.63264108437579,249.57677865523465 104.61960698937764,249.57677865523465 104.59507222232423,249.5436423841743 104.6349412187883,249.53075601918817 104.62190712379015,249.54088102201104 104.60273933703138,249.54548329174986 104.62880752702404,249.5261537409101 104.52913503587115,249.57309685416703 104.57437101262985,249.57769910523484 104.58357155027261,249.56757414936556 104.57820456997797,249.5905853940244 104.5391022849908,249.56389234403514 104.55366980292456,249.56665369819393 104.5812714158601,249.5436423841743 104.57130416674408,249.53259692975234 104.60043920262251,249.5270741967811 104.57820456997797,249.5436423841743 104.56517047498346,249.53996056774076 104.58970524203687,249.53627874960102 104.58740510762436,249.52523328493635 104.6012059140885,249.53167647452437 104.57053745527082,249.5261537409101 104.58433826174223,249.49854001522226 104.59890577967963,249.51050597481253 104.58510497321186,249.52339237266688 104.59660564527076,249.55008555882205 104.59813906821,249.52339237266688 104.60273933703138,249.5344378398927 104.60810631732238,249.5261537409101 104.59967249114925,249.51602871931163 104.63264108437579,249.5031423095038 104.64107491054892,249.51879009011873 104.55060295704243,249.54272193022416 104.55136966851205,249.52891510819927 104.55213637998531,249.55652872824203 104.53526872763905,249.5804604545924 104.5421691308693,249.5933467389018 104.5368021505783,249.58506270138923 104.5222346326409,249.60347166190013 104.51763436381952,249.59426718698205 104.5421691308693,249.58506270138923 104.50843382617313,249.5933467389018 104.50766711470351,249.60623300229463 104.5,249.59426718698205 104.51610094087664,249.59150584242298" stroke="red" stroke-dasharray="none" stroke-linecap="round" stroke-linejoin="round" stroke-width="0.5"><title>2024-09-25 160.1km</title><desc>1727226501000</desc></polyline></svg>