<?xml version="1.0" encoding="utf-8" ?>
<svg baseProfile="full" height="300mm" version="1.1" viewBox="0,0,200,300" width="200mm" xmlns="http://www.w3.org/2000/svg" xmlns:ev="http://www.w3.org/2001/xml-events" xmlns:xlink="http://www.w3.org/1999/xlink"><defs /><rect fill="#222222" height="300" width="200" x="0" y="0" /><text fill="#FFFFFF" style="font-size:12px; font-family:Arial; font-weight:bold;" x="10" y="20">Over 10km Workouts</text><text fill="#FFFFFF" style="font-size:9px; font-family:Arial" x="10" y="290">Kin Azem</text><text fill="#FFFFFF" style="font-size:4px; font-family:Arial" x="65" y="280">SPECIAL TRACKS</text><rect fill="yellow" height="2.6" width="2.6" x="65" y="283" /><text fill="#FFFFFF" style="font-size:3px; font-family:Arial" x="70" y="285.5">Over 20.0 km</text><rect fill="red" height="2.6" width="2.6" x="65" y="287" /><text fill="#FFFFFF" style="font-size:3px; font-family:Arial" x="70" y="289.5">Over 40.0 km</text><text fill="#FFFFFF" style="font-size:4px; font-family:Arial" x="120" y="280">STATISTICS</text><text fill="#FFFFFF" style="font-size:3px; font-family:Arial" x="120" y="285">Number: 3</text><text fill="#FFFFFF" style="font-size:3px; font-family:Arial" x="120" y="290">Weekly: 1.5</text><text fill="#FFFFFF" style="font-size:3px; font-family:Arial" x="141" y="285">Total: 220.0 km</text><text fill="#FFFFFF" style="font-size:3px; font-family:Arial" x="141" y="290">Avg: 73.3 km</text><text fill="#FFFFFF" style="font-size:3px; font-family:Arial" x="167" y="285">Min: 27.3 km</text><text fill="#FFFFFF" style="font-size:3px; font-family:Arial" x="167" y="290">Max: 160.1 km</text><polyline fill="none" opacity="1" points="67.17509349709144,60.427373034755874 66.52719495180645,59.977137203648454 65.86729828527314,60.22070783396339 63.98359325545607,60.58237146031024 63.60565243734163,60.50118185962856 63.19171725562774,60.5676097230571 62.55581683150376,60.331421424401924 61.77593895292375,60.32404052484344 61.24802161974367,60.19118417472782 60.99006201373413,60.006660969967925 60.624119316838915,59.357134698177106 60.44414749869611,58.71498237740161 60.52213528653374,57.275650061270426 60.72010428653448,56.65561916495426 60.60012307440047,56.61871235849321 60.37215877143899,56.928728815164504 60.25217755936319,56.884440849680686 60.33616440781043,55.79199384247113 60.216183195705526,55.81413823943876 60.00021701393416,56.33083847566377 59.77825177158229,56.40465242569917 59.23833631715388,55.998674557627965 57.54660122664063,55.37124872058848 57.17465946916491,55.304815005980345 56.82671395409852,55.42291933578599 55.88486143917544,55.21623660343175 55.806873651308706,55.01693471142062 55.93885298460373,54.522367848534486 55.81287271191832,54.42640663362545 55.45892813624232,54.86930324617788 54.81702865156694,55.19409198201902 54.541071863728575,55.02431627499027 54.04314983353834,55.09813185981693 53.67120807606261,54.79548737501318 53.32926162160584,54.9135927245552 53.22127853069105,54.75119780797104 53.4852371973393,54.24186539699804 53.47923813670059,54.03517852654477 53.18528416706249,53.93921651908386 52.69336119751097,54.27139203363913 52.30342225820641,54.12375870253891 52.14144762189244,53.62918435116808 51.811499288654886,53.48893116848558 51.889487076492514,52.92053327699978 51.79350210679695,52.706459923985676 51.16360074331169,52.85409680231169 51.01362422821694,52.713841776665504 51.01362422821694,52.39642127667321 50.887643955502426,52.300456603217754 49.95179050115985,52.366893701480876 49.65183747097035,52.16758218220275 49.54385438005556,51.90183244218133 49.58584780432284,50.801911062742874 49.75982056182693,49.86437798962652 50.43771441015997,48.27718172981622 50.49770501619787,46.630881875171326 50.29973601625534,45.324144790480204 49.81981116786483,44.482502184986515 49.97578674359829,43.61131560798094 49.95778956179856,43.05020557449825 49.21990510739852,41.62525741394347 49.2079069862084,41.027211916694796 49.34588538011303,40.36270980548943 50.281738834426505,38.26578737320233 49.045932349865325,36.73734973593673 49.73582431941759,36.15402250932675 50.19775198597927,34.5 49.681832773960195,36.220477801143716 48.81796804690384,36.95148106708439 48.70998495601816,36.862875093338516 48.889956774160964,37.17299541881221 48.50601689546602,36.707814318873716 49.513859077036614,37.955672795931605 50.00578204661724,38.13288132554226 50.179754804150434,38.31008932251643 50.035777349665295,38.33962393688125 50.179754804150434,38.31008932251643 48.859961471142014,37.09915739405187 49.531856258865446,37.94828909563148 50.0417764102458,38.125497647448356 50.125763258722145,38.0664281893587 50.023779228446074,37.96305649531496 48.44002722881851,43.773741200147924 47.762133380485466,44.755668206918926 47.7801305623143,51.51058759045918 48.703985895437654,51.599171557751106 49.47786471340805,51.9904158219033 49.07592765294248,52.86147863651786 48.50001783485641,53.51845818202855 48.64399528937065,54.42640663362545 48.266054471285315,55.69603469288268 47.696143713837955,56.53013592877687 48.272053531894926,60.58975232757075 46.61031374440063,63.5715471651929 46.54432407778222,64.61218761556302 46.26836728994385,65.22475461885915 45.686458411306376,65.82993505249397 45.44049692648696,66.41296886875716 45.284521350753494,66.53843108877118 44.18669326012605,67.2690587173638 43.61678250270779,67.15097809726649 43.394817260297714,67.56425923391726 43.35282383605954,68.08823651417697 43.52679659362184,68.81884495605846 43.47880410877406,69.54206460680871 43.6227815632883,70.27265505153628 44.25268292677356,71.18034573350087 44.32467165400158,71.51242420259587 42.740919654403115,75.50459911399957 42.83090556348907,77.66660701801084 43.0288745634316,78.36020369964535 42.93888865437475,79.09068501134607 41.89505210911739,80.17532240647415 41.673086866765516,81.65836577879963 40.731234351871535,82.7798464784646 40.32929729134776,82.95692043122108 40.07133768533822,82.89051776117776 39.76538559451001,83.0971036005285 39.345451352215605,83.93819562736462 39.147482352214865,84.1152661063752 39.021502079529455,84.70549720143754 38.10964486762532,85.82692002852491 37.233782019349746,87.47212681964447 36.83784401946468,87.9737951076786 36.681868443702115,88.7410442463297 36.033969898417126,89.51566066851592 35.991976474178955,90.51158113968268 34.5342047472659,92.12714974103073 34.186259232170414,93.13040297725092 33.77832311106613,93.74267415241047 33.89230526253232,93.77218103667838 34.18026017161901,94.38444555932438 34.18026017161901,94.91556145055074 33.724331565608736,95.28438912085767 33.466371959628304,95.25488299198332 33.42437853541924,95.36553089927838 33.586353171704104,95.46880209241499 35.11611362590338,94.73852335075935 35.56004411066533,94.679510532922 35.91998774695094,94.77540633198441 36.8498421406548,95.43929605565427 37.48574256472057,96.19169538910865 42.242997624212876,99.54049381937875 43.70676841176464,99.99042804092096 45.584474381030304,101.00092355681772 47.216218865447445,101.17794289003359 48.40403286518995,101.0378026283106 49.24390134983696,101.14843970466245 50.101767016312806,101.42134360714772 52.105453258234775,102.47606846092458 53.76119398511946,102.88172685273821 55.18897040904267,102.63095653921482 56.41277877238463,102.83009775754545 57.534603105450515,103.65615786685521 59.316324105049716,104.2904461836697 59.7842508321628,104.5559602015419 60.756098650133936,105.4852498685832 61.260019740933785,106.4661508842837 62.11788540740963,107.62403563965563 62.61580743759987,107.91903449858728 64.5355068310746,107.83790995918753 65.65133210350177,107.4839106657746 66.52119589119684,107.43228559163617 74.2839803135721,108.88514545281942 74.4579530711344,110.05035749992749 74.83589388921973,111.21554657342858 74.7579061013821,111.37041174604747 74.3379718590295,111.51790200937103 74.5779342832102,112.58719541102255 75.20783564669546,113.18451640665444 75.7657482829527,114.54137129894661 76.11969285859959,114.41601101159904 76.19168158588582,114.51924891461022 76.57562146458076,115.5" stroke="#ffff00" stroke-dasharray="none" stroke-linecap="round" stroke-linejoin="round" stroke-width="0.5"><title>2026-06-28 27.3km</title><desc>1782622347000</desc></polyline><polyline fill="none" opacity="1" points="175.78086874916335,96.60052882643868 175.7482906555815,96.67868205792183 175.68313446844695,96.63960545572627 175.78629843142699,96.65914376021829 175.80801716045244,96.50283713460885 175.65055637486512,96.60704159986199 175.79172811369062,96.55493939133885 175.85145461859065,95.76688761093465 176.01977476873435,95.69524599336728 176.0686419091071,95.38262695948288 175.93832953477977,94.6727147937163 176.264110470569,94.47732455420191 176.70934441612917,94.43824642497566 176.77450060329284,94.32101187462831 177.12200026813662,94.45127247106939 177.5672342136968,94.3014727591617 177.64324976538774,94.36009008518886 177.59981230727863,94.42522037586969 177.62696071859682,94.36009008518886 177.70297627028776,94.43824642497566 177.55637484919862,94.45127247106939 177.88215578495874,94.39916826862827 177.3717656522058,94.49686360866326 177.56180453143315,94.44475944838996 177.32289851186215,94.19075097695895 177.87129642043146,94.1972640289896 177.98531974796788,93.98233291413635 178.64231130178086,94.06048977806495 179.4187558653939,93.78042718041979 179.9237163158541,93.35056094963511 180.47211422442342,93.19424514326238 180.3418018501252,92.6080570058839 180.5807078696962,91.68968332516306 180.79789516021265,91.41612231301042 182.0684408097586,91.13604656690586 182.81230727978982,91.27282791923426 183.49101756268647,91.01880514340519 184.27832149079768,90.85596942808479 184.38148545380682,90.79734845533312 184.37605577154318,90.61497170545044 184.4629306877614,90.77780811752018 185.0113285963307,90.62799863575856 185.09820351251983,90.52378310905624 185.23937525137444,90.5302965851406 185.29367207401083,90.6670794085403 185.35339857891086,90.47167527341298 185.35339857891086,90.68661978477758 185.33710953209084,90.44562133750514 185.3316798498272,90.52378310905624 185.41855476607452,90.50424267634298 185.33710953209084,90.54983700880985 185.3316798498272,90.47167527341298 185.5,90.56286395416464 185.39683603701997,90.60845823918135 185.44027349509997,90.54332353501377 185.35339857891086,90.48470223683398 185.38054699019995,90.55635048187833 185.30996112080174,90.53681006045736 185.4022657192545,90.60194477215919 185.39140635472722,90.4912157174258 185.29367207401083,90.51075615467926 185.30996112080174,90.61497170545044 185.39683603701997,90.62799863575856 185.31539080303628,90.62799863575856 185.25566429816536,90.40654041105881 185.38054699019995,90.54983700880985 185.2882423917472,90.64753902554367 185.24480493363808,90.45213482261897 185.3316798498272,90.54983700880985 185.04390668991255,90.55635048187833 184.9678911382216,90.6670794085403 184.30546990214498,90.84945598968625 184.27832149079768,90.9927514605879 184.17515752781765,90.86899630263724 182.79058855073527,91.27934130868744 181.94355811769492,91.1621001834501 180.82504357150174,91.40960893938245 180.60242659875075,91.65711660767192 180.39066899046884,92.51035838988537 180.46125485989614,93.20727147702928 179.92914599811775,93.40266612203413 179.1255530231865,93.94325444152128 178.57172543235356,94.0930551060228 177.96903070117696,94.00838521418336 177.88215578495874,94.21029013080988 177.26860168922576,94.19075097695895 177.3174688295985,94.32752491159408 177.2577423247276,94.41870735018165 177.10028153908206,94.45778549297756 176.7853599678201,94.33403794781043 176.69305536933825,94.46429851412904 176.25325110604172,94.4838375731124 175.95461858157068,94.6727147937163 176.00891540417797,95.35657529503078 175.86774366535246,95.55847537950467 175.4225097197923,95.5259108986902 175.30305671002134,96.57447772518572 174.81438530635205,96.62006714447125 174.7655181659793,96.496324349122 174.9772757742321,96.53540105069987 174.64606515617925,96.59401605225139 174.7655181659793,96.496324349122 174.65692452070653,96.3790940817562 174.9772757742321,96.26186357046754 174.8089556240884,96.60052882643868 175.04786164365942,96.61355437255406 174.18454216382816,96.56145217002995 174.14110470571904,96.83498819562737 174.00536264915718,96.7242713928863 174.0216516959481,96.79591170185086 173.8967690038844,96.78288619792875 173.6307145729952,97.87050540459313 172.6207936720748,99.89589599421015 172.36559860571288,100.19546527024067 171.9366537069145,100.39083567911803 169.1186486124352,100.52108224202675 165.6436519640556,100.54061920050663 165.22556642981363,100.73598841258718 165.14412119585904,102.0644810903359 163.0211154310091,102.14262674303609 162.2663895964506,101.98633532926033 160.9469768065319,101.4653608191511 159.19318943558028,101.18533502965147 158.83483040620922,101.21138399901247 158.30272154445993,101.00299190692749 157.5860034857178,100.6578408090354 157.24393350313767,100.30617525177149 157.01588684812305,100.22802705209324 156.69010591233382,99.92845794919049 156.462059257261,99.86984641665549 155.43041962728603,99.0557910496209 154.94717790588038,98.80180336773265 154.5453814184002,98.71714055267876 154.52366268934566,91.88508323468704 153.801514948369,91.38355543735452 153.39971846088883,91.22723417201996 151.77624346426455,90.84945598968625 151.45589221073897,89.76170120929237 151.5319077624299,89.15593644574255 151.2930017428589,87.57961480298763 149.88128435448743,85.6189217657884 149.4414800911618,84.85677348818353 149.16456629574532,83.89267370943344 148.63245743393782,81.18268321303549 148.4044107789232,80.47259202074565 148.00804397370666,79.69082989158414 145.19003887919826,75.63200700697416 144.6090628770471,74.96745274663408 142.55664298162446,73.11708386014652 139.39113822227228,68.46483135787275 138.58754524731194,67.73503136142244 136.23649282744736,66.4122447419577 135.45461858154158,65.79971232512617 130.51360772221233,60.19538271649071 130.06837377665215,59.8630154006205 128.38517227509874,59.10051825550181 127.60329802922206,58.42925153014221 124.51380882156081,54.583977070677065 123.78623139829142,53.52159218289307 123.867676632246,53.430343465232 124.72556642981363,53.449896774334775 125.07849577689194,53.078382738734945 125.42599544173572,53.01320458469854 125.58888590961578,53.20222102331536 125.75177637752495,53.76926652741531 126.24587746345787,54.66870628962715 127.00603298028,55.340017896862264 127.20150154174189,55.89400687782472 127.06575948518002,56.07649617084462 126.80513473652536,56.05042630811295 126.4739241185016,55.69196446986098 125.0730660946283,53.65846498181054 124.8070116637391,53.52159218289307 123.88396567900782,53.449896774334775 123.68849711757503,53.34561238054812 123.52017696740222,52.75900906213792 123.50931760290405,51.3902441893224 123.36814586404944,50.855765051372146 122.48310765516362,49.473917392544536 121.25599946369766,47.85737325696391 121.13111677166307,47.87041008912274 120.95736693925573,48.08551738320966 119.39361844750238,51.33158209310568 119.12213433434954,51.18166756916253 116.15752781872288,48.20284828764488 115.45166912450804,48.8872736838166 115.16932564685703,49.213187610967 115.21819278720068,49.252297155268025 115.09873977742973,49.17407803945025 114.87612280464964,49.356589140450524 114.37659203645308,49.434808002377395 105.3416007507476,48.541802858504525 105.09183536664932,48.8872736838166 105.16785091834026,48.83512728017013 105.95515484648058,49.32399791584976 107.43745810427936,50.68629499565577 106.95964606513735,50.282172032395465 105.92800643516239,50.647186448724824 105.15699155381299,51.09693309625436 105.20585869415663,51.136041330380976 105.23300710550393,51.07086092505051 105.03753854401293,51.03175264557285 105.31988202169305,50.97309017537191 105.3687491620658,50.87531925570147 105.05925727309659,50.542896857266896 104.66289046785096,49.617318257060106 104.63031237426912,49.33703440795216 104.5,49.2327423865172 105.11355409570388,48.86120048805242 105.14613218928571,48.70476105945272 105.72710819143686,48.16373801337977 105.8031237430987,47.85737325696391 105.62937391069136,48.072480600916606 105.61851454616408,48.29410548851229 105.52620994768222,48.2224034145911 105.58593645261135,48.15070124924023 105.64566295748227,48.2093666640576" stroke="#fff500" stroke-dasharray="none" stroke-linecap="round" stroke-linejoin="round" stroke-width="0.5"><title>2024-09-26 32.6km</title><desc>1727327929000</desc></polyline><polyline fill="none" opacity="1" points="95.5,199.58581450269457 95.36689999628652,199.59399250604156 95.27440677336563,199.63760837672817 95.09242823721434,199.79753111537502 95.01647851758389,199.84568901455896 94.97887964647816,199.93927802992403 94.56529206431878,200.36813736933118 94.49535816406205,200.50442239683616 94.42843217349582,200.73246726490515 94.36977793456754,200.878739490905 94.20659883396729,201.10313929026916 93.94340673623083,201.36387090112112 92.92146941958708,202.28408279547557 92.75377845445473,202.4739252316731 92.70038805748845,202.55839906567462 92.65301347989225,202.66012976175807 92.65226150246963,202.6964618267134 92.72445133499423,203.5583896748417 92.67782873482065,204.01156690218977 92.6424857959828,204.12054341153407 92.5943592409676,204.41204797837918 92.56728805377134,204.47561448400893 92.47479483085044,204.60002169507015 92.2416818299971,204.75076058109698 92.23867392030661,204.7698297475954 92.27326488172548,204.83793352746898 92.28228861078969,204.81614038356201 92.28228861078969,204.8270369632396 92.30259200118599,204.82249672358466 92.2943202495444,204.8533703003518 92.28304058821595,204.85064616621366 92.26724906234813,204.8742552966687 92.25972928812917,204.8651748704583 92.25521742359706,204.87697942243858 92.23115414608765,204.8806115886323 92.23641798804238,204.89786435460928 92.2341620557745,204.88787591586652 92.2251383267103,204.90512866553854 92.22965019124604,204.89332415678928 92.21912250733294,204.90512866553854 92.21310668795559,204.88878395628672 91.43255412380677,205.49987083359565 90.62117048534856,205.94203862495078 90.61214675628435,205.97835517794374 90.04289984774732,206.3769180758909 90.00605295406422,206.3451427484888 90.01808459281528,206.35512929410515 90.0128207508642,206.34786635312457 73.58963385198149,208.0254235417633 72.4090292992696,207.47444808406453 71.90294849418933,207.30742301704458 54.376610717070434,223.79365978172018 54.00212596086203,223.66593870224915 53.743445727654034,223.54274473908072 53.559963236657495,223.48748798523366 53.558459281815885,223.47661775763618 53.20578187084175,223.42045467145908 52.477115748821234,223.27460991227053 52.198132125216944,223.25377472195714 51.92441234356738,223.2700805278514 44.165509302238206,229.77335443668926 43.8083200267356,230.2584812820055 43.10371718222086,231.3091835393816 42.86007649745443,231.70191591253433 42.70892903561253,231.92089628436634 42.492359538042365,232.17515911433384 42.19532845630965,232.439366451953 41.86821827769381,232.66013553625044 41.51478888930433,232.83023201547212 41.20497419139065,232.9297548195691 40.431189424038166,233.1152257253866 40.24169111367155,233.17403264662244 39.99654647405987,233.27174162127585 39.64762895020249,233.4599183975929 38.99340859296717,233.8977735953722 38.78586282446486,234.05336907214814 38.43844925544545,234.35098195173669 37.761669575549604,235.0927029296795 37.333794422367646,235.57930570621738 36.902159382079844,236.0025710206096 35.930604552711884,236.7296651982415 35.86142262987778,236.72152646151972 35.78848081993419,236.76222005974068 35.732834490696405,236.77397594837112 34.934234468415525,237.17909107103333 34.865804523004044,237.14292093805898 34.794366667905706,237.12935709471776 34.662770619033836,237.14834646875624 33.90026551301344,237.3563222850148 33.58819488283916,237.4566912278592 33.10993724237778,237.66285038928072 32.65799881169005,237.92054163827333 32.39029484942148,238.1095097820189 32.090255857994634,238.35543272385758 31.81052025697136,238.62394997722367 31.682684095212608,238.77221814938503 30.973569386162126,239.44210184052235 24.794570908685273,243.76105726924834 23.605694604328164,244.8785879865536 23.080814363696845,245.4305184339687 22.60857254261282,245.95892577374707 21.97239964350956,246.64986582460688 21.762597942735738,246.85487805911134 21.445263470606733,247.09691198097153 20.52033124141235,247.7227334496829 19.616454380036885,248.34669868716674 19.49989787960658,248.43789636232168 19.349502395183663,248.58417158998827 19.236705781870114,248.7340557001594 19.113381484647107,248.9344986139613 19.02540012625832,249.12049057503236 18.952458316311095,249.33807747189712 18.927643061382696,249.50510063215188 18.90658769356378,250.30044285226495 14.976001708197145,250.41418549730588 15.001568940548168,250.38710406583414 14.905315830517793,250.20475330862473 14.85418136581211,250.03955066877234 14.74664859445329,250.1280202779094 14.700777971702337,250.09100760454157 14.626332206913503,249.98809339296395 14.59324520033988,249.96281601012606 14.597757064871985,249.97726023893756 14.630092094022984,249.99350996432622 14.617308477849292,249.99350996432622 14.59324520033988,249.96101047964112 14.632348026290856,249.94837175451767 14.619564410113526,249.95830218312813 14.60076497456248,249.96281601012606 14.626332206913503,249.943857919146 14.52857514203788,249.98989891716974 14.572941809943586,249.994412725855 14.581965539011435,249.98448234329544 14.576701697053068,250.00705137624527 14.538350848528353,249.98087129195665 14.552638419547293,249.98357958061797 14.579709606743563,249.96101047964112 14.56993390025309,249.95017728793482 14.598509042298247,249.94476068643144 14.576701697053068,249.96101047964112 14.563918080879375,249.95739941741294 14.587981358388788,249.9537883535113 14.585725426120916,249.94295515175918 14.599261019717233,249.94927452127968 14.569181922830467,249.943857919146 14.58271751643042,249.91677485196897 14.597005087452999,249.9285108593108 14.583469493853045,249.94114961667037 14.594749155188765,249.96732983450784 14.596253110030375,249.94114961667037 14.60076497456248,249.95198282093452 14.606028816513572,249.943857919146 14.597757064871985,249.9339274721201 14.630092094022984,249.9212887030376 14.638363845664571,249.9366357771105 14.549630509856797,249.96010771423926 14.550382487279421,249.94656622068533 14.551134464702045,249.97364918424682 14.534590961418871,249.99712100980742 14.54135875821521,250.00975965580346 14.536094916260481,250.0016348143031 14.521807345241541,250.01969000612326 14.517295480709436,250.01066241544777 14.54135875821521,250.0016348143031 14.508271751641587,250.00975965580346 14.507519774222601,250.02239828128495 14.5,250.01066241544777 14.51579152586055,250.007954136202 14.515039548441564,250.02510655550714 14.50902372906421,250.01246793442033 14.572941809943586,249.9474689876538 14.562414126034128,249.94656622068533 14.538350848528353,249.99260720269513 14.519551412977307,249.9998292928185 14.524063277505775,249.98448234329544 14.519551412977307,249.995315487276 14.510527683909459,249.98357958061797 14.584221471275669,249.94566345360954 14.57895762932094,249.95559388567108 14.579709606743563,249.94566345360954 14.56993390025309,249.95017728793482 14.548126555015187,249.92489978201183 14.569181922830467,249.99350996432622 14.590989268072008,250.0088568960532 14.581213561588811,250.01517621209177 14.60226892940409,249.99260720269513 14.618060455268278,249.9980237709151 14.751160458981758,250.1596163233039 14.847413569015771,250.06121678843692 14.866213004566816,250.05941128076665 14.920355378959357,250.2300299061244 15.00532882765765,250.39342307493644 14.98201752757086,250.41147735839513 15.009840692189755,250.3907149288043" stroke="red" stroke-dasharray="none" stroke-linecap="round" stroke-linejoin="round" stroke-width="0.5"><title>2024-09-25 160.1km</title><desc>1727226501000</desc></polyline></svg>