<?xml version="1.0" encoding="utf-8" ?>
<svg baseProfile="full" height="300mm" version="1.1" viewBox="0,0,200,300" width="200mm" xmlns="http://www.w3.org/2000/svg" xmlns:ev="http://www.w3.org/2001/xml-events" xmlns:xlink="http://www.w3.org/1999/xlink"><defs /><rect fill="#222222" height="300" width="200" x="0" y="0" /><text fill="#FFFFFF" style="font-size:12px; font-family:Arial; font-weight:bold;" x="10" y="20">Over 10km Workouts</text><text fill="#FFFFFF" style="font-size:9px; font-family:Arial" x="10" y="290">Kin Azem</text><text fill="#FFFFFF" style="font-size:4px; font-family:Arial" x="65" y="280">SPECIAL TRACKS</text><rect fill="yellow" height="2.6" width="2.6" x="65" y="283" /><text fill="#FFFFFF" style="font-size:3px; font-family:Arial" x="70" y="285.5">Over 20.0 km</text><rect fill="red" height="2.6" width="2.6" x="65" y="287" /><text fill="#FFFFFF" style="font-size:3px; font-family:Arial" x="70" y="289.5">Over 40.0 km</text><text fill="#FFFFFF" style="font-size:4px; font-family:Arial" x="120" y="280">STATISTICS</text><text fill="#FFFFFF" style="font-size:3px; font-family:Arial" x="120" y="285">Number: 3</text><text fill="#FFFFFF" style="font-size:3px; font-family:Arial" x="120" y="290">Weekly: 1.5</text><text fill="#FFFFFF" style="font-size:3px; font-family:Arial" x="141" y="285">Total: 220.0 km</text><text fill="#FFFFFF" style="font-size:3px; font-family:Arial" x="141" y="290">Avg: 73.3 km</text><text fill="#FFFFFF" style="font-size:3px; font-family:Arial" x="167" y="285">Min: 27.3 km</text><text fill="#FFFFFF" style="font-size:3px; font-family:Arial" x="167" y="290">Max: 160.1 km</text><polyline fill="none" opacity="1" points="64.95197549756267,61.34990878467943 64.56291285011685,61.26632998219429 64.13679661721108,61.3347126473418 63.482183273881674,61.09157393257556 62.6793555887125,61.08397583206897 62.13590300185024,60.947209860172734 61.87035230596666,60.75725661056276 61.49364085367415,60.08861644579156 61.30837292634533,59.42756722851118 61.38865569484187,57.94587905234948 61.592450414958876,57.30760223633479 61.46893846336752,57.269609357179434 61.234265755396336,57.5887488033768 61.11075380380498,57.54315755661082 61.19721216990729,56.4185626346989 61.07370021834504,56.44135868449666 60.85137870552717,56.97326408400477 60.622881595103536,57.04925018934955 60.06707781305886,56.63132543343454 58.325559295975836,55.985436062550434 57.94267224610667,55.917047374034155 57.58448758654413,56.03862721148471 56.6149187667761,55.825862336194405 56.53463599825045,55.620695500449074 56.670499144966016,55.11157480271868 56.54081159582711,55.01278969527266 56.17645133868791,55.4687196196719 55.51566239784006,55.80306605534133 55.23158490922651,55.628294284513686 54.71901031021844,55.70428207275836 54.33612326034927,55.392731536659994 53.98411419839249,55.51431242384933 53.87295344195445,55.347138641205675 54.14467973544379,54.82281788315959 54.13850413783803,54.61004874799255 53.83589985649451,54.511262824675214 53.32950085506309,54.85321341302188 52.92808701249305,54.70123561147557 52.7613458778651,54.19210720488991 52.42168801109074,54.0477267306087 52.50197077958728,53.46260234638612 52.40316121830256,53.24222936341539 51.75472347260802,53.39421081657201 51.60033353313338,53.24982844509577 51.60033353313338,52.92306707356329 51.47064598399447,52.82427840579476 50.507252761744894,52.892670577530225 50.19847288285382,52.68749383121758 50.08731212641578,52.41392375765645 50.13054130951059,51.281634511902666 50.309633639262756,50.31651224401139 51.00747616562876,48.6826088673879 51.06923214136623,46.9878626286627 50.86543742130743,45.64267162166652 50.37138961502933,44.77626163202149 50.53195515208063,43.879438267525984 50.513428359350655,43.3018162042863 49.753829857188975,41.8349354725251 49.741478662064765,41.219291029508895 49.88351740635699,40.535234324761404 50.84691062857746,38.37660484119988 49.574737527407706,36.80318920274658 50.28493124895613,36.202696151340206 50.760452262475155,34.5 50.22935087073711,36.27110705202358 49.34006481943652,37.02362186999744 49.22890406305669,36.93240844960383 49.41417199038551,37.25165482119701 49.01893374539213,36.77278463407856 50.056434138532495,38.057364386964764 50.562833139963914,38.239787709288066 50.74192546974518,38.42221048330612 50.593711127876304,38.452614225650905 50.74192546974518,38.42221048330612 49.383294002502225,37.1756439326673 50.07496093129157,38.04976340329449 50.59988672542386,38.23218674848249 50.686345091526164,38.171379027677176 50.581359932693886,38.06496536968916 48.9510021720198,44.046643628458696 48.253159645653795,45.05746622966399 48.27168643841287,52.01116557298519 49.22272846548003,52.10235633933189 50.01938055307255,52.50511391914188 49.6056155153492,53.40180987923304 49.01275814778637,54.07812264846507 49.160972489684355,55.01278969527266 48.77190984223853,56.31977965334954 48.18522807228146,57.178426350219524 48.77808543984429,61.357506851938524 47.06744491061545,64.4270482671709 46.99951333727222,65.49831209809054 46.71543584865867,66.12890537784915 46.11640288354829,66.75189472013517 45.86320338281803,67.35208572688134 45.702637845795834,67.48123997837683 44.572503488947405,68.23336810496039 43.98582171901944,68.11181267493885 43.75732460859581,68.53725561590909 43.71409542555921,69.07665220419949 43.89318775534048,69.82876057945396 43.84378297472722,70.57326273039871 43.9919973165961,71.32535257889322 44.64043506231974,72.25975427056619 44.71454223323963,72.60160495765376 43.08418447256554,76.71125934190786 43.1768184362445,78.93688959576684 43.3806131563324,79.65089704955972 43.28797919265344,80.40287455352154 42.213425213994924,81.51943004648638 41.984928103600396,83.04611558316537 41.01535928383237,84.2005985846663 40.60159424605081,84.38288336988626 40.33604355019634,84.3145266395004 40.0210880736995,84.52719177047766 39.58879624324618,85.39303497934452 39.385001523129176,85.57531618859502 39.25531397399027,86.18291627160215 38.31662314207642,87.3373396974821 37.41498589562252,89.0309607066265 37.00739645547583,89.54739180624529 36.846830918395426,90.33721912003966 36.179866379941814,91.13463051763756 36.13663719690521,92.15985837501648 34.63596698537003,93.82296901844893 34.27778232580749,94.85574542535687 33.85784169047838,95.48603417151753 33.97517804446397,95.51640936773765 34.27160672825994,96.14669126561785 34.27160672825994,96.69343653589021 33.80226131225936,97.07311785897036 33.53671061640489,97.04274344036821 33.49348143336829,97.15664743190428 33.66022256796714,97.26295763149756 35.234999950480415,96.51118865870012 35.69199417126947,96.45043924492711 36.062530025985325,96.54915701150458 37.01974765062914,97.23258330771932 37.674360993900336,98.00712382462007 42.57160987355746,101.45446880733653 44.078455682698404,101.91764343951581 46.01141772471601,102.95787524782645 47.69118026600336,103.1401038061922 48.913948586559854,102.99583957584764 49.77853224752471,103.10973241771353 50.66164270124864,103.39066718240065 52.72429229237605,104.47642988461303 54.42875722402823,104.89402576290377 55.898549447680125,104.63587592195836 57.15837135366746,104.84087735580397 58.31320810082252,105.69124629634825 60.14736058161361,106.34420009219684 60.62905719268019,106.61752750691085 61.629504000389716,107.57416378642301 62.14825419697445,108.58393020426593 63.03136465069838,109.7758885395051 63.543939249706455,110.07956845856461 65.52013047478977,109.99605663194961 66.66879162433906,109.63164004688224 67.56425327321631,109.57849577916568 75.55547653959366,111.07410958134642 75.73456886937493,112.27361083172946 76.12363151682075,113.47308843245628 76.0433487483242,113.63251089007463 75.61105691781268,113.78434141372418 75.85808082093718,114.88510137882622 76.50651856666082,115.5" stroke="#ffff00" stroke-dasharray="none" stroke-linecap="round" stroke-linejoin="round" stroke-width="0.5"><title>2026-06-28 27.3km</title><desc>1782622347000</desc></polyline><polyline fill="none" opacity="1" points="176.0686419091071,95.38262695948288 175.93832953477977,94.6727147937163 176.264110470569,94.47732455420191 176.70934441612917,94.43824642497566 176.77450060329284,94.32101187462831 177.12200026813662,94.45127247106939 177.5672342136968,94.3014727591617 177.64324976538774,94.36009008518886 177.59981230727863,94.42522037586969 177.62696071859682,94.36009008518886 177.70297627028776,94.43824642497566 177.55637484919862,94.45127247106939 177.88215578495874,94.39916826862827 177.3717656522058,94.49686360866326 177.56180453143315,94.44475944838996 177.32289851186215,94.19075097695895 177.87129642043146,94.1972640289896 177.98531974796788,93.98233291413635 178.64231130178086,94.06048977806495 179.4187558653939,93.78042718041979 179.9237163158541,93.35056094963511 180.47211422442342,93.19424514326238 180.3418018501252,92.6080570058839 180.5807078696962,91.68968332516306 180.79789516021265,91.41612231301042 182.0684408097586,91.13604656690586 182.81230727978982,91.27282791923426 183.49101756268647,91.01880514340519 184.27832149079768,90.85596942808479 184.38148545380682,90.79734845533312 184.37605577154318,90.61497170545044 184.4629306877614,90.77780811752018 185.0113285963307,90.62799863575856 185.09820351251983,90.52378310905624 185.23937525137444,90.5302965851406 185.29367207401083,90.6670794085403 185.35339857891086,90.47167527341298 185.35339857891086,90.68661978477758 185.33710953209084,90.44562133750514 185.3316798498272,90.52378310905624 185.41855476607452,90.50424267634298 185.33710953209084,90.54983700880985 185.3316798498272,90.47167527341298 185.5,90.56286395416464 185.39683603701997,90.60845823918135 185.44027349509997,90.54332353501377 185.35339857891086,90.48470223683398 185.38054699019995,90.55635048187833 185.30996112080174,90.53681006045736 185.4022657192545,90.60194477215919 185.39140635472722,90.4912157174258 185.29367207401083,90.51075615467926 185.30996112080174,90.61497170545044 185.39683603701997,90.62799863575856 185.31539080303628,90.62799863575856 185.25566429816536,90.40654041105881 185.38054699019995,90.54983700880985 185.2882423917472,90.64753902554367 185.24480493363808,90.45213482261897 185.3316798498272,90.54983700880985 185.04390668991255,90.55635048187833 184.9678911382216,90.6670794085403 184.30546990214498,90.84945598968625 184.27832149079768,90.9927514605879 184.17515752781765,90.86899630263724 182.79058855073527,91.27934130868744 181.94355811769492,91.1621001834501 180.82504357150174,91.40960893938245 180.60242659875075,91.65711660767192 180.39066899046884,92.51035838988537 180.46125485989614,93.20727147702928 179.92914599811775,93.40266612203413 179.1255530231865,93.94325444152128 178.57172543235356,94.0930551060228 177.96903070117696,94.00838521418336 177.88215578495874,94.21029013080988 177.26860168922576,94.19075097695895 177.3174688295985,94.32752491159408 177.2577423247276,94.41870735018165 177.10028153908206,94.45778549297756 176.7853599678201,94.33403794781043 176.69305536933825,94.46429851412904 176.25325110604172,94.4838375731124 175.95461858157068,94.6727147937163 176.00891540417797,95.35657529503078 175.86774366535246,95.55847537950467 175.4225097197923,95.5259108986902 175.30305671002134,96.57447772518572 174.81438530635205,96.62006714447125 174.7655181659793,96.496324349122 174.9772757742321,96.53540105069987 174.64606515617925,96.59401605225139 174.7655181659793,96.496324349122 174.65692452070653,96.3790940817562 174.9772757742321,96.26186357046754 174.8089556240884,96.60052882643868 175.04786164365942,96.61355437255406 174.18454216382816,96.56145217002995 174.14110470571904,96.83498819562737 174.00536264915718,96.7242713928863 174.0216516959481,96.79591170185086 173.8967690038844,96.78288619792875 173.6307145729952,97.87050540459313 172.6207936720748,99.89589599421015 172.36559860571288,100.19546527024067 171.9366537069145,100.39083567911803 169.1186486124352,100.52108224202675 165.6436519640556,100.54061920050663 165.22556642981363,100.73598841258718 165.14412119585904,102.0644810903359 163.0211154310091,102.14262674303609 162.2663895964506,101.98633532926033 160.9469768065319,101.4653608191511 159.19318943558028,101.18533502965147 158.83483040620922,101.21138399901247 158.30272154445993,101.00299190692749 157.5860034857178,100.6578408090354 157.24393350313767,100.30617525177149 157.01588684812305,100.22802705209324 156.69010591233382,99.92845794919049 156.462059257261,99.86984641665549 155.43041962728603,99.0557910496209 154.94717790588038,98.80180336773265 154.5453814184002,98.71714055267876 154.52366268934566,91.88508323468704 153.801514948369,91.38355543735452 153.39971846088883,91.22723417201996 151.77624346426455,90.84945598968625 151.45589221073897,89.76170120929237 151.5319077624299,89.15593644574255 151.2930017428589,87.57961480298763 149.88128435448743,85.6189217657884 149.4414800911618,84.85677348818353 149.16456629574532,83.89267370943344 148.63245743393782,81.18268321303549 148.4044107789232,80.47259202074565 148.00804397370666,79.69082989158414 145.19003887919826,75.63200700697416 144.6090628770471,74.96745274663408 142.55664298162446,73.11708386014652 139.39113822227228,68.46483135787275 138.58754524731194,67.73503136142244 136.23649282744736,66.4122447419577 135.45461858154158,65.79971232512617 130.51360772221233,60.19538271649071 130.06837377665215,59.8630154006205 128.38517227509874,59.10051825550181 127.60329802922206,58.42925153014221 124.51380882156081,54.583977070677065 123.78623139829142,53.52159218289307 123.867676632246,53.430343465232 124.72556642981363,53.449896774334775 125.07849577689194,53.078382738734945 125.42599544173572,53.01320458469854 125.58888590961578,53.20222102331536 125.75177637752495,53.76926652741531 126.24587746345787,54.66870628962715 127.00603298028,55.340017896862264 127.20150154174189,55.89400687782472 127.06575948518002,56.07649617084462 126.80513473652536,56.05042630811295 126.4739241185016,55.69196446986098 125.0730660946283,53.65846498181054 124.8070116637391,53.52159218289307 123.88396567900782,53.449896774334775 123.68849711757503,53.34561238054812 123.52017696740222,52.75900906213792 123.50931760290405,51.3902441893224 123.36814586404944,50.855765051372146 122.48310765516362,49.473917392544536 121.25599946369766,47.85737325696391 121.13111677166307,47.87041008912274 120.95736693925573,48.08551738320966 119.39361844750238,51.33158209310568 119.12213433434954,51.18166756916253 116.15752781872288,48.20284828764488 115.45166912450804,48.8872736838166 115.16932564685703,49.213187610967 115.21819278720068,49.252297155268025 115.09873977742973,49.17407803945025 114.87612280464964,49.356589140450524 114.37659203645308,49.434808002377395 105.3416007507476,48.541802858504525 105.09183536664932,48.8872736838166 105.16785091834026,48.83512728017013 105.95515484648058,49.32399791584976 107.43745810427936,50.68629499565577 106.95964606513735,50.282172032395465 105.92800643516239,50.647186448724824 105.15699155381299,51.09693309625436 105.20585869415663,51.136041330380976 105.23300710550393,51.07086092505051 105.03753854401293,51.03175264557285 105.31988202169305,50.97309017537191 105.3687491620658,50.87531925570147 105.05925727309659,50.542896857266896 104.66289046785096,49.617318257060106 104.63031237426912,49.33703440795216 104.5,49.2327423865172 105.11355409570388,48.86120048805242 105.14613218928571,48.70476105945272" stroke="#fff500" stroke-dasharray="none" stroke-linecap="round" stroke-linejoin="round" stroke-width="0.5"><title>2024-09-26 32.6km</title><desc>1727327929000</desc></polyline><polyline fill="none" opacity="1" points="95.5,199.56368362007515 95.42366618769665,199.61208506322828 95.3858771717023,199.70614737665392 94.97019799578266,200.13717554210052 94.89991042603651,200.27414978979778 94.83264597757079,200.50334792562307 94.77369511262077,200.6503598790423 94.60969078321068,200.87589451233362 94.34516767126479,201.13794469422965 93.3180622165819,202.062810281147 93.14952320525481,202.25361278788796 93.09586280254734,202.3385138226845 93.04824864239345,202.44075899090967 93.04749286207516,202.4772747942643 93.12004777278344,203.34356158106857 93.07318939295146,203.799030614799 93.03766771791561,203.9085582397879 92.98929777744706,204.20153700256878 92.96208968593055,204.26542497652144 92.86912870658853,204.3904613393206 92.63483680743593,204.54196254154613 92.63181368615187,204.56112814457038 92.6665795808658,204.62957633865562 92.67564894470706,204.60767298253268 92.67564894470706,204.61862466835737 92.69605501334081,204.614061467817 92.68774142982511,204.6450911783354 92.67640472502899,204.64235326771495 92.6605333383086,204.66608179418654 92.65297553511118,204.65695544647497 92.64844085319419,204.66881969639644 92.6242558829581,204.67247023116897 92.62954634519701,204.6898102477776 92.62727900423488,204.67977129553537 92.61820964039725,204.6971112957558 92.62274432231789,204.68524708928408 92.61216339784005,204.6971112957558 92.60611715527921,204.68068392809437 91.82161718327188,205.29486119194735 91.00613021814934,205.7392651128016 90.99706085431171,205.77576532574676 90.42493515218302,206.17634383466975 90.3879019165106,206.14440781318626 90.39999440162501,206.15444486272781 90.39470393938973,206.14714519162635 73.88846175378421,207.83318611695768 72.70188665161186,207.27942426798745 72.19324649635382,207.1115545223488 54.57827458151951,223.68116542932012 54.20189598223442,223.55279843922654 53.94190755220552,223.42898145995332 53.757497154158045,223.37344526183279 53.75598559352147,223.362520061356 53.4015246235067,223.30607294740412 52.66917349357027,223.1594906225796 52.38877899490399,223.13855006461063 52.11367495847662,223.1549383321726 44.31553361822807,229.69110057641456 43.95653796629631,230.17868080361586 43.24837180659597,231.23469666898927 43.0034989829619,231.62941516700675 42.851587138669856,231.8495029656542 42.63392240654866,232.1050516527689 42.33538918021077,232.3705951388656 42.00662474107594,232.59248069584964 41.65140799074652,232.76343738642572 41.34002649896138,232.8634634969203 40.56232854983318,233.0498723655919 40.37187190923214,233.10897668499683 40.12548752495786,233.20717979315486 39.774805456549075,233.3963082164455 39.11727657827578,233.83637773408964 38.90868120999585,233.99276008779907 38.559510702219995,234.29187805426227 37.879308414354455,235.0373500610931 37.449269412354624,235.52641368359082 37.015451508759725,235.9518195339374 36.03898333551115,236.68259076985123 35.96945154608329,236.67441087393672 35.89614085505673,236.71531026768844 35.84021311138713,236.72712560816035 35.037574411704554,237.13428947768716 34.968798402594985,237.09793642523573 34.89699927221227,237.0843039868705 34.764737716235686,237.10338939390886 33.99837647190361,237.3124169847806 33.68472763916361,237.41329351311242 33.204051355740376,237.62049526196643 32.74982738350445,237.87948970629532 32.48076958964157,238.0694134991154 32.179213242015976,238.31658012164598 31.898062963031407,238.586455319582 31.76958030865717,238.73547331305554 31.05687946703256,239.40874473779058 24.846632578795834,243.7495419736938 23.651743893107778,244.8727242636628 23.12420922984893,245.42744593191992 22.649579188982898,245.95852553155737 22.01018903838849,246.65295980216843 21.799326329146425,246.85900882387023 21.480387034167506,247.10226675888362 20.550777240747266,247.73125312986622 19.642329296286334,248.35837388229493 19.52518334670458,248.45003276203306 19.37402728273446,248.59704773229942 19.26066023475869,248.74768983589865 19.136712262305082,248.94914642894446 19.04828596488005,249.13607898794862 18.974975273853488,249.35476626455193 18.95003452329547,249.52263409378293 18.928872674343438,250.3219985159535 14.978408942468377,250.43631637992485 15.004105473341042,250.40909799232713 14.90736559240031,250.2258250514683 14.855972530651343,250.05978694936994 14.747895944910852,250.14870396672313 14.701793345400802,250.11150411298468 14.626971093734028,250.00806944399528 14.59371675966031,249.98266422846018 14.598251441577304,249.99718150457784 14.630749995332735,250.01351340802512 14.617901729896403,250.01351340802512 14.59371675966031,249.9808495670518 14.633017336291232,249.96814692540966 14.6201690708549,249.97812757415113 14.601274562861363,249.98266422846018 14.626971093734028,249.96361026268505 14.528719652149448,250.00988409909178 14.573310691026563,250.01442073499538 14.582380054864188,250.0044401325381 14.57708959262527,250.0271233015278 14.538544796312635,250.0008108194029 14.55290462238554,250.00353280441277 14.580112713902054,249.9808495670518 14.570287569742504,249.9699615897648 14.599007221899228,249.96451759544243 14.57708959262527,249.9808495670518 14.5642413271853,249.97722024297263 14.58842629742503,249.97359091721 14.586158956462896,249.9627029298258 14.599763002221152,249.96905425764044 14.56953178942058,249.96361026268505 14.583135835182475,249.93639023110927 14.597495661259018,249.94818558974885 14.583891615504399,249.96088826379082 14.595228320304159,249.98720088013988 14.596739880940731,249.96088826379082 14.601274562861363,249.97177625369977 14.606565025096643,249.96361026268505 14.598251441577304,249.95362959543445 14.630749995332735,249.94092690961088 14.639063578852074,249.95635159685617 14.549881501108757,249.97994223618798 14.550637281427043,249.96633226063796 14.551393061748968,249.99355218807386 14.534765894713928,250.01714271527317 14.541567917589418,250.02984527738818 14.5362774553505,250.0216793469658 14.521917629273958,250.0398258474429 14.517382947356964,250.03075260246578 14.541567917589418,250.0216793469658 14.508313583519339,250.02984527738818 14.507557803197415,250.04254781888494 14.5,250.03075260246578 14.515871386713115,250.02803062691828 14.51511560639483,250.04526978938202 14.509069363837625,250.03256725230267 14.573310691026563,249.9672395930761 14.56272976654509,249.96633226063796 14.538544796312635,250.01260608095026 14.51965028831546,250.01986469460417 14.524184970232454,250.0044401325381 14.51965028831546,250.01532806185924 14.510580924477836,250.00353280441277 14.584647395822685,249.96542492809158 14.579356933583767,249.97540558030096 14.580112713902054,249.96542492809158 14.570287569742504,249.9699615897648 14.548369940472185,249.94455625052206 14.56953178942058,250.01351340802512 14.591449418698176,250.02893795220416 14.581624274542264,250.03528922626674 14.602786123497935,250.01260608095026 14.618657510214689,250.01805004182143 14.752430626827845,250.18045979953376 14.849170507772214,250.0815626388635 14.868065015769389,250.07974800038528 14.92248119879514,250.25122947769387" stroke="red" stroke-dasharray="none" stroke-linecap="round" stroke-linejoin="round" stroke-width="0.5"><title>2024-09-25 160.1km</title><desc>1727226501000</desc></polyline></svg>