<?xml version="1.0" encoding="utf-8" ?>
<svg baseProfile="full" height="300mm" version="1.1" viewBox="0,0,200,300" width="200mm" xmlns="http://www.w3.org/2000/svg" xmlns:ev="http://www.w3.org/2001/xml-events" xmlns:xlink="http://www.w3.org/1999/xlink"><defs /><rect fill="#222222" height="300" width="200" x="0" y="0" /><text fill="#FFFFFF" style="font-size:12px; font-family:Arial; font-weight:bold;" x="10" y="20">Over 10km Workouts</text><text fill="#FFFFFF" style="font-size:9px; font-family:Arial" x="10" y="290">Kin Azem</text><text fill="#FFFFFF" style="font-size:4px; font-family:Arial" x="65" y="280">SPECIAL TRACKS</text><rect fill="yellow" height="2.6" width="2.6" x="65" y="283" /><text fill="#FFFFFF" style="font-size:3px; font-family:Arial" x="70" y="285.5">Over 20.0 km</text><rect fill="red" height="2.6" width="2.6" x="65" y="287" /><text fill="#FFFFFF" style="font-size:3px; font-family:Arial" x="70" y="289.5">Over 40.0 km</text><text fill="#FFFFFF" style="font-size:4px; font-family:Arial" x="120" y="280">STATISTICS</text><text fill="#FFFFFF" style="font-size:3px; font-family:Arial" x="120" y="285">Number: 4</text><text fill="#FFFFFF" style="font-size:3px; font-family:Arial" x="120" y="290">Weekly: 1.3</text><text fill="#FFFFFF" style="font-size:3px; font-family:Arial" x="141" y="285">Total: 230.4 km</text><text fill="#FFFFFF" style="font-size:3px; font-family:Arial" x="141" y="290">Avg: 57.6 km</text><text fill="#FFFFFF" style="font-size:3px; font-family:Arial" x="167" y="285">Min: 10.4 km</text><text fill="#FFFFFF" style="font-size:3px; font-family:Arial" x="167" y="290">Max: 160.1 km</text><polyline fill="none" opacity="1" points="36.24101027403958,58.3224893976294 40.15924657532014,56.146924952598056 41.26883561629802,52.64892949719797 42.482448630267754,52.90488160063978 41.16481164377183,54.141980726184556 41.16481164377183,57.853251181251835 38.98030821909197,60.156778049480636 40.43664383562282,59.388937488605734 41.442208904074505,59.60222670662915 43.03724315064028,56.573507310124114 45.741866438416764,55.37907536479179 48.16909246589057,51.92373082766426 48.79323630128056,50.260033936065156 48.307791095925495,44.97027707655798 48.96660958905704,44.58633991747047 50.24957191781141,44.884957745322026 53.3009417806752,47.95644022687338 55.208047945285216,46.67665922106244 56.45633561653085,47.74314372605295 59.923801369965076,48.980261573946336 64.77825342467986,49.79078462757752 69.87542808218859,49.6201483552577 69.07791095878929,53.80071244999999 73.6202910959255,56.701481913158204 80.27782534249127,58.87704282111372 83.91866438370198,61.60713883722201 82.98244863026775,65.91552716042497 83.98801369871944,66.25678331550444 83.3291952055879,66.42741126494366 82.94777397275902,65.53161357771023 83.84931506845169,62.41763188538607 85.89511986309662,63.18546562831034 86.93535958905704,62.886863822554005 86.48458904121071,62.28965942692594 87.00470890430734,61.69245398565545 88.66909246589057,62.886863822554005 88.49571917811409,62.3749744046072 90.61087328777649,63.228123007836984 92.1365582193248,63.142808243545005 91.16566780814901,62.11902940747677 92.79537671245635,60.4980399661581 93.41952054807916,58.45046334460494 95.01455479487777,57.72527701026411 95.46532534249127,59.13299025094602 94.35573630151339,60.156778049480636 95.01455479487777,59.77285798511002 95.0839041096624,60.28475130829611 94.63313356158324,60.11412028578343 95.5,59.60222670662915 94.70248287683353,60.626013096858514 95.0839041096624,60.11412028578343 94.45976027403958,59.900831387989456 95.25727739743888,59.858173592278035 94.56378424656577,57.89590922763455 93.28082191781141,58.40780536751845 92.76070205471478,60.41272451891564 91.13099315064028,62.332316918385914 92.10188356181607,63.100150853424566 90.40282534249127,63.27078038192121 88.35702054784633,62.247001930110855 88.49571917811409,62.758891540259356 86.93535958905704,61.60713883722201 86.79666095878929,62.886863822554005 84.78553082211874,63.057493457978126 83.71061643841676,62.46028936095536 83.57191780814901,61.265878030186286 80.00042808218859,58.74906903420924 73.79366438346915,56.78679828872555 69.07791095878929,53.8433710031386 69.97945205494761,49.7481255675375 64.2234589040745,49.79078462757752 59.29965753434226,48.93760241262498 55.138698630267754,46.591340316605056 53.3009417806752,47.87112164249993 50.076198630034924,44.71431901861797 49.1053082193248,44.58633991747047 48.37714041094296,45.14091567523428 48.16909246589057,47.14591281412868 48.82791095902212,50.089397898555035 48.06506849313155,52.137024714029394 45.395119863096625,55.67768374324078 43.279965753434226,56.402874431048986 40.92208904097788,60.242093560664216 36.24101027403958,64.9344138125889 35.06207191781141,66.98195151146501 33.0509417806752,67.02460841624998 30.589041095692664,68.98682026567985 27.607020547846332,69.49869976146147 25.0410958903376,68.00571575193317 25.145119862863794,64.97707097328384 24.31292808218859,63.910640354122734 23.13398972596042,69.62666951530264 26.254708904074505,73.72167629137402 26.601455479394644,75.47057045431575 23.16866438346915,85.49454694899032 20.60273972596042,88.56566377996933 21.122859589057043,91.38082992102136 20.429366438416764,92.53248210123274 20.741438356228173,93.94005170863238 19.354452054714784,94.87842822037055 16.71917808218859,94.8357747985865 14.777397260069847,96.03006859359448 14.5,97.01109251187881 15.22816780814901,97.48027686687419 15.678938355995342,96.37129462428857 16.372431506868452,96.28598814853467 17.03124999976717,98.12007267482113 18.556934931548312,98.80252021408523 19.59717465774156,101.23372847842984 17.75941780814901,102.47065234929323 19.077054794412106,105.41366008250043 21.36558219161816,104.34735586552415 22.82191780814901,102.00147485709749" stroke="#4dd2ff" stroke-dasharray="none" stroke-linecap="round" stroke-linejoin="round" stroke-width="0.5"><title>2026-07-21 10.4km</title><desc>1784599135000</desc></polyline><polyline fill="none" opacity="1" points="156.85704346123384,58.9433226971305 156.72467345328187,58.90260503660102 156.4731704381993,59.2446325933779 156.34080043024733,59.1957716238976 156.43345943579334,57.99052276454313 156.30108942787047,58.01495370628254 156.0628234135511,58.585006410190545 155.81793889886467,58.66644210318191 155.22227386315353,58.218544530864165 153.3558567512082,57.526333128909755 152.94550972658908,57.45303972590773 152.56163670355454,57.58333905196196 151.52253214124357,57.35531506015832 151.4364916360937,57.13543402571668 151.58209864480887,56.589800101668516 151.44311013646075,56.48393030290754 151.05261861303006,56.97255870644585 150.34443907058449,57.33088387079624 150.03998805230367,57.14357778098929 149.49065251936554,57.22501527757413 149.08030549474643,56.89112089396076 148.70305097213713,57.02142134503811 148.58391796497745,56.84225815755053 148.87513198246597,56.280334052025864 148.86851348204073,56.052305494842585 148.54420696257148,55.9464348216934 148.0014899300295,56.31290949495451 147.57128740425105,56.15003211716248 147.39258789352607,55.60438993139542 147.02857037170907,55.44965474759374 147.11461087682983,54.822566288523376 147.00871487049153,54.586388549156254 146.31377232880914,54.74926984044578 146.14830981890555,54.5945326233923 146.14830981890555,54.244336510426365 146.00932131052832,54.13846289600042 144.9768352485844,54.21176003203436 144.6459102287772,53.99186837625166 144.52677722161752,53.69867834605975 144.57310672441963,52.48518333971151 144.7650432359078,51.45084422804939 145.51293378078844,49.69976022207993 145.57911878472078,47.88346981268842 145.36070827164804,46.44180411137495 144.83122823986923,45.513256746096886 145.00330925019807,44.552114813093795 144.98345374900964,43.93306672805193 144.16937820016756,42.36098393244902 144.15614119940437,41.70118657052808 144.30836670851568,40.96807054175588 145.3408527704596,38.654628010466695 143.9774416886503,36.96836981510569 144.73856923432322,36.32481047551846 145.2481937648845,34.5 144.67900273072883,36.398127683700295 143.72593867356773,37.20461151920608 143.60680566643714,37.10685643535544 143.80536067835055,37.4489985860273 143.38177665293915,36.93578468513442 144.4936847196368,38.31249220154132 145.0364017521788,38.507998598433915 145.22833826369606,38.70350440769835 145.0694942541886,38.736088652090984 145.22833826369606,38.70350440769835 143.77226817634073,37.36753633245098 144.51354022082523,38.30434608890937 145.07611275455565,38.49985251030739 145.16877176013077,38.43468376846431 145.05625725336722,38.32063831315463 143.30897314858157,44.73131184360682 142.56108260370092,45.81462883479253 142.58093810491846,53.26703506436752 143.600187166041,53.364765869460825 144.45397371725994,53.79640850290889 144.0105341906892,54.75741389430186 143.375158152543,55.482230606343364 143.53400216207956,56.48393030290754 143.1170366370643,57.88465524435742 142.48827909934334,58.80488254738884 143.12365513748955,63.28367923203041 141.29033052749583,66.57336267035862 141.21752702313825,67.72145562820515 140.91307600488653,68.39727393072098 140.2710814663733,69.0649429549594 139.9997229500732,69.708178587789 139.82764193974435,69.84659555132384 138.61645636710455,70.65266496261756 137.9876988294127,70.52239179444587 137.74281431469717,70.97834674260957 137.69648481189506,71.5564278899692 137.88842132344143,72.36247613340674 137.83547332027229,73.16037264771876 137.99431732977973,73.96640103568643 138.68925987146213,74.96781634632498 138.76868187621585,75.33418395358603 137.0213977714302,79.73857540373137 137.12067527740146,82.12382388079277 137.3390857904742,82.88903867278714 137.23980828453205,83.69494665907405 136.08818921542843,84.89157951600646 135.843304700742,86.5277562102201 134.80420013846015,87.76503666880308 134.3607606118312,87.96039459296298 134.07616509476793,87.88713544006896 133.7386215745064,88.11505253407086 133.27532654674724,89.04299247007293 133.0569160336163,89.23834656179679 132.91792752529727,89.88952263659303 131.91191546496702,91.12673924689443 130.94561440698453,92.94182372724026 130.50879338080995,93.49529234213696 130.336712370452,94.34176465895871 129.62191432758118,95.19636497650936 129.57558482480817,96.295120343093 127.96728922834154,98.07750630884402 127.583416205307,99.18435159343062 127.13335817831103,99.85984352174273 127.25910968583776,99.89239717274177 127.57679770493996,100.56788176162081 127.57679770493996,101.15383862530143 127.07379167474573,101.56075001414138 126.78919615765335,101.52819719653053 126.74286665490945,101.6502701787249 126.92156616560533,101.76420475578925 128.6092837668548,100.95852025615022 129.09905279622762,100.89341400301782 129.49616282005445,100.99921163134422 130.52203038157313,101.73165203980898 131.22359142365167,102.5617412179854 136.47206223846297,106.25632362028409 138.08697633535485,106.75271630909992 140.15856695960974,107.86755168314266 141.95879906756454,108.06284934795985 143.2692621462047,107.90823874490889 144.19585220178124,108.03029977779079 145.1422977585753,108.33138268159382 147.3528768911201,109.49501434386912 149.17958300068858,109.9425594520435 150.7547860951745,109.66589556598046 152.10496017616242,109.88559933619399 153.3426197504159,110.79695521701069 155.3083143683325,111.49673769185029 155.8245573992608,111.78966766014491 156.8967544635816,112.81491218350857 157.45270849694498,113.8970972437528 158.39915405370994,115.17454070001259 158.94848958667717,115.5 161.06640971373417,115.4104988544641 162.2974507875333,115.01994696335896 163.25713334511966,114.96299128376268" stroke="#ffe200" stroke-dasharray="none" stroke-linecap="round" stroke-linejoin="round" stroke-width="0.5"><title>2026-06-28 27.3km</title><desc>1782622347000</desc></polyline><polyline fill="none" opacity="1" points="88.59183604564168,244.20078239645954 89.37399554325384,243.91865842916013 89.8826726990228,243.48562821571977 90.4351070295088,243.32816186421405 90.30383550544502,242.73765915414697 90.54449996622861,241.8125258859327 90.76328583969735,241.53695135832822 92.04318319939193,241.25481414579554 92.7925248160027,241.3926022620799 93.47623067052336,241.13670977981383 94.26932946179295,240.97267553029087 94.37325275171315,240.91362308437965 94.36778310488444,240.72990397068497 94.45529745423119,240.89393892208318 95.00773178474628,240.74302678426466 95.09524613409303,240.63804419075313 95.23745695184334,240.64460560855514 95.2921534202178,240.78239520673742 95.35231953542097,240.5855528211723 95.35231953542097,240.80207940774199 95.33591059490573,240.5593071181611 95.33044094807701,240.63804419075313 95.41795529748197,240.61835993285422 95.33591059490573,240.66428985734456 95.33044094807701,240.5855528211723 95.5,240.6774126860837 95.3960767101089,240.72334256276736 95.43983388479683,240.6577284418454 95.35231953542097,240.59867566810863 95.37966776959365,240.6708512721052 95.30856236073305,240.65116702558225 95.40154635693762,240.71678115409668 95.39060706325108,240.60523709045083 95.2921534202178,240.62492135292632 95.30856236073305,240.72990397068497 95.3960767101089,240.74302678426466 95.31403200756176,240.74302678426466 95.25386589235859,240.5199385408996 95.37966776959365,240.66428985734456 95.28668377338909,240.76271099891892 95.24292659867206,240.56586854506168 95.33044094807701,240.66428985734456 95.04054966574768,240.6708512721052 94.96397461002925,240.78239520673742 94.29667769599473,240.9661141504548 94.26932946179295,241.11046433175943 94.16540617193095,240.98579828771108 92.77064622862963,241.39916359260678 91.91738132215687,241.28105952708938 90.79063407387002,241.53039004373568 90.56637855360168,241.7797194647319 90.35306232693256,242.63924143832992 90.42416773585137,243.34128407686512 89.88814234585152,243.53811690245493 89.07863461406669,244.08268416223655 88.52073063678108,244.23358741789707 87.91359983794973,244.14829432272018 87.82608548854478,244.35168533806063 87.2080153960269,244.33200236843913 87.25724221757264,244.46978301243144 87.19707610236946,244.56163658923106 87.0384563441039,244.6010023623603 86.72121682760189,244.47634398712762 86.62823283136822,244.60756332188248 86.18519143763115,244.62724619593428 85.88436086164438,244.8175136263526 85.93905732998974,245.50640760694296 85.79684651223943,245.7097937545659 85.34833547164453,245.6769895865109 85.22800324126729,246.73327427269032 84.73573502601357,246.77919924783055 84.68650820446783,246.65454565738037 84.89982443107874,246.69390997868322 84.56617597406148,246.75295640944023 84.68650820446783,246.65454565738037 84.57711526774801,246.53645252964998 84.89982443107874,246.41835915619959 84.73026537915575,246.75951712017923 84.97092983996845,246.77263853938348 84.10125599298044,246.72015284438385 84.05749881826341,246.99570220152236 83.92075764737092,246.88417048004703 83.93716658788617,246.95633808955245 83.8113647106511,246.94321671285434 83.54335201566573,248.03884121990995 82.5259977040987,250.07913947205088 82.26892430279986,250.3809136944692 81.83682220272021,250.57772210554322 78.99807549463003,250.70892733381697 75.49750151933404,250.72860809190752 75.07633871294092,250.92541529738082 74.99429401039379,252.2636861979554 72.85566209736862,252.3424070330584 72.09538118712953,252.18496525368755 70.7662570058601,251.66015616854565 68.9995610777114,251.37806928032296 68.63856438652147,251.40430998022566 68.10253899657982,251.19438404129323 67.38054561417084,250.84669249707076 67.03595786346705,250.49243854452652 66.80623269634089,250.41371514369894 66.47805388615234,250.1119410956817 66.24832871899707,250.0528981594689 65.20909582011518,249.23285102830414 64.72229725166108,248.97699389828995 64.3175433857541,248.89170793198718 64.29566479841014,242.00936401478975 63.56820176917245,241.5041447777985 63.16344790329458,241.34667292714948 61.52802349920967,240.9661141504548 61.20531433587894,239.8703530717903 61.28188939156826,239.2601296439716 61.041224930784665,237.6722056608087 59.61911675333977,235.6970811602405 59.17607535957359,234.92932317487066 58.897123370930785,233.95812724676216 58.361097980930936,231.22819016625363 58.13137281383388,230.512872426596 57.73208859475562,229.7253562240985 54.89334188669454,225.63665882436544 54.30808967517805,224.96721318618802 52.240563171042595,223.10322486499354 49.0517590654199,218.4167299747969 48.24225133363507,217.68155836651204 45.87389425348374,216.3490355230315 45.08626510904287,215.731994629361 40.10888648792752,210.08641497499048 39.66037544736173,209.75160130640143 37.96478492807364,208.98349188571592 37.17715578363277,208.30728437616926 34.0649267337576,204.4337072010494 33.33199405766209,203.36350274727738 33.41403876020922,203.2715824035622 34.278242960368516,203.29127963262727 34.63377000470064,202.9170311092239 34.98382740226225,202.85137321862203 35.14791680732742,203.04178089174457 35.3120062124508,203.61300007130922 35.80974407456233,204.51906006001082 36.575494631630136,205.1953127817833 36.772401917754905,205.75337933712217 36.63566074683331,205.9372118223182 36.37311769867665,205.9109500752529 36.03946924165939,205.54984981844973 34.62830035787192,203.5013829832351 34.36028766288655,203.36350274727738 33.43044770069537,203.29127963262727 33.2335404145997,203.1862276651409 33.063981362676714,202.59530671814719 33.053042069019284,201.21646720348144 32.910831251268974,200.67805409118955 32.019278816937,199.2860354961158 30.783138631901238,197.6575929669416 30.657336754666176,197.67072575525526 30.482308055914473,197.88741632269375 28.90704976703273,201.15737333141806 28.633567425218644,201.0063553782711 25.647140252549434,198.00561082822242 24.93608616379788,198.695073861516 24.651664528326364,199.02338664193667 24.700891349843005,199.06278404769546 24.580559119436657,198.98398920876207 24.356303599168314,199.16784366245338 23.85309609019896,199.24663824562595 14.751603754470125,198.34706023655963 14.5,198.695073861516 14.576575055689318,198.64254364006047 15.369673846988007,199.13501255376468" stroke="#ffd900" stroke-dasharray="none" stroke-linecap="round" stroke-linejoin="round" stroke-width="0.5"><title>2024-09-26 32.6km</title><desc>1727327929000</desc></polyline><polyline fill="none" opacity="1" points="185.5,199.9443910466557 185.23253707687036,200.20935355650954 184.19401675535119,201.14449775452022 184.02360466432583,201.33742076913813 183.9693478999252,201.4232653623617 183.9212045737586,201.52664684524143 183.9204403939766,201.56356847161123 183.99380165289404,202.4394828465788 183.9464225065094,202.90001379322757 183.91050605683267,203.01075866737892 183.86159855088772,203.30699348682765 183.8340880787946,203.37159148788805 183.74009396580732,203.49801745817558 183.5031982338951,203.65120238824193 183.5001415147708,203.67058099062842 183.5352937846692,203.73978989240686 183.54446394203478,203.71764311055585 183.54446394203478,203.72871650933075 183.56509679610463,203.72410259508206 183.55669081852102,203.75547715822677 183.54522812181676,203.75270881948882 183.5291803464279,203.77670105595143 183.52153854862263,203.7674732814162 183.5169534699453,203.7794693861847 183.49249971697282,203.78316049163868 183.49784897543213,203.80069321872315 183.49555643609347,203.79054269731068 183.48638627872788,203.80807540782507 183.4909713574125,203.7960793469888 183.48027284048294,203.80807540782507 183.47415940224164,203.79146547252776 182.6809407902183,204.41246847336015 181.8563908071992,204.8618113335965 181.84722064983362,204.89871719629127 181.2687365560996,205.30374758531752 181.23129174685891,205.27145663880628 181.24351862334152,205.2816052363719 181.2381693648822,205.27422443944897 164.54848296162163,206.97900339461148 163.3487207064427,206.41908724304494 162.8344277142569,206.24935185567983 145.0236895731905,223.0031112366364 144.6431280425677,222.87331762370422 144.38025019811903,222.7481245887161 144.19379033170844,222.69197118200873 144.19226197214812,222.6809245629297 143.83386165515185,222.62385011681226 143.09337144797973,222.47563873071476 142.80986074946122,222.45446544719698 142.53169930940567,222.4710358478501 134.6468923355569,229.07983856082456 134.2839069398833,229.572837572769 133.5678704856764,230.6405896045021 133.32027623683825,231.0396948566481 133.16667610098375,231.26222862898203 132.9465923242351,231.52061738886687 132.64474131098905,231.78911202620156 132.31232310653286,232.01346353648705 131.95315860975825,232.18632017594382 131.63831654024398,232.2874579393133 130.85197554624392,232.4759384866079 130.65940224159567,232.53569966936857 130.41027963319357,232.63499417023422 130.05570021510357,232.82622449626297 129.39086380618028,233.27118478234888 129.17995018680085,233.42930511119584 128.8268991282639,233.73174736314604 128.13913732593574,234.48550426774682 127.70431903090503,234.98000316088974 127.26567983697169,235.41013681315098 126.27835956073613,236.14902956795095 126.208055020943,236.14075876372544 126.13392958224722,236.1821126980808 126.07738027850064,236.19405934983888 125.26582135174613,236.60574828671042 125.19628099173497,236.5689912199964 125.12368391259952,236.55520727579687 124.98995245103288,236.57450479092904 124.21507415374072,236.78585543646432 123.89793954488414,236.88785306889758 123.41192120457345,237.097357580687 122.95264915657026,237.35923039264753 122.68060115476328,237.55126492764566 122.3756934223893,237.80117846780877 122.09141854409609,238.0740529580121 121.96150798143208,238.22472708187024 121.24088644854055,238.90548099404214 114.96162119324799,243.29452023100066 113.75345296048545,244.43018514991536 113.22005547379013,244.99107178784243 112.7401505717171,245.5280536080204 112.09365447752862,246.23020556204165 111.88044831880325,246.43854453569975 111.55796445148371,246.6845059486509 110.61802332163279,247.32048263950355 109.69947922563006,247.95457297801522 109.5810313596703,248.04725052034655 109.42819540359415,248.19589936014518 109.31356843654066,248.3482156438845 109.1882429525649,248.55191115034768 109.09883391826224,248.74092120807427 109.02470847956283,248.96203889348317 108.99949054680837,249.13177234314162 108.97809351296019,249.94002060328103 104.98372580097202,250.0556089533443 105.00970791350483,250.02808807074007 104.91189290161856,249.84277830279143 104.85992867654932,249.67489491516926 104.75065096795879,249.7648001230814 104.70403600135614,249.72718684404708 104.62838220310005,249.6226026407353 104.59475829276198,249.596915081112 104.59934337144296,249.61159369682127 104.63220310199904,249.6281071069493 104.61921204573446,249.6281071069493 104.59475829276198,249.5950802522343 104.63449564134135,249.58223643817155 104.62150458507676,249.59232800812015 104.60240009056724,249.596915081112 104.62838220310005,249.57764935666955 104.52903883164981,249.62443746323106 104.57412543869577,249.62902451761374 104.58329559606136,249.6189329944641 104.57794633759477,249.64186825573097 104.53897316879738,249.6152633464967 104.55349258462229,249.61801558263187 104.58100305671542,249.5950802522343 104.57106871957149,249.58407127002874 104.60010755122494,249.57856677318478 104.57794633759477,249.5950802522343 104.56495528133019,249.59141059320018 104.58940903430266,249.5877409324662 104.58711649496036,249.57673194005156 104.60087173100692,249.58315385415472 104.5703045397895,249.57764935666955 104.58405977583607,249.55012681181825 104.59857919166461,249.56205325967358 104.58482395561805,249.57489710649543 104.59628665232594,249.6015021514463 104.59781501188627,249.57489710649543 104.60240009056724,249.58590610146211 104.60774934902656,249.57764935666955 104.59934337144296,249.5675577680072 104.63220310199904,249.55471390927187 104.64060907958265,249.570310020737 104.55043586550164,249.59416283763358 104.55120004527998,249.58040160589235 104.55196422506197,249.6079240454469 104.53515226989475,249.63177674896497 104.54202988791803,249.64462048261566 104.53668062945508,249.6363637990894 104.52216121362653,249.65471197300258 104.5175761349492,249.64553789136562 104.54202988791803,249.6363637990894 104.50840597757997,249.64462048261566 104.50764179780163,249.65746419541983 104.5,249.64553789136562 104.5160477753816,249.64278566479834 104.51528359560325,249.66021641688212 104.50917015736195,249.64737270854448 104.57412543869577,249.5813190220847 104.56342692176622,249.58040160589235 104.53897316879738,249.62718969618027 104.51986867428786,249.6345289793585 104.52445375296884,249.6189329944641 104.51986867428786,249.62994192816905 104.51069851692228,249.61801558263187" stroke="red" stroke-dasharray="none" stroke-linecap="round" stroke-linejoin="round" stroke-width="0.5"><title>2024-09-25 160.1km</title><desc>1727226501000</desc></polyline></svg>