<?xml version="1.0" encoding="utf-8" ?>
<svg baseProfile="full" height="300mm" version="1.1" viewBox="0,0,200,300" width="200mm" xmlns="http://www.w3.org/2000/svg" xmlns:ev="http://www.w3.org/2001/xml-events" xmlns:xlink="http://www.w3.org/1999/xlink"><defs /><rect fill="#222222" height="300" width="200" x="0" y="0" /><text fill="#FFFFFF" style="font-size:12px; font-family:Arial; font-weight:bold;" x="10" y="20">Over 10km Workouts</text><text fill="#FFFFFF" style="font-size:9px; font-family:Arial" x="10" y="290">Kin Azem</text><text fill="#FFFFFF" style="font-size:4px; font-family:Arial" x="65" y="280">SPECIAL TRACKS</text><rect fill="yellow" height="2.6" width="2.6" x="65" y="283" /><text fill="#FFFFFF" style="font-size:3px; font-family:Arial" x="70" y="285.5">Over 20.0 km</text><rect fill="red" height="2.6" width="2.6" x="65" y="287" /><text fill="#FFFFFF" style="font-size:3px; font-family:Arial" x="70" y="289.5">Over 40.0 km</text><text fill="#FFFFFF" style="font-size:4px; font-family:Arial" x="120" y="280">STATISTICS</text><text fill="#FFFFFF" style="font-size:3px; font-family:Arial" x="120" y="285">Number: 3</text><text fill="#FFFFFF" style="font-size:3px; font-family:Arial" x="120" y="290">Weekly: 1.5</text><text fill="#FFFFFF" style="font-size:3px; font-family:Arial" x="141" y="285">Total: 220.0 km</text><text fill="#FFFFFF" style="font-size:3px; font-family:Arial" x="141" y="290">Avg: 73.3 km</text><text fill="#FFFFFF" style="font-size:3px; font-family:Arial" x="167" y="285">Min: 27.3 km</text><text fill="#FFFFFF" style="font-size:3px; font-family:Arial" x="167" y="290">Max: 160.1 km</text><polyline fill="none" opacity="1" points="63.1695316346013,34.5 62.94008433073759,34.930997248702624 62.73478937463369,35.24309772779816 61.80492398532806,36.476629685821536 61.853228680905886,36.61038539288711 61.865304854814894,36.81844952654501 61.877381028665695,37.79931838761695 61.853228680905886,38.096549775735184 61.853228680905886,40.93507204292837 61.84115250699688,41.88618474231771 61.853228680905886,42.91159458537004 61.81700015923707,45.48251075980079 61.81700015923707,47.34007450777426 61.80492398532806,48.39515777498309 61.901533376425505,48.58834101968387 61.92568572424352,48.70722286014643 61.84115250699688,50.074355470635055 61.877381028665695,50.10407556996506 63.109150765114464,50.17837578569015 63.471435981744435,50.20809585897223 63.70088328560814,50.2526759549728 64.18393024103716,50.430996171489824 65.1017194565502,50.891655491308484 65.18625267368043,50.93623533067148 65.25870971701806,51.040254890678625 65.13794797816081,51.352313023933675 64.65490102273179,52.437080154253636 64.4496060666279,52.79371375849587 64.01486380666029,53.29894286427589 63.640502416179515,53.67043348238076 63.35067424288718,53.99734426489158 63.290293373400345,54.1162206899462 63.241988677938934,54.27967558008095 63.266141025698744,54.53228724039218 63.33859806903638,54.75517943561863 63.56804537284188,55.29011899708712 63.640502416179515,55.557587874121964 63.58012154675089,55.94393074398977 63.109150765114464,57.51900789760839 62.95216050458839,58.08365311074158 62.819322591880336,58.49970576042688 62.650256157445256,58.841462203577976 61.82907633314608,59.881584457056306 61.6720860725618,60.178760570481245 61.6720860725618,60.43135968221759 61.82907633314608,61.57547834246361 62.17928537586704,63.65566584929911 62.43288502743235,65.40893845105165 62.48118972306838,65.82496543836896 62.505342070769984,66.34499712323304 62.505342070769984,66.5530091595574 62.5415705924388,66.8650265310498 62.72271320078289,67.32562210508331 62.855551113549154,68.08337222739647 62.831398765789345,68.35081229279604 62.469113549101166,68.95997908261779 62.30004711472429,69.3314207137737 62.05852363695158,69.7325763707122 61.539248159795534,70.72803085198393 61.05620120430831,71.7680490104467 60.162564336671494,73.10520183347398 59.679517381242476,73.95205750240711 59.486298599047586,74.3531975540318 59.36553686024854,74.7394792863488 59.35346068633953,75.11090284438251 59.41384155570995,75.61603701943386 59.43799390346976,76.04688505951344 59.35346068633953,76.44801803689188 59.07570868683979,77.17599664704903 58.79795668751467,77.68112204047065 58.60473790531978,77.93368393171113 57.771481907053385,78.72107932242216 57.62656782043632,78.89935679941118 57.566186951007694,78.97363900257187 57.42127286439063,79.3004801444913 57.31258729938418,79.71645847920445 57.13144469104009,80.07301017803547 56.81746416998794,80.32556698400003 54.95773339137668,81.66262348127202 54.607524348655716,81.79632830331684 54.49883878370747,81.81118438535486 54.26939147984376,81.79632830331684 53.99163948040223,81.66262348127202 53.88295391545398,81.57348684962199 53.629354263830464,81.46949402819155 53.46028782945359,81.5586307378253 53.18253583001206,81.95974510368978 53.013469395576976,82.39057013623824 52.94101235229755,82.92538524437259 52.92893617838854,83.44534206908429 53.02554556942778,84.05443145512982 53.17045965610305,84.48524889136752 53.2791452211095,84.91606476534798 53.2791452211095,85.15375561332621 53.17045965610305,86.11936979287566 53.18253583001206,86.3719137451335 53.47236400330439,87.84260021293449 53.56897339440184,88.10999579661438 53.78634452435654,88.46652230541076 54.438457914220635,89.22413758422044 54.74036226142198,89.669791373919 54.86112400027923,89.96689297170815 54.88527634803904,90.33826892419165 54.812819304759614,90.73935364905628 54.66790521814255,91.12558210446878 53.37575461220695,94.37876427047013 52.4096607012325,96.91885828467639 52.16813722345978,97.4090456159538 51.9749184413231,97.69127376818506 51.74547113745939,98.19631194652902 51.69716644188156,98.37456020289392 51.648861746361945,98.65678606193251 51.624709398602135,99.26579747394862 51.69716644188156,99.72626744505396 51.842080528556835,100.35012714022014 51.91453757189447,100.8105929095982 51.87830905022565,102.72670549940085 51.99907078908291,103.35054944315198 52.252670440706424,104.01895003450045 52.276822788466234,104.1229231219404 52.18021339736879,105.20720847024495 52.09568018018035,105.59338990377 51.91453757189447,105.92015782889939 51.648861746361945,106.18751273573434 51.250348008063156,106.51427902729483 50.42916818376398,107.3014850403415 50.103111488802824,107.61339541448979 49.99442592379637,107.77677671232959 49.95819740224397,107.89559933337296 49.897816532698926,108.31147757141298 49.80120714165969,109.33631416052958 49.668369228893425,110.43540444996324 49.54760748997796,110.7621590624185 49.17324609949719,111.22258449165383 48.59358975291252,111.86123616650002 48.086390449723694,112.52958889552974 47.83279079804197,112.8414855495721 47.651648189814296,113.01971184153808 47.2410582776065,113.04941619755846 47.084068017080426,113.15338138515654 46.915001582645345,113.33160720948217 46.84254453930771,113.37616362379049 46.709706626599655,113.34645934943546 46.504411670495756,113.24249433073419 46.32326906215167,113.24249433073419 45.81606975896284,113.56924122617056 45.707384193956386,113.6583538599225 45.41755602066405,114.22273232235602 45.27264193404699,114.59403248086164 44.8620520218974,115.35148120775557 44.741290282981936,115.5" stroke="#ffff00" stroke-dasharray="none" stroke-linecap="round" stroke-linejoin="round" stroke-width="0.5"><title>2026-06-28 27.3km</title><desc>1782622347000</desc></polyline><polyline fill="none" opacity="1" points="185.5,109.24957065012131 185.10551948059583,110.07454274106567 185.09540459542768,110.09880652794527 185.06505994009785,110.09880652794527 184.94368131872034,110.31718035732774 184.96391108894022,110.34144408810243 184.9133366633905,110.43849895514722 184.66046453546733,110.76605846872553 184.4379370629904,110.99656269887782 184.10414585418766,111.1785393650789 183.63886113889748,111.36051571580902 183.35564435564447,111.42117442927702 182.86001498508267,111.44543790485477 182.70829170831712,111.43330616778258 182.5869130869396,111.44543790485477 182.05082417587982,111.40904268940358 181.2214035964571,111.43330616778258 180.41221278725425,111.43330616778258 178.74325674324064,111.55462347554567 178.38923576427624,111.60315035935491 177.75199800205883,111.59101864050172 174.48489010991761,111.66380893259338 173.45317182817962,111.66380893259338 172.26973026973428,111.60315035935491 171.91570929071167,111.63954550752533 171.7134115883964,111.71233576598752 171.54145854146918,111.80938936537859 171.18743756244658,111.9307062384396 171.13686313689686,112.00349629497214 171.0964035964571,112.19760286563542 171.03571428573923,113.50781282886601 171.04582917084917,113.93241440079146 171.05594405595912,113.94454584908817 171.0761738262372,113.93241440079146 171.03571428573923,114.17504309934156 171.06605894112727,114.32062004930049 171.01548451546114,114.45406540938711 170.98513986018952,114.4783281839118 170.81318681320408,114.52685371613188 170.47939560440136,114.56324785055767 168.45641858142335,114.68456154088926 167.6472277722205,114.67243017814326 167.03021978022298,114.62390471325489 166.4030969031155,114.53898509564897 166.07942057948094,114.46619679736614 165.6242507493007,114.33275145267544 165.1791958042304,114.18717451957491 164.62287712289253,113.94454584908817 164.01598401600495,113.62912773898279 163.42932067933725,113.47141832851048 163.16633366636233,113.36223475165025 162.59990009991452,113.25305106129235 162.1245004995144,113.18026187126816 161.47714785212884,113.04681489179347 160.9714035964571,112.99828867537144 160.49600399605697,112.92549930870155 160.26336163835367,112.92549930870155 160.14198301703436,112.87697303619643 159.89922577427933,112.84057831711834 159.57554945052834,112.90123617525387 159.23164335667389,112.88910460644547 158.61463536467636,112.62220973749936 158.36176323675318,112.54942011000821 158.24038461543387,112.5008936636732 158.08866133872652,112.37957744963205 157.62337662337814,112.18547121546726 157.43119380623102,112.13694460087572 157.21878121880582,111.97923294840439 157.01648351649055,111.91857455745776 156.9052197802812,111.85791613141191 156.40959040960297,111.36051571580902 156.26798201800557,111.20280289673974 156.14660339662805,111.1178805114032 155.84315684321336,111.05722162266466 155.408216783253,110.6932675540229 155.23626373632578,110.49915820144815 155.04408091912046,110.51129004648101 154.81143856141716,110.38997153281525 154.54845154844224,110.17159785490367 154.1843156843097,109.8197726402941 153.87075424578506,109.61352972485474 153.56730769231217,109.33449454710353 152.88961038959678,108.87347828038764 152.43444055947475,108.67936556223867 152.33329170831712,108.64296938761981 151.98938561440445,108.40032790097757 151.86800699302694,108.43672415975743 151.59490509494208,108.3154032481325 151.362262737297,108.27900694731215 151.24088411586126,108.24261063386803 151.17007992014987,96.43740698235342 151.30157342657913,95.97633405501256 151.2004245754215,95.51525910167402 150.80594405595912,95.21191921164427 150.55307192809414,95.02991485661914 150.06755744258408,94.73870723206346 149.85514485515887,94.5809694312702 149.7438811188913,94.55670205624483 149.49100899102632,94.47176619950915 149.10664335661568,94.2897605606122 148.45929070934653,94.18055702579295 148.2165334665333,94.09562086454389 147.90297202800866,93.96214961508667 147.44780219782842,93.81654442210129 146.62849650351563,93.69520660687704 146.21378621377517,93.69520660687704 146.0822927072877,93.5860024532085 145.92045454547042,93.31905848798488 145.91033966036048,93.20985394283343 145.93056943063857,93.17345240252325 146.00137362640817,93.16131855292042 145.80919080926105,92.6759634191767 145.48551448556827,91.55963809083187 145.62712287716568,90.43116671937605 145.4248251748504,89.72738272936112 145.3742507493007,89.41189182199741 145.34390609397087,88.9022506597903 145.34390609397087,88.39260702181491 145.27310189808486,87.8950953681342 145.18206793209538,87.49465744532063 144.95954045956023,87.11848709519836 144.38299200800247,86.30546914984734 143.1692057942273,84.71581884384796 142.55219780222978,83.84210765399621 141.93518981023226,82.84703882430767 141.82392607396469,82.62860781776544 141.732892107917,82.42231144953257 141.46990509488387,81.66993302134506 141.2170329670771,80.62630239616556 141.0754245754797,79.97099413857359 140.54945054947166,77.00992059599957 140.22577422577888,75.57789602437697 139.8818681318662,74.4735247384233 139.80094905098667,74.25507629328786 139.06256243755342,72.79874169753748 138.52647352649365,71.94920384413854 137.4846403596457,70.4685642790646 135.8864885115181,68.1140615904078 134.88511488516815,66.66977862686326 134.2883366633323,65.85660215495591 133.8129370629904,65.23761285230285 133.40834165835986,64.73999135161284 132.73064435564447,63.999623284900736 131.8708791208919,63.2228380542947 130.2727272727643,61.92413739354379 129.332042957074,61.050236306196894 129.09940059942892,60.79534711701854 128.9072177822236,60.55259493217454 128.13848651351873,59.47234089406993 127.27872127870796,58.21000746633217 124.15322177828057,53.439706405035395 123.45529470528709,52.444349041623354 123.010239760275,51.885973699791066 122.67644855147228,51.52181426576135 122.23139360640198,51.09695999381074 121.51323676324682,50.52643869142048 121.21990509494208,50.35649557555735 120.74450549454195,50.10158038522786 120.48151848150883,49.89522001516889 120.10726773226634,49.65244258912571 119.955544455559,49.57960925165389 119.50037462537875,49.39752568662516 118.90359640360111,49.11833027256944 118.6406093906262,48.96052384001814 117.82130369631341,48.32929573407455 117.49762737262063,48.15934905602626 117.13349150848808,48.06223654492351 116.79970029974356,47.855872159983846 116.57717282720841,47.68592471440206 115.67694805195788,46.9211577993774 115.41396103898296,46.654095022473484 114.88798701297492,46.034992331668036 114.14960039959988,45.233795185798954 108.44480519479839,38.60547478168883 107.9997502497863,38.11986706206517 107.04895104898605,37.03938181246485 106.65447052952368,36.63874961907277 106.4724025974283,36.48092439508764 106.12849650351563,36.20169457036536 105.64298201800557,35.86176160560717 105.05631868133787,35.570389615262684 104.5,35.31543845911074" stroke="#fff500" stroke-dasharray="none" stroke-linecap="round" stroke-linejoin="round" stroke-width="0.5"><title>2024-09-26 32.6km</title><desc>1727327929000</desc></polyline><polyline fill="none" opacity="1" points="95.5,200.77783370696125 95.48988753524463,200.78902730646587 95.48567400825777,200.79208010380808 95.47640424890051,200.78902730646587 95.46292096256002,200.79309770267992 95.46039284636936,200.79920329339348 95.4679771949377,200.81243205842657 95.46881990033216,200.8134496548937 95.46881990033216,200.81243205842657 95.46376366795448,200.80937926829665 95.46629178414514,200.80123848933363 95.46629178414514,200.80836167134566 95.4587074355768,200.8134496548937 95.46629178414514,200.81141446183574 95.46881990033216,200.81243205842657 95.46881990033216,200.81141446183574 95.46629178414514,200.8134496548937 95.46207825716192,200.8103968651285 95.46881990033216,200.8103968651285 95.4679771949377,200.80734407427735 95.4679771949377,200.81243205842657 95.46629178414514,200.81141446183574 95.4679771949377,200.80937926829665 95.46881990033216,200.8103968651285 95.46881990033216,200.80836167134566 95.46966260573026,200.80937926829665 95.4671344895396,200.81141446183574 95.4679771949377,200.81243205842657 95.4671344895396,200.81141446183574 95.46292096256002,200.8134496548937 95.46629178414514,200.8134496548937 95.4671344895396,200.8103968651285 95.4671344895396,200.8134496548937 95.46460637334894,200.8134496548937 95.4671344895396,200.81243205842657 95.46292096256002,200.81243205842657 95.46629178414514,200.81141446183574 95.46544907874704,200.81548484747054 95.46881990033216,200.81243205842657 95.4671344895396,200.8134496548937 95.4671344895396,200.81141446183574 95.46292096256002,200.81446725124079 95.46376366795448,200.8103968651285 95.46207825716192,200.81141446183574 95.46039284636936,200.81446725124079 95.4578647301787,200.81446725124079 95.46376366795448,200.806326477089 95.46376366795448,200.80937926829665 95.46966260573026,200.8103968651285 95.46376366795448,200.8134496548937 95.46544907874704,200.81141446183574 95.4671344895396,200.81243205842657 95.45617931938614,200.81650244357752 95.46629178414514,200.81446725124079 95.46629178414514,200.81243205842657 95.4679771949377,200.81243205842657 95.46629178414514,200.8103968651285 95.46881990033216,200.80836167134566 95.4679771949377,200.80836167134566 95.46460637334894,200.8103968651285 95.46881990033216,200.81141446183574 95.46544907874704,200.80937926829665 95.46460637334894,200.81141446183574 95.45449390859358,200.81548484747054 95.46292096256002,200.8134496548937 95.46629178414514,200.8103968651285 95.46460637334894,200.80937926829665 95.4578647301787,200.81752003956626 95.46207825716192,200.81650244357752 95.45617931938614,200.82057282680762 95.46123555176746,200.81752003956626 95.45955014097126,200.81853763543222 95.46376366795448,200.81141446183574 95.46123555176746,200.80734407427735 95.45955014097126,200.80429128234755 95.45449390859358,200.80530887977693 95.4494376762159,200.82057282680762 95.4477522654197,200.80937926829665 95.44353873844011,200.81243205842657 95.4477522654197,200.80734407427735 95.44522414922903,200.80734407427735 95.44269603304201,200.80225608712317 95.44269603304201,200.80429128234755 95.43595438987177,200.80836167134566 95.39297641465237,200.84499508579756 95.36095360958643,200.87043486527818 95.22612074615972,200.97117565419467 95.1452210280986,201.02917739217173 94.9775226542115,201.16553081693746 94.87471259584345,201.24388218164222 94.78201500223804,201.3171451506978 94.72555374067815,201.35886406300597 94.71375586512659,201.37005690754359 94.62948532548398,201.43416110067756 94.56796783154277,201.48707213885245 94.54605749123584,201.49928233228638 94.52583256172147,201.51454504974026 93.65868870879058,201.98258859047655 93.64941894942967,201.9917457105139 93.64436271704835,202.00802501099952 93.64857624403157,202.02328682726784 93.01064825893263,202.46993734501484 92.99885038338107,202.46281553660992 92.98620980243504,202.45162411151614 92.98536709703694,202.44755449878903 92.9777827484686,202.43941526756407 92.9693556945058,202.43432824414504 92.98283898084628,202.4455196917006 92.97694004307414,202.4373804585557 92.9794681592648,202.44043267188863 74.5722541849209,204.3173391569553 74.5039950478058,204.2959782928292 73.70848115356785,203.90537030195355 73.24920671251311,203.69988711936094 73.18010487000356,203.67445569179017 72.96605769931193,203.60223002836665 72.82364048731688,203.55543561351442 72.68206598071629,203.512710056355 53.04113130598489,221.9880529057782 53.00236685775235,221.9738414278545 52.98214192823434,221.96775078731844 52.94674830158692,221.95353927607994 52.82876954608582,221.9149650565896 52.76472393595395,221.89466276679468 52.6214640185608,221.84492195564053 52.571744400174794,221.82563462547114 52.54309241669034,221.81243800639368 52.48326033354169,221.7829993221385 52.39730438310653,221.73630327288265 52.331573362185736,221.7068643298162 52.25572987650594,221.6794555687202 52.20516755272183,221.66422844173667 52.12595324545691,221.64494070912315 52.12342512926625,221.6429104189774 52.12342512926625,221.64088012836055 52.12173971847369,221.63986498287522 52.12511054005881,221.6347892536478 52.12426783466435,221.63275896112464 52.12173971847369,221.63275896112464 52.12258242387179,221.63580439973066 52.12426783466435,221.6368195456953 52.11836889688857,221.63275896112464 52.11668348609601,221.6347892536478 52.11836889688857,221.63580439973066 52.11331266450725,221.6347892536478 52.11415536990535,221.6347892536478 52.10067208356486,221.6347892536478 51.975951684893516,221.61448630699942 51.729039003734215,221.56981965681734 51.3498215753425,221.48962213851883 51.135774404647236,221.44901551689873 50.99925613042069,221.4205907684618 50.94448027965336,221.412469394626 50.912457474591065,221.4063783592519 50.84419833747961,221.39927214590261 50.77593920036452,221.3901355773096 50.74391639530222,221.38709005230157 50.59981377251097,221.38302935062893 50.528183813814394,221.38607487706304 50.32761992946325,221.4002873195941 50.29306900820666,221.40130249316826 50.29306900820666,221.40130249316826 41.59803472778731,228.68921281645817 41.41853847834864,228.9326462629624 41.28623373110531,229.11318832432698 41.19774966447949,229.23287144035294 40.451112683236715,230.34848209271968 40.40813470802095,230.41034357755325 40.328920400752395,230.53507932904722 40.135098159575136,230.85046010296992 40.053355736119556,230.97316142342333 39.96571437489183,231.09586100947308 39.87470219207171,231.21348873641182 39.8258252790838,231.27027396517133 39.77526295529242,231.32705882248683 39.723015220712114,231.38080129175705 39.670767486135446,231.43352942883394 39.56121578460079,231.5359427799949 39.50475452303726,231.58461404812806 39.390146589124925,231.6768859116437 39.272167833623826,231.76510095213416 39.211493045080715,231.80667324669503 39.087615351803834,231.88677539932996 39.0235697416756,231.92429134328813 38.95952413154737,231.96180712514706 38.89379311062294,231.99526701005016 38.828062089702144,232.02771283590755 38.76233106878135,232.0591446140843 38.69491463706436,232.08753450948188 38.62749820535464,232.11491039213251 38.55923906823955,232.14025835466418 38.42187808861854,232.18689841238665 38.28030358201795,232.2264408737865 38.06457100053012,232.2791638755425 37.628892310571246,232.37751169638432 37.55726235187467,232.39474779769353 37.413159729087056,232.4342893126077 37.27074251708473,232.4768722811532 37.20079796918799,232.50019143734698 37.06175157877078,232.5529127770451 36.993492441662966,232.580287192568 36.92607600994597,232.60968924645658 36.85950228362708,232.641118918119 36.72719753638739,232.7090471747324 36.6623092208647,232.7445318736245 36.535060706002696,232.82057002588317 36.47270050666339,232.86010960194835 36.288990730241494,232.98176870692896 35.98477408212784,233.18959906891632 35.80190701110041,233.31125355862878 35.68308555020485,233.39641068759374 35.625781583243224,233.440002704343 35.56932032168697,233.48562202247558 35.513701765521546,233.53124110102272 35.30302541641504,233.71472875266863 35.17999042852898,233.81914264730221 34.42155557173828,234.6503541336897 34.3853192396964,234.70002157044473 34.33981314828634,234.755770395961 34.191496998511866,234.92200113412582 33.94205620116554,235.1956667636341 33.84008884819923,235.30411705455754 33.7322225574535,235.41155245686423 33.67744670668981,235.46425613089195 33.45834330361322,235.67000010672928 32.369567931418715,236.48482003242407 32.292039034946356,236.47569933657087 32.210296611490776,236.5213027201471 32.147936412155104,236.53447698641776 31.252983281141496,236.98847027133252 31.176297090067237,236.94793612050398 31.096240077404218,236.9327357652228 31.023767413309542,236.9448960515756 30.948766633027844,236.9540162551766 30.804664010236593,236.99049697391365 30.37909778503672,237.11108492710264 30.307467826340144,237.12729830585522 30.094263361042977,237.18708487869662 29.952688854442385,237.2296445614029 29.88274430653837,237.2519376453938 29.7445406215229,237.29956358787422 29.60717964190553,237.35124250693116 29.471504073073447,237.40798763286875 29.3391993258374,237.46777227564326 29.208579989390273,237.53059637256501 29.07796065293951,237.5984864186148 28.949869432679407,237.6694157512802 28.82430632861724,237.74237103270298 28.70211404612928,237.8193787212831 28.57992176364496,237.90145195443347 28.51924697510185,237.94400814074106 28.40211092500249,238.03114634861686 28.231884434917447,238.16590488105157 28.12064732259023,238.25810688431102 28.065871471819264,238.30674051421465 27.95884788647527,238.40502014454796 27.9066001518986,238.45466613353528 27.752385064348346,238.60765505206473 27.709407089132583,238.6664182921886 27.6596874707393,238.7231548369664 27.609125146955193,238.7738121534967 27.556034706980427,238.82244289979826 26.98130962661162,239.37965079613787 26.8144539581117,239.5245190030737 19.889943715603295,244.36456730737063 19.78544824644632,244.46277855928474 19.682638188078272,244.55693882292053 19.47364724976069,244.75538077685997 19.258757373674598,244.96090517806715 18.94021473381872,245.2615897779815 18.65959383680456,245.51265853083441 18.55762648383825,245.6169309268962 18.16408306370431,246.03097113655986 18.016609619327937,246.18483925673172 17.969418117125315,246.2354531761266 17.88009134510503,246.33465560543664 17.748629303259804,246.48446937872723 17.70312321185338,246.53406931729478 17.613796439829457,246.63529280585772 17.44019912816657,246.8276141954002 17.308737086321344,246.97134635775274 17.130083542277134,247.16264816485545 16.950587292834825,247.35799435495392 16.727270362782292,247.60191790765748 16.636258179965807,247.6960442585896 16.5410324701661,247.78713330801384 16.492155557174556,247.8316653858028 16.44327864418301,247.87417306604584 16.34299670200926,247.9551395026956 16.239343938246748,248.0310448541768 16.136533879878698,248.1029013113448 15.884564966345351,248.27494957699037 15.688214608973794,248.40550158374754 15.453099803369696,248.56742383775054 15.10000624226086,248.8042297201264 15.05787097243956,248.83357700982742 14.691294124990236,249.0885906798885 14.5,249.22216629303875" stroke="red" stroke-dasharray="none" stroke-linecap="round" stroke-linejoin="round" stroke-width="0.5"><title>2024-09-25 160.1km</title><desc>1727226501000</desc></polyline></svg>