<?xml version="1.0" encoding="utf-8" ?>
<svg baseProfile="full" height="300mm" version="1.1" viewBox="0,0,200,300" width="200mm" xmlns="http://www.w3.org/2000/svg" xmlns:ev="http://www.w3.org/2001/xml-events" xmlns:xlink="http://www.w3.org/1999/xlink"><defs /><rect fill="#222222" height="300" width="200" x="0" y="0" /><text fill="#FFFFFF" style="font-size:12px; font-family:Arial; font-weight:bold;" x="10" y="20">Over 10km Workouts</text><text fill="#FFFFFF" style="font-size:9px; font-family:Arial" x="10" y="290">Kin Azem</text><text fill="#FFFFFF" style="font-size:4px; font-family:Arial" x="65" y="280">SPECIAL TRACKS</text><rect fill="yellow" height="2.6" width="2.6" x="65" y="283" /><text fill="#FFFFFF" style="font-size:3px; font-family:Arial" x="70" y="285.5">Over 20.0 km</text><rect fill="red" height="2.6" width="2.6" x="65" y="287" /><text fill="#FFFFFF" style="font-size:3px; font-family:Arial" x="70" y="289.5">Over 40.0 km</text><text fill="#FFFFFF" style="font-size:4px; font-family:Arial" x="120" y="280">STATISTICS</text><text fill="#FFFFFF" style="font-size:3px; font-family:Arial" x="120" y="285">Number: 3</text><text fill="#FFFFFF" style="font-size:3px; font-family:Arial" x="120" y="290">Weekly: 1.5</text><text fill="#FFFFFF" style="font-size:3px; font-family:Arial" x="141" y="285">Total: 220.0 km</text><text fill="#FFFFFF" style="font-size:3px; font-family:Arial" x="141" y="290">Avg: 73.3 km</text><text fill="#FFFFFF" style="font-size:3px; font-family:Arial" x="167" y="285">Min: 27.3 km</text><text fill="#FFFFFF" style="font-size:3px; font-family:Arial" x="167" y="290">Max: 160.1 km</text><polyline fill="none" opacity="1" points="63.05654617844266,61.71134484648064 62.50026837250334,61.571351263577526 62.228450808208436,61.37691520884982 61.842849147244124,60.69249545851562 61.65320898612845,60.015845798377995 61.735386389278574,58.49919049552773 61.94399056653492,57.845850654350215 61.8175637924287,57.80696116156105 61.57735292168218,58.13363214484343 61.45092614760506,58.08696496663106 61.53942488945904,56.93583014669275 61.41299811535282,56.95916417227272 61.18542992201401,57.50362228279846 60.95154038994224,57.58140162359996 60.382619906566106,57.15361404490977 58.60000239199144,56.492481996236165 58.208079392352374,56.422479367640335 57.84144174749963,56.546928430641856 56.848991570965154,56.32914240685932 56.76681416781503,56.119133732696355 56.90588361927075,55.597998031928 56.77313550648978,55.496881643568486 56.40017652293318,55.96357129439639 55.7237932816206,56.30580814477071 55.43301170121413,56.12691184439973 54.908340588764986,56.204692907816934 54.51641758912592,55.885789929256134 54.15610128297703,56.01024006677471 54.04231718630763,55.83912106344724 54.32045608930639,55.302426588266826 54.31413475057343,55.084636204082926 54.00438915405539,54.983518980592635 53.48603938033921,55.333539437982836 53.075152364588575,55.17797503358452 52.90447621955536,54.65683144203649 52.55680259084329,54.50904365816314 52.63897999396431,53.91011062054167 52.53783857470262,53.684536941404076 51.87409801076865,53.84010508359279 51.71606454317225,53.692315357751795 51.71606454317225,53.35784257537307 51.583316430362174,53.25672254266465 50.59718759250245,53.32672873668707 50.28112065733876,53.1167099180675 50.16733656064025,52.83668372264947 50.211585931596346,51.677672996534966 50.39490475400817,50.68977430837185 51.109216027572984,49.01731159971314 51.17242941458244,47.2825701667316 50.9638252373843,45.90563330043733 50.458118141046725,45.01877645270724 50.62247294734698,44.1007884891369 50.60350893123541,43.50953482365367 49.82598427060293,42.00803641375751 49.81334159322432,41.37786305866757 49.95873238341301,40.67766294545072 50.94486122127273,38.46809084667984 49.64266544819111,36.85754335764432 50.36961939919274,36.242878959703376 50.85636247941875,34.50000000000364 50.312727350828936,36.31290432466267 49.40245457744459,37.0831781295783 49.28867048077518,36.98981211643695 49.47831064189086,37.31659254850092 49.07374496484408,36.82642125581697 50.13572986712097,38.141316471617756 50.65407964086626,38.32804489640694 50.83739846327808,38.514772759950574 50.68568633438554,38.545894015958766 50.83739846327808,38.514772759950574 49.44670394837158,37.23878783964392 50.15469388323254,38.133536108394765 50.69200767308939,38.32026455658706 50.780506414943375,38.258021802885196 50.673043656977825,38.14909683386941 49.00421023910167,44.27193981598248 48.28989896547864,45.3066173432926 48.30886298161931,52.42442063897761 49.282349142071325,52.51776346344923 50.09780183489784,52.93002592798439 49.67427214173949,53.847883480470045 49.06742362611112,54.54015690502638 49.21913575503277,55.496881643568486 48.82089141666074,56.83471593460126 48.22036423976533,57.71362627959388 48.8272127553937,61.99133106656154 47.07620193430921,65.13331217947052 47.0066672085959,66.22985732038069 46.715885628189426,66.87533229755354 46.1027157738863,67.5130238879974 45.84354088699911,68.12737911317163 45.67918608066975,68.25958134274333 44.52238109783502,69.02945933053707 43.92185392093961,68.9050352509621 43.68796438886784,69.34051844025089 43.64371501794085,69.89264452799762 43.82703384035267,70.66250229834623 43.776463130750926,71.42457434115204 43.92817525964347,72.1944131475102 44.59191582357744,73.15086626866832 44.667771887994604,73.50078446717816 42.998938470118446,77.70742471377889 43.09375855070539,79.98557876872655 43.30236272790353,80.71643645422591 43.207542647374794,81.48616026477976 42.10762971281656,82.62906592912623 41.87374018074479,84.19178050850314 40.88129000423942,85.37350875230914 40.45776031105197,85.56009537058708 40.185942746757064,85.4901254543147 39.863554472860415,85.70780937986274 39.4210607635905,86.59408607106889 39.21245658630505,86.7806690289799 39.07970847352408,87.40260818104434 38.11886499050888,88.58427544326696 37.19594953968772,90.31786509179074 36.77874118523323,90.84648371640651 36.61438637890387,91.65495057406224 35.931681798858335,92.47118049623532 35.887432427931344,93.52060323682235 34.351347122807056,95.22296248970815 33.98470947795431,96.28011192195845 33.55485844609211,96.92527517868439 33.67496388143627,96.95636721489427 33.97838813927956,97.60152346172254 33.97838813927956,98.16117165680771 33.497966397728305,98.54981327608402 33.2261488334625,98.51872203584207 33.181899462564616,98.63531410667201 33.35257560753962,98.7441331757218 34.96451697713928,97.9746228175718 35.43229604122462,97.91243974692043 35.811576363485074,98.01348720520036 36.79138386261184,98.7130420325484 37.461445765249664,99.50586133226898 42.474267357669305,103.03456199473294 44.01667400152655,103.50866732494615 45.99525301592075,104.57344810247014 47.71465714342776,104.7599771669702 48.96628220684943,104.61230837033509 49.85126962544746,104.72888902836712 50.755221060157055,105.01645371806808 52.866548187303124,106.12783989664604 54.61123766968376,106.55529083635338 56.115716281259665,106.2910487836125 57.405269376933575,106.50088815247 58.58735971461283,107.37132539007871 60.464797309745336,108.03968858074222 60.957861728646094,108.31946639068337 61.98191859872895,109.29867882522376 62.51291104988195,110.3322752437598 63.41686248459155,111.55236322110432 63.94153359704069,111.86320983985934 65.96436198239098,111.77772717439802 67.14013098133728,111.40471053359215 68.05672509345459,111.35031208677538 76.23653737662244,112.88122165370442 76.41985619906336,114.10903055535891 76.81810053740628,115.33681524923304 76.73592313428526,115.5" stroke="#ffff00" stroke-dasharray="none" stroke-linecap="round" stroke-linejoin="round" stroke-width="0.5"><title>2026-06-28 27.3km</title><desc>1782622347000</desc></polyline><polyline fill="none" opacity="1" points="177.06603009649552,94.58121888948881 177.51423847765545,94.43041842372259 177.59076185978483,94.48942734940283 177.54703421285376,94.55499275033435 177.57436399220023,94.48942734940283 177.6508873743296,94.56810582142498 177.50330656592268,94.58121888948881 177.83126391796395,94.52876659905087 177.3174640664074,94.62711460381615 177.50877252177452,94.57466235582615 177.2682704635954,94.31895695217099 177.82033200620208,94.32551351538132 177.9351170794398,94.10914652898646 178.59649773937417,94.18782552865378 179.3781294284563,93.90589194125278 179.8864633241319,93.47315394065663 180.4385248667386,93.3157938489203 180.30734192591626,92.72568961561046 180.54784398409538,91.80118063599002 180.76648221877986,91.52579206865994 182.04551589177572,91.24384524496054 182.79435184563044,91.38154038053108 183.47759632905945,91.12582057690815 184.27015992981615,90.96189701923868 184.3740130913211,90.90288442247038 184.36854713546927,90.71928928415218 184.45600242933142,90.88321354323125 185.0080639719381,90.73240324233484 185.09551926580025,90.62749149206138 185.23763411838445,90.63404848215578 185.2922936770483,90.7717450986238 185.35241919159307,90.5750355441487 185.35241919159307,90.79141601654919 185.33602132397937,90.54880755198246 185.33055536812753,90.62749149206138 185.4180106620188,90.60782051728165 185.33602132397937,90.65371944782964 185.33055536812753,90.5750355441487 185.5,90.66683342116085 185.39614683852415,90.7127323039349 185.43987448545522,90.64716246003445 185.35241919159307,90.58814953566616 185.37974897093954,90.66027643488633 185.308691544662,90.64060547147892 185.40161279440508,90.70617532296455 185.3906808826432,90.59470653029712 185.2922936770483,90.61437750964615 185.308691544662,90.71928928415218 185.39614683852415,90.73240324233484 185.31415750051383,90.73240324233484 185.25403198596905,90.50946554100301 185.37974897093954,90.65371944782964 185.28682772119646,90.75207417389538 185.24310007423628,90.55536455116817 185.33055536812753,90.65371944782964 185.0408597071655,90.66027643488633 184.96433632500703,90.7717450986238 184.29748970916262,90.95534006708112 184.27015992981615,91.09959283952776 184.1663067683694,90.9750109212946 182.7724880221358,91.38809728341221 181.91979890683433,91.27007291562768 180.79381199809723,91.51923518170224 180.56970780756092,91.76839635287251 180.35653552869917,92.62733831299192 180.42759295500582,93.32890720657815 179.89192927998374,93.52560720753172 179.08296781161334,94.06980698822736 178.52544031312573,94.22060841295752 177.9187192118552,94.13537287435975 177.83126391796395,94.33862663953914 177.21361090493156,94.31895695217099 177.26280450774357,94.45664462049172 177.2026789931988,94.54843621363761 177.04416627303,94.58777542237658 176.7271408327215,94.46320116778224 176.6342195829784,94.59433195450038 176.1914771576994,94.6140015463643 175.89084958500462,94.80414058253518 175.94550914366846,95.4925696910177 175.80339429111336,95.69581859176469 175.35518590998254,95.66303656026867 175.23493488089298,96.71860845564879 174.74299885286018,96.76450244018633 174.69380525004817,96.63993296714762 174.9069775288517,96.67927072503517 174.5735542209586,96.73827731070924 174.69380525004817,96.63993296714762 174.58448613269138,96.521919529765 174.9069775288517,96.40390584682973 174.73753289697925,96.74483359422084 174.97803495512926,96.75794615896302 174.10894797221408,96.70549588180438 174.0652203252539,96.98085929565423 173.92857142857974,96.86940283682998 173.94496929619345,96.94152174695773 173.81925231125206,96.92840922468531 173.55142047372647,98.02329439406458 172.53475268237526,100.06221583383376 172.27785275661154,100.36378641617921 171.8460422430653,100.56046201909703 169.00921114787343,100.69157870885101 165.51099939268897,100.71124618618342 165.09012079087552,100.9079205843118 165.0081314528652,102.24528840714629 162.87094270868693,102.32395612069377 162.11117484312854,102.16662058450675 160.78294756732066,101.64216564545495 159.01744382214383,101.36026911210138 158.65669073487516,101.38649210453877 158.12102705988218,101.17670782559435 157.39952088537393,100.82925090688514 157.05516566571896,100.47523600822387 156.82559551930171,100.39656573068714 156.49763816723134,100.09499532262271 156.268068020785,100.03599222913545 155.22953640596825,99.21649847345543 154.74306633378728,98.96081399823015 154.33858559955843,98.87558558369346 154.3167217760929,91.9978859366347 153.5897496457328,91.49300762631901 153.18526891153306,91.33564203914648 151.55094810714945,90.95534006708112 151.22845671098912,89.86031841825752 151.3049800931476,89.25050677492254 151.0644780349685,87.66365433773535 149.64332950944663,85.6898626696784 149.20058708416764,84.9226227745894 148.92182333490928,83.95208221859139 148.3861596598872,81.22398732519287 148.15658951346995,80.50915228864324 147.75757473515114,79.72216750945518 144.92074363993015,75.63622920102716 144.33588636209606,74.96723531103635 142.26975504422444,73.1045048266169 139.08310277346754,68.42117242706809 138.27414130506804,67.68649691947212 135.90738241447252,66.3548732748859 135.12028476953856,65.73824876619256 130.1462649301684,60.096478801850026 129.69805654903757,59.7618910686615 128.0036102301092,58.994299975409376 127.21651258520433,58.318548777020624 124.10638369663502,54.44758552806161 123.3739456103649,53.378103258277406 123.45593494837522,53.28624494327232 124.31955597543856,53.30592888046158 124.6748431068263,52.93193290346608 125.02466428236221,52.86631931942611 125.18864295835374,53.056598503666464 125.35262163440348,53.627432219178445 125.85002361834631,54.53288079011327 126.61525743978564,55.208677170216106 126.81203185100458,55.76636713701373 126.67538295433042,55.95007557032659 126.41301707268576,55.92383154493655 126.07959376476356,55.5629749619693 124.66937715097447,53.515890451359155 124.40154531344888,53.378103258277406 123.47233281595982,53.30592888046158 123.27555840476998,53.20094780302679 123.10611377286841,52.610425615021086 123.09518186116475,51.232516554173344 122.95306700858055,50.69446676809457 122.06211620219983,49.30338752020907 120.82681017613504,47.676043879306235 120.70109319116455,47.68916780548898 120.52618260341114,47.905712148101884 118.95198731360142,51.17346255921075 118.678689520224,51.02254651439216 115.69427761656698,48.02382689487058 114.9837033537915,48.71282467205674 114.69947364871041,49.04091590393364 114.74866725149332,49.08028672395449 114.62841622243286,49.00154505651881 114.40431203186745,49.18527544350218 113.90144409204368,49.264016855351656 104.80609352857573,48.365045889950125 104.55465955869295,48.71282467205674 104.63118294082233,48.66032989848463 105.42374654160812,49.15246648955144 106.91595249343663,50.52386454856969 106.4349483771075,50.11704179629669 105.39641676226165,50.48449473258006 104.62025102908956,50.93724596328684 104.66944463190157,50.976615464376664 104.69677441124804,50.91099961400323 104.5,50.871630067256774 104.78422970511019,50.812575695810665 104.8334233079222,50.714151606491214 104.52186382349464,50.379508422749495" stroke="#fff500" stroke-dasharray="none" stroke-linecap="round" stroke-linejoin="round" stroke-width="0.5"><title>2024-09-26 32.6km</title><desc>1727327929000</desc></polyline><polyline fill="none" opacity="1" points="95.5,199.68484911595897 95.42924966892679,199.8227251786484 95.36154236285438,200.05343231575262 95.30220337550054,200.20141217069977 95.13711926967153,200.42843168539684 94.87085458284855,200.69220716081782 93.83698684173578,201.62316190438924 93.66733819841465,201.81522062216254 93.61332450480768,201.9006806308339 93.56539686117321,202.00359896373902 93.56463610492574,202.04035518088995 93.63766870474137,202.9123454515593 93.59050181736166,203.37081321541518 93.55474627370131,203.4810619515315 93.50605787382665,203.77596963631822 93.47867064889579,203.8402782377516 93.38509763038383,203.96613781855285 93.14926319348524,204.1186364787509 93.14622016848807,204.13792826482404 93.18121495590094,204.20682711009795 93.1903440308779,204.1847795460294 93.1903440308779,204.19580333587828 93.21088444957786,204.1912100920067 93.20251613084838,204.2224440968257 93.191104787129,204.21968816027038 93.17512890591752,204.24357291129718 93.16752134343915,204.23438647727517 93.16295680595067,204.24632883938693 93.13861260601334,204.25000340865472 93.14393789974929,204.26745758896368 93.14165563100323,204.2573525419789 93.13252655602628,204.27480670579143 93.13709109351839,204.2628643874159 93.12644050604285,204.27480670579143 93.1203544560558,204.25827118315465 92.33068947056745,204.8764920849435 91.50983347890724,205.32382188511474 91.50070440393029,205.36056240921152 90.92481192414925,205.76377825844384 90.88753486799396,205.73163197566373 90.89970696796081,205.74173510742094 90.8943816742285,205.73438737653487 74.27946521653575,207.43152890660758 73.08507790707517,206.87412118444763 72.57308895212918,206.70514621314896 54.842143078523804,223.3838486010195 54.46328646699112,223.2546364646446 54.20158631765662,223.13000429558133 54.015961793127644,223.07410245664187 54.0144402806327,223.0631053265165 53.65764560028765,223.00628657443258 52.92047279591861,222.85873917668096 52.638232227887784,222.83766074966434 52.36131695358927,222.85415691477328 44.51183398607827,229.43335213200544 44.15047476824839,229.9241425039313 43.43764616381668,230.98711099693492 43.191161139442556,231.3844282539535 43.03824913358039,231.60596507297987 42.81915133413713,231.8631962488912 42.518652616152394,232.13048802782987 42.18772364825054,232.35383444132685 41.83016821166166,232.52591668147988 41.516736637455324,232.62660134675798 40.73391845819788,232.8142374995009 40.542207883689116,232.8737309516241 40.294201346820046,232.9725806122301 39.94121044771964,233.1629542246742 39.27935251190502,233.60592108466653 39.06938378743871,233.763333033015 38.71791440082961,234.0644203409488 38.03323377757624,234.81480040782162 37.60036347242567,235.3070839414645 37.16368938603773,235.73529059108523 36.18079231354204,236.4708730996822 36.11080273871994,236.46263934873377 36.037009382656834,236.50380801709025 35.98071342030016,236.51570114774086 35.17279028485791,236.92554571446317 35.10356146628328,236.88895331973936 35.03128962271876,236.87523112773442 34.89815727930545,236.89444218982453 34.126750443771016,237.10484598256198 33.8110366008259,237.20638666468176 33.32719562706188,237.4149525943708 32.86998112197398,237.67565221377163 32.59915189766616,237.8668264323219 32.295610154684255,238.11562035757152 32.01260883040595,238.38727236759814 31.883280268233648,238.53727147002382 31.165887126309826,239.2149755985306 24.9147530359769,243.58435190013415 23.711997407790477,244.7149290299726 23.180989546643104,245.2733028907046 22.703234622858872,245.80787902748625 22.059634837001795,246.50688533442235 21.84738384378943,246.71429094760015 21.526344707104727,246.9591504512032 20.590614521988755,247.59227796074765 19.676185511820222,248.22352756882492 19.55826829336729,248.31578991493143 19.4061170437526,248.4637728065877 19.29200360654795,248.61540671200282 19.16723958186776,248.8181896607598 19.078231100844278,249.00635295172333 19.004437744777533,249.22648002790856 18.97933278859273,249.3954530701817 18.95803161364529,250.20008037082835 14.981558705021598,250.31515088404058 15.007424417457514,250.28775329523933 14.91004761770455,250.1032737167211 14.858316192836355,249.9361424481899 14.749528049364017,250.0256448799596 14.703121918228135,249.98820010875488 14.62780704967372,249.88408444361585 14.594333774755796,249.85851196449175 14.598898312244273,249.87312481987055 14.631610830911086,249.88956424977232 14.618677974696766,249.88956424977232 14.594333774755796,249.85668535566447 14.633893099657143,249.84389908200455 14.620960243439185,249.85394544162818 14.601941337237804,249.85851196449175 14.62780704967372,249.83933255066904 14.52890873742217,249.88591104609122 14.573793356063106,249.8904775504293 14.58292243104006,249.88043123739362 14.577597137300472,249.90326374848382 14.538798568650236,249.87677802948247 14.553252937359503,249.87951793557522 14.580640162290365,249.85668535566447 14.570750331065938,249.8457256937986 14.599659068495384,249.8402458571495 14.577597137300472,249.85668535566447 14.564664281082514,249.8530321367366 14.589008481023484,249.84937891611435 14.586726212277426,249.8384192440858 14.600419824742858,249.8448123879557 14.569989574814826,249.83933255066904 14.583683187283896,249.81193330706674 14.5981375559968,249.82380632432842 14.584443943535007,249.83659263060008 14.595855287258019,249.8630784847096 14.597376799749327,249.83659263060008 14.601941337237804,249.84755230517067 14.607266630973754,249.83933255066904 14.598898312244273,249.8292861724144 14.631610830911086,249.81649985428294 14.639979149640567,249.83202609502723 14.55020991236961,249.8557720510894 14.550970668617083,249.8420724697903 14.551731424868194,249.86947160856698 14.534994787409232,249.89321745175812 14.541841593640129,249.90600364536704 14.536516299904179,249.89778395185704 14.522061931191274,249.9160499257864 14.517497393706435,249.9069169441177 14.541841593640129,249.89778395185704 14.508368318725843,249.90600364536704 14.50760756247837,249.9187898182222 14.5,249.9069169441177 14.515975881204213,249.9041770475501 14.51521512495674,249.92152970970756 14.509129074973316,249.908743541298 14.573793356063106,249.84298577595064 14.563142768587568,249.8420724697903 14.538798568650236,249.88865094901166 14.519779662448855,249.8959573521356 14.524344199933694,249.88043123739362 14.519779662448855,249.89139085097713 14.5106505874719,249.87951793557522 14.58520469978248,249.84115916352175 14.579879406042892,249.85120552663693 14.580640162290365,249.84115916352175 14.570750331065938,249.8457256937986 14.548688399874663,249.82015309015287 14.569989574814826,249.88956424977232 14.592051506009739,249.90509034650995 14.58216167478895,249.9114834362731 14.60346284973275,249.88865094901166 14.619438730940601,249.89413075198945 14.754092586848856,250.05760978773606" stroke="red" stroke-dasharray="none" stroke-linecap="round" stroke-linejoin="round" stroke-width="0.5"><title>2024-09-25 160.1km</title><desc>1727226501000</desc></polyline></svg>