<?xml version="1.0" encoding="utf-8" ?>
<svg baseProfile="full" height="300mm" version="1.1" viewBox="0,0,200,300" width="200mm" xmlns="http://www.w3.org/2000/svg" xmlns:ev="http://www.w3.org/2001/xml-events" xmlns:xlink="http://www.w3.org/1999/xlink"><defs /><rect fill="#222222" height="300" width="200" x="0" y="0" /><text fill="#FFFFFF" style="font-size:12px; font-family:Arial; font-weight:bold;" x="10" y="20">Over 10km Workouts</text><text fill="#FFFFFF" style="font-size:9px; font-family:Arial" x="10" y="290">Kin Azem</text><text fill="#FFFFFF" style="font-size:4px; font-family:Arial" x="65" y="280">SPECIAL TRACKS</text><rect fill="yellow" height="2.6" width="2.6" x="65" y="283" /><text fill="#FFFFFF" style="font-size:3px; font-family:Arial" x="70" y="285.5">Over 20.0 km</text><rect fill="red" height="2.6" width="2.6" x="65" y="287" /><text fill="#FFFFFF" style="font-size:3px; font-family:Arial" x="70" y="289.5">Over 40.0 km</text><text fill="#FFFFFF" style="font-size:4px; font-family:Arial" x="120" y="280">STATISTICS</text><text fill="#FFFFFF" style="font-size:3px; font-family:Arial" x="120" y="285">Number: 2</text><text fill="#FFFFFF" style="font-size:3px; font-family:Arial" x="120" y="290">Weekly: 2.0</text><text fill="#FFFFFF" style="font-size:3px; font-family:Arial" x="141" y="285">Total: 192.7 km</text><text fill="#FFFFFF" style="font-size:3px; font-family:Arial" x="141" y="290">Avg: 96.4 km</text><text fill="#FFFFFF" style="font-size:3px; font-family:Arial" x="167" y="285">Min: 32.6 km</text><text fill="#FFFFFF" style="font-size:3px; font-family:Arial" x="167" y="290">Max: 160.1 km</text><polyline fill="none" opacity="1" points="143.08258491457673,116.18715747756505 143.3378351002757,116.11717392135324 143.01694915254484,115.7760031579237 143.7535282598401,115.7847511454238 143.90667837130604,115.49606702347955 144.78911472752225,115.60104319527454 145.8319940576912,115.22487790554442 146.51023026538314,114.64750428762636 147.2468093727075,114.43754915228783 147.0717806739267,113.65021220552444 147.39266662165755,112.41670118123875 147.68438111961586,112.04926847777097 149.39091093256138,111.67308552772738 150.3900330880133,111.8568030161041 151.30164089406026,111.51561303975177 152.35910594908637,111.29690070705692 152.49767033563694,111.2181641125062 152.49037747317925,110.97320529424906 152.60706327232765,111.19191856277757 153.343642379652,110.99070237902197 153.4603281788295,110.8507255876757 153.6499426024966,110.85947414473776 153.72287122698617,111.0431936089808 153.80309271393344,110.780737094894 153.80309271393344,111.06943921032507 153.78121412656037,110.74574282421236 153.77392126410268,110.8507255876757 153.8906070633093,110.82447991047229 153.78121412656037,110.88571980979032 153.77392126410268,110.780737094894 154.0,110.90321691477584 153.86143561350764,110.96445675035648 153.91977851308184,110.87697125579143 153.80309271393344,110.79823422414484 153.83955702616367,110.89446836280695 153.74474981433013,110.86822270077391 153.86872847593622,110.95570820545981 153.85414275104995,110.80698278726777 153.72287122698617,110.83322847056843 153.74474981433013,110.97320529424906 153.86143561350764,110.99070237902197 153.75204267675872,110.99070237902197 153.67182118984056,110.69325138786371 153.83955702616367,110.88571980979032 153.71557836452848,111.01694799855613 153.65723546492518,110.75449139341072 153.77392126410268,110.88571980979032 153.38739955436904,110.89446836280695 153.2852994800487,111.0431936089808 152.3955702613457,111.28815220060642 152.35910594908637,111.48061910901015 152.220541562594,111.31439771694568 150.36086163818254,111.86555145680904 149.22317509623826,111.70807936945494 147.7208454318461,112.04052005831181 147.4218380714883,112.3729592863092 147.13741643595858,113.51898858443747 147.23222364782123,114.45504543581774 146.51752312784083,114.71748920327082 145.43817948547076,115.44357888297964 144.6943075157178,115.64478322386276 143.88479978393298,115.53105909696023 143.76811398475547,115.80224711741175 142.94402052808437,115.7760031579237 143.00965629011625,115.95971068323706 142.9294348031981,116.08218211897474 142.71794179218705,116.13466981647798 142.29495577013586,115.96845864950592 142.17097710852977,116.14341776250512 141.58025525018456,116.16966159458389 141.17914781553554,116.4233515017986 141.25207643999602,117.3418768092597 141.06246201635804,117.61305833941879 140.46444729555515,117.5693194486812 140.30400432171882,118.97769903025619 139.64764670137083,119.03893233044073 139.58201093930984,118.87272754317382 139.86643257481046,118.92521330490854 139.4215679654444,119.00394187925122 139.58201093930984,118.87272754317382 139.4361536903598,118.71527003953088 139.86643257481046,118.55781220826611 139.64035383891314,119.01268949357473 139.961239786644,119.03018471917312 138.80167465732666,118.96020379251422 138.74333175772335,119.3276029353583 138.56101019651396,119.17889397339604 138.58288878388703,119.2751174527366 138.4151529475639,119.25762228380336 138.0578026875737,120.71845495988237 136.7013302721607,123.43885262939875 136.35856573708588,123.84121825929469 135.78242960362695,124.10362947406247 131.99743399288855,124.2785697784202 127.33000202578842,124.30481078921002 126.76845161727397,124.56722039650776 126.65905868055415,126.35158159727143 123.80754946317757,126.45654271074454 122.79384158283938,126.24662033825007 121.02167600783287,125.54687489139178 118.66608143699705,125.17075904042576 118.18475251537166,125.20574664030573 117.47005199544947,124.92584538838855 116.50739415222779,124.46225666275859 116.04794381797547,123.98991805936384 115.74164359515999,123.88495352493192 115.30407184822252,123.48258812757558 114.99777162534883,123.4038642126252 113.61212776016328,122.31046803773643 112.96306300224387,121.96932519772236 112.42339118104428,121.85561057598534 112.39421973124263,112.6791520197221 111.42426902559237,112.005526370398 110.88459720439278,111.79556390286598 108.70403133230866,111.28815220060642 108.27375244785799,109.82713742905617 108.37585252212011,109.01350619196455 108.05496657438925,106.896274214414 106.15882233780576,104.26277488032065 105.56810047946055,103.23909756649664 105.19616449458408,101.94416966234712 104.48146397460368,98.30425355500483 104.1751637517882,97.35049656878982 103.6427847930463,96.30047496546467 99.8577891822788,90.84887843248725 99.07745290026651,89.95628424824827 96.32075089475256,87.4709664866532 92.06901208727504,81.22230663306254 90.98966844484676,80.24207782201847 87.83185900465469,78.4653806973729 86.78168681208626,77.64265950581466 80.14518198394217,70.11521996665397 79.54716726316838,69.66880174186372 77.286379904137,68.64465584762365 76.23620771153946,67.74304583488993 72.08656897835317,62.578276268068294 71.10932541021612,61.151336996372265 71.21871834696503,61.02877653808537 72.37099061382469,61.05503951016726 72.84502667296329,60.5560414789652 73.3117698697024,60.4684976248318 73.53055574314203,60.72237452232366 73.74934161661076,61.484000095078954 74.41299209941644,62.69208008001442 75.43399284218322,63.59375037570862 75.69653589033987,64.33783911616047 75.51421432915959,64.58294909642427 75.16415693159797,64.54793343367055 74.71929232226103,64.06646642459964 72.8377338105347,61.33517731097527 72.4803835505445,61.151336996372265 71.24059693427989,61.05503951016726 70.97805388615234,60.91497022018302 70.75197515025502,60.12707562419382 70.73738942539785,58.28862293797283 70.54777500173077,57.57073878825031 69.35903842261177,55.71471399482107 67.71085150921135,53.54345728925546 67.54311567288823,53.56096767367126 67.30974407456233,53.849888430253486 65.20939968939638,58.20983110855741 64.84475656694849,58.00847383768996 60.862853670085315,54.00748110429413 59.91478155174991,54.92676514868799 59.535552704444854,55.364515522582224 59.60118846647674,55.41704539692728 59.44074549261131,55.31198561168276 59.14173813222442,55.55712488327117 58.47079478696105,55.662184327498835 46.335471672646236,54.46274698207708 46.0,54.92676514868799 46.10210007429123,54.856724853409105 47.15956512934645,55.51335007168382 49.15051657776348,57.3431155599319 48.50874468230177,56.80031893932028 47.123100817087106,57.29058702519251" stroke="#ffff00" stroke-dasharray="none" stroke-linecap="round" stroke-linejoin="round" stroke-width="0.5"><title>2024-09-26 32.6km</title><desc>1727327929000</desc></polyline><polyline fill="none" opacity="1" points="154.0,176.43481284949667 153.9207458768833,176.63245716677375 153.7002568420612,176.93566814780206 153.34462936654745,177.28797099181247 151.9637786830499,178.5313693907019 151.7371931772177,178.78788615891244 151.66505160361703,178.90202794581 151.60103865802012,179.0394873564137 151.60002257952146,179.08857956188422 151.6975661156648,180.2532240452856 151.6345692485702,180.86556109760477 151.58681355900262,181.012811114766 151.52178453490706,181.40669464736038 151.48520570885375,181.49258626841856 151.36022805317043,181.66068638535126 151.0452437177155,181.86436609291195 151.04117940370634,181.89013251827328 151.08791901477525,181.9821549441658 151.10011195679544,181.95270785659068 151.10011195679544,181.96743141081515 151.12754607633542,181.96129659909093 151.11636921282116,182.00301324735028 151.10112803530137,181.99933237336154 151.07979038676422,182.03123323791988 151.06962960175224,182.01896368622238 151.06353313074578,182.03491410060178 151.031018618698,182.03982191548312 151.03813116820675,182.06313400449653 151.03508293269988,182.04963753828451 151.02288999068332,182.07294960526633 151.02898646169706,182.05699924930104 151.0147613626723,182.07294960526633 151.00663273465761,182.0508644904803 149.9519432501329,182.87657044960724 148.85559454704344,183.47403145525732 148.84340160502325,183.52310270082762 148.07423017941255,184.06164439128497 148.0244423328404,184.01870928964308 148.04069958885884,184.03220319784577 148.03358703935373,184.02238944816327 125.84243256719856,186.28911946458265 124.24718931988536,185.54463658391796 123.56336848839419,185.31895084546977 99.88162685457428,207.59529885039592 99.37561976084544,207.4227210053441 99.0260887563345,207.2562602396274 98.77816560197607,207.18159682820806 98.77613344497513,207.1669088811459 98.29959262777993,207.09102082551635 97.31501255985859,206.89395410515135 96.93804743581131,206.8658014128905 96.56819486127279,206.8878339611174 86.08429688308388,215.67511482044847 85.60165959488222,216.33062247735415 84.64959403900502,217.75034060156668 84.32038460452532,218.28100403568078 84.11615282573257,218.5768922385978 83.82352221730252,218.92045440902712 83.42217120922578,219.27745368559135 82.98017706108658,219.5757588125125 82.50262016539637,219.80559467012154 82.08399582278435,219.94007075766876 81.03845104476932,220.19068067561147 80.78239926240349,220.27014110440723 80.4511576709192,220.40216632966985 79.97969724623908,220.65643244361127 79.09570894995704,221.24806623492077 78.81527128355083,221.4583082105837 78.34584301586801,221.86044534903976 77.43137236454277,222.86266525301562 76.85322369720598,223.52016720115898 76.26999463736138,224.09208701381158 74.95722121345898,225.07454305666033 74.86374199132115,225.0635459240748 74.76518237667915,225.11853147162492 74.68999256757161,225.13441613165833 73.61091719900651,225.68181124573402 73.5184540553746,225.63293784418056 73.42192659773355,225.61461025985227 73.24411285997485,225.64026886894044 72.21380925948324,225.92128761965432 71.79213668137163,226.05690701731328 71.14591075443968,226.33547108804578 70.53524757505147,226.68366576839162 70.17352362853126,226.93900118495822 69.76810830643444,227.27129442525256 69.39012710389215,227.63411729785184 69.21739375864126,227.834458555124 68.25923173175033,228.7396112858296 59.91011468515353,234.57542181805547 58.30369457432607,236.0854391446428 57.5944717802995,236.83121241580375 56.95637448137495,237.5452010571953 56.096772069129656,238.47880532621002 55.813286167216575,238.75581965921265 55.384501039596216,239.08285802153478 54.134724482784804,239.92847349005842 52.91339812401566,240.77158080263507 52.75590595628455,240.8948079027914 52.552690255990456,241.09245627594646 52.400278480770794,241.29498100285946 52.23364160653364,241.56582122957116 52.11476042186041,241.81713520195171 52.01620080721477,242.11114052924768 51.9826702166647,242.33682369125836 51.954220018626074,243.41149708890225 46.643177691432356,243.56518715050333 46.67772436048108,243.52859448229447 46.547666312293586,243.28220053657242 46.4785729741925,243.05897727772935 46.33327374848159,243.17851819110638 46.27129295988925,243.12850634156712 46.17070118824631,242.9894477544267 46.12599373417834,242.9552927325867 46.13209020518843,242.9748099014996 46.17578158075048,242.99676667325548 46.15850824622612,242.99676667325548 46.12599373417834,242.95285308392795 46.17882981625735,242.93577552746683 46.16155648173299,242.94919360987842 46.13615451919759,242.9552927325867 46.17070118824631,242.9296763934426 46.0386109830506,242.9918873946017 46.098559614642,242.99798649256627 46.11075255666219,242.98456847237958 46.10364000714617,243.015063948048 46.051820003573084,242.9796891880751 46.071125495098386,242.98334865151537 46.10770432115169,242.95285308392795 46.09449530063284,242.93821518008735 46.13310628369072,242.9308962205323 46.10364000714617,242.95285308392795 46.08636667262181,242.94797378490966 46.11888118467323,242.94309448363038 46.11583294916636,242.92845656621557 46.13412236219301,242.93699535384894 46.093479222130554,242.9296763934426 46.111768635157205,242.8930815150543 46.131074126686144,242.90893931131632 46.11278471366313,242.92601691133586 46.12802589118655,242.96139185176162 46.13005804818749,242.92601691133586 46.13615451919759,242.9406548321449 46.1432670687027,242.9296763934426 46.13209020518843,242.91625828614815 46.17578158075048,242.89918067028884 46.186958444268384,242.91991777165276 46.06706118109287,242.95163325938302 46.06807725959516,242.93333587428424 46.069093338097446,242.96993061266585 46.046739611068915,243.00164594964463 46.0558843175786,243.01872339918827 46.048771768069855,243.0077450419485 46.029466276540916,243.0321413758129 46.02336980553446,243.0199432159543 46.0558843175786,243.0077450419485 46.011176863514265,243.01872339918827 46.010160785015614,243.03580082101325 46.0,243.0199432159543 46.02133764852624,243.01628376523513 46.02032157002395,243.03946026494395 46.012192942012916,243.02238284905707 46.098559614642,242.93455570094648 46.08433451561723,242.93333587428424 46.051820003573084,242.99554685380463 46.02641804103769,243.0053054054506 46.032514512044145,242.98456847237958 46.02641804103769,242.99920631173245 46.014225099017494,242.98334865151537 46.11380079216178,242.9321160474774 46.106688242653036,242.94553413455196 46.10770432115169,242.9321160474774 46.09449530063284,242.93821518008735 46.06502902409193,242.90405999193445 46.093479222130554,242.99676667325548 46.12294549867147,243.01750358228037 46.109736478156265,243.02604229764802" stroke="red" stroke-dasharray="none" stroke-linecap="round" stroke-linejoin="round" stroke-width="0.5"><title>2024-09-25 160.1km</title><desc>1727226501000</desc></polyline></svg>