<?xml version="1.0" encoding="utf-8" ?>
<svg baseProfile="full" height="300mm" version="1.1" viewBox="0,0,200,300" width="200mm" xmlns="http://www.w3.org/2000/svg" xmlns:ev="http://www.w3.org/2001/xml-events" xmlns:xlink="http://www.w3.org/1999/xlink"><defs /><rect fill="#222222" height="300" width="200" x="0" y="0" /><text fill="#FFFFFF" style="font-size:12px; font-family:Arial; font-weight:bold;" x="10" y="20">Over 10km Workouts</text><text fill="#FFFFFF" style="font-size:9px; font-family:Arial" x="10" y="290">Kin Azem</text><text fill="#FFFFFF" style="font-size:4px; font-family:Arial" x="65" y="280">SPECIAL TRACKS</text><rect fill="yellow" height="2.6" width="2.6" x="65" y="283" /><text fill="#FFFFFF" style="font-size:3px; font-family:Arial" x="70" y="285.5">Over 20.0 km</text><rect fill="red" height="2.6" width="2.6" x="65" y="287" /><text fill="#FFFFFF" style="font-size:3px; font-family:Arial" x="70" y="289.5">Over 40.0 km</text><text fill="#FFFFFF" style="font-size:4px; font-family:Arial" x="120" y="280">STATISTICS</text><text fill="#FFFFFF" style="font-size:3px; font-family:Arial" x="120" y="285">Number: 3</text><text fill="#FFFFFF" style="font-size:3px; font-family:Arial" x="120" y="290">Weekly: 1.5</text><text fill="#FFFFFF" style="font-size:3px; font-family:Arial" x="141" y="285">Total: 220.0 km</text><text fill="#FFFFFF" style="font-size:3px; font-family:Arial" x="141" y="290">Avg: 73.3 km</text><text fill="#FFFFFF" style="font-size:3px; font-family:Arial" x="167" y="285">Min: 27.3 km</text><text fill="#FFFFFF" style="font-size:3px; font-family:Arial" x="167" y="290">Max: 160.1 km</text><polyline fill="none" opacity="1" points="65.55833261678345,49.503741176878975 65.31348020897713,47.88754004602379 64.71989861421753,46.846577983560564 64.91281263250858,45.769075288153545 64.890553322708,45.075082073090016 63.97792162076803,43.3126748869181 63.96308208091068,42.57299907892593 64.13373678940115,41.75112827096018 65.29122089917655,39.157608544548566 63.7627482926473,37.26720330027456 64.61602183512878,36.545731372716546 65.1873441200878,34.5 64.54924390572705,36.62792473742593 63.480797035153955,37.532045634361566 63.347241176321404,37.42245581966563 63.56983427438536,37.80601945048693 63.09496899857186,37.23067324765725 64.34149034754955,38.7740520232328 64.9499114821665,38.993227425315126 65.16508481028723,39.212402168624976 64.98701033185353,39.248931228445144 65.16508481028723,39.212402168624976 63.53273542469833,37.71469495949714 64.36374965737923,38.76491970050847 64.99443010179675,38.98409513005754 65.0983068808564,38.91103672673489 64.97217079199618,38.783184344822075 63.01335152928368,45.969966828473844 62.174917526659556,47.18443572000979 62.197176836489234,55.53906839586125 63.33982140640728,55.64863099249487 64.2969717279484,56.13253049268678 63.79984714236343,57.20988011605368 63.08754922859953,58.02244684951438 63.26562370706233,59.14541743895097 62.79817820119206,60.71572131198627 62.093300057400484,61.7473560428698 62.805597971135285,66.76837878068181 60.750321699277265,70.45632813560951 60.66870422998909,71.74341510391241 60.32739481300814,72.50105142957182 59.60767712935922,73.24955188362219 59.30346656200709,73.97066091481975 59.11055254371604,74.12583534450096 57.75273464570637,75.02949164491292 57.0478565019439,74.88344694015541 56.77332501433557,75.39460212833364 56.7213866248203,76.0426687385334 56.93655995291192,76.94630130840233 56.87720179345342,77.84079525908601 57.055276271887124,78.7444055696833 57.834352114994545,79.86705734397401 57.92338935419684,80.27777928917203 55.96457009151345,85.21538891391538 56.07586664054543,87.88940778145479 56.32071904835175,88.74726339323388 56.209422499348875,89.65073872570065 54.918382530711824,90.99224208173837 54.6438510431326,92.82650270198792 53.478947163472185,94.21357466639893 52.98182257782901,94.43258362087363 52.66277247064863,94.35045533991797 52.28436420398066,94.60596524400898 51.76498030859511,95.64624633869971 51.520127900730586,95.8652509967651 51.36431273209746,96.59526178047963 50.236507702065865,97.9822621668136 49.15322129163542,100.01709006559395 48.66351647596457,100.63756442415615 48.47060245764442,101.58651501266286 47.66926730470732,102.54457761927188 47.61732891516294,103.77635393495439 45.81432482111268,105.77452466957766 45.38397816490033,107.01537031014595 44.87943380934303,107.77264074906998 45.0204094380897,107.80913551169942 45.376558394986205,108.56639772265044 45.376558394986205,109.22329352370434 44.8126558799413,109.67946768821275 44.493605772731826,109.64297385987447 44.441667383216554,109.77982562216494 44.642001171421725,109.90755370235274 46.5340425047616,109.00432891296805 47.08310547992005,108.93134056355484 47.52829167598975,109.04994659433578 48.67835601582192,109.87105998794141 49.464851628872566,110.80164401117509 55.348729186924174,114.94351147129055 57.159153050975874,115.5" stroke="#ffff00" stroke-dasharray="none" stroke-linecap="round" stroke-linejoin="round" stroke-width="0.5"><title>2026-06-28 27.3km</title><desc>1782622347000</desc></polyline><polyline fill="none" opacity="1" points="185.3991186050407,96.34146202208649 185.5,97.33749090060883 184.73950948452693,97.6167491219312 183.59101360410568,98.38935848676192 182.79948265949497,98.6034537457308 181.93811074917903,98.48244345195417 181.8139490323665,98.77100615995732 180.93705690742354,98.74308078180911 181.00689787312876,98.93855822546175 180.92153669285472,99.06887625754462 180.696493581112,99.1247267781655 180.2464073576848,98.94786666331493 180.11448553358787,99.13403519448184 179.48591684226994,99.16196043704986 179.05911094078328,99.43190394892736 179.13671201374382,100.40927805877436 178.93494922397076,100.69783386067138 178.29862042531022,100.65129267224256 178.12789806473302,102.14990542542364 177.42948840773897,102.21506186888291 177.35964744203375,102.03820854248625 177.66229162670788,102.09405700331263 177.18892508139834,102.17782962192723 177.35964744203375,102.03820854248625 177.20444529602537,101.87066292756208 177.66229162670788,101.70311696402496 177.42172830042546,102.18713768528687 177.76317302163807,102.20575380877563 176.52931596088456,102.13128928902006 176.46723510246375,102.52222724934109 176.2732324199751,102.36399068454921 176.29651274188654,102.46637908549746 176.11803027396672,102.44776302231185 175.73778501624474,104.00218947613757 174.29440505843377,106.89687972483807 173.9296800153097,107.3250244326191 173.31663153858972,107.60424801563931 169.28913584977272,107.79039653312793 164.32266717759194,107.81831877365039 163.72513891546987,108.09754064621666 163.60873730597086,109.99622370490397 160.57453535156674,110.10790954960976 159.4958804368507,109.88453770531487 157.61017436286784,109.13996041638893 155.10365970490966,108.7397472790326 154.59149262309074,108.77697649199399 153.831002107705,108.47914230635797 152.80666794403805,107.98585201335663 152.31778118413058,107.48325124853 151.9918566775159,107.37156176368444 151.52625023951987,106.9434173033369 151.20032573284698,106.85964964263985 149.72590534584015,105.69620090098033 149.0352557961305,105.33320145296602 148.46100785589078,105.212201273338 148.42996742669493,95.44781814728049 147.39787315574358,94.7310341196353 146.82362521553296,94.50761961146782 144.5033531327499,93.96769865686656 144.0455068020674,92.41307844093535 144.15414830425289,91.54731883731438 143.81270358304027,89.29443837490544 141.79507568501867,86.49221393258631 141.16650699367165,85.40295085485559 140.77074152135174,84.02505849048612 140.01025100590778,80.15193737290974 139.6843264993222,79.13707433338277 139.11783866639598,78.01977911947324 135.09034297757898,72.21890540874301 134.2600114964298,71.26912379772693 131.32669093695586,68.62457474153052 126.80254838091787,61.975570829963544 125.65405250043841,60.932539947898476 122.2939260394487,59.0420119933915 121.17647058822331,58.16658005295176 114.11477294500219,50.156866592369624 113.47844414639985,49.681846893370675 111.07281088331365,48.59208521384426 109.95535543205915,47.63271014113707 105.53985437826486,42.137040052395605 104.5,40.618678512262704 104.61640160949901,40.488265754058375 105.842498562939,40.516211362912145 106.3469055374444,39.9852431330728 106.84355240469449,39.892090450382966 107.0763556236634,40.16223293278017 107.30915884271963,40.97265493222221 108.01532860702719,42.2581351365443" stroke="#fff500" stroke-dasharray="none" stroke-linecap="round" stroke-linejoin="round" stroke-width="0.5"><title>2024-09-26 32.6km</title><desc>1727327929000</desc></polyline><polyline fill="none" opacity="1" points="95.5,200.35117007873123 95.47341892875556,200.3551822864747 95.47923353809165,200.37424024736265 95.47674156266294,200.36320669627003 95.46677366094445,200.38226463914634 95.47175761180551,200.3692249986425 95.46012839313698,200.38226463914634 95.45348312532224,200.3642097469601 94.59125962691905,201.03923599039626 93.6949791309853,201.52766877180602 93.68501122927046,201.5677852057397 93.05620276270929,202.00805061768824 93.01550049736761,201.9729505677824 93.02879103298619,201.98398202766566 93.02297642365738,201.9759591491711 74.88139530114131,203.8290428419241 73.57726149333757,203.22041760834963 73.0182283387876,203.03591634063014 53.658071231526264,221.24714437528928 53.24440331032747,221.10605955791834 52.958656794478884,220.9699755390011 52.755976126260066,220.90893714927552 52.75431480931002,220.89692954581824 52.364735983916034,220.8348899922139 51.559827920380485,220.673785174592 51.25165362566986,220.65076995241816 50.94929394029532,220.66878187070324 42.37855978177322,227.85250765459205 41.98399700552909,228.38839439041203 41.2056700132307,229.54903393955465 40.93653666690807,229.98285876605496 40.76957431316987,230.2247515365807 40.53034467198813,230.50561844656022 40.202234573851456,230.79747037993184 39.84089813666287,231.04133901984915 39.4504886527975,231.22923306839493 39.10825736055631,231.3391691627221 38.25350978843926,231.54404629798591 38.04418385241297,231.60900631693585 37.77338918913665,231.7169387968488 37.38796365613234,231.924804923804 36.66529078174426,232.40847387547183 36.436029042284645,232.58034964974195 36.05226482622675,232.90910242052905 35.30467219755519,233.72843129832017 34.83202752453508,234.26594839529844 34.355229559136205,234.7335008919399 33.28201880774941,235.5366725350832 33.20559822793075,235.52768222440955 33.125024355726055,235.57263368345502 33.06355562847966,235.58561961661053 32.18139632664315,236.0331228269788 32.10580640529952,235.9931681333128 32.02689385005215,235.9781850751633 31.881528616697324,235.99916134923842 31.03924092172383,236.22889813329948 30.694517654057563,236.33976889973474 30.166218863127142,236.5674989483614 29.66699311886623,236.8521530004 29.371278701306437,237.06089329730094 29.03984596925511,237.33254769828454 28.730841016069462,237.629160503383 28.589629075097037,237.7929423010155 27.806318131941225,238.5329173984337 20.98079743213748,243.30377464783305 19.66752638109756,244.53823506588196 19.08772676463559,245.14791521184907 18.566073241519916,245.73161097561024 17.863336170565162,246.49484560605288 17.631582455673197,246.72130872227262 17.281044578670844,246.98866718654972 16.259334652815596,247.67996973414574 15.260883164297411,248.3692218289516 15.132131100468541,248.46996171775663 14.965999405205366,248.63154204472085 14.841400633762532,248.7971088595168 14.705172643651167,249.0185245569428 14.607985601924156,249.22397726661984 14.52741172971946,249.4643307598226 14.5,249.64882992126786" stroke="red" stroke-dasharray="none" stroke-linecap="round" stroke-linejoin="round" stroke-width="0.5"><title>2024-09-25 160.1km</title><desc>1727226501000</desc></polyline></svg>