<?xml version="1.0" encoding="utf-8" ?>
<svg baseProfile="full" height="300mm" version="1.1" viewBox="0,0,200,300" width="200mm" xmlns="http://www.w3.org/2000/svg" xmlns:ev="http://www.w3.org/2001/xml-events" xmlns:xlink="http://www.w3.org/1999/xlink"><defs /><rect fill="#222222" height="300" width="200" x="0" y="0" /><text fill="#FFFFFF" style="font-size:12px; font-family:Arial; font-weight:bold;" x="10" y="20">Over 10km Workouts</text><text fill="#FFFFFF" style="font-size:9px; font-family:Arial" x="10" y="290">Kin Azem</text><text fill="#FFFFFF" style="font-size:4px; font-family:Arial" x="65" y="280">SPECIAL TRACKS</text><rect fill="yellow" height="2.6" width="2.6" x="65" y="283" /><text fill="#FFFFFF" style="font-size:3px; font-family:Arial" x="70" y="285.5">Over 20.0 km</text><rect fill="red" height="2.6" width="2.6" x="65" y="287" /><text fill="#FFFFFF" style="font-size:3px; font-family:Arial" x="70" y="289.5">Over 40.0 km</text><text fill="#FFFFFF" style="font-size:4px; font-family:Arial" x="120" y="280">STATISTICS</text><text fill="#FFFFFF" style="font-size:3px; font-family:Arial" x="120" y="285">Number: 3</text><text fill="#FFFFFF" style="font-size:3px; font-family:Arial" x="120" y="290">Weekly: 1.5</text><text fill="#FFFFFF" style="font-size:3px; font-family:Arial" x="141" y="285">Total: 220.0 km</text><text fill="#FFFFFF" style="font-size:3px; font-family:Arial" x="141" y="290">Avg: 73.3 km</text><text fill="#FFFFFF" style="font-size:3px; font-family:Arial" x="167" y="285">Min: 27.3 km</text><text fill="#FFFFFF" style="font-size:3px; font-family:Arial" x="167" y="290">Max: 160.1 km</text><polyline fill="none" opacity="1" points="64.47391377552412,53.16456227080198 65.2974155114207,51.23644494335895 65.37029177119257,49.23652889246296 65.12980011384934,47.64911183560616 64.5467900353542,46.626689005955996 64.73626831086585,45.56837632144743 64.71440543292556,44.88674292452197 63.81802743722801,43.155723699841474 63.803452185267815,42.42922130373336 63.97106758283917,41.62198777680169 65.10793723587994,39.07465788548143 63.60668628374697,37.21792021103465 64.44476327160373,36.50929748953058 65.00591047215858,34.5 64.37917463778285,36.59002701422287 63.32975649647415,37.47804577986972 63.198579228832386,37.3704077280272 63.417208008264424,37.747140201689035 62.95079994547996,37.18204074807727 64.17512111031101,38.697932394708914 64.77270644073724,38.91320434636873 64.98404759421828,39.12847565098491 64.80914457066683,39.16435413882573 64.98404759421828,39.12847565098491 63.38076987833483,37.65744217342581 64.1969839882513,38.688962716005335 64.81643219664693,38.9042346946444 64.9184589603683,38.83247744032269 64.79456931870664,38.70690207229927 62.87063605969888,45.76569004162593 62.04713432377321,46.95852959397598 62.06899720177171,55.16436868185701 63.19129160285229,55.27198000037606 64.13139535443042,55.747261390635686 63.643124413705664,56.805423729267204 62.943512319470756,57.60351888457808 63.11841534305131,58.70648969308968 62.65929490621784,60.24882690900267 61.96697043799213,61.26208852414857 62.66658253222704,66.19368830136955 60.64791013544891,69.81595634653058 60.567746249667834,71.08012066873926 60.23251545452513,71.82426371089969 59.525615734339226,72.5594335886708 59.22682306909701,73.26769987689477 59.03734479358536,73.4201106949331 57.70370923902374,74.30767313838442 57.011384770827135,74.16422944751685 56.74174260950531,74.66628110985039 56.690729227644624,75.30280584143475 56.902070381096564,76.19034497698158 56.84376937325578,77.06890824950824 57.01867239680723,77.9564255222067 57.78387312483392,79.05908319357695 57.87132463656599,79.46249029989849 55.94739137758734,84.31216252744343 56.05670576731791,86.93855789350346 56.297197424661135,87.78113534532167 56.18788303495967,88.66852004381508 54.919836114218924,89.98613161365938 54.6501939528971,91.78772458356252 53.50603667390533,93.15009319806268 53.017765733151464,93.36520166650007 52.70439781594905,93.28453606644325 52.332728890905855,93.53549541315442 51.822595072269905,94.55724940286746 51.58210341483937,94.7723536514095 51.42906326925731,95.4893631545201 50.32134412013693,96.85166146572737 49.257350726868026,98.85024966903438 48.77636741212336,99.45967355899484 48.58688913658261,100.39172361238889 47.799825530615635,101.33272340148687 47.74881214875495,102.5425621377799 45.977919035358354,104.5051460304021 45.55523672842537,105.72389256953466 45.05967816172051,106.46767624129279 45.19814305534237,106.5035210427668 45.54794910247438,107.24729663308972 45.54794910247438,107.89249331019528 44.99408952787053,108.34054314497189 44.680721610668115,108.30469926114893 44.629708228836535,108.43911373319133 44.826474130299175,108.56456701326533 46.68481875551515,107.67742839575658 47.2241030781297,107.60573994770675 47.66136063699378,107.7222336394334 48.79094266408356,108.52872324133932 49.56343101806124,109.44273383267137 55.342518421122804,113.51083583304717 57.120699160557706,114.05741346225113 59.40172609264846,115.28495788308646 61.383960359496996,115.5" stroke="#ffff00" stroke-dasharray="none" stroke-linecap="round" stroke-linejoin="round" stroke-width="0.5"><title>2026-06-28 27.3km</title><desc>1782622347000</desc></polyline><polyline fill="none" opacity="1" points="185.5,93.9196960753543 183.94216226309072,94.26441978190996 183.63210717958282,94.60914197363309 183.33717673420324,95.7975147592806 183.4354868826631,96.76815703675675 182.69437960974756,97.04029757584067 181.57515638129553,97.79321481513762 180.8037998319778,98.00185325348139 179.96438241063152,97.88392724783625 179.8433853048482,98.16513512255915 178.98884324525716,98.13792150132213 179.05690411728574,98.32841665180604 178.97371860707062,98.45541316182789 178.75441135282745,98.50984017464361 178.3157968443702,98.33748783790361 178.18723741947906,98.51891133975732 177.57468957148376,98.54612482887023 177.15876202037907,98.80918807011767 177.23438521145727,99.76165104823303 177.03776491459575,100.04285219286248 176.41765474743443,99.99749723770219 176.2512837270333,101.45791362437012 175.57067500703852,101.5214093723771 175.50261413503904,101.34906365106144 175.7975445803313,101.40348865658598 175.3362431145797,101.48512609409227 175.50261413503904,101.34906365106144 175.35136775279534,101.18578840798727 175.7975445803313,101.0225128251841 175.5631126879016,101.49419691524236 175.89585472879116,101.51233855439204 174.69344599012402,101.43977197263303 174.63294743723236,101.82074577805179 174.44388945944957,101.66654231774737 174.46657641680213,101.7663210619503 174.29264307723497,101.74817948156124 173.9220894407772,103.26298699953622 172.51549808611162,106.08389791503578 172.1600690878695,106.5011301491686 171.56264587808982,106.77323693281505 167.63780225938535,106.95464093108603 162.79791802819818,106.98185149467463 162.21561945663416,107.2539566114574 162.10218466998776,109.10424638520635 159.14531789749162,109.2130856016156 158.09415554106818,108.99540701785008 156.25651199702406,108.2698073780557 153.81388292412157,107.87979479961359 153.31476986277266,107.916075121233 152.57366258991533,107.62583207860007 151.57543646721751,107.14511467795091 151.09901036319206,106.65532410907326 150.78139296054724,106.5464813452927 150.32765381387435,106.12924935228511 150.0100364111713,106.04761674633482 148.57319578004535,104.91382177243213 147.9001493791584,104.56007438765664 147.34053776491783,104.44215823837294 147.31028848848655,94.92664791535935 146.30450004668091,94.22813314730593 145.74488843244035,94.01041298707423 143.48375501821283,93.48425343856798 143.03757819067687,91.96925709705829 143.14345065821544,91.1255638151415 142.81070861732587,88.930104356019 140.84450564844883,86.19930249542085 140.23195780039532,85.13780235487502 139.84627952575102,83.79502945791319 139.10517225283547,80.02062573975127 138.78755485016154,79.03162934290594 138.2355055550579,77.94281154412602 134.31066193635343,72.2897894366979 133.5014937914384,71.36421568488004 130.64293716743123,68.78707040912559 126.23410512559349,62.30753508759517 125.11488189711235,61.29108878500119 121.84039772197139,59.448746259644395 120.75142376995063,58.59562716764776 113.86971337877912,50.79006381207728 113.249603211676,50.327151327888714 110.90528428720427,49.265165293822065 109.81631033518352,48.330242596697644 105.51335076094256,42.97464513741579 104.5,41.49498331724317 104.6134347867046,41.36789449545904 105.80828120626393,41.39512783176906 106.29983194847591,40.877692822614335 106.78382037160918,40.7869143983844 107.01068994493107,41.05017153883091 107.23755951828207,41.83993765125342 107.92573055741377,43.09265377230622 108.98445523294504,44.027638979736366 109.25669872097205,44.79922030902526 109.06764074318926,45.05338661219139 108.7046494258393,45.017077190830605 108.2433479600586,44.517820939960075" stroke="#fff500" stroke-dasharray="none" stroke-linecap="round" stroke-linejoin="round" stroke-width="0.5"><title>2024-09-26 32.6km</title><desc>1727327929000</desc></polyline><polyline fill="none" opacity="1" points="95.43277939428663,199.86563268144164 95.42945985819824,199.88667745766543 95.46763452317464,199.96183694654792 95.47759313142888,199.93778598255994 95.47759313142888,199.94981147307863 95.5,199.94480085410032 95.49087127576786,199.97887300478124 95.47842301545097,199.97586664405026 95.46099545100515,200.00192173499 95.4526966107951,199.99190055563577 95.4477173066698,200.00492808648596 95.42116101799184,200.00893655349228 95.42697020613923,200.0279767459033 95.42448055407658,200.01695348181966 95.4145219458187,200.0359936562345 95.41950124995128,200.02296617309457 95.40788287365285,200.0359936562345 95.40124380147972,200.01795559732545 94.53982418753367,200.69235248757832 93.64437932871442,201.18032988413597 93.63442072046018,201.22040891596043 93.00619851645388,201.66026385136593 92.96553419941847,201.6251965265992 92.97881234375382,201.63621770142436 92.97300315561006,201.62820230297075 74.84833613376759,203.4795582938259 73.5454182205649,202.8715005051954 72.98690627433461,202.68717125517378 53.64479939346711,220.88142025463821 53.23151715093627,220.74046697612266 52.946037047662685,220.6045098336217 52.74354534650047,220.5435283523566 52.741885578459915,220.53153194405513 52.35266997254075,220.46955023233568 51.548512356050196,220.3085956189925 51.24062538420549,220.28560185480455 50.93854760050817,220.30359697987842 42.37580427031571,227.4806250972133 41.98160936027125,228.01601220501743 41.20400803245866,229.17556964482992 40.935125609605166,229.6089899995959 40.768318921356695,229.8506572440965 40.529312323262275,230.13126229094723 40.20150813491273,230.4228421194266 39.840508585715725,230.66648339113908 39.450463095778105,230.85420225876533 39.1085508790602,230.96403585540247 38.2546002213021,231.16872197575594 38.045469447977666,231.23362142995757 37.77492725707998,231.34145328022805 37.38986107126766,231.5491256055193 36.667861972870014,232.03234361383875 36.43881398303347,232.20405914164894 36.0554075652617,232.53250540345925 35.30851194623028,233.351070389117 34.836307938196114,233.8880863380282 34.35995451005874,234.35520291731882 33.287744354740425,235.15762573234497 33.21139502479127,235.14864380368726 33.130896274742554,235.19355335274213 33.069484857176576,235.20652717860685 32.18814802671841,235.65361316435246 32.11262858079499,235.61369572199874 32.033789598786825,235.5987266331358 31.888559895083745,235.6196833502163 31.047057497642527,235.84920594175128 30.702655628865614,235.95997333906507 30.17484939142014,236.18749106612177 29.676089094708004,236.47187972413303 29.38065038318382,236.68042540434726 29.049526658738614,236.95182653138272 28.740809802875447,237.24816279284278 28.599729519279208,237.41179189034483 27.81714888733768,238.1510770802397 20.997991885578813,242.917486274132 19.68594524814398,244.15079575678828 19.106686201383127,244.7599074742775 18.585519036103506,245.34305903580753 17.883437154217972,246.10558207296162 17.65189951231514,246.3318340488222 17.30168845539083,246.5989432444194 16.280931109380617,247.28960126380116 15.283410515963624,247.9782107421097 15.154778492684272,248.07885670720316 14.988801688450621,248.24028638655363 14.86431908528175,248.40569883697754 14.728218105818087,248.6269080999491 14.631121675342001,248.83216925808574 14.550622925289645,249.07229866039143 14.523236752589582,249.25662580610242 14.5,250.13436731855836" stroke="red" stroke-dasharray="none" stroke-linecap="round" stroke-linejoin="round" stroke-width="0.5"><title>2024-09-25 160.1km</title><desc>1727226501000</desc></polyline></svg>