<?xml version="1.0" encoding="utf-8" ?>
<svg baseProfile="full" height="300mm" version="1.1" viewBox="0,0,200,300" width="200mm" xmlns="http://www.w3.org/2000/svg" xmlns:ev="http://www.w3.org/2001/xml-events" xmlns:xlink="http://www.w3.org/1999/xlink"><defs /><rect fill="#222222" height="300" width="200" x="0" y="0" /><text fill="#FFFFFF" style="font-size:12px; font-family:Arial; font-weight:bold;" x="10" y="20">Over 10km Workouts</text><text fill="#FFFFFF" style="font-size:9px; font-family:Arial" x="10" y="290">Kin Azem</text><text fill="#FFFFFF" style="font-size:4px; font-family:Arial" x="65" y="280">SPECIAL TRACKS</text><rect fill="yellow" height="2.6" width="2.6" x="65" y="283" /><text fill="#FFFFFF" style="font-size:3px; font-family:Arial" x="70" y="285.5">Over 20.0 km</text><rect fill="red" height="2.6" width="2.6" x="65" y="287" /><text fill="#FFFFFF" style="font-size:3px; font-family:Arial" x="70" y="289.5">Over 40.0 km</text><text fill="#FFFFFF" style="font-size:4px; font-family:Arial" x="120" y="280">STATISTICS</text><text fill="#FFFFFF" style="font-size:3px; font-family:Arial" x="120" y="285">Number: 3</text><text fill="#FFFFFF" style="font-size:3px; font-family:Arial" x="120" y="290">Weekly: 1.5</text><text fill="#FFFFFF" style="font-size:3px; font-family:Arial" x="141" y="285">Total: 220.0 km</text><text fill="#FFFFFF" style="font-size:3px; font-family:Arial" x="141" y="290">Avg: 73.3 km</text><text fill="#FFFFFF" style="font-size:3px; font-family:Arial" x="167" y="285">Min: 27.3 km</text><text fill="#FFFFFF" style="font-size:3px; font-family:Arial" x="167" y="290">Max: 160.1 km</text><polyline fill="none" opacity="1" points="65.46019155494287,47.60683183342189 65.66498446190963,46.462980747914116 65.6413545110845,45.72625415246148 64.6725265282148,43.855324843789276 64.65677322770352,43.070102700497955 64.83793618384516,42.19762431149866 66.0666936255293,39.44440581192612 64.44410367045202,37.43759682673408 65.3499184512184,36.671699487436854 65.95642052177573,34.5 65.27902859880123,36.758953997188655 64.14479096030118,37.718747113067366 64.00301125549595,37.60240918738418 64.23931076351437,38.0095911622775 63.73520514642587,37.39881739675184 65.0584823913232,39.037231384303595 65.70436771321693,39.269902748055756 65.9327905709797,39.502573412471975 65.74375096458243,39.541351788531756 65.9327905709797,39.502573412471975 64.19992751217796,37.912643267300155 65.08211234211922,39.02753672896506 65.75162761483807,39.26020812187198 65.86190071856254,39.18265106860781 65.72799766404205,39.0469260384416 63.648561993497424,46.67624240140867 62.758500513242325,47.965493524228805 62.782130464096554,56.83457171401096 63.99513460524031,56.950880745651375 65.01122248970205,57.46457687924703 64.48348692184663,58.60826546712633 63.727328496141126,59.4708668732128 63.9163681025675,60.66298558733979 63.420139135734644,62.3299826142611 62.67185736031388,63.42514136587852 63.42801578601939,68.755338991803 61.24618366197683,72.6703778041483 61.159540509048384,74.03671854009735 60.79721459673601,74.84100713930093 60.03317952080397,75.63559731574787 59.710236859828,76.40110941295279 59.50544395286124,76.56583887543093 58.06401695398381,77.52513878674654 57.31573517859215,77.37010122184438 57.02429911866784,77.91273134179937 56.969162566791056,78.60070335218188 57.197585424553836,79.55997807172389 57.134572222450515,80.50955145175976 57.32361182884779,81.46880254138523 58.150660106912255,82.66058280898142 58.24517991009634,83.09659540074063 56.165744239551714,88.33824366123736 56.28389399359003,91.17691812333942 56.543823452375364,92.08759711924358 56.425673698366154,93.04670491932484 55.05513655184768,94.47081279075064 54.76370049195248,96.41801998615847 53.527066400041804,97.8905024021442 52.999330832099076,98.12299706909835 52.66063487061183,98.035811650705 52.25892570699216,98.30705485260114 51.70756018831162,99.41139237718744 51.44763072943897,99.64388248317846 51.28222107383772,100.41884446790937 50.084970233234344,101.89125089832669 48.93497929419391,104.05137551866937 48.41512037656503,104.71005625477119 48.210327469569165,105.71743949880329 47.35964924070868,106.73449584328046 47.304512688860996,108.04212011354684 45.39048667391762,110.16333036532887 44.93364095839206,111.48058241394756 44.3980287402228,112.28448259654397 44.54768509528367,112.32322456352267 44.925764308165526,113.12711601149203 44.925764308165526,113.82446087968128 44.32713888780563,114.30872446016292 43.988442926318385,114.2699834849991 43.9333063744707,114.4152620420864 44.145975931664,114.55085511651123 46.154521749849664,113.59201328697236 46.73739386961097,113.51453060126369 47.20999288564781,113.64043992625375 48.430873677076306,114.51211426228838 49.26579860539641,115.5" stroke="#ffff00" stroke-dasharray="none" stroke-linecap="round" stroke-linejoin="round" stroke-width="0.5"><title>2026-06-28 27.3km</title><desc>1782622347000</desc></polyline><polyline fill="none" opacity="1" points="185.5,98.95389755543147 184.68936420723912,99.17316034124815 183.80720172685687,99.04922927311418 183.68004317113082,99.34475689734973 182.7819858712901,99.31615749614139 182.85351255888236,99.51635309630365 182.7660910518316,99.64981655968586 182.53561616956722,99.70701512074447 182.07466640500934,99.52588620798633 181.93956043955404,99.71654821037373 181.29582025119453,99.7451474727277 180.85871271588258,100.02160649716097 180.93818681317498,101.02257107316109 180.73155416012742,101.31809162458376 180.07986656200956,101.27042709114903 179.90502354787895,102.80521122749633 179.18975667192717,102.8719403245268 179.1182299843349,102.69081836406258 179.4281789638917,102.74801481561008 178.9433869701752,102.83380941854557 179.1182299843349,102.69081836406258 178.95928178966278,102.51922877138713 179.4281789638917,102.34763882168045 179.18180926216883,102.84334214669798 179.53149529043003,102.86240759969951 178.26785714286962,102.78614576127438 178.2042778650066,103.18651962605509 178.00559262168827,103.0244637721189 178.029434850876,103.12932347866445 177.84664442701614,103.11025808742852 177.45722135007964,104.70220307614363 175.97900313974242,107.66676124097285 175.6054748822935,108.10523989675858 174.97762951336335,108.39120298149646 170.8529238618794,108.58184448713291 165.76658163266256,108.61044067498733 165.1546310831909,108.89640200798021 165.0354199372232,110.84091277785774 161.92798273154767,110.95529433662887 160.82329277865938,110.72653106046346 158.89207221349352,109.96398222394055 156.3250588697265,109.55410931109509 155.80052982733469,109.59223710984952 155.02168367351987,109.28721422624221 153.97262558873626,108.78201759375224 153.47193877553218,108.2672857665093 153.13814756675856,108.15290047973394 152.6613029827713,107.71442207734799 152.32751177393948,107.62863255199773 150.8175039246562,106.43710213938175 150.11018445843365,106.06534112698137 149.5220761381497,105.94142041711166 149.49028649923275,95.94135849895974 148.4332810046908,95.20727375792922 147.84517268446507,94.97846678812493 145.46889717425802,94.42551398945216 145.0000000000291,92.83337056187156 145.11126373629668,91.94671448430017 144.76157770803547,89.63945719753974 142.69525117744342,86.76959664721653 142.0515109890257,85.65404248656705 141.6461930926307,84.24289251606388 140.8673469387868,80.2762875096596 140.53355572998407,79.23692914951971 139.95339481948758,78.09266625285818 135.82868916800362,72.15177930302889 134.97831632653833,71.17907321435632 131.97419544743025,68.47069379436289 127.34085557301296,61.66120568320184 126.1646389325033,60.59299960520002 122.72341051805415,58.65684077580954 121.57898351649055,57.76027890430851 114.34684065936017,49.55723837236292 113.69515306127141,49.07075332348904 111.23145604398451,47.95468852650083 110.0870290423918,46.97215742280241 105.5649529042712,41.34384066590428 104.5,39.78883107446745 104.61921114602592,39.65527059859596 105.87490188385709,39.68389071880665 106.39148351649055,39.14010673302255 106.90011773945298,39.04470566337113" stroke="#fff500" stroke-dasharray="none" stroke-linecap="round" stroke-linejoin="round" stroke-width="0.5"><title>2024-09-26 32.6km</title><desc>1727327929000</desc></polyline><polyline fill="none" opacity="1" points="95.5,200.60137359371856 94.59232622625495,201.0960152019361 94.58223161524074,201.13664158524261 93.94542990372793,201.5825035332873 93.90421024208263,201.54695730094045 93.91766972343248,201.5581289897891 93.91178120034601,201.55000412661047 75.5395891534863,203.42664372336003 74.21887754572163,202.8102818086918 73.65273811131192,202.62343521023195 54.04647986789496,221.0661595021429 53.62755351078522,220.92328125232962 53.33817466169421,220.78546736978114 53.13291757105981,220.72365307637938 53.131235135890165,220.7114928354813 52.73670408872931,220.64866465167324 51.92156424928908,220.48551191272327 51.609472525415185,220.46220412720413 51.30326932463504,220.48044500817468 42.62358628711081,227.75548839178373 42.22400793444467,228.29818717638136 41.43578705771142,229.4735804648726 41.16323256030955,229.91291995647134 40.994147825811524,230.15788760316173 40.75187716145592,230.44232481813833 40.41959621555725,230.7378866951849 40.05366656627302,230.98485532798986 39.65829430153099,231.17513783539835 39.31171265668672,231.28647140793692 38.4460997621718,231.49395288651704 38.234112930866104,231.5597386598438 37.95987599829459,231.66904314855765 37.56955103905784,231.87955161409081 36.83769174048575,232.3693688360372 36.605515687148,232.54342944915425 36.21687316307725,232.87636123718585 35.459777336971456,233.70610520441005 34.981124531354,234.25045507487903 34.498265637816075,234.72395097373646 33.41141251856243,235.53733231986917 33.33402050078075,235.52822772677246 33.25242239507861,235.57375059673632 33.19017229382007,235.58690160359765 32.29679921901334,236.04009335501996 32.22024841882012,235.9996307679803 32.14033274828762,235.98445724920566 31.993119670984015,236.0057001680634 31.1401250402414,236.2383573046427 30.791019742646313,236.35063743059072 30.256005358867696,236.58126232265204 29.750433590543253,236.8695348208248 29.450960130441672,237.08092856851817 29.1153143141928,237.35603616754906 28.802381372741365,237.65641943524952 28.659374383361865,237.8222831832636 27.866106201116054,238.5716646460951 20.953821308765328,243.40316775611427 19.62385630756762,244.65332030464288 19.036686433544673,245.27075054146826 18.508401790440985,245.8618660895745 17.796731713900954,246.63480275438997 17.5620320078051,246.86414460913875 17.207038187119906,247.13490166266638 16.172340558106953,247.83499186324661 15.161197021465341,248.53300554623002 15.030808295854513,248.6350260135423 14.862564778941305,248.79866030638277 14.736382141258218,248.96633176222167 14.598422457394918,249.1905620367388 14.5,249.39862640628053" stroke="red" stroke-dasharray="none" stroke-linecap="round" stroke-linejoin="round" stroke-width="0.5"><title>2024-09-25 160.1km</title><desc>1727226501000</desc></polyline></svg>