<?xml version="1.0" encoding="utf-8" ?>
<svg baseProfile="full" height="300mm" version="1.1" viewBox="0,0,200,300" width="200mm" xmlns="http://www.w3.org/2000/svg" xmlns:ev="http://www.w3.org/2001/xml-events" xmlns:xlink="http://www.w3.org/1999/xlink"><defs /><rect fill="#222222" height="300" width="200" x="0" y="0" /><text fill="#FFFFFF" style="font-size:12px; font-family:Arial; font-weight:bold;" x="10" y="20">Over 10km Workouts</text><text fill="#FFFFFF" style="font-size:9px; font-family:Arial" x="10" y="290">Kin Azem</text><text fill="#FFFFFF" style="font-size:4px; font-family:Arial" x="65" y="280">SPECIAL TRACKS</text><rect fill="yellow" height="2.6" width="2.6" x="65" y="283" /><text fill="#FFFFFF" style="font-size:3px; font-family:Arial" x="70" y="285.5">Over 20.0 km</text><rect fill="red" height="2.6" width="2.6" x="65" y="287" /><text fill="#FFFFFF" style="font-size:3px; font-family:Arial" x="70" y="289.5">Over 40.0 km</text><text fill="#FFFFFF" style="font-size:4px; font-family:Arial" x="120" y="280">STATISTICS</text><text fill="#FFFFFF" style="font-size:3px; font-family:Arial" x="120" y="285">Number: 3</text><text fill="#FFFFFF" style="font-size:3px; font-family:Arial" x="120" y="290">Weekly: 1.5</text><text fill="#FFFFFF" style="font-size:3px; font-family:Arial" x="141" y="285">Total: 220.0 km</text><text fill="#FFFFFF" style="font-size:3px; font-family:Arial" x="141" y="290">Avg: 73.3 km</text><text fill="#FFFFFF" style="font-size:3px; font-family:Arial" x="167" y="285">Min: 27.3 km</text><text fill="#FFFFFF" style="font-size:3px; font-family:Arial" x="167" y="290">Max: 160.1 km</text><polyline fill="none" opacity="1" points="65.87280100607313,56.44983071571187 65.75842571607791,56.19474180005636 65.00783787542605,56.37066528923606 64.82912648480851,56.20353798496217 64.82912648480851,55.8253010394983 64.67900891666068,55.71094993437873 63.563849839090835,55.79011610390444 63.20642705785576,55.552617327834014 63.07775485658203,55.235951044698595 63.12779404598405,53.925289311060624 63.33509925910039,52.8081288067624 64.14287474474986,50.916832355593215 64.21435930099688,48.95510830703279 63.97846026538173,47.39800584057957 63.4065838153474,46.39510801803408 63.592443661618745,45.357005722107715 63.57099829474464,44.68838934370433 62.69173825281905,42.99042705170723 62.67744134156965,42.27779852855747 62.841855820966884,41.48598058105563 63.95701489850762,38.98729654620547 62.484433039673604,37.16601662488392 63.30650543660158,36.470926331705414 63.8569365197327,34.5 63.242169335950166,36.55011418059439 62.212791725905845,37.421174627037544 62.08411952466122,37.315592117840424 62.298573193431366,37.68513020576211 61.84107203342137,37.13082234495232 63.042012578458525,38.617765307819354 63.62818593971315,38.82892625348177 63.835491152858594,39.04008656445512 63.66392821786576,39.07527988789661 63.835491152858594,39.04008656445512 62.262830915278755,37.597145123058 63.06345794533263,38.60896692130336 63.67107667349046,38.820127893428435 63.77115505223628,38.74974097323866 63.64963130658725,38.62656369324395 61.76243902154965,45.5505513810931 60.95466353584197,46.72061151180242 60.97610890274518,54.76974530924781 62.07697106906562,54.875301595646306 62.99912184471032,55.34150663094624 62.520175317826215,56.379461452124815 61.833923577767564,57.16231554168189 62.0054865127895,58.24422313422838 61.55513380840421,59.75710664055805 60.87603052397026,60.75101819851261 61.56228226405801,65.58844018755917 59.58216005581198,69.14153449436708 59.50352704394027,70.38155731988081 59.174698085174896,71.11148960914579 58.48129788952065,71.8326200927695 58.18821120887878,72.52736075940629 58.00235136260744,72.67686101810978 56.694183983199764,73.54747385665542 56.01508069879492,73.40676948165492 55.75058784062276,73.89923356242798 55.700548651249846,74.52360270677309 55.90785386439529,75.39419268251368 55.85066621939768,76.25597820552503 56.02222915441962,77.12654673593352 56.77281699507148,78.20814717125904 56.858598462538794,78.60385049164324 54.97140617747209,83.36090948527271 55.078633011871716,85.93714909709524 55.314532047486864,86.7636360135075 55.20730521311634,87.63407450146042 53.963473934301874,88.92652390305739 53.698981076158816,90.69371220738685 52.57667354302248,92.03006393718533 52.097727016109275,92.2410645216296 51.79034342421801,92.16193937663047 51.42577218732913,92.40810620219418 50.92538029360003,93.4103479575133 50.68948125792667,93.62134440265072 50.53936368980794,94.3246613167139 49.45279843476601,95.66094408578647 48.40912391344318,97.62136564440152 47.937325842212886,98.21915148654807 47.75146599591244,99.13340236392105 46.979432788386475,100.0564320656631 46.929393599013565,101.2431667502533 45.19231888206559,103.16827156540239 44.7777084557747,104.36374394228187 44.2916134732659,105.0933237239733 44.427434130135225,105.1284840043445 44.77056000020821,105.85805585893104 44.77056000020821,106.49093134236318 44.227277372643584,106.93042485782644 43.91989378075232,106.8952654775785 43.86985459140851,107.0271130629626 44.06286289324635,107.15017058649391 45.88571907771984,106.2799734801738 46.41470479400596,106.20965405227616 46.84361213151715,106.32392308695125 47.951622753433185,107.11501131601108 48.70935904970975,108.01156722736778 54.378084360592766,112.00198148628988 56.122307533194544,112.53812123032549 58.35977414390072,113.7422234774931 60.30415407393593,113.95315897752153 61.71954828777234,113.78616842545307 62.72033207534696,113.91800310473627 63.74256122976658,114.2431942580588 66.13014540856238,115.5" stroke="#ffff00" stroke-dasharray="none" stroke-linecap="round" stroke-linejoin="round" stroke-width="0.5"><title>2026-06-28 27.3km</title><desc>1782622347000</desc></polyline><polyline fill="none" opacity="1" points="185.33650724001927,92.85722558734415 185.5,93.04482529293455 185.3791575252253,93.17273390948685 185.32229047827423,92.9169164545383 185.4360245721764,93.04482529293455 185.05928038613638,93.05335254095553 184.95976305395016,93.19831560616149 184.09254058796796,93.43707768053719 184.05699868360534,93.6246759108908 183.9219394471147,93.46265928550565 182.10930232555256,93.99987093976233 181.0003949100501,93.84638229507254 179.53606845103786,94.17041350357613 179.24462483546813,94.49444328818208 178.96739798155613,95.61148241999763 179.05980693286983,96.52386060640129 178.36318560771178,96.77966554840532 177.3111452391313,97.48738793103985 176.58609039051225,97.68350257018756 175.7970601140987,97.57265522956004 175.68332602016744,97.83698322834243 174.88007898200885,97.81140314084041 174.94405440983246,97.99046356706822 174.8658622202638,98.10983694300376 174.65971917507704,98.16099690213741 174.2474330846744,97.9989902431771 174.12659060989972,98.16952355852118 173.55081175951636,98.19510352182988 173.1598508117604,98.44237604284717 173.23093462039833,99.33766616646608 173.04611671785824,99.60198783913802 172.46322948657325,99.55935537536425 172.30684510749415,100.93210832995828 171.6670908293163,100.99179266141437 171.6031154014927,100.82979222077847 171.88034225534648,100.88095029310352 171.44673102235538,100.95768733506702 171.6031154014927,100.82979222077847 171.46094778412953,100.67631779089425 171.88034225534648,100.52284304166824 171.65998244844377,100.96621366813633 171.97275120666018,100.98326633131364 170.84251864854014,100.91505565495027 170.78565160155995,101.27316100201278 170.60794207986328,101.12821380909736 170.62926722245174,101.22200320173579 170.46577446247102,101.20495059379755 170.117463799892,102.62882977984555 168.79530495830113,105.28041177333944 168.46121105746715,105.67259908881533 167.89964896882884,105.92837230159057 164.21039929793915,106.0988872840826 159.66103554188157,106.12446449747222 159.1136902149883,106.38023614345002 159.00706450195867,108.11945981757162 156.2276875822572,108.22176581554959 155.23962264150032,108.01715367770521 153.51228609037935,107.33510911940539 151.21627906974754,106.96850756365893 150.74712593239383,107.0026101108233 150.050504607294,106.72978929206874 149.11219833258656,106.27792759146541 148.66437033785041,105.817537351606 148.36581834137905,105.71522801919491 147.93931548926048,105.32304093037237 147.6407634927309,105.2463084299452 146.29017112767906,104.18057100428268 145.65752523034462,103.84805777581641 145.13150504603982,103.73721969990584 145.10307152257883,94.79289051431988 144.15765686699888,94.13630502238084 143.63163668272318,93.93165380375285 141.50623080294463,93.43707768053719 141.08683633172768,92.01302100533212 141.1863536638848,91.21997153253324 140.8735849056393,89.1562974415574 139.02540587977273,86.58941558732477 138.44962702938938,85.59163340169471 138.0870996050653,84.32946223018371 137.39047827990726,80.78162210510345 137.0919262834359,79.85199152970745 136.57301448000362,78.82853146452544 132.88376480911393,73.51483951255796 132.12316805613227,72.64482455373945 129.4362000877445,70.2223758438995 125.29201404121704,64.1317832305649 124.23997367263655,63.176350466455915 121.16204475643463,61.4445969965891 120.13843791131512,60.6426875104662 113.66981132072397,53.305663455917966 113.08692408949719,52.87053790803475 110.88332602014998,51.87229899527301 109.85971917505958,50.99349627400079 105.81505046071834,45.9593756608956 104.86252742426586,44.56853250548011 104.96915313732461,44.449072358918784 106.09227731457213,44.47467097806657 106.55432207105332,43.988295692142856 107.00925844666199,43.902966363326414 107.22250987272128,44.150421144484426 107.43576129880967,44.892780497721105 108.08262395786005,46.0703006708427 109.07779727946036,46.949162150151096 109.33369899075478,47.674428286001785 109.15598946905811,47.9133379194609 108.81478718732251,47.879208019301586 108.38117595433141,47.40992028758046 106.5472136901808,44.7477223619353 106.19890302760177,44.56853250548011 104.99047827991308,44.47467097806657 104.73457656864775,44.33814490641089 104.51421676171594,43.57018103593873 104.5,41.77823418445769" stroke="#fff500" stroke-dasharray="none" stroke-linecap="round" stroke-linejoin="round" stroke-width="0.5"><title>2024-09-26 32.6km</title><desc>1727327929000</desc></polyline><polyline fill="none" opacity="1" points="95.5,200.89924170367567 95.4632869156012,201.0124429233997 95.41329463045986,201.31524829604905 95.38517397006581,201.38127909492732 95.28909504706098,201.51050922093646 95.04694491590999,201.66709182631394 95.04382039808479,201.68690025034675 95.07975235303093,201.75764422073053 95.08912590649561,201.7350062184055 95.08912590649561,201.74632522759157 95.11021640179024,201.74160897571392 95.10162397778186,201.77367943354375 95.08990703595555,201.77084969244652 95.07350331739144,201.79537408196984 95.06569202283572,201.78594163337357 95.0610052461052,201.79820381437503 95.03600910353634,201.801976789357 95.04147700972317,201.8198983961688 95.03913362135427,201.8095227339677 95.02976006788958,201.82744432384197 95.03444684462738,201.81518218774863 95.0235110322501,201.82744432384197 95.01726199660334,201.81046597654085 94.20644962197184,202.44524295999463 93.36361093967207,202.90455234332285 93.35423738620375,202.94227678613834 92.7629223885233,203.35629083793674 92.7246470452119,203.32328367115633 92.7371451164945,203.33365736683982 92.73167721030768,203.3261128622239 75.67180990588167,205.06870418813241 74.44543666101163,204.49636897364553 73.91973653757668,204.32286881819937 55.71395232217401,221.4482302530064 55.32494985342055,221.3155577893017 55.056241320784466,221.1875879453669 54.86564573368378,221.13018904379578 54.864083474774816,221.11889740828565 54.49773376022131,221.06055703844822 53.74081931800902,220.90905829133362 53.451020290078304,220.8874153797483 53.16668916833805,220.90435331551862 45.10699544823365,227.65974072066774 44.735958956953255,228.16367455871432 44.004040657309815,229.25510956445805 43.75095471378154,229.6630670585414 43.59394769325809,229.89053667870257 43.368982410120225,230.15465655789603 43.06043627526742,230.42910646511473 42.720644962199,230.65843414105393 42.35351411819647,230.83512477864724 42.031688782597485,230.93850579976743 41.22790657306177,231.13116688689706 41.0310619503216,231.19225358578524 40.776413747880724,231.2937504604356 40.413969680608716,231.48922231699498 39.73438705446824,231.94405191971828 39.5187953247987,232.10567939210296 39.15791351643202,232.41482987946756 38.45489700663529,233.18530527736175 38.010434346553666,233.69077226430045 37.56206603919418,234.1304463752117 36.55284678290627,234.88572793320645 36.480982873014,234.87727368073092 36.405213315847504,234.91954485441101 36.34740973615408,234.93175648552233 35.517850254589575,235.3525767732158 35.44676747415724,235.31500442670813 35.37256017589971,235.30091475160634 35.235862521214585,235.32064028985178 34.44379725351246,235.5366787390126 34.11962852954821,235.64093870128136 33.62283019595998,235.85509006904567 33.15337139330586,236.12277127735115 32.87528930721237,236.31906518041114 32.56361865452709,236.5745218576517 32.273038497147354,236.85344876383488 32.14024648974009,237.00746487277365 31.403641413362493,237.70331805587148 24.985100678910385,242.18970714475336 23.750135010028316,243.3505613603952 23.204906650207704,243.92388858684308 22.714357352262596,244.47278078144655 22.05352183305513,245.19050661965093 21.83558671501305,245.4034665973918 21.505950084865617,245.6548834883729 20.545160854806454,246.30496628157334 19.60624324950186,246.9531208827225 19.485168183920905,247.04785403324922 19.328942292853753,247.19979993688366 19.211772874557937,247.35549462916924 19.083667643888475,247.56370814659613 18.992275497614173,247.7569104888148 18.91650594044404,247.9829326129343 18.89072866841525,248.15643078769472 18.86885704366796,248.98260617133246 14.785893380652851,249.10075829632524 14.812451782134303,249.07262699451576 14.712467211855255,248.88320701531165 14.659350408888713,248.71159993736956 14.54764889677972,248.8034992624912 14.5,248.76505171268627" stroke="red" stroke-dasharray="none" stroke-linecap="round" stroke-linejoin="round" stroke-width="0.5"><title>2024-09-25 160.1km</title><desc>1727226501000</desc></polyline></svg>