<?xml version="1.0" encoding="utf-8" ?>
<svg baseProfile="full" height="300mm" version="1.1" viewBox="0,0,200,300" width="200mm" xmlns="http://www.w3.org/2000/svg" xmlns:ev="http://www.w3.org/2001/xml-events" xmlns:xlink="http://www.w3.org/1999/xlink"><defs /><rect fill="#222222" height="300" width="200" x="0" y="0" /><text fill="#FFFFFF" style="font-size:12px; font-family:Arial; font-weight:bold;" x="10" y="20">Over 10km Workouts</text><text fill="#FFFFFF" style="font-size:9px; font-family:Arial" x="10" y="290">Kin Azem</text><text fill="#FFFFFF" style="font-size:4px; font-family:Arial" x="65" y="280">SPECIAL TRACKS</text><rect fill="yellow" height="2.6" width="2.6" x="65" y="283" /><text fill="#FFFFFF" style="font-size:3px; font-family:Arial" x="70" y="285.5">Over 20.0 km</text><rect fill="red" height="2.6" width="2.6" x="65" y="287" /><text fill="#FFFFFF" style="font-size:3px; font-family:Arial" x="70" y="289.5">Over 40.0 km</text><text fill="#FFFFFF" style="font-size:4px; font-family:Arial" x="120" y="280">STATISTICS</text><text fill="#FFFFFF" style="font-size:3px; font-family:Arial" x="120" y="285">Number: 3</text><text fill="#FFFFFF" style="font-size:3px; font-family:Arial" x="120" y="290">Weekly: 1.5</text><text fill="#FFFFFF" style="font-size:3px; font-family:Arial" x="141" y="285">Total: 220.0 km</text><text fill="#FFFFFF" style="font-size:3px; font-family:Arial" x="141" y="290">Avg: 73.3 km</text><text fill="#FFFFFF" style="font-size:3px; font-family:Arial" x="167" y="285">Min: 27.3 km</text><text fill="#FFFFFF" style="font-size:3px; font-family:Arial" x="167" y="290">Max: 160.1 km</text><polyline fill="none" opacity="1" points="64.78721148753539,43.966248814511346 64.7712714037043,43.171716469863895 64.9545823680528,42.28889330194215 66.19790890879813,39.503030513333215 64.55608027160633,37.47242724789248 65.4726350933488,36.69744883707608 66.08632832180592,34.5 65.40090471599251,36.78573790381779 64.2532186783501,37.75691106958402 64.10975792366662,37.63919375142723 64.34885918151122,38.05120359090506 63.838776498130755,37.4331880189784 65.1777435420081,39.09102831061318 65.83128698010114,39.326458406103484 66.0624181960302,39.56188779396325 65.87113718973706,39.60112595645478 66.0624181960302,39.56188779396325 64.3090089718462,37.953106206667144 65.20165366781293,39.08121870793548 65.8791072316817,39.316648832929786 65.9906878186448,39.23817220322235 65.85519710587687,39.100837912075804 63.75110603691428,46.82061335358594 62.8504912990029,48.125150835367094 62.87440142483683,57.099387679270876 64.10178788175108,57.21707576078916 65.12992329042754,57.73686267325684 64.59593048130046,58.894111718051136 63.830806456157006,59.76694079391018 64.02208746247925,60.97319418999541 63.519974820985226,62.65995642363123 62.762820837815525,63.76810022487189 63.527944862958975,69.16149679847877 61.32024324889062,73.12295534052828 61.232572787674144,74.50549646955187 60.86595085897716,75.3193213367631 60.092856791976374,76.12333278921142 59.7660850728862,76.89792139021301 59.55886398276198,77.06460401267395 58.10034630994778,78.03527812606626 57.343192326807184,77.87840231582231 57.04830077543738,78.42746627837914 56.99251048194128,79.12359541728802 57.223641697870335,80.09424404021411 57.15988136245869,81.05507629704516 57.351162368722726,82.02570100987941 58.18801677116426,83.23161194655404 58.28365727426717,83.67279424099979 56.17956620530458,88.9765915393873 56.29911683424143,91.84892352254246 56.56212821783265,92.77040023332665 56.44257758895401,93.74087995765876 55.055790293437894,95.18187315401883 54.7608987420972,97.15216794473235 53.50960215946543,98.642109251683 52.975609350251034,98.87736055531423 52.63289754735888,98.78914139913832 52.22642540902598,99.06360067032801 51.66852247409406,100.18103207517561 51.405511090444634,100.41627876376879 51.23814020995633,101.20042929747433 50.02669383690227,102.69029371790384 48.86306771542877,104.87603044730349 48.33704494818812,105.54252101192105 48.1298238580348,106.56184857122571 47.26905932981754,107.5909639227466 47.213269036321435,108.91409239823406 45.27654884781805,111.06045336020179 44.814286415989045,112.39332376842503 44.27232356488821,113.20675561366079 44.42375436148723,113.2459569353814 44.80631637410261,114.0593799424314 44.80631637410261,114.76499307099584 44.20059318753192,115.25499845522427 43.857881384610664,115.21579813707649 43.80209109117277,115.36279922916583 44.01728222318343,115.5 46.04964291484794,114.5297893997631 46.63942601752933,114.45138801936992 47.11762853318942,114.57879022274574" stroke="#ffff00" stroke-dasharray="none" stroke-linecap="round" stroke-linejoin="round" stroke-width="0.5"><title>2026-06-28 27.3km</title><desc>1782622347000</desc></polyline><polyline fill="none" opacity="1" points="185.426057409466,99.75283640385896 185.5,99.95979385967075 185.40962572270655,100.09776521770982 185.17136626434512,100.15689573137934 184.69484734759317,99.96964896407007 184.55517800993402,100.16675081298308 183.88969469518634,100.1963160510204 183.43782330866088,100.48211282321427 183.5199817425455,101.51688622402435 183.30636981438147,101.82238835001772 182.63267065622495,101.77311388761882 182.45192210163805,103.35973726906377 181.71249619638547,103.42872022442316 181.63855360585148,103.24148064423935 181.95897149812663,103.30060897715157 181.45780505123548,103.38930139962031 181.63855360585148,103.24148064423935 181.47423673802405,103.06409539942979 181.95897149812663,102.88670978553273 181.70428035297664,103.39915610753815 182.06577746220864,103.41886551994685 180.75945836293977,103.34002784297627 180.6937316157855,103.75392483353062 180.4883355310012,103.58639534135727 180.5129830611695,103.6947968150489 180.32401866314467,103.67508746648673 179.9214423369558,105.32080237925402 178.39329546608496,108.38549218713888 178.00715082665556,108.83878100545553 177.35809919869644,109.13440284942044 173.09407647835906,109.33148350926785 167.8359367075609,109.36104556897044 167.20331676639034,109.65666560202226 167.08007911554887,111.6668546441797 163.86768434933037,111.78509958250652 162.72568211785983,111.54860954186006 160.72923217364587,110.76030466897646 158.07551475809305,110.33658778818062 157.53326909421594,110.37600340080826 156.72811644186731,110.06067798953882 155.6436251141422,109.5384177117885 155.12602698043338,109.00630017621006 154.78096155798994,108.88805138396128 154.28801095447852,108.43476282760821 153.94294553197687,108.3460756542263 152.381935287558,107.11429981839319 151.65072522571427,106.72998211494269 151.0427528146829,106.60187582880462 151.00988944110577,96.26404936874314 149.91718227000092,95.50517000161199 149.30920985899866,95.26863479152235 146.8526726848504,94.69700532361458 146.36793792474782,93.05108526945696 146.48295973223867,92.13448127893935 146.12146262300666,89.7492935046539 143.98534334113356,86.7824998411088 143.31986002638587,85.62926644975232 142.90085201340844,84.1704531320429 142.0956993609725,80.06987110290356 141.75063393852906,78.99540712008456 141.15087737093563,77.81249531942012 136.88685465059825,71.67094751613331 136.00775940762833,70.66538706824213 132.90217060555005,67.86552876125643 128.11233390812413,60.826041710955906 126.8963890861196,59.721755642684 123.33892889745766,57.720200638206734 122.15584744903026,56.79335627322871 114.67942996247439,48.313247834084905 114.00573080437607,47.81033114698221 111.45881935287616,46.656569871913234 110.27573790447786,45.640852556884056 105.60092301454279,39.822432393950294 104.5,38.21490041749348" stroke="#fff500" stroke-dasharray="none" stroke-linecap="round" stroke-linejoin="round" stroke-width="0.5"><title>2024-09-26 32.6km</title><desc>1727327929000</desc></polyline><polyline fill="none" opacity="1" points="95.5,200.72193475506356 95.48976076857434,200.76314317211381 94.84383591948063,201.21539275986197 94.8020257244898,201.179337274536 94.8156780330537,201.1906690145479 94.80970514806177,201.18242775054387 76.17430395348492,203.0859530181806 74.83467117530017,202.46076079660907 74.26042094618606,202.27123734098313 54.3732737098253,220.97818126058428 53.94834560566596,220.83325606600374 53.65482097146378,220.69346779332955 53.44662326580874,220.63076791766161 53.444916727239615,220.61843346311252 53.044733432354406,220.55470517154026 52.21791549474074,220.38921502542235 51.90135258982991,220.36557332099346 51.590762569921935,220.38407552988247 42.7867300824837,227.76334479811885 42.38142717188748,228.3138185550324 41.58191385140526,229.506051111528 41.30545460291614,229.9516847988789 41.13394747653729,230.20016197373843 40.888205922317866,230.4886741775199 40.551164554563,230.78847042080633 40.17999241538564,231.03897724890157 39.77895585121951,231.23198583801332 39.427408905601624,231.34491443060506 38.54939481085967,231.55536839189244 38.334370950924495,231.62209664488 38.056205163862614,231.73296708398448 37.66028821540749,231.9464913983429 36.91794393704913,232.44332598507663 36.68244161426264,232.61988027698317 36.288231204373005,232.9575818111589 35.52028884745596,233.79921310254576 35.0347786240236,234.35136159960712 34.545002054168435,234.83164103587114 33.44257813734657,235.65667528713038 33.3640773630832,235.64744025711116 33.281310242393374,235.69361531031882 33.21816831526667,235.70695472503576 32.31199633410142,236.1666391265644 32.23434882912625,236.1255968524074 32.153288247009186,236.1102059502664 32.00396612204713,236.1317532057301 31.138751066588156,236.36774350399628 30.784644313120225,236.48163221079176 30.24196504756401,236.7155611495955 29.729150206996565,237.00796358274602 29.425386341375997,237.2223858622565 29.084931896468333,237.50143478938207 28.767515722276585,237.80612149695935 28.622459943748254,237.97436149140322 27.817827007551386,238.73447896524704 20.806513288880524,243.63520058836184 19.457494548558316,244.90326344318146 18.86191258730105,245.5295392922244 18.326059476032242,246.12912345524637 17.604193660528836,246.91313359459764 17.366131529881386,247.14576111465885 17.006051891414245,247.42039716820545 15.956530670289794,248.13051720869498 14.930900989162183,248.83853098236614 14.798644249913195,248.942013045561 14.627990392818901,249.10799164454875 14.5,249.27806524493644" stroke="red" stroke-dasharray="none" stroke-linecap="round" stroke-linejoin="round" stroke-width="0.5"><title>2024-09-25 160.1km</title><desc>1727226501000</desc></polyline></svg>