<?xml version="1.0" encoding="utf-8" ?>
<svg baseProfile="full" height="300mm" version="1.1" viewBox="0,0,200,300" width="200mm" xmlns="http://www.w3.org/2000/svg" xmlns:ev="http://www.w3.org/2001/xml-events" xmlns:xlink="http://www.w3.org/1999/xlink"><defs /><rect fill="#222222" height="300" width="200" x="0" y="0" /><text fill="#FFFFFF" style="font-size:12px; font-family:Arial; font-weight:bold;" x="10" y="20">Over 10km Workouts</text><text fill="#FFFFFF" style="font-size:9px; font-family:Arial" x="10" y="290">Kin Azem</text><text fill="#FFFFFF" style="font-size:4px; font-family:Arial" x="65" y="280">SPECIAL TRACKS</text><rect fill="yellow" height="2.6" width="2.6" x="65" y="283" /><text fill="#FFFFFF" style="font-size:3px; font-family:Arial" x="70" y="285.5">Over 20.0 km</text><rect fill="red" height="2.6" width="2.6" x="65" y="287" /><text fill="#FFFFFF" style="font-size:3px; font-family:Arial" x="70" y="289.5">Over 40.0 km</text><text fill="#FFFFFF" style="font-size:4px; font-family:Arial" x="120" y="280">STATISTICS</text><text fill="#FFFFFF" style="font-size:3px; font-family:Arial" x="120" y="285">Number: 3</text><text fill="#FFFFFF" style="font-size:3px; font-family:Arial" x="120" y="290">Weekly: 1.5</text><text fill="#FFFFFF" style="font-size:3px; font-family:Arial" x="141" y="285">Total: 220.0 km</text><text fill="#FFFFFF" style="font-size:3px; font-family:Arial" x="141" y="290">Avg: 73.3 km</text><text fill="#FFFFFF" style="font-size:3px; font-family:Arial" x="167" y="285">Min: 27.3 km</text><text fill="#FFFFFF" style="font-size:3px; font-family:Arial" x="167" y="290">Max: 160.1 km</text><polyline fill="none" opacity="1" points="66.85704346123384,58.9433226971305 66.72467345328187,58.90260503660102 66.4731704381993,59.2446325933779 66.34080043024733,59.1957716238976 66.43345943579334,57.99052276454313 66.30108942787047,58.01495370628254 66.06282341355109,58.585006410190545 65.81793889886467,58.66644210318191 65.22227386315353,58.218544530864165 63.355856751208194,57.526333128909755 62.94550972658908,57.45303972590773 62.56163670355454,57.58333905196196 61.52253214124357,57.35531506015832 61.436491636093706,57.13543402571668 61.582098644808866,56.589800101668516 61.443110136460746,56.48393030290754 61.05261861303006,56.97255870644585 60.344439070584485,57.33088387079624 60.03998805230367,57.14357778098929 59.49065251936554,57.22501527757413 59.080305494746426,56.89112089396076 58.703050972137135,57.02142134503811 58.583917964977445,56.84225815755053 58.87513198246597,56.280334052025864 58.868513482040726,56.052305494842585 58.54420696257148,55.9464348216934 58.00148993002949,56.31290949495451 57.57128740425105,56.15003211716248 57.39258789352607,55.60438993139542 57.028570371709066,55.44965474759374 57.11461087682983,54.822566288523376 57.00871487049153,54.586388549156254 56.31377232880914,54.74926984044578 56.148309818905545,54.5945326233923 56.148309818905545,54.244336510426365 56.00932131052832,54.13846289600042 54.97683524858439,54.21176003203436 54.64591022877721,53.99186837625166 54.52677722161752,53.69867834605975 54.57310672441963,52.48518333971151 54.7650432359078,51.45084422804939 55.512933780788444,49.69976022207993 55.57911878472078,47.88346981268842 55.360708271648036,46.44180411137495 54.83122823986923,45.513256746096886 55.00330925019807,44.552114813093795 54.98345374900964,43.93306672805193 54.16937820016756,42.36098393244902 54.156141199404374,41.70118657052808 54.30836670851568,40.96807054175588 55.340852770459605,38.654628010466695 53.97744168865029,36.96836981510569 54.73856923432322,36.32481047551846 55.24819376488449,34.5 54.679002730728826,36.398127683700295 53.725938673567725,37.20461151920608 53.60680566643714,37.10685643535544 53.80536067835055,37.4489985860273 53.38177665293915,36.93578468513442 54.4936847196368,38.31249220154132 55.03640175217879,38.507998598433915 55.22833826369606,38.70350440769835 55.06949425418861,38.736088652090984 55.22833826369606,38.70350440769835 53.77226817634073,37.36753633245098 54.513540220825234,38.30434608890937 55.07611275455565,38.49985251030739 55.16877176013077,38.43468376846431 55.05625725336722,38.32063831315463 53.30897314858157,44.73131184360682 52.561082603700925,45.81462883479253 52.58093810491846,53.26703506436752 53.600187166040996,53.364765869460825 54.45397371725994,53.79640850290889 54.010534190689214,54.75741389430186 53.37515815254301,55.482230606343364 53.53400216207956,56.48393030290754 53.1170366370643,57.88465524435742 52.488279099343345,58.80488254738884 53.12365513748955,63.28367923203041 51.290330527495826,66.57336267035862 51.217527023138246,67.72145562820515 50.913076004886534,68.39727393072098 50.27108146637329,69.0649429549594 49.99972295007319,69.708178587789 49.82764193974435,69.84659555132384 48.61645636710455,70.65266496261756 47.98769882941269,70.52239179444587 47.74281431469717,70.97834674260957 47.69648481189506,71.5564278899692 47.888421323441435,72.36247613340674 47.835473320272285,73.16037264771876 47.99431732977973,73.96640103568643 48.68925987146213,74.96781634632498 48.76868187621585,75.33418395358603 47.0213977714302,79.73857540373137 47.12067527740146,82.12382388079277 47.3390857904742,82.88903867278714 47.239808284532046,83.69494665907405 46.08818921542843,84.89157951600646 45.84330470074201,86.5277562102201 44.804200138460146,87.76503666880308 44.36076061183121,87.96039459296298 44.07616509476793,87.88713544006896 43.738621574506396,88.11505253407086 43.27532654674724,89.04299247007293 43.05691603361629,89.23834656179679 42.91792752529727,89.88952263659303 41.911915464967024,91.12673924689443 40.94561440698453,92.94182372724026 40.50879338080995,93.49529234213696 40.336712370452005,94.34176465895871 39.62191432758118,95.19636497650936 39.575584824808175,96.295120343093 37.96728922834154,98.07750630884402 37.583416205307,99.18435159343062 37.13335817831103,99.85984352174273 37.25910968583776,99.89239717274177 37.57679770493996,100.56788176162081 37.57679770493996,101.15383862530143 37.073791674745735,101.56075001414138 36.78919615765335,101.52819719653053 36.74286665490945,101.6502701787249 36.92156616560533,101.76420475578925 38.60928376685479,100.95852025615022 39.099052796227625,100.89341400301782 39.49616282005445,100.99921163134422 40.52203038157313,101.73165203980898 41.22359142365167,102.5617412179854 46.47206223846297,106.25632362028409 48.08697633535485,106.75271630909992 50.15856695960974,107.86755168314266 51.95879906756454,108.06284934795985 53.26926214620471,107.90823874490889 54.195852201781236,108.03029977779079 55.142297758575296,108.33138268159382 57.352876891120104,109.49501434386912 59.17958300068858,109.9425594520435 60.754786095174495,109.66589556598046 62.10496017616242,109.88559933619399 63.342619750415906,110.79695521701069 65.3083143683325,111.49673769185029 65.82455739926081,111.78966766014491 66.8967544635816,112.81491218350857 67.45270849694498,113.8970972437528 68.39915405370994,115.17454070001259 68.94848958667717,115.5 71.06640971373417,115.4104988544641 72.29745078753331,115.01994696335896 73.25713334511966,114.96299128376268" stroke="#ffff00" stroke-dasharray="none" stroke-linecap="round" stroke-linejoin="round" stroke-width="0.5"><title>2026-06-28 27.3km</title><desc>1782622347000</desc></polyline><polyline fill="none" opacity="1" points="178.59183604564168,94.20078239645954 179.37399554325384,93.91865842916013 179.8826726990228,93.48562821571977 180.4351070295088,93.32816186421405 180.30383550544502,92.73765915414697 180.5444999662286,91.8125258859327 180.76328583969735,91.53695135832822 182.04318319939193,91.25481414579554 182.7925248160027,91.39260226207989 183.47623067052336,91.13670977981383 184.26932946179295,90.97267553029087 184.37325275171315,90.91362308437965 184.36778310488444,90.72990397068497 184.4552974542312,90.89393892208318 185.00773178474628,90.74302678426466 185.09524613409303,90.63804419075313 185.23745695184334,90.64460560855514 185.2921534202178,90.78239520673742 185.35231953542097,90.58555282117231 185.35231953542097,90.80207940774199 185.33591059490573,90.55930711816109 185.330440948077,90.63804419075313 185.41795529748197,90.61835993285422 185.33591059490573,90.66428985734456 185.330440948077,90.58555282117231 185.5,90.6774126860837 185.3960767101089,90.72334256276736 185.43983388479683,90.65772844184539 185.35231953542097,90.59867566810863 185.37966776959365,90.67085127210521 185.30856236073305,90.65116702558225 185.40154635693762,90.71678115409668 185.39060706325108,90.60523709045083 185.2921534202178,90.62492135292632 185.30856236073305,90.72990397068497 185.3960767101089,90.74302678426466 185.31403200756176,90.74302678426466 185.2538658923586,90.5199385408996 185.37966776959365,90.66428985734456 185.2866837733891,90.76271099891892 185.24292659867206,90.56586854506168 185.330440948077,90.66428985734456 185.04054966574768,90.67085127210521 184.96397461002925,90.78239520673742 184.29667769599473,90.96611415045481 184.26932946179295,91.11046433175943 184.16540617193095,90.98579828771108 182.77064622862963,91.39916359260678 181.91738132215687,91.28105952708938 180.79063407387002,91.53039004373568 180.56637855360168,91.7797194647319 180.35306232693256,92.63924143832992 180.42416773585137,93.34128407686512 179.88814234585152,93.53811690245493 179.0786346140667,94.08268416223655 178.52073063678108,94.23358741789707 177.91359983794973,94.14829432272018 177.82608548854478,94.35168533806063 177.2080153960269,94.33200236843913 177.25724221757264,94.46978301243144 177.19707610236946,94.56163658923106 177.0384563441039,94.6010023623603 176.7212168276019,94.47634398712762 176.62823283136822,94.60756332188248 176.18519143763115,94.62724619593428 175.88436086164438,94.81751362635259 175.93905732998974,95.50640760694296 175.79684651223943,95.70979375456591 175.34833547164453,95.6769895865109 175.2280032412673,96.73327427269032 174.73573502601357,96.77919924783055 174.68650820446783,96.65454565738037 174.89982443107874,96.69390997868322 174.56617597406148,96.75295640944023 174.68650820446783,96.65454565738037 174.577115267748,96.53645252964998 174.89982443107874,96.41835915619959 174.73026537915575,96.75951712017923 174.97092983996845,96.77263853938348 174.10125599298044,96.72015284438385 174.0574988182634,96.99570220152236 173.92075764737092,96.88417048004703 173.93716658788617,96.95633808955245 173.8113647106511,96.94321671285434 173.54335201566573,98.03884121990995 172.5259977040987,100.07913947205088 172.26892430279986,100.3809136944692 171.8368222027202,100.57772210554322 168.99807549463003,100.70892733381697 165.49750151933404,100.72860809190752 165.07633871294092,100.92541529738082 164.9942940103938,102.2636861979554 162.85566209736862,102.34240703305841 162.09538118712953,102.18496525368755 160.7662570058601,101.66015616854565 158.9995610777114,101.37806928032296 158.63856438652147,101.40430998022566 158.10253899657982,101.19438404129323 157.38054561417084,100.84669249707076 157.03595786346705,100.49243854452652 156.80623269634089,100.41371514369894 156.47805388615234,100.11194109568169 156.24832871899707,100.0528981594689 155.20909582011518,99.23285102830414 154.72229725166108,98.97699389828995 154.3175433857541,98.89170793198718 154.29566479841014,92.00936401478975 153.56820176917245,91.5041447777985 153.16344790329458,91.34667292714948 151.52802349920967,90.96611415045481 151.20531433587894,89.8703530717903 151.28188939156826,89.2601296439716 151.04122493078467,87.67220566080869 149.61911675333977,85.69708116024049 149.1760753595736,84.92932317487066 148.89712337093079,83.95812724676216 148.36109798093094,81.22819016625363 148.13137281383388,80.512872426596 147.73208859475562,79.7253562240985 144.89334188669454,75.63665882436544 144.30808967517805,74.96721318618802 142.2405631710426,73.10322486499354 139.0517590654199,68.41672997479691 138.24225133363507,67.68155836651204 135.87389425348374,66.34903552303149 135.08626510904287,65.731994629361 130.10888648792752,60.086414974990475 129.66037544736173,59.751601306401426 127.96478492807364,58.98349188571592 127.17715578363277,58.307284376169264 124.0649267337576,54.4337072010494 123.33199405766209,53.36350274727738 123.41403876020922,53.271582403562206 124.27824296036852,53.291279632627266 124.63377000470064,52.9170311092239 124.98382740226225,52.85137321862203 125.14791680732742,53.041780891744565 125.3120062124508,53.613000071309216 125.80974407456233,54.519060060010816 126.57549463163014,55.19531278178329 126.7724019177549,55.75337933712217 126.63566074683331,55.937211822318204 126.37311769867665,55.91095007525291 126.03946924165939,55.54984981844973 124.62830035787192,53.50138298323509 124.36028766288655,53.36350274727738 123.43044770069537,53.291279632627266 123.2335404145997,53.186227665140905 123.06398136267671,52.595306718147185 123.05304206901928,51.21646720348144 122.91083125126897,50.67805409118955 122.019278816937,49.2860354961158 120.78313863190124,47.65759296694159 120.65733675466618,47.67072575525526 120.48230805591447,47.88741632269375 118.90704976703273,51.15737333141806 118.63356742521864,51.00635537827111 115.64714025254943,48.005610828222416 114.93608616379788,48.69507386151599 114.65166452832636,49.02338664193667 114.700891349843,49.06278404769546 114.58055911943666,48.98398920876207 114.35630359916831,49.16784366245338 113.85309609019896,49.246638245625945 104.75160375447012,48.34706023655963 104.5,48.69507386151599 104.57657505568932,48.64254364006047 105.36967384698801,49.13501255376468" stroke="#fff500" stroke-dasharray="none" stroke-linecap="round" stroke-linejoin="round" stroke-width="0.5"><title>2024-09-26 32.6km</title><desc>1727327929000</desc></polyline><polyline fill="none" opacity="1" points="95.5,199.9443910466557 95.23253707687036,200.20935355650954 94.19401675535119,201.14449775452022 94.02360466432583,201.33742076913813 93.9693478999252,201.4232653623617 93.92120457375859,201.52664684524143 93.9204403939766,201.56356847161123 93.99380165289404,202.4394828465788 93.9464225065094,202.90001379322757 93.91050605683267,203.01075866737892 93.86159855088772,203.30699348682765 93.8340880787946,203.37159148788805 93.74009396580732,203.49801745817558 93.50319823389509,203.65120238824193 93.5001415147708,203.67058099062842 93.5352937846692,203.73978989240686 93.54446394203478,203.71764311055585 93.54446394203478,203.72871650933075 93.56509679610463,203.72410259508206 93.55669081852102,203.75547715822677 93.54522812181676,203.75270881948882 93.52918034642789,203.77670105595143 93.52153854862263,203.7674732814162 93.51695346994529,203.7794693861847 93.49249971697282,203.78316049163868 93.49784897543213,203.80069321872315 93.49555643609347,203.79054269731068 93.48638627872788,203.80807540782507 93.49097135741249,203.7960793469888 93.48027284048294,203.80807540782507 93.47415940224164,203.79146547252776 92.6809407902183,204.41246847336015 91.8563908071992,204.8618113335965 91.84722064983362,204.89871719629127 91.26873655609961,205.30374758531752 91.23129174685891,205.27145663880628 91.24351862334152,205.2816052363719 91.2381693648822,205.27422443944897 74.54848296162163,206.97900339461148 73.34872070644269,206.41908724304494 72.83442771425689,206.24935185567983 55.023689573190495,223.0031112366364 54.643128042567696,222.87331762370422 54.38025019811903,222.7481245887161 54.19379033170844,222.69197118200873 54.19226197214812,222.6809245629297 53.83386165515185,222.62385011681226 53.093371447979735,222.47563873071476 52.80986074946122,222.45446544719698 52.53169930940567,222.4710358478501 44.64689233555691,229.07983856082456 44.28390693988331,229.572837572769 43.567870485676394,230.6405896045021 43.320276236838254,231.0396948566481 43.16667610098375,231.26222862898203 42.9465923242351,231.52061738886687 42.64474131098905,231.78911202620156 42.31232310653286,232.01346353648705 41.95315860975825,232.18632017594382 41.63831654024398,232.2874579393133 40.85197554624392,232.4759384866079 40.65940224159567,232.53569966936857 40.41027963319357,232.63499417023422 40.05570021510357,232.82622449626297 39.39086380618028,233.27118478234888 39.17995018680085,233.42930511119584 38.8268991282639,233.73174736314604 38.139137325935735,234.48550426774682 37.704319030905026,234.98000316088974 37.265679836971685,235.41013681315098 36.278359560736135,236.14902956795095 36.20805502094299,236.14075876372544 36.13392958224722,236.1821126980808 36.07738027850064,236.19405934983888 35.265821351746126,236.60574828671042 35.196280991734966,236.5689912199964 35.12368391259952,236.55520727579687 34.98995245103288,236.57450479092904 34.215074153740716,236.78585543646432 33.89793954488414,236.88785306889758 33.411921204573446,237.097357580687 32.95264915657026,237.35923039264753 32.68060115476328,237.55126492764566 32.375693422389304,237.80117846780877 32.091418544096086,238.0740529580121 31.961507981432078,238.22472708187024 31.24088644854055,238.90548099404214 24.961621193247993,243.29452023100066 23.753452960485447,244.43018514991536 23.220055473790126,244.99107178784243 22.740150571717095,245.5280536080204 22.093654477528617,246.23020556204165 21.880448318803246,246.43854453569975 21.557964451483713,246.6845059486509 20.61802332163279,247.32048263950355 19.699479225630057,247.95457297801522 19.581031359670305,248.04725052034655 19.428195403594145,248.19589936014518 19.313568436540663,248.3482156438845 19.188242952564906,248.55191115034768 19.098833918262244,248.74092120807427 19.024708479562833,248.96203889348317 18.999490546808374,249.13177234314162 18.978093512960186,249.94002060328103 14.983725800972024,250.0556089533443 15.009707913504826,250.02808807074007 14.911892901618558,249.84277830279143 14.859928676549316,249.67489491516926 14.75065096795879,249.7648001230814 14.704036001356144,249.72718684404708 14.628382203100045,249.6226026407353 14.59475829276198,249.596915081112 14.599343371442956,249.61159369682127 14.632203101999039,249.6281071069493 14.619212045734457,249.6281071069493 14.59475829276198,249.5950802522343 14.634495641341346,249.58223643817155 14.621504585076764,249.59232800812015 14.602400090567244,249.596915081112 14.628382203100045,249.57764935666955 14.529038831649814,249.62443746323106 14.574125438695773,249.62902451761374 14.583295596061362,249.6189329944641 14.577946337594767,249.64186825573097 14.538973168797384,249.6152633464967 14.55349258462229,249.61801558263187 14.581003056715417,249.5950802522343 14.571068719571485,249.58407127002874 14.600107551224937,249.57856677318478 14.577946337594767,249.5950802522343 14.564955281330185,249.59141059320018 14.589409034302662,249.5877409324662 14.587116494960355,249.57673194005156 14.600871731006919,249.58315385415472 14.570304539789504,249.57764935666955 14.584059775836067,249.55012681181825 14.598579191664612,249.56205325967358 14.584823955618049,249.57489710649543 14.596286652325944,249.6015021514463 14.597815011886269,249.57489710649543 14.602400090567244,249.58590610146211 14.607749349026562,249.57764935666955 14.599343371442956,249.5675577680072 14.632203101999039,249.55471390927187 14.640609079582646,249.570310020737 14.55043586550164,249.59416283763358 14.551200045279984,249.58040160589235 14.551964225061965,249.6079240454469 14.535152269894752,249.63177674896497 14.542029887918034,249.64462048261566 14.536680629455077,249.6363637990894 14.522161213626532,249.65471197300258 14.517576134949195,249.64553789136562 14.542029887918034,249.6363637990894 14.508405977579969,249.64462048261566 14.507641797801625,249.65746419541983 14.5,249.64553789136562 14.516047775381594,249.64278566479834 14.51528359560325,249.66021641688212 14.50917015736195,249.64737270854448 14.574125438695773,249.5813190220847 14.563426921766222,249.58040160589235 14.538973168797384,249.62718969618027 14.519868674287864,249.6345289793585 14.524453752968839,249.6189329944641 14.519868674287864,249.62994192816905 14.510698516922275,249.61801558263187" stroke="red" stroke-dasharray="none" stroke-linecap="round" stroke-linejoin="round" stroke-width="0.5"><title>2024-09-25 160.1km</title><desc>1727226501000</desc></polyline></svg>