<?xml version="1.0" encoding="utf-8" ?>
<svg baseProfile="full" height="300mm" version="1.1" viewBox="0,0,200,300" width="200mm" xmlns="http://www.w3.org/2000/svg" xmlns:ev="http://www.w3.org/2001/xml-events" xmlns:xlink="http://www.w3.org/1999/xlink"><defs /><rect fill="#222222" height="300" width="200" x="0" y="0" /><text fill="#FFFFFF" style="font-size:12px; font-family:Arial; font-weight:bold;" x="10" y="20">Over 10km Workouts</text><text fill="#FFFFFF" style="font-size:9px; font-family:Arial" x="10" y="290">Kin Azem</text><text fill="#FFFFFF" style="font-size:4px; font-family:Arial" x="65" y="280">SPECIAL TRACKS</text><rect fill="yellow" height="2.6" width="2.6" x="65" y="283" /><text fill="#FFFFFF" style="font-size:3px; font-family:Arial" x="70" y="285.5">Over 20.0 km</text><rect fill="red" height="2.6" width="2.6" x="65" y="287" /><text fill="#FFFFFF" style="font-size:3px; font-family:Arial" x="70" y="289.5">Over 40.0 km</text><text fill="#FFFFFF" style="font-size:4px; font-family:Arial" x="120" y="280">STATISTICS</text><text fill="#FFFFFF" style="font-size:3px; font-family:Arial" x="120" y="285">Number: 3</text><text fill="#FFFFFF" style="font-size:3px; font-family:Arial" x="120" y="290">Weekly: 1.5</text><text fill="#FFFFFF" style="font-size:3px; font-family:Arial" x="141" y="285">Total: 220.0 km</text><text fill="#FFFFFF" style="font-size:3px; font-family:Arial" x="141" y="290">Avg: 73.3 km</text><text fill="#FFFFFF" style="font-size:3px; font-family:Arial" x="167" y="285">Min: 27.3 km</text><text fill="#FFFFFF" style="font-size:3px; font-family:Arial" x="167" y="290">Max: 160.1 km</text><polyline fill="none" opacity="1" points="64.6718118894205,56.12566248393705 64.308755887585,55.88442056930944 64.17805572692305,55.56276341508055 64.22888356720796,54.2314447814133 64.43945604824694,53.09667708505003 65.2599626124429,51.17557254478015 65.33257381280418,49.18293042138248 65.09295685158577,47.60128698514745 64.51206724863732,46.58258282634779 64.70085636959993,45.52811934827332 64.67907300949446,44.84896513136482 63.78595524490811,43.12424182511313 63.771433004847495,42.40038180279225 63.93843876570463,41.596084278171475 65.0711734914803,39.0580193222122 63.57538276381092,37.20803481883195 64.41041156812571,36.501989440650505 64.96951781096868,34.5 64.34506148778019,36.582425342661736 63.29946020242642,37.467214280688495 63.16876004176447,37.359967720971326 63.386593642877415,37.73532997476286 62.921881960501196,37.17228585365228 64.14175012672786,38.68266402590234 64.73716196976602,38.89715300840908 64.94773445086321,39.11164134622959 64.77346756996121,39.14738933983608 64.94773445086321,39.11164134622959 63.35028804268222,37.64595818867383 64.16353348686243,38.67372697096289 64.78072869000607,38.88821598035429 64.88238437051768,38.816719715519866 64.7589453298715,38.69160107972857 62.84200964012416,45.72471541548293 62.02150307586999,46.91321647151926 62.04328643603367,55.08920996738743 63.161498921748716,55.19642989101703 64.09818340651691,55.66998262752895 63.61168836406432,56.72429630655097 62.91462084045634,57.51948869687476 63.08888772135833,58.618447872162506 62.63143715902697,60.155175428066286 61.94163075549295,61.16475169276964 62.63869827907183,66.07841466750688 60.62736802879954,69.6875081021135 60.5474957083934,70.94707451151771 60.213484186679125,71.68851101880864 59.50915554308449,72.4210069981491 59.2114496215363,73.12669723943691 59.02266050057369,73.27855372158228 57.69387553379056,74.16288799711037 57.00406913028564,74.0199660276412 56.73540768888779,74.52019166963146 56.684579848631984,75.15440128667251 56.89515232970007,76.03871233906102 56.837063369428506,76.91408017469075 57.0113302503014,77.79836944374983 57.7737478541967,78.89701662081643 57.86088129461859,79.29895648852835 55.943945604842156,84.13098989362334 56.05286240542773,86.74783275399386 56.292479366617044,87.58734565352643 56.18356256608968,88.47150283057272 54.92012767959386,89.78432209375751 54.65146623822511,91.57936246030295 53.511470392433694,92.93677598155773 53.0249753499229,93.15110207544785 52.7127471883432,93.07072986557614 52.342430066433735,93.3207764439212 51.83415166387567,94.33881419543468 51.59453470262815,94.55313608478173 51.44205118183163,95.26753774085955 50.3383609362063,96.6248812145277 49.27823741079192,98.61620031987695 48.79900348835508,99.2234076642053 48.61021436736337,100.15206774305261 47.826013403362595,101.08964500638103 47.77518556310679,102.29508341834298 46.01073339409777,104.25052916488494 45.5895884319325,105.46484298098221 45.095832269405946,106.20592142493842 45.23379355008365,106.24163585469796 45.58232731191674,106.98270624661382 45.58232731191674,107.62555626829999 45.03048218906042,108.07197649366572 44.71825402745162,108.03626297821756 44.66742618722492,108.17018856918003 44.863476428203285,108.2951855610736 46.715062037692405,107.41127356998186 47.252384920429904,107.33984586117003 47.68805212265579,107.45591585177317 48.8135257284157,108.25947215711494 49.583204452326754,109.1701583855247 55.34127264175913,113.22346422535338 57.112985930842115,113.76805388808862 59.3857165024383,114.99113358696923 61.3607411525154,115.20539357067173 62.79844291988411,115.03577113651409 63.814999725087546,115.16968361796171 64.85333989039646,115.5" stroke="#ffff00" stroke-dasharray="none" stroke-linecap="round" stroke-linejoin="round" stroke-width="0.5"><title>2026-06-28 27.3km</title><desc>1782622347000</desc></polyline><polyline fill="none" opacity="1" points="185.5,92.73422058227152 185.46372268002597,92.925700502994 185.3258688641945,92.76033150923467 183.4757255463628,93.30865888296103 182.3438731637143,93.15199432668305 180.849247581471,93.48273022967624 180.551773557876,93.81346467929689 180.2688104621775,94.95361703570961 180.3631314940867,95.88487370303483 179.65209602290997,96.14597163515282 178.57828735219664,96.86833786142961 177.83823002508143,97.06851040828042 177.0328735220246,96.95536946896755 176.91678609815426,97.22516681277193 176.09691866711364,97.19905743467098 176.16221784305526,97.38182289121323 176.08240773915895,97.50366628236952 175.8719992834085,97.55588481821906 175.45118237187853,97.39052599711431 175.32783948403085,97.56458790398756 174.7401469007309,97.59069715532678 174.34109638122027,97.84308611779124 174.41365102111013,98.75690114453755 174.22500895734993,99.02669203132973 173.63006091004354,98.9831774375707 173.47044070225093,100.38433472148608 172.81744894303847,100.44525401178544 172.75214976709685,100.27990153767314 173.03511286276625,100.33211814767856 172.59252955927514,100.41044299479108 172.75214976709685,100.27990153767314 172.60704048728803,100.12325149032404 173.03511286276625,99.96660111703386 172.81019347903202,100.41914575055125 173.12943389464635,100.43655125905934 171.9758151200367,100.36692920090718 171.91777140807244,100.7324442877798 171.73638480828959,100.58449791879684 171.75815120027983,100.68022795544675 171.59127552848076,100.66282250332006 171.2357577928924,102.1161638975318 169.886241490487,104.82261112217384 169.54523468291154,105.22291338479408 168.9720530275663,105.4839789311518 165.20646721604862,105.65802212584094 160.56297026152606,105.68412857035582 160.0042995341937,105.94519251749443 159.8954675743298,107.7204033529124 157.05858115368756,107.82482621631789 156.05007165888674,107.6159803447008 154.2869939089578,106.91982325568097 151.9434790397645,106.54563616075757 151.46461841632845,106.58044434105977 150.75358294520993,106.30197844803479 149.79586169830873,105.84076704725157 149.33876746686292,105.3708506388648 149.03403797923238,105.26642437204282 148.5987101397477,104.86612234076892 148.29398065205896,104.78780212916172 146.9154424937151,103.70001298858551 146.26970619847998,103.36061955985497 145.73280186310876,103.24748807695869 145.70378000714118,94.11808722872229 144.73880329629174,93.44791599255404 144.20189896092052,93.2390302315107 142.0325152275036,92.73422058227152 141.6044428520254,91.28069802638493 141.70601934788283,90.47123916374403 141.3867789322685,88.36486454293481 139.500358294521,85.74487003120885 138.91266571119195,84.72644222708186 138.5426370476489,83.43815483014623 137.83160157647217,79.81690454124328 137.52687208884163,78.8680385069747 136.99722321747686,77.82340150923847 133.2316374059592,72.39976125551038 132.45530275884084,71.5117443748386 129.7127373701078,69.0391715471269 125.48280186313787,62.822555385457235 124.40899319236632,61.84735327625822 121.26737728409353,60.079767214891035 120.22259046934778,59.26126501188264 113.62011823718785,51.772426862335124 113.02517018991057,51.328297910513356 110.77597635253915,50.30940392888442 109.7311895377934,49.41241745370644 105.60283052671002,44.27413329155388 104.63059835182503,42.85451149327855 104.73943031171802,42.73257953608845 105.88579362235032,42.75870782927814 106.35739878177992,42.2622687050316 106.82174847726128,42.17517378368939 107.03941239695996,42.42774877753254 107.25707631674595,43.18546866557881 107.91732353996485,44.387353507270745 108.93308849871391,45.28439995628287 109.19428520242218,46.02467294248345 109.01289860266843,46.26852597663674 108.66463633105741,46.233689877371944 108.22205302756629,45.754691874593846 106.35014331780258,43.03740905815357 105.99462558221421,42.85451149327855 104.76119670365006,42.75870782927814 104.5,42.61935682726471" stroke="#fff500" stroke-dasharray="none" stroke-linecap="round" stroke-linejoin="round" stroke-width="0.5"><title>2024-09-26 32.6km</title><desc>1727327929000</desc></polyline><polyline fill="none" opacity="1" points="95.5,201.01867023032537 95.47177509122412,201.08494581733248 95.37533998625076,201.2146550228208 95.1322921607134,201.37181810827224 95.12915605973467,201.39169996572036 95.16522122094466,201.4627061968131 95.17462952387359,201.43998427131373 95.17462952387359,201.451345242117 95.19579820545187,201.4466115062396 95.18717392777035,201.47880085506404 95.17541354911737,201.4759606236039 95.1589490189981,201.50057592948087 95.15110876656036,201.49110851308888 95.14640461510135,201.50341615221623 95.1213158073042,201.50720311429905 95.12680398400698,201.52519115975338 95.12445190827566,201.5147770330932 95.11504360535037,201.53276506154725 95.11974775681665,201.52045746749445 95.10877140340381,201.53276506154725 95.10249920145361,201.51572377243792 94.28868099851752,202.15285398912147 93.44271776059031,202.61386611551006 93.43330945766502,202.65173040966692 92.8398023482041,203.0672792865289 92.80138511126279,203.034149756204 92.81392951515954,203.04456190905603 92.80844133845676,203.0369894355954 75.68533001654941,204.7860408631159 74.45441038397621,204.21158389834363 73.92676139498508,204.03744054640265 55.65348504060239,221.22628879728836 55.26304046924997,221.09312449273511 54.99333578542428,220.9646802414154 54.80203362596876,220.90706855172084 54.80046557548121,220.89573505607314 54.43275773619462,220.83717840791996 53.67303727507533,220.68511802751527 53.38216390967136,220.66339488173708 53.09677872097018,220.68039560950274 45.00720625671238,227.46082645909974 44.634794265966775,227.96662847114112 43.900162612641,229.06210962409932 43.646138433690794,229.4715794904905 43.488549359710305,229.6998923817264 43.26275008952871,229.96499140114156 42.95306011827779,230.24045874386684 42.61200913727953,230.47063657902982 42.2435172727528,230.64798224081278 41.920498872354074,230.75174651409998 41.113736896611954,230.9451218307695 40.91616253520988,231.00643498911177 40.66057030576849,231.10830813105713 40.2967825927044,231.30450463718626 39.61468063070424,231.76102037561213 39.39828966344794,231.9232470303068 39.03607000086777,232.2335435945115 38.33044728155801,233.0068752842326 37.884336917904875,233.51421612882677 37.43430642803651,233.9555201912881 36.421345813207154,234.71360171479228 36.349215490787174,234.70511612087193 36.27316504214832,234.74754400144775 36.21514717411628,234.7598009032872 35.38251236533324,235.18218124799387 35.311166068157036,235.14446961399335 35.23668367000937,235.13032770591508 35.09947925236338,235.15012637030304 34.30447765527788,235.36696571311677 33.97910717915147,235.47161218594556 33.48046712417636,235.6865574516114 33.00926795272244,235.95523100263108 32.73015496597873,236.15225260273655 32.417328893745434,236.4086563041401 32.12567150310133,236.6886172428749 31.992387211674213,236.8432043174207 31.25305140688579,237.5416371542815 24.810715979590896,242.04465809995781 23.57117206933981,243.2098158123972 23.023922449250676,243.78526846669774 22.53155459622576,244.33619550406547 21.868269240076188,245.05658208192472 21.649526197084924,245.27033154086894 21.31866754425573,245.52268047979305 20.354316494533123,246.1751732476314 19.411918151632563,246.8257306752621 19.290394238862064,246.92081501873326 19.13358919012535,247.07332421334922 19.01598540357736,247.2295960940537 18.88740526361653,247.4385814966945 18.795674310105824,247.632500074983 18.71962386146697,247.85936010404657 18.69375102842241,248.03350146796038 18.671798321600363,248.8627396333577 14.573698372903891,248.98132976967463 14.600355231188587,248.9530941800349 14.5,248.76297198666543" stroke="red" stroke-dasharray="none" stroke-linecap="round" stroke-linejoin="round" stroke-width="0.5"><title>2024-09-25 160.1km</title><desc>1727226501000</desc></polyline></svg>