<?xml version="1.0" encoding="utf-8" ?>
<svg baseProfile="full" height="300mm" version="1.1" viewBox="0,0,200,300" width="200mm" xmlns="http://www.w3.org/2000/svg" xmlns:ev="http://www.w3.org/2001/xml-events" xmlns:xlink="http://www.w3.org/1999/xlink"><defs /><rect fill="#222222" height="300" width="200" x="0" y="0" /><text fill="#FFFFFF" style="font-size:12px; font-family:Arial; font-weight:bold;" x="10" y="20">Over 10km Workouts</text><text fill="#FFFFFF" style="font-size:9px; font-family:Arial" x="10" y="290">Kin Azem</text><text fill="#FFFFFF" style="font-size:4px; font-family:Arial" x="65" y="280">SPECIAL TRACKS</text><rect fill="yellow" height="2.6" width="2.6" x="65" y="283" /><text fill="#FFFFFF" style="font-size:3px; font-family:Arial" x="70" y="285.5">Over 20.0 km</text><rect fill="red" height="2.6" width="2.6" x="65" y="287" /><text fill="#FFFFFF" style="font-size:3px; font-family:Arial" x="70" y="289.5">Over 40.0 km</text><text fill="#FFFFFF" style="font-size:4px; font-family:Arial" x="120" y="280">STATISTICS</text><text fill="#FFFFFF" style="font-size:3px; font-family:Arial" x="120" y="285">Number: 3</text><text fill="#FFFFFF" style="font-size:3px; font-family:Arial" x="120" y="290">Weekly: 1.5</text><text fill="#FFFFFF" style="font-size:3px; font-family:Arial" x="141" y="285">Total: 220.0 km</text><text fill="#FFFFFF" style="font-size:3px; font-family:Arial" x="141" y="290">Avg: 73.3 km</text><text fill="#FFFFFF" style="font-size:3px; font-family:Arial" x="167" y="285">Min: 27.3 km</text><text fill="#FFFFFF" style="font-size:3px; font-family:Arial" x="167" y="290">Max: 160.1 km</text><polyline fill="none" opacity="1" points="62.17599476026953,60.86835030205839 62.260917775158305,59.3010223510646 62.47649158228887,58.625853911238664 62.34584079007618,58.58566508987133 62.0976042849652,58.92325040797732 61.96695349278161,58.87502404258703 62.058409047313035,57.68542890171375 61.92775825512945,57.70954253547097 61.69258682921645,58.27219142026297 61.45088286368991,58.35256943009881 60.86295429887832,57.910489131492795 59.02077812922653,57.227268140384695 58.61576067347778,57.15492666883074 58.23687337615411,57.28353367304226 57.21126465758425,57.058471246687986 57.12634164269548,56.841446017322596 57.27005751404795,56.30289876236202 57.13287418227992,56.198403995826084 56.7474543453427,56.68068611544004 56.04847260724637,57.03435736852407 55.74797578522703,56.84948400186113 55.20577499768115,56.92986379186914 54.8007575419615,56.60030601363542 54.428402784251375,56.72891412825993 54.31081707129488,56.55207790426357 54.59824881408713,55.99745204397914 54.59171627447358,55.772385111537005 54.27162183361361,55.66788948197063 53.73595358571038,56.02960439850722 53.3113385111501,55.8688424648426 53.1349599417299,55.33028705546167 52.775670263246866,55.17756156533869 52.86059327813564,54.55861770322372 52.75607264440623,54.325507429814024 52.07015598547878,54.48627322615357 51.90684249528567,54.33354572917597 51.90684249528567,53.98789794771437 51.76965916345944,53.88339941507729 50.75058298447402,53.95574457117618 50.42395600405871,53.73870885842189 50.30637029110221,53.449326767273305 50.35209806839703,52.25159257999621 50.54154171701521,51.23068741861789 51.279718692821916,49.502346413675696 51.345044088870054,47.709645903189084 51.1294702818268,46.28670449175843 50.60686711312155,45.37021705827647 50.776713142957306,44.42155839386396 50.75711552411667,43.81055047776317 49.95361315223272,42.25888582345215 49.94054807303473,41.607657880260376 50.09079648402985,40.884063529803825 51.10987266298616,38.60066788701806 49.76416950355633,36.936310737954045 50.51541155859013,36.30110991838592 51.01841710845474,34.5 50.45661870209733,36.37347488593514 49.51593299844535,37.169484145320894 49.39834728548885,37.072998700146854 49.59432347374968,37.41069712380704 49.17624093880295,36.90414882219193 50.27370759306359,38.26297572272597 50.80937584096682,38.455942891247105 50.99881948964321,38.64890947977983 50.84203853903455,38.68107052145933 50.99881948964321,38.64890947977983 49.56166077568196,37.330292898353946 50.293305211904226,38.25493541144533 50.84857107861899,38.44790260415175 50.94002663315041,38.383580271023675 50.82897345980746,38.2710160330098 49.10438300311216,44.59842802133062 48.36620602727635,45.66767493971565 48.38580364614609,53.02328964928893 49.39181474587531,53.119751131038356 50.234512355411425,53.545787609204126 49.79683220165316,54.49431150539749 49.1697083991603,55.20971433028171 49.32648934979807,56.198403995826084 48.914939354435774,57.58093638416176 48.29434809158556,58.48921181599144 48.92147189407842,62.909838088889956 47.111958422436146,66.15679526531312 47.04010048674536,67.28997684299247 46.73960366472602,67.95701764750993 46.10594732267782,68.61601501621772 45.8381131986971,69.25089633331663 45.66826716886135,69.38751554349437 44.47281242045574,70.18311576119595 43.85222115763463,70.05453457513067 43.61051719207899,70.50456760074303 43.56478941484238,71.07514065592113 43.754233063489664,71.87071998069587 43.70197274663951,72.65825345063786 43.858753697248176,73.45381317782449 44.544670356146526,74.44222215103218 44.62306083145086,74.80383139214246 42.89847037475556,79.15101880241127 42.99645846890053,81.50528777854197 43.212032275943784,82.26056399492518 43.11404418182792,83.05600488419441 41.97738228988601,84.23709592691011 41.73567832435947,85.85202203114022 40.71006960581872,87.07323274626106 40.272389452002244,87.26605337040382 39.99149024882354,87.19374570412765 39.65833072879468,87.41870262107113 39.20105295619578,88.33459051453247 38.98547914906521,88.52740735602129 38.848295817297185,89.1701259849724 37.85534979676595,90.39127368108166 36.90159901388688,92.18278392508364 36.470451399713056,92.72906411427539 36.3006053698482,93.56454248636146 35.595091092109215,94.40804329307866 35.549363314843504,95.49252807392622 33.96195618994534,97.25176449018181 33.583068892592564,98.3442341175396 33.138856199220754,99.01095278678986 33.26297445176169,99.0430836324158 33.57653635303723,99.70979505756259 33.57653635303723,100.28814153960411 33.080063342727954,100.68976798146468 32.79916413954925,100.6576379584003 32.75343636231264,100.77812546213681 32.929814931732835,100.890580261992 34.59561253199354,100.09535995672923 35.07902046304662,100.03109930070787 35.470972839568276,100.13552283415629 36.48351647891104,100.85845033923397 37.17596567742294,101.6777583561634 42.35626958720968,105.32435568686196 43.9502092517796,105.81430124955659 45.99489414933487,106.91465719144617 47.771744922880316,107.10741833889915 49.065187765459996,106.95481581146305 49.9797433106869,107.07529152109782 50.91389647475444,107.3724639735592 53.095764704048634,108.52098243965884 54.898745636077365,108.96271485191392 56.45349006296601,108.6896442640791 57.78612814316875,108.90649453151127 59.00771304999944,109.80601376276172 60.9478773138253,110.49670749400684 61.457415403274354,110.78583290092502 62.515686819911934,111.7977615941054 63.06442014707136,112.86589128301421 63.9985733111389,114.1267433605899 64.54077409865567,114.44797560969164 66.63118677347666,114.35963690104836 67.8462391406938,113.97415748050116 68.79345738395932,113.9179415387407 77.24656363771646,115.5" stroke="#ffff00" stroke-dasharray="none" stroke-linecap="round" stroke-linejoin="round" stroke-width="0.5"><title>2026-06-28 27.3km</title><desc>1782622347000</desc></polyline><polyline fill="none" opacity="1" points="177.311938685918,94.64036810817561 177.50337632521405,94.58788044101675 177.26271186440135,94.33200236843913 177.81514619488735,94.33856335906967 177.93000877846498,94.12205026761148 178.59183604564168,94.20078239645954 179.37399554325384,93.91865842916013 179.8826726990228,93.48562821571977 180.4351070295088,93.32816186421405 180.30383550544502,92.73765915414697 180.5444999662286,91.8125258859327 180.76328583969735,91.53695135832822 182.04318319939193,91.25481414579554 182.7925248160027,91.39260226207989 183.47623067052336,91.13670977981383 184.26932946179295,90.97267553029087 184.37325275171315,90.91362308437965 184.36778310488444,90.72990397068497 184.4552974542312,90.89393892208318 185.00773178474628,90.74302678426466 185.09524613409303,90.63804419075313 185.23745695184334,90.64460560855514 185.2921534202178,90.78239520673742 185.35231953542097,90.58555282117231 185.35231953542097,90.80207940774199 185.33591059490573,90.55930711816109 185.330440948077,90.63804419075313 185.41795529748197,90.61835993285422 185.33591059490573,90.66428985734456 185.330440948077,90.58555282117231 185.5,90.6774126860837 185.3960767101089,90.72334256276736 185.43983388479683,90.65772844184539 185.35231953542097,90.59867566810863 185.37966776959365,90.67085127210521 185.30856236073305,90.65116702558225 185.40154635693762,90.71678115409668 185.39060706325108,90.60523709045083 185.2921534202178,90.62492135292632 185.30856236073305,90.72990397068497 185.3960767101089,90.74302678426466 185.31403200756176,90.74302678426466 185.2538658923586,90.5199385408996 185.37966776959365,90.66428985734456 185.2866837733891,90.76271099891892 185.24292659867206,90.56586854506168 185.330440948077,90.66428985734456 185.04054966574768,90.67085127210521 184.96397461002925,90.78239520673742 184.29667769599473,90.96611415045481 184.26932946179295,91.11046433175943 184.16540617193095,90.98579828771108 182.77064622862963,91.39916359260678 181.91738132215687,91.28105952708938 180.79063407387002,91.53039004373568 180.56637855360168,91.7797194647319 180.35306232693256,92.63924143832992 180.42416773585137,93.34128407686512 179.88814234585152,93.53811690245493 179.0786346140667,94.08268416223655 178.52073063678108,94.23358741789707 177.91359983794973,94.14829432272018 177.82608548854478,94.35168533806063 177.2080153960269,94.33200236843913 177.25724221757264,94.46978301243144 177.19707610236946,94.56163658923106 177.0384563441039,94.6010023623603 176.7212168276019,94.47634398712762 176.62823283136822,94.60756332188248 176.18519143763115,94.62724619593428 175.88436086164438,94.81751362635259 175.93905732998974,95.50640760694296 175.79684651223943,95.70979375456591 175.34833547164453,95.6769895865109 175.2280032412673,96.73327427269032 174.73573502601357,96.77919924783055 174.68650820446783,96.65454565738037 174.89982443107874,96.69390997868322 174.56617597406148,96.75295640944023 174.68650820446783,96.65454565738037 174.577115267748,96.53645252964998 174.89982443107874,96.41835915619959 174.73026537915575,96.75951712017923 174.97092983996845,96.77263853938348 174.10125599298044,96.72015284438385 174.0574988182634,96.99570220152236 173.92075764737092,96.88417048004703 173.93716658788617,96.95633808955245 173.8113647106511,96.94321671285434 173.54335201566573,98.03884121990995 172.5259977040987,100.07913947205088 172.26892430279986,100.3809136944692 171.8368222027202,100.57772210554322 168.99807549463003,100.70892733381697 165.49750151933404,100.72860809190752 165.07633871294092,100.92541529738082 164.9942940103938,102.2636861979554 162.85566209736862,102.34240703305841 162.09538118712953,102.18496525368755 160.7662570058601,101.66015616854565 158.9995610777114,101.37806928032296 158.63856438652147,101.40430998022566 158.10253899657982,101.19438404129323 157.38054561417084,100.84669249707076 157.03595786346705,100.49243854452652 156.80623269634089,100.41371514369894 156.47805388615234,100.11194109568169 156.24832871899707,100.0528981594689 155.20909582011518,99.23285102830414 154.72229725166108,98.97699389828995 154.3175433857541,98.89170793198718 154.29566479841014,92.00936401478975 153.56820176917245,91.5041447777985 153.16344790329458,91.34667292714948 151.52802349920967,90.96611415045481 151.20531433587894,89.8703530717903 151.28188939156826,89.2601296439716 151.04122493078467,87.67220566080869 149.61911675333977,85.69708116024049 149.1760753595736,84.92932317487066 148.89712337093079,83.95812724676216 148.36109798093094,81.22819016625363 148.13137281383388,80.512872426596 147.73208859475562,79.7253562240985 144.89334188669454,75.63665882436544 144.30808967517805,74.96721318618802 142.2405631710426,73.10322486499354 139.0517590654199,68.41672997479691 138.24225133363507,67.68155836651204 135.87389425348374,66.34903552303149 135.08626510904287,65.731994629361 130.10888648792752,60.086414974990475 129.66037544736173,59.751601306401426 127.96478492807364,58.98349188571592 127.17715578363277,58.307284376169264 124.0649267337576,54.4337072010494 123.33199405766209,53.36350274727738 123.41403876020922,53.271582403562206 124.27824296036852,53.291279632627266 124.63377000470064,52.9170311092239 124.98382740226225,52.85137321862203 125.14791680732742,53.041780891744565 125.3120062124508,53.613000071309216 125.80974407456233,54.519060060010816 126.57549463163014,55.19531278178329 126.7724019177549,55.75337933712217 126.63566074683331,55.937211822318204 126.37311769867665,55.91095007525291 126.03946924165939,55.54984981844973 124.62830035787192,53.50138298323509 124.36028766288655,53.36350274727738 123.43044770069537,53.291279632627266 123.2335404145997,53.186227665140905 123.06398136267671,52.595306718147185 123.05304206901928,51.21646720348144 122.91083125126897,50.67805409118955 122.019278816937,49.2860354961158 120.78313863190124,47.65759296694159 120.65733675466618,47.67072575525526 120.48230805591447,47.88741632269375 118.90704976703273,51.15737333141806 118.63356742521864,51.00635537827111 115.64714025254943,48.005610828222416 114.93608616379788,48.69507386151599 114.65166452832636,49.02338664193667 114.700891349843,49.06278404769546 114.58055911943666,48.98398920876207 114.35630359916831,49.16784366245338 113.85309609019896,49.246638245625945 104.75160375447012,48.34706023655963 104.5,48.69507386151599 104.57657505568932,48.64254364006047 105.36967384698801,49.13501255376468 106.86288743332261,50.50733666994711 106.38155851172633,50.100239204493846 105.34232561278623,50.4679402688962" stroke="#fff500" stroke-dasharray="none" stroke-linecap="round" stroke-linejoin="round" stroke-width="0.5"><title>2024-09-26 32.6km</title><desc>1727327929000</desc></polyline><polyline fill="none" opacity="1" points="95.5,199.82610963712204 95.44055940765975,199.97434287507986 95.27519263154682,200.2017511108511 95.00847202491059,200.46597824385844 93.9728340122856,201.39852704302575 93.80289488291237,201.59091461918433 93.74878870271277,201.67652095935682 93.700778993516,201.7796155173096 93.70001693463928,201.81643467141248 93.77317458674588,202.6899180339642 93.72592693642582,203.14917082320335 93.69011016924924,203.25960833607405 93.64133840117938,203.55502098552006 93.6139042816394,203.6194397013137 93.520171039876,203.74551478901276 93.28393278828662,203.89827456968396 93.28088455277975,203.91759938870428 93.31593926108326,203.9866162081239 93.32508396759658,203.96453089244233 93.32508396759658,203.97557355811068 93.34565955724975,203.97097244931774 93.33727690961314,204.00225993551203 93.3258460264733,203.9994992800207 93.30984279007316,204.02342492843945 93.30222220131327,204.0142227646661 93.29764984806025,204.02618557545065 93.2732639640235,204.02986643661188 93.27859837615324,204.0473505033724 93.27631219952673,204.03722815371293 93.26716749300977,204.0547122039493 93.27173984627007,204.0427494369751 93.2610710220033,204.0547122039493 93.25497455099321,204.03814836785978 92.46395743759786,204.65742783720543 91.64169591028258,205.10552359144276 91.63255120376925,205.14232702562003 91.05567263456032,205.54623329346305 91.0183317496303,205.51403196723186 91.03052469164322,205.5241523983841 91.02519027951348,205.51679208612177 74.38182442539619,207.2168395984363 73.1853919899113,206.65847743793802 72.67252636629564,206.48921313410165 54.9112201409298,223.19647413779694 54.53171482063408,223.0670407540083 54.26956656725088,222.94219517972033 54.08362420148114,222.8861976211556 54.08210008373135,222.8751816608592 53.72469447083495,222.81826561913658 52.98625941989303,222.6704655788635 52.703535576856666,222.64935105966742 52.42614614595368,222.66587547083782 44.56322266231291,229.25633611533613 44.201244696163485,229.7479668580154 43.48719552925468,230.81275545117478 43.240288453394896,231.21075302676036 43.08711461929852,231.43266917894834 42.867641662975075,231.6903408067701 42.566628406919335,231.95809026419283 42.23513279581675,232.18181910938438 41.876965124047274,232.35419600259047 41.56299686708735,232.4550530682518 40.77883828357881,232.64301050670838 40.586799446802615,232.70260582830542 40.3383682531894,232.80162474725148 39.98477293468022,232.99232433270845 39.32178171246778,233.43604967619012 39.11145346266494,233.59373115793733 38.75938226189828,233.8953340117796 38.073529273406166,234.64699893976103 37.63991777290357,235.14012540086878 37.202495978021034,235.5690652603589 36.21791591009605,236.30590729249525 36.14780649349268,236.29765944305564 36.07388678250936,236.338898603718 36.017494425679615,236.35081209874352 35.20818789925397,236.76135843430075 35.13884054153095,236.7247033831345 35.06644494830107,236.71095769488875 34.933084644981136,236.7302016517042 34.16035694461243,236.94096571473983 33.84410251102963,237.0426802629845 33.359433065827034,237.25160331603365 32.901435681287694,237.5127493262935 32.63014272139844,237.70425088871798 32.32608122982856,237.95347081893942 32.042595327919116,238.22558797338843 31.91304531897913,238.375843916343 31.19442379881366,239.0547084643713 24.932586013866967,243.4315663635416 23.727770930741826,244.56407935848165 23.195853835222806,245.1234093118528 22.717280861030304,245.65890079289602 22.07257905184815,246.35910399465774 21.85996462541152,246.56686474440903 21.538375779695343,246.81214351615017 20.601043362086784,247.44635511754313 19.685048593011743,248.07868560197585 19.566929467215232,248.17110592709287 19.414517691991932,248.31934220695985 19.300208860579005,248.47123575214482 19.17523120489932,248.67436592217837 19.086070316396217,248.86285140146356 19.01215060540926,249.08335539693508 18.987002662499435,249.252617768444 18.965665013969556,250.0586228166767 14.982383268572448,250.1738903628775 15.00829327035899,250.14644586172108 14.91074973421928,249.96165040242886 14.858929730642558,249.79423295829656 14.74995531136301,249.88388864332865 14.70346971991603,249.84637975617534 14.628025891182915,249.74208581581934 14.594495300632843,249.71646954944026 14.599067653889506,249.73110742612425 14.631836185562861,249.7475750049407 14.61888118466959,249.7475750049407 14.594495300632843,249.71463981294528 14.634122362193011,249.70183164559967 14.62116736129974,249.7118952074079 14.602115889396373,249.71646954944026 14.628025891182915,249.69725729508173 14.528958237286133,249.74391554595059 14.573919710983319,249.7484898694238 14.583064417496644,249.73842635428446 14.577730005359626,249.76129796103578 14.538865002679813,249.7347668910552 14.55334412132288,249.7375114886363 14.580778240862855,249.71463981294528 14.570871475476451,249.70366138506506 14.59982971276986,249.69817216539923 14.577730005359626,249.71463981294528 14.564775004466355,249.71098033868202 14.589160888503102,249.70732086272255 14.58687471187659,249.69634242466145 14.60059177164294,249.70274651538602 14.570109416596097,249.69725729508173 14.583826476369723,249.66981113629026 14.598305595016427,249.681704483487 14.58458853524644,249.69451268350167 14.596019418389915,249.72104388882053 14.59754353613971,249.69451268350167 14.602115889396373,249.70549112410845 14.607450301526114,249.69725729508173 14.599067653889506,249.68719371461066 14.631836185562861,249.67438550271618 14.64021883319947,249.68993832873912 14.55029588581965,249.7137249445368 14.551057944696367,249.70000190571318 14.551820003573084,249.72744795949893 14.535054708299867,249.7512344622328 14.541913238183042,249.76404254939098 14.536578826049663,249.75580878146047 14.522099707402958,249.77410603185945 14.517527354149934,249.76495741196504 14.541913238183042,249.75580878146047 14.508382647636608,249.76404254939098 14.507620588759892,249.77685061575903 14.5,249.76495741196504 14.516003236392862,249.76221282392635 14.515241177519783,249.77959519870728 14.509144706509687,249.76678713679212 14.573919710983319,249.70091677570872 14.563250886712922,249.70000190571318 14.538865002679813,249.74666014035301 14.519813530780084,249.75397905408772 14.524385884033109,249.73842635428446 14.519813530780084,249.74940473379866 14.51066882426312,249.7375114886363 14.585350594123156,249.6990870356076 14.580016181989777,249.70915060091374 14.580778240862855,249.6990870356076 14.570871475476451,249.70366138506506 14.548771768069855,249.6780449939506 14.570109416596097,249.7475750049407 14.592209124006331,249.7631276867096 14.582302358616289,249.76953172323556" stroke="red" stroke-dasharray="none" stroke-linecap="round" stroke-linejoin="round" stroke-width="0.5"><title>2024-09-25 160.1km</title><desc>1727226501000</desc></polyline></svg>