<?xml version="1.0" encoding="utf-8" ?>
<svg baseProfile="full" height="300mm" version="1.1" viewBox="0,0,200,300" width="200mm" xmlns="http://www.w3.org/2000/svg" xmlns:ev="http://www.w3.org/2001/xml-events" xmlns:xlink="http://www.w3.org/1999/xlink"><defs /><rect fill="#222222" height="300" width="200" x="0" y="0" /><text fill="#FFFFFF" style="font-size:12px; font-family:Arial; font-weight:bold;" x="10" y="20">Over 10km Workouts</text><text fill="#FFFFFF" style="font-size:9px; font-family:Arial" x="10" y="290">Kin Azem</text><text fill="#FFFFFF" style="font-size:4px; font-family:Arial" x="65" y="280">SPECIAL TRACKS</text><rect fill="yellow" height="2.6" width="2.6" x="65" y="283" /><text fill="#FFFFFF" style="font-size:3px; font-family:Arial" x="70" y="285.5">Over 20.0 km</text><rect fill="red" height="2.6" width="2.6" x="65" y="287" /><text fill="#FFFFFF" style="font-size:3px; font-family:Arial" x="70" y="289.5">Over 40.0 km</text><text fill="#FFFFFF" style="font-size:4px; font-family:Arial" x="120" y="280">STATISTICS</text><text fill="#FFFFFF" style="font-size:3px; font-family:Arial" x="120" y="285">Number: 4</text><text fill="#FFFFFF" style="font-size:3px; font-family:Arial" x="120" y="290">Weekly: 1.3</text><text fill="#FFFFFF" style="font-size:3px; font-family:Arial" x="141" y="285">Total: 230.4 km</text><text fill="#FFFFFF" style="font-size:3px; font-family:Arial" x="141" y="290">Avg: 57.6 km</text><text fill="#FFFFFF" style="font-size:3px; font-family:Arial" x="167" y="285">Min: 10.4 km</text><text fill="#FFFFFF" style="font-size:3px; font-family:Arial" x="167" y="290">Max: 160.1 km</text><polyline fill="none" opacity="1" points="39.985873287543654,43.179002727905754 39.0149828766007,43.43496017769212 35.79023972619325,46.29313865103177 34.78467465750873,49.49256375367986 33.39768835599534,51.15625294629717 34.40325342467986,51.796131244132994 36.93450342467986,47.359617019916186 39.50042808218859,46.8477078191645 36.24101027403958,55.976639915577834 40.15924657532014,53.80107547054649 41.26883561629802,50.303080015146406 42.482448630267754,50.55903211858822 41.16481164377183,51.796131244132994 41.16481164377183,55.50740169920027 38.98030821909197,57.81092856742907 40.43664383562282,57.04308800655417 41.442208904074505,57.25637722457759 43.03724315064028,54.22765782807255 45.741866438416764,53.033225882740226 48.16909246589057,49.577881345612695 48.79323630128056,47.91418445401359 48.307791095925495,42.624427594506415 48.96660958905704,42.240490435418906 50.24957191781141,42.539108263270464 53.3009417806752,45.61059074482182 55.208047945285216,44.330809739010874 56.45633561653085,45.39729424400139 59.923801369965076,46.634412091894774 64.77825342467986,47.44493514552596 69.87542808218859,47.274298873206135 69.07791095878929,51.45486296794843 73.6202910959255,54.35563243110664 80.27782534249127,56.531193339062156 83.91866438370198,59.26128935517045 82.98244863026775,63.56967767837341 83.98801369871944,63.91093383345287 83.3291952055879,64.0815617828921 82.94777397275902,63.18576409565867 83.84931506845169,60.07178240333451 85.89511986309662,60.83961614625878 86.93535958905704,60.54101434050244 86.48458904121071,59.943809944874374 87.00470890430734,59.346604503603885 88.66909246589057,60.54101434050244 88.49571917811409,60.02912492255564 90.61087328777649,60.88227352578542 92.1365582193248,60.79695876149344 91.16566780814901,59.77317992542521 92.79537671245635,58.15219048410654 93.41952054807916,56.10461386255338 95.01455479487777,55.379427528212545 95.46532534249127,56.78714076889446 94.35573630151339,57.81092856742907 95.01455479487777,57.42700850305846 95.0839041096624,57.938901826244546 94.63313356158324,57.768270803731866 95.5,57.25637722457759 94.70248287683353,58.28016361480695 95.0839041096624,57.768270803731866 94.45976027403958,57.55498190593789 95.25727739743888,57.51232411022647 94.56378424656577,55.550059745582985 93.28082191781141,56.06195588546689 92.76070205471478,58.066875036864076 91.13099315064028,59.98646743633435 92.10188356181607,60.754301371373 90.40282534249127,60.92493089986965 88.35702054784633,59.90115244805929 88.49571917811409,60.41304205820779 86.93535958905704,59.26128935517045 86.79666095878929,60.54101434050244 84.78553082211874,60.71164397592656 83.71061643841676,60.114439878903795 83.57191780814901,58.920028548134724 80.00042808218859,56.40321955215768 73.79366438346915,54.44094880667399 69.07791095878929,51.49752152108704 69.97945205494761,47.40227608548594 64.2234589040745,47.44493514552596 59.29965753434226,46.59175293057342 55.138698630267754,44.24549083455349 53.3009417806752,45.52527216044837 50.076198630034924,42.36846953656641 49.1053082193248,42.240490435418906 48.37714041094296,42.79506619318272 48.16909246589057,44.800063332077116 48.82791095902212,47.74354841650347 48.06506849313155,49.79117523197783 45.395119863096625,53.331834261189215 43.279965753434226,54.05702494899742 40.92208904097788,57.89624407861265 36.24101027403958,62.58856433053734 35.06207191781141,64.63610202941345 33.0509417806752,64.67875893419841 30.589041095692664,66.64097078362829 27.607020547846332,67.1528502794099 25.0410958903376,65.6598662698816 25.145119862863794,62.63122149123228 24.31292808218859,61.56479087207117 23.13398972596042,67.28082003325108 26.254708904074505,71.37582680932246 26.601455479394644,73.12472097226419 23.16866438346915,83.14869746693876 20.60273972596042,86.21981429791776 21.122859589057043,89.0349804389698 20.429366438416764,90.18663261918118 20.741438356228173,91.59420222658082 19.354452054714784,92.53257873831899 16.71917808218859,92.48992531653494 14.777397260069847,93.68421911154292 14.5,94.66524302982725 15.22816780814901,95.13442738482263 15.678938355995342,94.025445142237 16.372431506868452,93.94013866648311 17.03124999976717,95.77422319276957 18.556934931548312,96.45667073203367 19.59717465774156,98.88787899637828 17.75941780814901,100.12480286724167 19.077054794412106,103.06781060044887 21.36558219161816,102.00150638347259 22.82191780814901,99.65562537504593 21.192208904074505,100.59397971411818 21.885702054714784,98.20543632024783 22.717893835622817,97.52299227917683 23.446061643771827,97.73625618874212 27.086900684982538,103.66493950624135 26.80950342467986,107.7595095645811 27.15625,105.66957890376216 28.820633561583236,104.04880753683392 32.25342465750873,106.90647818817524" stroke="#4dd2ff" stroke-dasharray="none" stroke-linecap="round" stroke-linejoin="round" stroke-width="0.5"><title>2026-07-21 10.4km</title><desc>1784599135000</desc></polyline><polyline fill="none" opacity="1" points="153.05654617844266,61.71134484648064 152.50026837250334,61.571351263577526 152.22845080820844,61.37691520884982 151.84284914724412,60.69249545851562 151.65320898612845,60.015845798377995 151.73538638927857,58.49919049552773 151.94399056653492,57.845850654350215 151.8175637924287,57.80696116156105 151.57735292168218,58.13363214484343 151.45092614760506,58.08696496663106 151.53942488945904,56.93583014669275 151.41299811535282,56.95916417227272 151.185429922014,57.50362228279846 150.95154038994224,57.58140162359996 150.3826199065661,57.15361404490977 148.60000239199144,56.492481996236165 148.20807939235237,56.422479367640335 147.84144174749963,56.546928430641856 146.84899157096515,56.32914240685932 146.76681416781503,56.119133732696355 146.90588361927075,55.597998031928 146.77313550648978,55.496881643568486 146.40017652293318,55.96357129439639 145.7237932816206,56.30580814477071 145.43301170121413,56.12691184439973 144.908340588765,56.204692907816934 144.51641758912592,55.885789929256134 144.15610128297703,56.01024006677471 144.04231718630763,55.83912106344724 144.3204560893064,55.302426588266826 144.31413475057343,55.084636204082926 144.0043891540554,54.983518980592635 143.4860393803392,55.333539437982836 143.07515236458858,55.17797503358452 142.90447621955536,54.65683144203649 142.5568025908433,54.50904365816314 142.6389799939643,53.91011062054167 142.53783857470262,53.684536941404076 141.87409801076865,53.84010508359279 141.71606454317225,53.692315357751795 141.71606454317225,53.35784257537307 141.58331643036217,53.25672254266465 140.59718759250245,53.32672873668707 140.28112065733876,53.1167099180675 140.16733656064025,52.83668372264947 140.21158593159635,51.677672996534966 140.39490475400817,50.68977430837185 141.10921602757298,49.01731159971314 141.17242941458244,47.2825701667316 140.9638252373843,45.90563330043733 140.45811814104673,45.01877645270724 140.62247294734698,44.1007884891369 140.6035089312354,43.50953482365367 139.82598427060293,42.00803641375751 139.81334159322432,41.37786305866757 139.958732383413,40.67766294545072 140.94486122127273,38.46809084667984 139.6426654481911,36.85754335764432 140.36961939919274,36.242878959703376 140.85636247941875,34.50000000000364 140.31272735082894,36.31290432466267 139.4024545774446,37.0831781295783 139.28867048077518,36.98981211643695 139.47831064189086,37.31659254850092 139.07374496484408,36.82642125581697 140.13572986712097,38.141316471617756 140.65407964086626,38.32804489640694 140.83739846327808,38.514772759950574 140.68568633438554,38.545894015958766 140.83739846327808,38.514772759950574 139.44670394837158,37.23878783964392 140.15469388323254,38.133536108394765 140.6920076730894,38.32026455658706 140.78050641494337,38.258021802885196 140.67304365697782,38.14909683386941 139.00421023910167,44.27193981598248 138.28989896547864,45.3066173432926 138.3088629816193,52.42442063897761 139.28234914207133,52.51776346344923 140.09780183489784,52.93002592798439 139.6742721417395,53.847883480470045 139.06742362611112,54.54015690502638 139.21913575503277,55.496881643568486 138.82089141666074,56.83471593460126 138.22036423976533,57.71362627959388 138.8272127553937,61.99133106656154 137.0762019343092,65.13331217947052 137.0066672085959,66.22985732038069 136.71588562818943,66.87533229755354 136.1027157738863,67.5130238879974 135.8435408869991,68.12737911317163 135.67918608066975,68.25958134274333 134.52238109783502,69.02945933053707 133.9218539209396,68.9050352509621 133.68796438886784,69.34051844025089 133.64371501794085,69.89264452799762 133.82703384035267,70.66250229834623 133.77646313075093,71.42457434115204 133.92817525964347,72.1944131475102 134.59191582357744,73.15086626866832 134.6677718879946,73.50078446717816 132.99893847011845,77.70742471377889 133.0937585507054,79.98557876872655 133.30236272790353,80.71643645422591 133.2075426473748,81.48616026477976 132.10762971281656,82.62906592912623 131.8737401807448,84.19178050850314 130.88129000423942,85.37350875230914 130.45776031105197,85.56009537058708 130.18594274675706,85.4901254543147 129.86355447286041,85.70780937986274 129.4210607635905,86.59408607106889 129.21245658630505,86.7806690289799 129.07970847352408,87.40260818104434 128.11886499050888,88.58427544326696 127.19594953968772,90.31786509179074 126.77874118523323,90.84648371640651 126.61438637890387,91.65495057406224 125.93168179885834,92.47118049623532 125.88743242793134,93.52060323682235 124.35134712280706,95.22296248970815 123.98470947795431,96.28011192195845 123.55485844609211,96.92527517868439 123.67496388143627,96.95636721489427 123.97838813927956,97.60152346172254 123.97838813927956,98.16117165680771 123.4979663977283,98.54981327608402 123.2261488334625,98.51872203584207 123.18189946256462,98.63531410667201 123.35257560753962,98.7441331757218 124.96451697713928,97.9746228175718 125.43229604122462,97.91243974692043 125.81157636348507,98.01348720520036 126.79138386261184,98.7130420325484 127.46144576524966,99.50586133226898 132.4742673576693,103.03456199473294 134.01667400152655,103.50866732494615 135.99525301592075,104.57344810247014 137.71465714342776,104.7599771669702 138.96628220684943,104.61230837033509 139.85126962544746,104.72888902836712 140.75522106015706,105.01645371806808 142.86654818730312,106.12783989664604 144.61123766968376,106.55529083635338 146.11571628125967,106.2910487836125 147.40526937693357,106.50088815247 148.58735971461283,107.37132539007871 150.46479730974534,108.03968858074222 150.9578617286461,108.31946639068337 151.98191859872895,109.29867882522376 152.51291104988195,110.3322752437598 153.41686248459155,111.55236322110432 153.9415335970407,111.86320983985934 155.96436198239098,111.77772717439802 157.14013098133728,111.40471053359215 158.0567250934546,111.35031208677538 166.23653737662244,112.88122165370442 166.41985619906336,114.10903055535891 166.81810053740628,115.33681524923304 166.73592313428526,115.5" stroke="#ffe200" stroke-dasharray="none" stroke-linecap="round" stroke-linejoin="round" stroke-width="0.5"><title>2026-06-28 27.3km</title><desc>1782622347000</desc></polyline><polyline fill="none" opacity="1" points="87.06603009649552,244.5812188894888 87.51423847765545,244.43041842372259 87.59076185978483,244.48942734940283 87.54703421285376,244.55499275033435 87.57436399220023,244.48942734940283 87.65088737432961,244.56810582142498 87.50330656592268,244.5812188894888 87.83126391796395,244.52876659905087 87.31746406640741,244.62711460381615 87.50877252177452,244.57466235582615 87.2682704635954,244.318956952171 87.82033200620208,244.32551351538132 87.9351170794398,244.10914652898646 88.59649773937417,244.18782552865378 89.3781294284563,243.90589194125278 89.88646332413191,243.47315394065663 90.43852486673859,243.3157938489203 90.30734192591626,242.72568961561046 90.54784398409538,241.80118063599002 90.76648221877986,241.52579206865994 92.04551589177572,241.24384524496054 92.79435184563044,241.38154038053108 93.47759632905945,241.12582057690815 94.27015992981615,240.96189701923868 94.3740130913211,240.90288442247038 94.36854713546927,240.71928928415218 94.45600242933142,240.88321354323125 95.0080639719381,240.73240324233484 95.09551926580025,240.62749149206138 95.23763411838445,240.63404848215578 95.29229367704829,240.7717450986238 95.35241919159307,240.5750355441487 95.35241919159307,240.7914160165492 95.33602132397937,240.54880755198246 95.33055536812753,240.62749149206138 95.41801066201879,240.60782051728165 95.33602132397937,240.65371944782964 95.33055536812753,240.5750355441487 95.5,240.66683342116085 95.39614683852415,240.7127323039349 95.43987448545522,240.64716246003445 95.35241919159307,240.58814953566616 95.37974897093954,240.66027643488633 95.308691544662,240.64060547147892 95.40161279440508,240.70617532296455 95.39068088264321,240.59470653029712 95.29229367704829,240.61437750964615 95.308691544662,240.71928928415218 95.39614683852415,240.73240324233484 95.31415750051383,240.73240324233484 95.25403198596905,240.509465541003 95.37974897093954,240.65371944782964 95.28682772119646,240.75207417389538 95.24310007423628,240.55536455116817 95.33055536812753,240.65371944782964 95.04085970716551,240.66027643488633 94.96433632500703,240.7717450986238 94.29748970916262,240.95534006708112 94.27015992981615,241.09959283952776 94.1663067683694,240.9750109212946 92.7724880221358,241.3880972834122 91.91979890683433,241.27007291562768 90.79381199809723,241.51923518170224 90.56970780756092,241.76839635287251 90.35653552869917,242.62733831299192 90.42759295500582,243.32890720657815 89.89192927998374,243.52560720753172 89.08296781161334,244.06980698822736 88.52544031312573,244.22060841295752 87.9187192118552,244.13537287435975 87.83126391796395,244.33862663953914 87.21361090493156,244.318956952171 87.26280450774357,244.45664462049172 87.20267899319879,244.54843621363761 87.04416627302999,244.58777542237658 86.72714083272149,244.46320116778224 86.6342195829784,244.59433195450038 86.19147715769941,244.6140015463643 85.89084958500462,244.80414058253518 85.94550914366846,245.4925696910177 85.80339429111336,245.6958185917647 85.35518590998254,245.66303656026867 85.23493488089298,246.7186084556488 84.74299885286018,246.76450244018633 84.69380525004817,246.63993296714762 84.90697752885171,246.67927072503517 84.57355422095861,246.73827731070924 84.69380525004817,246.63993296714762 84.58448613269138,246.521919529765 84.90697752885171,246.40390584682973 84.73753289697925,246.74483359422084 84.97803495512926,246.75794615896302 84.10894797221408,246.70549588180438 84.0652203252539,246.98085929565423 83.92857142857974,246.86940283682998 83.94496929619345,246.94152174695773 83.81925231125206,246.9284092246853 83.55142047372647,248.02329439406458 82.53475268237526,250.06221583383376 82.27785275661154,250.3637864161792 81.84604224306531,250.56046201909703 79.00921114787343,250.691578708851 75.51099939268897,250.71124618618342 75.09012079087552,250.9079205843118 75.0081314528652,252.2452884071463 72.87094270868693,252.32395612069377 72.11117484312854,252.16662058450675 70.78294756732066,251.64216564545495 69.01744382214383,251.36026911210138 68.65669073487516,251.38649210453877 68.12102705988218,251.17670782559435 67.39952088537393,250.82925090688514 67.05516566571896,250.47523600822387 66.82559551930171,250.39656573068714 66.49763816723134,250.0949953226227 66.268068020785,250.03599222913545 65.22953640596825,249.21649847345543 64.74306633378728,248.96081399823015 64.33858559955843,248.87558558369346 64.31672177609289,241.9978859366347 63.58974964573281,241.493007626319 63.18526891153306,241.33564203914648 61.55094810714945,240.95534006708112 61.22845671098912,239.86031841825752 61.304980093147606,239.25050677492254 61.06447803496849,237.66365433773535 59.64332950944663,235.6898626696784 59.20058708416764,234.9226227745894 58.92182333490928,233.95208221859139 58.3861596598872,231.22398732519287 58.15658951346995,230.50915228864324 57.75757473515114,229.72216750945518 54.92074363993015,225.63622920102716 54.33588636209606,224.96723531103635 52.26975504422444,223.1045048266169 49.083102773467544,218.4211724270681 48.27414130506804,217.68649691947212 45.90738241447252,216.3548732748859 45.12028476953856,215.73824876619256 40.1462649301684,210.09647880185003 39.698056549037574,209.7618910686615 38.00361023010919,208.99429997540938 37.21651258520433,208.31854877702062 34.10638369663502,204.4475855280616 33.3739456103649,203.3781032582774 33.455934948375216,203.28624494327232 34.31955597543856,203.30592888046158 34.6748431068263,202.93193290346608 35.02466428236221,202.8663193194261 35.18864295835374,203.05659850366646 35.35262163440348,203.62743221917844 35.85002361834631,204.53288079011327 36.61525743978564,205.2086771702161 36.812031851004576,205.76636713701373 36.675382954330416,205.9500755703266 36.41301707268576,205.92383154493655 36.07959376476356,205.5629749619693 34.66937715097447,203.51589045135916 34.40154531344888,203.3781032582774 33.47233281595982,203.30592888046158 33.27555840476998,203.2009478030268 33.10611377286841,202.6104256150211 33.09518186116475,201.23251655417334 32.95306700858055,200.69446676809457 32.06211620219983,199.30338752020907 30.82681017613504,197.67604387930623 30.701093191164546,197.68916780548898 30.526182603411144,197.90571214810188 28.95198731360142,201.17346255921075 28.678689520223998,201.02254651439216 25.69427761656698,198.02382689487058 24.983703353791498,198.71282467205674 24.69947364871041,199.04091590393364 24.748667251493316,199.0802867239545 24.62841622243286,199.0015450565188 24.40431203186745,199.18527544350218 23.901444092043675,199.26401685535166 14.80609352857573,198.36504588995012 14.554659558692947,198.71282467205674 14.631182940822328,198.66032989848463 15.423746541608125,199.15246648955144 16.915952493436635,200.5238645485697 16.434948377107503,200.1170417962967 15.396416762261651,200.48449473258006 14.620251029089559,200.93724596328684 14.66944463190157,200.97661546437666 14.696774411248043,200.91099961400323 14.5,200.87163006725677 14.784229705110192,200.81257569581066 14.833423307922203,200.7141516064912 14.521863823494641,200.3795084227495" stroke="#ffd900" stroke-dasharray="none" stroke-linecap="round" stroke-linejoin="round" stroke-width="0.5"><title>2024-09-26 32.6km</title><desc>1727327929000</desc></polyline><polyline fill="none" opacity="1" points="185.5,199.68484911595897 185.4292496689268,199.8227251786484 185.36154236285438,200.05343231575262 185.30220337550054,200.20141217069977 185.13711926967153,200.42843168539684 184.87085458284855,200.69220716081782 183.83698684173578,201.62316190438924 183.66733819841465,201.81522062216254 183.61332450480768,201.9006806308339 183.5653968611732,202.00359896373902 183.56463610492574,202.04035518088995 183.63766870474137,202.9123454515593 183.59050181736166,203.37081321541518 183.5547462737013,203.4810619515315 183.50605787382665,203.77596963631822 183.4786706488958,203.8402782377516 183.38509763038383,203.96613781855285 183.14926319348524,204.1186364787509 183.14622016848807,204.13792826482404 183.18121495590094,204.20682711009795 183.1903440308779,204.1847795460294 183.1903440308779,204.19580333587828 183.21088444957786,204.1912100920067 183.20251613084838,204.2224440968257 183.191104787129,204.21968816027038 183.17512890591752,204.24357291129718 183.16752134343915,204.23438647727517 183.16295680595067,204.24632883938693 183.13861260601334,204.25000340865472 183.1439378997493,204.26745758896368 183.14165563100323,204.2573525419789 183.13252655602628,204.27480670579143 183.1370910935184,204.2628643874159 183.12644050604285,204.27480670579143 183.1203544560558,204.25827118315465 182.33068947056745,204.8764920849435 181.50983347890724,205.32382188511474 181.50070440393029,205.36056240921152 180.92481192414925,205.76377825844384 180.88753486799396,205.73163197566373 180.8997069679608,205.74173510742094 180.8943816742285,205.73438737653487 164.27946521653575,207.43152890660758 163.08507790707517,206.87412118444763 162.57308895212918,206.70514621314896 144.8421430785238,223.3838486010195 144.46328646699112,223.2546364646446 144.20158631765662,223.13000429558133 144.01596179312764,223.07410245664187 144.0144402806327,223.0631053265165 143.65764560028765,223.00628657443258 142.9204727959186,222.85873917668096 142.63823222788778,222.83766074966434 142.36131695358927,222.85415691477328 134.51183398607827,229.43335213200544 134.1504747682484,229.9241425039313 133.43764616381668,230.98711099693492 133.19116113944256,231.3844282539535 133.0382491335804,231.60596507297987 132.81915133413713,231.8631962488912 132.5186526161524,232.13048802782987 132.18772364825054,232.35383444132685 131.83016821166166,232.52591668147988 131.51673663745532,232.62660134675798 130.73391845819788,232.8142374995009 130.54220788368912,232.8737309516241 130.29420134682005,232.9725806122301 129.94121044771964,233.1629542246742 129.27935251190502,233.60592108466653 129.0693837874387,233.763333033015 128.7179144008296,234.0644203409488 128.03323377757624,234.81480040782162 127.60036347242567,235.3070839414645 127.16368938603773,235.73529059108523 126.18079231354204,236.4708730996822 126.11080273871994,236.46263934873377 126.03700938265683,236.50380801709025 125.98071342030016,236.51570114774086 125.17279028485791,236.92554571446317 125.10356146628328,236.88895331973936 125.03128962271876,236.87523112773442 124.89815727930545,236.89444218982453 124.12675044377102,237.10484598256198 123.8110366008259,237.20638666468176 123.32719562706188,237.4149525943708 122.86998112197398,237.67565221377163 122.59915189766616,237.8668264323219 122.29561015468425,238.11562035757152 122.01260883040595,238.38727236759814 121.88328026823365,238.53727147002382 121.16588712630983,239.2149755985306 114.9147530359769,243.58435190013415 113.71199740779048,244.7149290299726 113.1809895466431,245.2733028907046 112.70323462285887,245.80787902748625 112.0596348370018,246.50688533442235 111.84738384378943,246.71429094760015 111.52634470710473,246.9591504512032 110.59061452198875,247.59227796074765 109.67618551182022,248.22352756882492 109.55826829336729,248.31578991493143 109.4061170437526,248.4637728065877 109.29200360654795,248.61540671200282 109.16723958186776,248.8181896607598 109.07823110084428,249.00635295172333 109.00443774477753,249.22648002790856 108.97933278859273,249.3954530701817 108.95803161364529,250.20008037082835 104.9815587050216,250.31515088404058 105.00742441745751,250.28775329523933 104.91004761770455,250.1032737167211 104.85831619283636,249.9361424481899 104.74952804936402,250.0256448799596 104.70312191822813,249.98820010875488 104.62780704967372,249.88408444361585 104.5943337747558,249.85851196449175 104.59889831224427,249.87312481987055 104.63161083091109,249.88956424977232 104.61867797469677,249.88956424977232 104.5943337747558,249.85668535566447 104.63389309965714,249.84389908200455 104.62096024343919,249.85394544162818 104.6019413372378,249.85851196449175 104.62780704967372,249.83933255066904 104.52890873742217,249.88591104609122 104.5737933560631,249.8904775504293 104.58292243104006,249.88043123739362 104.57759713730047,249.90326374848382 104.53879856865024,249.87677802948247 104.5532529373595,249.87951793557522 104.58064016229036,249.85668535566447 104.57075033106594,249.8457256937986 104.59965906849538,249.8402458571495 104.57759713730047,249.85668535566447 104.56466428108251,249.8530321367366 104.58900848102348,249.84937891611435 104.58672621227743,249.8384192440858 104.60041982474286,249.8448123879557 104.56998957481483,249.83933255066904 104.5836831872839,249.81193330706674 104.5981375559968,249.82380632432842 104.584443943535,249.83659263060008 104.59585528725802,249.8630784847096 104.59737679974933,249.83659263060008 104.6019413372378,249.84755230517067 104.60726663097375,249.83933255066904 104.59889831224427,249.8292861724144 104.63161083091109,249.81649985428294 104.63997914964057,249.83202609502723 104.55020991236961,249.8557720510894 104.55097066861708,249.8420724697903 104.5517314248682,249.86947160856698 104.53499478740923,249.89321745175812 104.54184159364013,249.90600364536704 104.53651629990418,249.89778395185704 104.52206193119127,249.9160499257864 104.51749739370644,249.9069169441177 104.54184159364013,249.89778395185704 104.50836831872584,249.90600364536704 104.50760756247837,249.9187898182222 104.5,249.9069169441177 104.51597588120421,249.9041770475501 104.51521512495674,249.92152970970756 104.50912907497332,249.908743541298 104.5737933560631,249.84298577595064 104.56314276858757,249.8420724697903 104.53879856865024,249.88865094901166 104.51977966244885,249.8959573521356 104.5243441999337,249.88043123739362 104.51977966244885,249.89139085097713 104.5106505874719,249.87951793557522 104.58520469978248,249.84115916352175 104.57987940604289,249.85120552663693 104.58064016229036,249.84115916352175 104.57075033106594,249.8457256937986 104.54868839987466,249.82015309015287 104.56998957481483,249.88956424977232 104.59205150600974,249.90509034650995 104.58216167478895,249.9114834362731 104.60346284973275,249.88865094901166 104.6194387309406,249.89413075198945 104.75409258684886,250.05760978773606" stroke="red" stroke-dasharray="none" stroke-linecap="round" stroke-linejoin="round" stroke-width="0.5"><title>2024-09-25 160.1km</title><desc>1727226501000</desc></polyline></svg>