<?xml version="1.0" encoding="utf-8" ?>
<svg baseProfile="full" height="300mm" version="1.1" viewBox="0,0,200,300" width="200mm" xmlns="http://www.w3.org/2000/svg" xmlns:ev="http://www.w3.org/2001/xml-events" xmlns:xlink="http://www.w3.org/1999/xlink"><defs /><rect fill="#222222" height="300" width="200" x="0" y="0" /><text fill="#FFFFFF" style="font-size:12px; font-family:Arial; font-weight:bold;" x="10" y="20">Over 10km Workouts</text><text fill="#FFFFFF" style="font-size:9px; font-family:Arial" x="10" y="290">Kin Azem</text><text fill="#FFFFFF" style="font-size:4px; font-family:Arial" x="65" y="280">SPECIAL TRACKS</text><rect fill="yellow" height="2.6" width="2.6" x="65" y="283" /><text fill="#FFFFFF" style="font-size:3px; font-family:Arial" x="70" y="285.5">Over 20.0 km</text><rect fill="red" height="2.6" width="2.6" x="65" y="287" /><text fill="#FFFFFF" style="font-size:3px; font-family:Arial" x="70" y="289.5">Over 40.0 km</text><text fill="#FFFFFF" style="font-size:4px; font-family:Arial" x="120" y="280">STATISTICS</text><text fill="#FFFFFF" style="font-size:3px; font-family:Arial" x="120" y="285">Number: 3</text><text fill="#FFFFFF" style="font-size:3px; font-family:Arial" x="120" y="290">Weekly: 1.5</text><text fill="#FFFFFF" style="font-size:3px; font-family:Arial" x="141" y="285">Total: 220.0 km</text><text fill="#FFFFFF" style="font-size:3px; font-family:Arial" x="141" y="290">Avg: 73.3 km</text><text fill="#FFFFFF" style="font-size:3px; font-family:Arial" x="167" y="285">Min: 27.3 km</text><text fill="#FFFFFF" style="font-size:3px; font-family:Arial" x="167" y="290">Max: 160.1 km</text><polyline fill="none" opacity="1" points="65.51695267701871,57.526276324329956 64.93425665033283,57.9197471814914 64.47236345845158,57.74487151850917 64.28050013259053,57.15903485855961 63.8896674317657,56.992901180448825 63.982046070101205,56.3196185459019 63.8683492843993,56.06604288479866 63.1222141282924,56.24092274956638 62.94456290063681,56.07478688842093 62.94456290063681,55.69879374401353 62.79533586939215,55.5851209997345 61.68679220881313,55.66381753471069 61.33148975356016,55.42772766385315 61.20358086962369,55.1129399284182 61.25332321340102,53.81005338495743 61.459398637438426,52.69952017064497 62.26238218645449,50.819443387532374 62.3334426774818,48.869356802075345 62.09894305700436,47.32149147705786 61.53045912849484,46.32454310821049 61.71521640528226,45.292599108172 61.693898257944966,44.627949138019176 60.81985421790159,42.94005960499635 60.80564211969613,42.231658581702504 60.96908124914626,41.44453790655825 62.077624909667065,38.96067672269419 60.61377879380598,37.15020111295598 61.4309744410275,36.459234278248914 61.97814022219973,34.5 61.36701999907382,36.53795236397855 60.34374892778578,37.403845450724475 60.215840043878416,37.29888928474247 60.42902151707676,37.666235175514885 59.974234374269145,37.11521561475092 61.16805062411004,38.59333764082112 61.75074665079592,38.8032459242022 61.95682207486243,39.01315357666317 61.78627689633868,39.04813812405337 61.95682207486243,39.01315357666317 60.393491271534,37.578772043467325 61.18936877141823,38.58459144864173 61.79338294544141,38.79449975833268 61.89286763290875,38.724530391875305 61.77206479810411,38.60208383190911 59.89606783411,45.48499660340167 59.09308428509394,46.64811562962859 59.114402432431234,54.64949984802661 60.208733994775685,54.75442994676996 61.12541432946455,55.217869331165275 60.64930903937784,56.24966673130257 59.967128325166414,57.027876724467205 60.13767350371927,58.10336615657434 59.68999241004349,59.60727483996743 59.01491774493479,60.595290253106214 59.69709845917532,65.40401538241713 57.728722856758395,68.93603179913771 57.65055631659925,70.16869848305214 57.323678057699,70.89430062196334 56.634391294413945,71.6111531698698 56.34304328105645,72.30177245211235 56.15828600426903,72.45038583596033 54.85787901788717,73.31583397012582 54.18280435280758,73.17596429048717 53.91988053586101,73.66550694478792 53.87013819211279,74.28617216712155 54.076213616208406,75.15159757412039 54.019365223357454,76.0082707587062 54.18991040191031,76.87367484758579 54.93604555804632,77.94885894461186 55.02131814730819,78.34221484880982 53.14532118331408,83.07105371712532 53.251911919913255,85.63201039787236 53.48641154039069,86.45359437649313 53.37982080382062,87.31886919435783 52.14336825933424,88.60365144612297 51.88044444238767,90.36035632456333 50.764794732793234,91.68878046437021 50.28868944264832,91.89852933784277 49.983129331085365,91.81987358401238 49.62072082667146,92.06458008321351 49.12329738927656,93.06087627679517 48.888797768740915,93.27062103551725 48.739570737525355,93.96976568863465 47.65945127341547,95.29812127681362 46.62196810389287,97.24691309904301 46.15296886290889,97.84115271831979 45.96821158612147,98.74998001899075 45.20075828267727,99.66753406573844 45.15101593892905,100.84722872800194 43.4242460061505,102.76091331498174 43.01209515798837,103.94929383524868 42.52888381876983,104.67454555775475 42.663898751779925,104.70949725809623 43.00498910891474,105.43474110052193 43.00498910891474,106.06386220010609 42.464929376816144,106.50074852442049 42.15936926525319,106.46579771886172 42.10962692153407,106.5968631496944 42.30149024736602,106.7191906636217 44.113532769464655,105.85415579543769 44.63938040329958,105.78425352089107 45.06574334966717,105.89784468158905 46.167180961114354,106.6842399671732 46.92042216635309,107.57547727302881 52.555519107496366,111.5422193448685 54.28939508940675,112.07517856690538 56.51358845960931,113.27213776280405 58.44643381645437,113.48182193795219 59.85343153946451,113.315822017772 60.84827841434162,113.44687461905414 61.864443436526926,113.77013665291452 64.23786383791594,115.01948669258127 66.19913339123013,115.5 67.89037307846593,115.20295579930098" stroke="#ffff00" stroke-dasharray="none" stroke-linecap="round" stroke-linejoin="round" stroke-width="0.5"><title>2026-06-28 27.3km</title><desc>1782622347000</desc></polyline><polyline fill="none" opacity="1" points="185.29062553850235,93.81440430859948 185.28364638981293,93.91487107647845 185.39531276930938,93.8897543975836 185.29062553850235,93.94835996813345 185.28364638981293,93.84789324671874 185.5,93.96510440814745 185.36739617440617,94.02370991769567 185.4232293641253,93.9399877466858 185.31156298468704,93.8646377099576 185.34645872825058,93.95673218863521 185.25572979493882,93.93161552426318 185.3743753231247,94.01533770495735 185.36041702565853,93.8730099401364 185.23479234878323,93.89812662486656 185.25572979493882,94.03208212946629 185.36739617440617,94.0488265501408 185.26270894365734,94.0488265501408 185.18593830778264,93.76417087238224 185.34645872825058,93.94835996813345 185.2278132000938,94.07394317384751 185.17198001034558,93.82277654459176 185.28364638981293,93.94835996813345 184.91375150787644,93.95673218863521 184.81604342581704,94.09905978883762 183.9645872824476,94.33348110863153 183.92969153885497,94.51766875596513 183.79708771326113,94.35859763358894 182.01740479061846,94.88604264480819 180.92865759090637,94.73534446229314 179.49095295535517,95.05348470190802 179.20480785804102,95.37162354350585 178.93262105807662,96.46835462286253 179.0233499914175,97.36414554429211 178.33939341720543,97.61529988809343 177.30647940721246,98.31015569974988 176.5946062381554,98.50270492541313 175.81992073066067,98.39387281732343 175.70825435122242,98.65339526659227 174.91961054626154,98.62828023151815 174.9824228847283,98.80408529414126 174.90565224885358,98.9212884320732 174.70325693607447,98.9715182902728 174.29846631051623,98.81245695313555 174.17982078235946,98.97988992990577 173.61450973633328,99.00500484304212 173.23065655695973,99.24778188741766 173.3004480440868,100.12679541133548 173.11899017749238,100.38631164949766 172.54669998274767,100.34445425464219 172.39315871102735,101.69225021515012 171.76503532659262,101.75084947043797 171.70222298812587,101.59179423857131 171.97440978803206,101.64202224427572 171.54868171634735,101.71736418750515 171.70222298812587,101.59179423857131 171.5626400138135,101.44111001243436 171.97440978803206,101.29042547276185 171.758056177845,101.72573550969537 172.06513872134383,101.74247815116541 170.95545407550526,101.6755075620531 170.89962088575703,102.02710246382048 170.72514216785203,101.88479044733685 170.7460796140076,101.97687472521648 170.58555919353967,101.96013213798142 170.24358090641908,103.35812484218332 168.94545924523845,105.9615004079169 168.61743925558403,106.34655765932985 168.0660865069658,106.59768085074757 164.443908323301,106.76509582795552 159.9772531449271,106.79020804117317 159.43985869377502,107.04132969427155 159.3351714630553,108.74893384441384 156.6063243150129,108.84937989361788 155.6362226434576,108.64848765591887 153.94028950540815,107.97884283928579 151.68602447010926,107.61890619205951 151.2254006548319,107.6523887463336 150.54144408067805,107.38452787870483 149.62019645012333,106.94088113750331 149.18051008100156,106.48886090802989 148.88738583493978,106.38841158502328 148.4686369119736,106.00335455615277 148.1755126658536,105.92801707188482 146.84947440976975,104.88165502075572 146.22833017405355,104.5551869664414 145.71187316902797,104.44636395463749 145.68395657418296,95.66464492398518 144.7557297949097,95.01999632148363 144.23927278991323,94.81906571349828 142.15250732380082,94.33348110863153 141.74073754955316,92.93531414207246 141.83844563158345,92.15668250821182 141.5313630880555,90.13052653141494 139.7167844218784,87.61031123511202 139.15147337582312,86.63066898064426 138.79553679132368,85.39144439858501 138.11158021711162,81.90810489960131 137.81845597104984,80.9953752419533 137.3089781147719,79.990521938249 133.68679993107799,74.77343424286664 132.94003101842827,73.91923637488799 130.30191280372674,71.54082839206967 126.23306910219253,65.56096428479941 125.20015509217046,64.62290152872447 122.17818369806628,62.922631772635214 121.17318628294743,62.13530120273208 114.82216095121112,54.931666091441 114.24987075652461,54.504451235494344 112.08633465447929,53.524360557319596 111.08133723936044,52.66153469061828 107.11020161985653,47.71893565681239 106.17499569186475,46.35337837989937 106.27968292261357,46.23609004885657 107.38238841976272,46.26122327867051 107.83603308632155,45.78369041781116 108.28269860419095,45.69991239765659 108.4920730656304,45.94286838863627 108.70144752715714,46.67173146206187 109.3365500603104,47.8278440221693 110.31363088055514,48.69072757867252 110.56488023436395,49.40280819369946 110.39040151645895,49.63737438991666 110.0554023780569,49.60386497993022 109.62967430637218,49.14310901724093 107.82905393760302,46.52931051967607 107.48707565051154,46.35337837989937 106.30062036874006,46.26122327867051 106.04937101498945,46.12717928534403 105.83301740480238,45.37317719124985 105.81905910736532,43.613808384368895 105.63760124074179,42.92680512915831 104.5,41.15062010638212" stroke="#fff500" stroke-dasharray="none" stroke-linecap="round" stroke-linejoin="round" stroke-width="0.5"><title>2024-09-26 32.6km</title><desc>1727327929000</desc></polyline><polyline fill="none" opacity="1" points="95.5,200.71188485764105 95.45166552776209,201.18170168540018 95.41502487945036,201.29467955549353 95.36513123069017,201.59688748344706 95.33706605326006,201.66278800144391 95.2411766970472,201.79176315227687 94.99950433585764,201.94803681515987 94.9963859828058,201.96780615653824 95.03224704285458,202.03841054680288 95.04160210199916,202.01581720998183 95.04160210199916,202.0271138864 95.06265098506992,202.02240693983822 95.05407551419194,202.05441412162781 95.04238169026212,202.05158996370028 95.02601033676183,202.0760659658181 95.01821445414316,202.06665212774442 95.01353692457269,202.07889011506995 94.98859010019078,202.08265564585145 94.9940472180242,202.1005418927598 94.99170845323897,202.09018670207206 94.98235339409439,202.10807293207654 94.9870309236685,202.09583498956908 94.97611668800164,202.10807293207654 94.96987998190161,202.09112808359805 94.16066736604989,202.72465263173672 93.31949163145691,203.1830557829444 93.31013657231233,203.22070579422598 92.71998825805349,203.6339029830433 92.68178843321948,203.60096094046003 92.69426184540862,203.61131416851003 92.68880472757883,203.60378454944293 75.66259708761208,205.3429376868662 74.43864351642333,204.77173170808328 73.91398061616565,204.59857387400007 55.74411699598568,221.6901464223265 55.35588204156011,221.55773572564158 55.08770367946272,221.43001837030624 54.89748414355927,221.37273271860613 54.89592496703699,221.36146336185357 54.53029807220082,221.30323809943457 53.77487704642044,221.1520382641993 53.48564980125229,221.13043805477082 53.20187967392121,221.1473425714521 45.15808798760554,227.88940138093767 44.7877835631989,228.39234094138556 44.0573093617968,229.48162251091344 43.80472276494038,229.88877509179838 43.64802552429683,230.11579590711517 43.42350410486688,230.37939466932949 43.11556674141684,230.6533030780929 42.77644584749214,230.88217828318375 42.41003936440029,231.05852030449114 42.08884900049088,231.16169735154654 41.28665267899123,231.35397831218324 41.09019643699867,231.41494448505728 40.836050663612696,231.51624110312423 40.47432171009132,231.71132728745124 39.79607992223464,232.16525949680454 39.58091356195291,232.326568073011 39.22074378495017,232.63510859656435 38.5191143492375,233.40406382182755 38.07552862821467,233.90853350621546 37.62804496588069,234.34734012602712 36.620816931503214,235.10113148932305 36.549094811409304,235.0926939173578 36.47347475000424,235.13488168865933 36.41578521862175,235.14706922583173 35.587862484480866,235.567059221622 35.516919952649914,235.52956100655774 35.44285906776713,235.51549913083636 35.30643112193138,235.5351857499627 34.51592862436519,235.75079794834528 34.19239949567418,235.85485220237024 33.69658136110593,236.06858104262847 33.228048815701186,236.3357341073388 32.95051539446649,236.5316407162427 32.639459677960986,236.7865933692783 32.349452844537154,237.06496994374447 32.21692284001256,237.21868217396877 31.481771109036345,237.91316241645472 25.075894360979873,242.39069971600566 23.84336531890949,243.54926352910843 23.299212712103326,244.12145956258064 22.809631283627823,244.6692687753075 22.15009961406031,245.385578517451 21.93259448898607,245.59811831833667 21.603608242461632,245.84903915574068 20.644714680322068,246.49783931477396 19.707649589516222,247.14471508614133 19.586813408917806,247.2392613251286 19.43089575653721,247.3909074346293 19.313957517253584,247.54629493630182 19.186105042306735,247.7540976417913 19.094893215660704,247.94691878960202 19.019273154255643,248.17249496483328 18.99354674161077,248.34565082213976 18.97171827027705,249.170196135291 14.89681042531447,249.28811514235804 14.923316426218662,249.26003934450728 14.823529128694645,249.07099309698788 14.770517126882623,248.89972460530498 14.659036005432426,248.99144261011497 14.611481121453835,248.9530709185583 14.534301883526496,248.84637793952697 14.5,248.82017243072733 14.50467752957411,248.83514701760032 14.53819982483401,248.8519933946318 14.524946824381914,248.8519933946318 14.5,248.81830060541597" stroke="red" stroke-dasharray="none" stroke-linecap="round" stroke-linejoin="round" stroke-width="0.5"><title>2024-09-25 160.1km</title><desc>1727226501000</desc></polyline></svg>