<?xml version="1.0" encoding="utf-8" ?>
<svg baseProfile="full" height="300mm" version="1.1" viewBox="0,0,200,300" width="200mm" xmlns="http://www.w3.org/2000/svg" xmlns:ev="http://www.w3.org/2001/xml-events" xmlns:xlink="http://www.w3.org/1999/xlink"><defs /><rect fill="#222222" height="300" width="200" x="0" y="0" /><text fill="#FFFFFF" style="font-size:12px; font-family:Arial; font-weight:bold;" x="10" y="20">Over 10km Workouts</text><text fill="#FFFFFF" style="font-size:9px; font-family:Arial" x="10" y="290">Kin Azem</text><text fill="#FFFFFF" style="font-size:4px; font-family:Arial" x="65" y="280">SPECIAL TRACKS</text><rect fill="yellow" height="2.6" width="2.6" x="65" y="283" /><text fill="#FFFFFF" style="font-size:3px; font-family:Arial" x="70" y="285.5">Over 20.0 km</text><rect fill="red" height="2.6" width="2.6" x="65" y="287" /><text fill="#FFFFFF" style="font-size:3px; font-family:Arial" x="70" y="289.5">Over 40.0 km</text><text fill="#FFFFFF" style="font-size:4px; font-family:Arial" x="120" y="280">STATISTICS</text><text fill="#FFFFFF" style="font-size:3px; font-family:Arial" x="120" y="285">Number: 2</text><text fill="#FFFFFF" style="font-size:3px; font-family:Arial" x="120" y="290">Weekly: 2.0</text><text fill="#FFFFFF" style="font-size:3px; font-family:Arial" x="141" y="285">Total: 192.7 km</text><text fill="#FFFFFF" style="font-size:3px; font-family:Arial" x="141" y="290">Avg: 96.4 km</text><text fill="#FFFFFF" style="font-size:3px; font-family:Arial" x="167" y="285">Min: 32.6 km</text><text fill="#FFFFFF" style="font-size:3px; font-family:Arial" x="167" y="290">Max: 160.1 km</text><polyline fill="none" opacity="1" points="142.75470679535647,116.10829185265902 143.35231797021697,115.90722456496587 143.45434914639918,115.98590313253953 143.39604561714805,116.07332366711489 143.43248532290454,115.98590313253953 143.53451649911585,116.09080776190967 143.3377420878969,116.10829185265902 143.77501855726587,116.03835546540358 143.0899520885432,116.16948613842396 143.3450300290133,116.09954980777547 143.0243606181466,115.75860926956375 143.7604426749458,115.7673513538466 143.91348943926278,115.47886203865346 144.79533031917526,115.58376737154322 145.8375059045793,115.20785592167522 146.51528443215648,114.63087192088278 147.2513664889848,114.42105846523191 147.07645590123138,113.6342528208188 147.39712531212717,112.4015741813273 147.68864295838284,112.03438942487992 149.394021189044,111.65846032661648 150.39246912748786,111.84205384071538 151.30346177206957,111.5010941025539 152.36021323976456,111.2825293589849 152.49868412176147,111.20384589663445 152.491396180616,110.95905237887928 152.60800323908916,111.17761805764167 153.34408529594657,110.97653765645373 153.46069235441973,110.83665532275336 153.6501788244932,110.84539797621255 153.7230582360644,111.028993464839 153.80322558881016,110.76671405886736 153.80322558881016,111.05522135540377 153.78136176531552,110.73174340264814 153.77407382417005,110.83665532275336 153.89068088270142,110.81042735638039 153.78136176531552,110.87162593044195 153.77407382417005,110.76671405886736 154.0,110.88911122822174 153.8615291180613,110.95030973858229 153.91983264728333,110.86288328005321 153.80322558881016,110.78419938089064 153.83966529456666,110.88036857985571 153.74492205952993,110.85414062863856 153.86881705920678,110.9415670972885 153.8542411768576,110.79294204040343 153.7230582360644,110.81917001286638 153.74492205952993,110.95905237887928 153.8615291180613,110.97653765645373 153.7522100006754,110.97653765645373 153.67204264795873,110.67928738801129 153.83966529456666,110.87162593044195 153.7157702949189,111.00276556520112 153.65746676563867,110.74048606822907 153.77407382417005,110.87162593044195 153.38781294287764,110.88036857985571 153.28578176666633,111.028993464839 152.39665294557926,111.27378675611544 152.36021323976456,111.46612378604186 152.22174235782586,111.3000145617334 150.36331736284774,111.85079637789022 149.22639854243607,111.69343055417266 147.72508266413934,112.0256469089436 147.4262770767673,112.35786180383002 147.142047371628,113.50311775066075 147.23679060669383,114.43854294210905 146.52257237330195,114.70080961004714 145.44395708214142,115.4264093176389 144.70058708416764,115.62747788395063 143.89162561579724,115.51383049914875 143.77501855726587,115.7848355193928 142.9514812065754,115.75860926956375 143.01707267700112,115.94219282732956 142.93690532428445,116.06458161819319 142.72555503071635,116.11703389650938 142.30285444360925,115.95093489038118 142.1789594439615,116.12577593933383 141.58863621027558,116.15200206182635 141.18779944666312,116.40552077672328 141.2606788582052,117.32342625469755 141.07119238816085,117.59442478902201 140.47358121330035,117.55071541369398 140.313246507867,118.958144607539 139.65733180381358,119.01933658691996 139.59174033338786,118.85324395619682 139.87597003846895,118.90569430005417 139.43140562792541,118.98436974761717 139.59174033338786,118.85324395619682 139.44598151024547,118.69589270635333 139.87597003846895,118.5385411291063 139.650043862639,118.99311145896354 139.97071327350568,119.01059487862221 138.81193062962848,118.94066117574403 138.75362710034824,119.30781239421049 138.57142857144936,119.15920378244482 138.5932923949149,119.25536232927698 138.42566974830697,119.23787896625436 138.0685606316256,120.69772585875762 136.71300357650034,123.41628777844744 136.37047034213901,123.81838188824622 135.79472299077315,124.08061602546513 132.0122815305076,124.25543827847287 127.34799919024226,124.28166158158274 126.78682772116736,124.543894112423 126.67750860383967,126.32705120953324 123.82792361159227,126.43194149425835 122.81489979082835,126.22216077934718 121.04393008977058,125.52288752728055 118.68992509617237,125.14702548280911 118.20892097984324,125.18198947272322 117.49470274650957,124.90227710079489 116.53269451382221,124.4390012091826 116.07355422095861,123.96698134430335 115.76746069238288,123.86208764091862 115.33018422298483,123.45999376349937 115.02409069437999,123.38132297218544 113.63938187464373,122.28866463127633 112.99075511170668,121.94775199764263 112.4514474660973,121.83411411159614 112.42229570145719,112.66384791551536 111.45299952762434,111.99067683509202 110.91369188204408,111.78085605220258 108.73459747622837,111.27378675611544 108.3046089480049,109.81375789101003 108.4066401241871,109.00067569989915 108.08597071329132,106.88487245031865 106.1911060125858,104.25315022624272 105.60078277887078,103.23016369945981 105.22909777989844,101.93610962479579 104.51487954653567,98.29864976692625 104.20878601795994,97.3455363848625 103.67676631352515,96.29622334594751 99.8943248532596,90.84830560137198 99.11451514947112,89.95631374805089 96.35967339228955,87.47267310216557 92.11080369798583,81.22822990276472 91.03218840676709,80.24866255930101 87.87650988594396,78.47316436652181 86.82704635939444,77.65099835492583 80.1950199068815,70.12863840247155 79.5974087320501,69.682521424882 77.33814697348862,68.6590666338816 76.2886834469391,67.75806503603235 72.1418449288467,62.596780704086996 71.16526081381016,61.170804344379576 71.27457993119606,61.04832659103704 72.42607463392778,61.074571840617864 72.89979080911144,60.575910537962045 73.36621904314961,60.48842575924209 73.58485727780499,60.74213133822923 73.80349551254767,61.50324295891187 74.46669815780479,62.710507720155874 75.48700991971418,63.61156956029299 75.74937580135884,64.35515618268983 75.56717727243085,64.60010076044273 75.21735609689495,64.56510872658691 74.77279168635141,64.08396661596635 72.89250286793686,61.35452060181706 72.53539375125547,61.170804344379576 71.29644375463249,61.074571840617864 71.03407787301694,60.93459707070724 70.80815169715788,60.1472341533663 70.79357581486693,58.31002207224083 70.60408934479346,57.59262235746428 69.41615493624704,55.737850026947854 67.76908023483702,53.56805850574165 67.6014575882291,53.58555707398773 67.36824347122456,53.874282864140696 65.26931641812553,58.23128341228585 64.90491936029866,58.03006201919197 60.92570348875597,54.031769193170476 59.97827113838866,54.95043289608293 59.599298198270844,55.38788787191879 59.664889668667456,55.44038229861326 59.50455496323411,55.33539340869902 59.205749375832966,55.580367258007755 58.53525878940127,55.68535580713797 46.40812470478704,54.48672785326926 46.07287941157119,54.95043289608293 46.1749105877534,54.88043986464618 47.2316620554775,55.53662198607344 49.221269991248846,57.36515273142868 48.57993116945727,56.8227223950671 47.1952223496919,57.31265964344493 46.160334705462446,57.91632795105397 46.22592617585906,57.96882061917859 46.262365881644655,57.8813328186734 46.0,57.8288400896854 46.37897294017603,57.75010092775483 46.444564410543535,57.61886880866223 46.02915176466922,57.17267789700418" stroke="#ffff00" stroke-dasharray="none" stroke-linecap="round" stroke-linejoin="round" stroke-width="0.5"><title>2024-09-26 32.6km</title><desc>1727327929000</desc></polyline><polyline fill="none" opacity="1" points="154.0,176.246465487945 153.90566622524057,176.43030023819756 153.81538981713675,176.73790975433712 153.7362711673377,176.93521622759908 153.5161590262287,177.23790891386216 153.1611394438005,177.5896095477574 151.78264912231316,178.83088253918595 151.55645093122075,179.08696082954975 151.48443267307448,179.20090750777854 151.42052914823216,179.33813195165112 151.41951480657008,179.387140241186 151.51689160632304,180.5497939354118 151.4540024231501,181.16108428721964 151.4063283649375,181.3080826020414 151.34141049843674,181.7012928484237 151.30489419852893,181.78703765033515 151.1801301738451,181.95485042473683 150.86568425798032,182.15818197166755 150.86162689132107,182.18390435309811 150.90828660787156,182.2757694801303 150.92045870784204,182.2463727280392 150.92045870784204,182.26107111450347 150.94784593276927,182.25494678934228 150.93668817446815,182.29659212910065 150.92147304950777,182.29291754702717 150.90017187456033,182.32476388172927 150.89002845791765,182.31251530303325 150.88394240793787,182.328438452515 150.85148347468566,182.3333378782063 150.85858386633117,182.35661011861794 150.85554084134128,182.3431367226376 150.8433687413708,182.36640894105494 150.84945479135786,182.35048584988726 150.83525400805956,182.36640894105494 150.82713927474106,182.34436157753862 149.7742526274269,183.16865611325738 148.67977797187996,183.76509584681935 148.66760587190947,183.81408321228173 147.89974923220143,184.35170434459178 147.85004649066104,184.3088426342174 147.86627595727987,184.32231347656125 147.859175565638,184.31251650204558 125.70595362204767,186.57537187547587 124.11343720943114,185.8321615792629 123.43078526950558,185.60686161753165 99.78952410470083,207.845131468026 99.28438195598937,207.6728486195252 98.93544842354095,207.50667239410814 98.68794905750474,207.43213660885613 98.68592037418057,207.41747376868807 98.2101941337205,207.34171543257617 97.22729706122846,207.14498556890794 96.85097630384917,207.11688099955154 96.48175593812266,207.13887588636408 86.01577864810679,215.91113617600695 85.53396635766694,216.56552333857508 84.58352821842345,217.98281466257959 84.25488151925674,218.51257100527073 84.0509988447775,218.80795343063983 83.75886844551496,219.15092833185554 83.35820348820562,219.50731737044043 82.91696486433284,219.8051125884349 82.44022428221433,220.0345555753065 82.02231551660589,220.1688017956767 80.97855794426505,220.41898333266727 80.72294384492125,220.4983079354979 80.39226846242673,220.63010748297347 79.92161393029528,220.88393896623165 79.03913668253881,221.47456144622174 78.75917838325404,221.68444404401907 78.29055253444312,222.08589378793204 77.37764503676954,223.08640054376156 76.80048462990453,223.74277858861933 76.21825251472183,224.31372078811364 74.90772308472515,225.29449746624232 74.8144036516278,225.28351913164443 74.71601251021275,225.33841068945367 74.64095122706931,225.3542681969875 73.56372037981055,225.90072761928423 73.47141528838256,225.85193775965217 73.37505283029532,225.8336415036456 73.19754303907757,225.85925625309847 72.16900059169711,226.13979464341537 71.74804880110241,226.27518221957598 71.10292750274675,226.5532701258271 70.49330816262955,226.90086961836187 70.13220253022155,227.15576857642827 69.72748020624567,227.48749381009475 69.35014510720794,227.84969649013055 69.17770702431517,228.0496952933645 68.22118283508098,228.9533007980408 59.886337381307385,234.77913586684554 58.28266321038973,236.28657203996227 57.57465272885747,237.03107052093947 56.93764616381668,237.7438387033153 56.07951311600118,238.67584711256313 55.79651179171924,238.95238793013323 55.368459609475394,239.27886726827091 54.12081936265167,240.12303728099596 52.901580682428175,240.9647034250993 52.74435772449215,241.08771988657463 52.54148939167135,241.2850304087833 52.389338142063934,241.4872089493365 52.22298610915823,241.7575862143458 52.104308134457824,242.00847060229717 52.005916993039136,242.30197337054415 51.97244371812121,242.52727076024257 51.944042151528265,243.60010716110446 46.64207827336577,243.7535345120541 46.67656588994214,243.71700439365213 46.54673015694061,243.4710316222945 46.477754923780594,243.24818993091958 46.33270406581869,243.3675265066122 46.27082922430782,243.3176001450065 46.17040939956496,243.17877925815446 46.125778366342274,243.14468261932234 46.131864416329336,243.16416642649347 46.17548110788266,243.1860856663634 46.158237299594475,243.1860856663634 46.125778366342274,243.14224714088505 46.17852413287619,243.12519877600607 46.161280324588006,243.1385939221709 46.13592178298859,243.14468261932234 46.17040939956496,243.1191100675578 46.03854498322835,243.18121472812163 46.09839114141505,243.1873034005721 46.110563241385535,243.17390831652483 46.10346284973639,243.2043516646445 46.051731424868194,243.16903737264238 46.07100391648055,243.17269058076636 46.107520216392004,243.14224714088505 46.094333774755796,243.12763425839785 46.13287875799506,243.12032780953268 46.10346284973639,243.14224714088505 46.086219041444565,243.13737618231426 46.118677974696766,243.1325052214861 46.11563494970687,243.11789232544743 46.13389309965714,243.12641651727336 46.09331943309007,243.1191100675578 46.11157758304762,243.08257774275535 46.13085007466361,243.09840843243728 46.11259192471334,243.1154568408001 46.12780704967736,243.15077131294584 46.12983573300153,243.1154568408001 46.13592178298859,243.13006974022665 46.14302217463046,243.1191100675578 46.131864416329336,243.10571489655285 46.17548110788266,243.08866647237664 46.18663886618742,243.10936812670298 46.066946549824934,243.14102940145222 46.06796089149066,243.12276329305314 46.06897523315638,243.15929547808992 46.046659716550494,243.19095660234416 46.05578879152381,243.20800486048847 46.04868839987466,243.19704526914302 46.02941590825503,243.22139990104824 46.02332985827525,243.20922259215695 46.05578879152381,243.19704526914302 46.01115775830476,243.20800486048847 46.01014341664268,243.22505309096232 46.0,243.20922259215695 46.02130117494016,243.20556939673315 46.02028683327808,243.22870627960947 46.01217209996685,243.21165805506462 46.09839114141505,243.12398103460055 46.08419035811676,243.12276329305314 46.051731424868194,243.18486793201555 46.02637288326878,243.19460980284657 46.03245893324856,243.17390831652483 46.02637288326878,243.18852113463527 46.014200783294655,243.17269058076636 46.11360626637543,243.12154555136203 46.10650587472628,243.13494070218167 46.107520216392004,243.12154555136203 46.094333774755796,243.12763425839785 46.064917866500764,243.09353745353656 46.09331943309007,243.1860856663634 46.12273534134874,243.20678712867903 46.10954889971981,243.21531124836383 46.13795046631276,243.18486793201555 46.15925164125656,243.19217433598533 46.33879011580211,243.41014638364868" stroke="red" stroke-dasharray="none" stroke-linecap="round" stroke-linejoin="round" stroke-width="0.5"><title>2024-09-25 160.1km</title><desc>1727226501000</desc></polyline></svg>