<?xml version="1.0" encoding="utf-8" ?>
<svg baseProfile="full" height="300mm" version="1.1" viewBox="0,0,200,300" width="200mm" xmlns="http://www.w3.org/2000/svg" xmlns:ev="http://www.w3.org/2001/xml-events" xmlns:xlink="http://www.w3.org/1999/xlink"><defs /><rect fill="#222222" height="300" width="200" x="0" y="0" /><text fill="#FFFFFF" style="font-size:12px; font-family:Arial; font-weight:bold;" x="10" y="20">Over 10km Workouts</text><text fill="#FFFFFF" style="font-size:9px; font-family:Arial" x="10" y="290">Kin Azem</text><text fill="#FFFFFF" style="font-size:4px; font-family:Arial" x="65" y="280">SPECIAL TRACKS</text><rect fill="yellow" height="2.6" width="2.6" x="65" y="283" /><text fill="#FFFFFF" style="font-size:3px; font-family:Arial" x="70" y="285.5">Over 20.0 km</text><rect fill="red" height="2.6" width="2.6" x="65" y="287" /><text fill="#FFFFFF" style="font-size:3px; font-family:Arial" x="70" y="289.5">Over 40.0 km</text><text fill="#FFFFFF" style="font-size:4px; font-family:Arial" x="120" y="280">STATISTICS</text><text fill="#FFFFFF" style="font-size:3px; font-family:Arial" x="120" y="285">Number: 3</text><text fill="#FFFFFF" style="font-size:3px; font-family:Arial" x="120" y="290">Weekly: 1.5</text><text fill="#FFFFFF" style="font-size:3px; font-family:Arial" x="141" y="285">Total: 220.0 km</text><text fill="#FFFFFF" style="font-size:3px; font-family:Arial" x="141" y="290">Avg: 73.3 km</text><text fill="#FFFFFF" style="font-size:3px; font-family:Arial" x="167" y="285">Min: 27.3 km</text><text fill="#FFFFFF" style="font-size:3px; font-family:Arial" x="167" y="290">Max: 160.1 km</text><polyline fill="none" opacity="1" points="65.03029088742915,58.62581514226622 64.59464953190763,58.271339069193345 64.19414054375375,58.40967141165311 64.06766402116045,58.21946436937287 64.37682885414688,57.62290252207458 64.36980238065007,57.38081798436906 64.02550518029602,57.26842130352452 63.449334355274914,57.65748595819605 62.99261357932119,57.48456860437 62.80289879546035,56.90529231580149 62.416442754270975,56.74101905152929 62.50778690943844,56.07527603412018 62.395363333809655,55.82453998791607 61.657583618798526,55.99746149647399 61.4819217819022,55.83318607361434 61.4819217819022,55.461403411121864 61.33436583887669,55.34900360769825 60.23823597657611,55.42681887571234 59.88691230278346,55.19337280873151 59.760435780190164,54.8821101590147 59.8096210945514,53.59381372262578 60.01338882534765,52.49571658615605 60.807380328158615,50.63669345632661 60.87764506289386,48.70844451452285 60.6457714381977,47.177912641076546 60.083653560112,46.192128393551684 60.26634187050513,45.17174040621467 60.245262450072914,44.514533382083755 59.38100621246849,42.845545332937036 59.366953265533084,42.14507719283574 59.528562155494,41.36677092673199 60.62469201779459,38.91072475160763 59.177238481643144,37.12052338071953 59.98528293144773,36.43729419603187 60.52632138913032,34.5 59.92204467015108,36.515130773470446 58.91023248955025,37.371327334520174 58.783755966986064,37.26754649858776 58.994550171279116,37.6307787419355 58.54485586879309,37.08592966042488 59.72530341282254,38.5474992409072 60.30147423787275,38.755056909540144 60.5052419686981,38.96261395431793 60.33660660526948,38.99720673444244 60.5052419686981,38.96261395431793 58.95941780388239,37.54429504778818 59.746382833254756,38.538850991171785 60.343633078737184,38.74640868581628 60.442003707401454,38.67722285691707 60.32255365830497,38.55614748957305 58.46756466056104,45.36198337764654 57.67357315769186,46.51207745461579 57.69465257815318,54.423859817077755 58.77672949351836,54.527614877682936 59.68314457195811,54.98586453142343 59.212370849068975,56.006107560533565 58.537829395296285,56.77560292909766 58.70646475875401,57.83904871394043 58.26379692973569,59.32611618518422 57.59628194948891,60.30306751086755 58.2708234032325,65.05794312057697 56.324490250292,68.55040697770164 56.24719904205995,69.76926989721687 55.92398126213811,70.48674652977206 55.24241333492682,71.19557155181246 54.95432792237261,71.87845707603265 54.77163961197948,72.0254062434542 53.48579496584716,72.88116283464478 52.818279985600384,72.74285945685551 52.55830046694609,73.22692006840225 52.50911515261396,73.84063489886466 52.712882883439306,74.69636901738704 52.65667109563947,75.54344892346126 52.82530645906809,76.39916196259583 53.56308617407922,77.46230583159195 53.647403855778975,77.85125682057696 51.792414858035045,82.52714075915719 51.89781196019612,85.05941909309331 52.129685584892286,85.87180273246486 52.02428848276031,86.72738794819452 50.80168209786643,87.99778283008345 50.541702579241246,89.73481561015797 49.43854624350206,91.04836366538075 48.96777252055472,91.255763709225 48.6656341610651,91.17798876568122 48.30728401380475,91.41995496946765 47.8154308704834,92.40509434497653 47.583557245729025,92.61249032014894 47.43600130273262,93.30380574562878 46.367977334331954,94.61728601688083 45.342112206766615,96.54425469459966 44.87836495737429,97.13183984368516 44.69567664695205,98.03048982870678 43.93681751150871,98.93776883512328 43.88763219717657,100.10425292927539 42.18019914245815,101.99650751290028 41.772663680807455,103.17158019825729 41.29486348442151,103.88871033847681 41.428366480453406,103.92327063938865 41.765637207368854,104.64039298776333 41.765637207368854,105.26246900407568 41.231625223124865,105.69446294671798 40.92948686363525,105.65990353056986 40.880301549332216,105.78950125212577 41.07001633316395,105.91045890653913 42.86176706964034,105.05511095346446 43.38172610689071,104.98599146516062 43.80331451547681,105.0983105986088 44.892417904309696,105.8758995982862 45.637224092759425,106.75715656642569 51.20921755951713,110.67947789280151 52.92367708776146,111.206468880584 55.12296328583034,112.39002417503798 57.03416407137411,112.59736024506856 58.42540581969661,112.43321924085467 59.409112106397515,112.5628042765311 60.41389781353064,112.88244632697752 62.760739954566816,114.11780577711761 64.70004663403961,114.59293815505953 66.37234732141951,114.29922034276387 67.80574791057734,114.53246694267 69.11969845066778,115.5" stroke="#ffff00" stroke-dasharray="none" stroke-linecap="round" stroke-linejoin="round" stroke-width="0.5"><title>2026-06-28 27.3km</title><desc>1782622347000</desc></polyline><polyline fill="none" opacity="1" points="184.08946748549351,94.5965464710971 184.1984941532719,94.80090363398631 184.88672499370296,94.61289506588946 184.99575166148134,94.48210620180907 185.17291999663576,94.49028051292407 185.2410616640118,94.66194082750735 185.3160174981458,94.41671167904133 185.3160174981458,94.68646369557246 185.29557499790099,94.38401439495647 185.2887608311721,94.48210620180907 185.3977874989796,94.45758326286159 185.29557499790099,94.51480344051379 185.2887608311721,94.41671167904133 185.5,94.53115205419454 185.3705308320059,94.58837217229302 185.4250441658951,94.50662913227279 185.3160174981458,94.43306031539396 185.35008833179018,94.52297774784529 185.26150416422752,94.49845482307137 185.37734499873477,94.58019787255034 185.36371666524792,94.44123463216238 185.2410616640118,94.46575757680694 185.26150416422752,94.5965464710971 185.3705308320059,94.61289506588946 185.2683183309564,94.61289506588946 185.19336249685148,94.3349684404966 185.35008833179018,94.51480344051379 185.23424749728292,94.63741795095848 185.17973416336463,94.39218871740741 185.2887608311721,94.51480344051379 184.9276099941344,94.52297774784529 184.83221165978466,94.66194082750735 184.00088331793086,94.89082059847715 183.96681248422829,95.07065418432467 183.83734331623418,94.91534338712518 182.09973079833435,95.43031998342485 181.03672078740783,95.28318419590505 179.63300243963022,95.59380383256212 179.3536216034554,95.90442210424953 179.0878691006801,96.97522726174066 179.17645326830097,97.84984233989235 178.50866492805653,98.09505957840156 177.5001682510192,98.77348950606392 176.80512324388837,98.96148700863705 176.04875073611038,98.85522761211178 175.939724068332,99.10861514018325 175.16972322706715,99.0840938061956 175.23105072768521,99.25574296552077 175.1560948936094,99.37017550685414 174.95848405821016,99.41921796788665 174.56326238746988,99.26391672460886 174.44742155296262,99.42739170806453 173.89547404728364,99.45191292299569 173.52069487675908,99.68895089531725 173.58883654410602,100.54718518139998 173.4116682089807,100.80056664519361 172.85290653654374,100.75969872857968 172.70299486833392,102.07563377675251 172.08971986206598,102.13284778843808 172.0283923614188,101.97755250611226 172.2941448641359,102.0265931584363 171.87848069320899,102.10015407314495 172.0283923614188,101.97755250611226 171.89210902669583,101.83043034504954 172.2941448641359,101.68330787786545 172.082905695308,102.10832750338886 172.38272903172765,102.12467436104635 171.2992765205854,102.05928690775909 171.24476318666711,102.40257036277762 171.07440901827067,102.26362249844533 171.0948515184864,102.35352997124573 170.9381256835186,102.33718316654267 170.60423151342547,103.7021283440481 169.33679650039994,106.24396201242052 169.01653066376457,106.61991679157654 168.47821149154333,106.86510361412365 164.9416589551838,107.02856102351507 160.58059224361205,107.05307960234495 160.05590140487766,107.29826492293796 159.95368890385726,108.96550255788316 157.28934970975388,109.06357413582737 156.34218053336372,108.86743084393675 154.68633801632677,108.21361594178597 152.48536216033972,107.8621879340717 152.03562715571024,107.89487898521475 151.3678388155531,107.63335015290068 150.46836880626506,107.20019089670677 150.0390763018513,106.75885609538818 149.7528812989185,106.66078132102848 149.34403129472048,106.28482675914711 149.05783629172947,106.21127019800042 147.76314461175934,105.18964338169462 147.15668377219117,104.87089279379143 146.6524354336434,104.76464227852557 146.6251787666988,96.1905166732613 145.718894590711,95.56110709299537 145.21464625219232,95.3649263378611 143.17721039790194,94.89082059847715 142.7751745604619,93.52570527805074 142.87057289475342,92.76547992745327 142.57074955833377,90.78722079843283 140.79906620678958,88.326581551446 140.2471187011106,87.37009732452861 139.89959619753063,86.16016710669646 139.2318078573153,82.7591712098947 138.9456128543825,81.86801781487884 138.4481786825927,80.88691850951727 134.91162614623317,75.79315895769105 134.18251030537067,74.9591537035667 131.60675527888816,72.63696954872285 127.6340960713278,66.79846506239846 126.62559939429048,65.88257742489077 123.6750651972543,64.22250080428785 122.69382518716156,63.453782154138025 116.49293345669867,56.4204357167182 115.93417178431991,56.00331990800623 113.82178009589552,55.04639785779 112.84054008580279,54.2039685645359 108.96327921259217,49.37820896276389 108.05018086984637,48.04493246272614 108.15239337089588,47.930416742186935 109.22903171530925,47.954955840796174 109.67195255318074,47.48871150807099 110.10805922438158,47.406913939143124 110.31248422645149,47.64412662789982 110.5169092285796,48.35575991048972 111.13699840163463,49.48454281388695 112.09098174475366,50.327028433195665 112.33629174728412,51.02227598245372 112.16593757888768,51.25129720506811 111.83885757549433,51.21857993306912 111.42319340456743,50.76871590488736 109.66513838645187,48.21670569518756 109.33124421635875,48.04493246272614 108.1728358710825,47.954955840796174 107.92752586858114,47.82408054959524 107.71628669975325,47.08790251442406 107.70265836629551,45.370123901433544 107.52549003114109,44.69936090151896 106.41478085302515,42.96516359569068 104.87477917049546,40.936425864172634 104.71805333555676,40.95278688563121 104.5,41.22274319195276" stroke="#fff500" stroke-dasharray="none" stroke-linecap="round" stroke-linejoin="round" stroke-width="0.5"><title>2024-09-26 32.6km</title><desc>1727327929000</desc></polyline><polyline fill="none" opacity="1" points="95.42522142190501,200.285553372531 95.5,201.17839017029428 95.45170550164767,201.6478184471075 95.41509515612415,201.76070288151323 95.36524277072749,202.06266087551512 95.33720080394414,202.12850689204015 95.24139075076164,202.2573753770107 94.99991825901088,202.4135197974415 94.99680248492223,202.433272789051 95.03263388692358,202.50381878761755 95.0419812091859,202.4812441360832 95.0419812091859,202.49253146985166 95.06301268427342,202.48782841605907 95.05444430553689,202.51980912706176 95.04276015271171,202.51698730478756 95.0264023387499,202.54144306460466 95.0186129035319,202.53203701202483 95.0139392424062,202.54426487821047 94.98901304970786,202.54802729479843 94.99446565435937,202.5658987493075 94.99212882379288,202.55555212263653 94.98278150153055,202.57342356025538 94.98745516266354,202.56119573885053 94.97654995335688,202.57342356025538 94.97031840517957,202.55649272561413 94.16177502956998,203.18949333219234 93.32129496956259,203.6475173718668 93.31194764729662,203.68513624559318 92.72228740130959,204.09799170940414 92.6841191687381,204.06507691076104 92.69658226508545,204.07542157641683 92.69112966043758,204.06789818454445 75.67900314462531,205.8056129963138 74.45606181541734,205.23487941998656 73.93183282525933,205.06186479201324 55.77699616298196,222.13930215768096 55.38908228913351,222.00700096814444 55.12112571763646,221.8793892384415 54.93106349831942,221.82215096349 54.92950561127873,221.8108909267944 54.56418109955848,221.7527138182063 53.8093848269491,221.60163902923568 53.52039678036817,221.580056683752 53.23686133843512,221.59694721995083 45.19972208064428,228.33343016843764 44.82972390779469,228.83595378456403 44.099853827883635,229.9243344894162 43.847476126822585,230.33115034434604 43.69090847894404,230.55798340744195 43.46657274466634,230.82136416650656 43.15889005356439,231.09504604576932 42.82004962159044,231.32373196501112 42.45394616635167,231.49992814680218 42.1330214353693,231.60301986371041 41.33148855145191,231.7951418029047 41.135194783964835,231.85605755514143 40.881259195863095,231.95727039822532 40.51982940175367,232.15219524111626 39.842148537798494,232.60575203652343 39.62716012578676,232.7669272062708 39.26728821871802,233.07521255864822 38.56623904911248,233.8435318375973 38.123020185215864,234.34758431221007 37.675906603712065,234.7860280273385 36.669511573563796,235.53919598523544 36.59784876955746,235.53076539136555 36.52229124794394,235.5729182722639 36.464649427332915,235.58509573002038 35.63741140719503,236.00473838297376 35.5665275467145,235.96727117992532 35.492527912145306,235.95322093374716 35.35621279582847,235.97289127151862 34.5663640647399,236.18832515290842 34.243102503198315,236.2922933513123 33.74769442334218,236.50584543216564 33.27954936674723,236.77277755422483 33.00224547299513,236.9685221431796 32.69144700779725,237.22326394362653 32.40168001769416,237.50141029330143 32.26925961899178,237.65499539944494 31.53471587794411,238.34890128839697 25.13413695942654,242.82273554614721 23.902627251482045,243.98034119632712 23.358924673277215,244.55206400854104 22.869748141594755,245.09942016855666 22.210761922167876,245.81513750359363 21.99343667958601,246.027501528441 21.664722513392917,246.27821484767492 20.706621981593344,246.92647843181248 19.77033186841072,247.57281921980257 19.649595622529887,247.667287266549 19.493806918169867,247.81880796070664 19.376965389907127,247.97406695280415 19.24921865233773,248.18169779995833 19.15808226028821,248.3743594795792 19.082524738671054,248.59974909734547 19.05681960245056,248.77276175017732 19.035009183840884,249.59662514254023 14.963471395465604,249.714446627469 14.989955475208262,249.68639404904616 14.890250704418577,249.49750414777418 14.83728254493326,249.32637729966564 14.72589362132203,249.41801945125962 14.678378066488222,249.37967949410586 14.601262657834013,249.27307475299176 14.566989142873354,249.24689091684058 14.571662804006337,249.26185311933432 14.605157375441195,249.27868556396652 14.591915335571684,249.27868556396652 14.566989142873354,249.24502063957834 14.607494206007686,249.23192868658998 14.594252166138176,249.24221522287053 14.574778578094993,249.24689091684058 14.601262657834013,249.22725298394516 14.5,249.2749450237493 14.54595766778948,249.27962069875093" stroke="red" stroke-dasharray="none" stroke-linecap="round" stroke-linejoin="round" stroke-width="0.5"><title>2024-09-25 160.1km</title><desc>1727226501000</desc></polyline></svg>