<?xml version="1.0" encoding="utf-8" ?>
<svg baseProfile="full" height="300mm" version="1.1" viewBox="0,0,200,300" width="200mm" xmlns="http://www.w3.org/2000/svg" xmlns:ev="http://www.w3.org/2001/xml-events" xmlns:xlink="http://www.w3.org/1999/xlink"><defs /><rect fill="#222222" height="300" width="200" x="0" y="0" /><text fill="#FFFFFF" style="font-size:12px; font-family:Arial; font-weight:bold;" x="10" y="20">Over 10km Workouts</text><text fill="#FFFFFF" style="font-size:9px; font-family:Arial" x="10" y="290">Kin Azem</text><text fill="#FFFFFF" style="font-size:4px; font-family:Arial" x="65" y="280">SPECIAL TRACKS</text><rect fill="yellow" height="2.6" width="2.6" x="65" y="283" /><text fill="#FFFFFF" style="font-size:3px; font-family:Arial" x="70" y="285.5">Over 20.0 km</text><rect fill="red" height="2.6" width="2.6" x="65" y="287" /><text fill="#FFFFFF" style="font-size:3px; font-family:Arial" x="70" y="289.5">Over 40.0 km</text><text fill="#FFFFFF" style="font-size:4px; font-family:Arial" x="120" y="280">STATISTICS</text><text fill="#FFFFFF" style="font-size:3px; font-family:Arial" x="120" y="285">Number: 3</text><text fill="#FFFFFF" style="font-size:3px; font-family:Arial" x="120" y="290">Weekly: 1.5</text><text fill="#FFFFFF" style="font-size:3px; font-family:Arial" x="141" y="285">Total: 220.0 km</text><text fill="#FFFFFF" style="font-size:3px; font-family:Arial" x="141" y="290">Avg: 73.3 km</text><text fill="#FFFFFF" style="font-size:3px; font-family:Arial" x="167" y="285">Min: 27.3 km</text><text fill="#FFFFFF" style="font-size:3px; font-family:Arial" x="167" y="290">Max: 160.1 km</text><polyline fill="none" opacity="1" points="65.82835490067373,57.61922655224771 65.41635244357167,57.54563746711938 65.03093079014798,57.67646245005017 63.98763424559729,57.44751855801587 63.90124663361348,57.2267504738702 64.04744105384452,56.67891533945658 63.907891834533075,56.57261843804008 63.51582498018979,57.06321807880886 62.80478848164785,57.42298880772432 62.49910923928837,57.234927082885406 61.94755756284576,57.31669311670703 61.5355551057728,56.98145172781369 61.1567786532687,57.11227784031507 61.03716503668693,56.9323918680966 61.32955387720722,56.36820083394559 61.322908676287625,56.13925235810893 60.99729383114027,56.032954578782665 60.45238735564635,56.40090769356175 60.02044929578551,56.23737323167734 59.8410288709274,55.689529802213656 59.475542820291594,55.53417038176849 59.561930432217196,54.904552106359915 59.45560721750371,54.66742157271074 58.75786112080095,54.83095996388147 58.59173109778203,54.67559850197722 58.59173109778203,54.3239896188752 58.45218187844148,54.21768888639781 57.41553053475218,54.29128171961929 57.083270488714334,54.07050297128444 56.96365687213256,53.77613014635426 57.01017327859881,52.55773962735111 57.20288410529611,51.51922775833373 57.95379180935561,49.761079484371294 58.020243818551535,47.93746174966509 57.80095218817587,46.48998004362511 57.269336114492035,45.55768670876569 57.442111338459654,44.592667312332196 57.422175735700876,43.97112184763682 56.604816022416344,42.39269691532536 56.59152562057716,41.73023778197239 56.744365241756896,40.994164197727514 57.78101658541709,38.671388717280934 56.412105195689946,36.97832777589065 57.176303301617736,36.33217217271158 57.68798377254279,34.5 57.1164964933123,36.40578515906236 56.159587560687214,37.21552253232221 56.039973944134545,37.11737308240845 56.23932997175143,37.460895511714625 55.81403711283929,36.94561119014543 56.9304308675346,38.32787265530351 57.47533734305762,38.52416776911559 57.66804816975491,38.72046229292755 57.50856334765558,38.75317798951437 57.66804816975491,38.72046229292755 56.20610396715347,37.37910462102445 56.950366470293375,38.31969367941201 57.515208548575174,38.515988817831385 57.608241361478576,38.450557170581305 57.495272945816396,38.33605163017637 55.74093990269466,44.772587264102185 54.99003219860606,45.86027460046171 55.00996780139394,53.3427455182682 56.03332874321495,53.44087059148296 56.89055966201704,53.874254568712786 56.44533120034612,54.83913687268068 55.80739191189059,55.56687765887909 55.966876734019024,56.57261843804008 55.54822907599737,57.9789942199568 54.91693498849054,58.90293392755848 55.55487427691696,63.39979908859095 53.71415362181142,66.70275385216519 53.6410564116959,67.85547847604903 53.335377169336425,68.534023182081 52.69079267999041,69.20438573381398 52.418339442199795,69.85021632432472 52.24556421826128,69.98919169312285 51.029492449742975,70.79851297029381 50.39819836226525,70.66771425077604 50.152325928153004,71.12550862407079 50.105809521715855,71.70592188121373 50.29852034844225,72.51522190513788 50.24535874108551,73.31633731401962 50.40484356318484,74.12561740237288 51.102589659858495,75.1310726483207 51.18233207089361,75.49891826517705 49.42799902780098,79.92107802420651 49.527677041623974,82.3159491318147 49.74696867199964,83.08425097293366 49.647290658176644,83.89341017387778 48.49102569790557,85.09487051775795 48.245153263851535,86.73764791792928 47.20185671930085,87.97991984504915 46.75662825757172,88.17606588715716 46.47088461797102,88.10251119030727 46.131979371013585,88.33134775329381 45.66681530655478,89.2630312083711 45.44752367615001,89.45917340258165 45.30797445680946,90.1129764685902 44.297903916827636,91.35518428985233 43.32770458236337,93.17759123053838 42.88912132161204,93.73329266270594 42.716346097615315,94.58317983984307 41.99866439815378,95.44122780790349 41.95214799171663,96.54441580155253 40.33736416793545,98.33399231445219 39.95194251451176,99.44530286265945 39.50006885189214,100.12351987781585 39.6263276693644,100.156204857587 39.94529731362127,100.83441450371174 39.94529731362127,101.42273524958728 39.4402620435867,101.83128821078571 39.154518403986,101.79860406776424 39.10800199757796,101.92116951991193 39.28742242240696,102.03556373476749 40.981948657281464,101.22662892206426 41.47369352541864,101.16126001562225 41.872405580681516,101.26748445544945 42.90241172342212,102.00287969378405 43.60680302101537,102.83631763900485 48.876447351358365,106.54580482032907 50.49787637608824,107.04420006925648 52.57782426432823,108.16353294074361 54.3853189148067,108.3596184804046 55.70106869717711,108.20438414328964 56.63139682612382,108.32693759792892 57.581660557800205,108.62923513809801 59.80115766535164,109.79756115304917 61.63523311956669,110.24691175916814 63.21679093874991,109.96913174857036 64.57241192660877,110.18972185336315 65.81506449883454,111.1047543494351 67.78868917236105,111.80735990467656 68.30701484417659,112.10147161855275 69.38353739338345,113.1308522096515 69.94173427074566,114.21740304860577 70.89199800245115,115.5" stroke="#ffff00" stroke-dasharray="none" stroke-linecap="round" stroke-linejoin="round" stroke-width="0.5"><title>2026-06-28 27.3km</title><desc>1782622347000</desc></polyline><polyline fill="none" opacity="1" points="180.0073995771818,94.17592300254182 181.4915433403803,93.84876224924665 182.3604651163041,94.00853863434168 183.15327695562155,93.7118107532151 184.07293868920533,93.521599869091 184.1934460888151,93.45312381619442 184.18710359410034,93.24008675138612 184.2885835095076,93.43029844939156 184.9291754756996,93.25530370747583 185.03065539110685,93.13356796029257 185.19556025369093,93.14117645110673 185.25898520083865,93.3009545545865 185.32875264273025,93.07270000225253 185.32875264273025,93.32377996627474 185.30972515855683,93.04226600210677 185.30338266384206,93.13356796029257 185.40486257930752,93.11074248263321 185.30972515855683,93.16400191820867 185.30338266384206,93.07270000225253 185.5,93.17921889188437 185.37949260044843,93.23247827203159 185.4302325581375,93.15639343006478 185.32875264273025,93.08791699702851 185.360465116275,93.17161040550127 185.27801268498297,93.14878494102595 185.3858350951341,93.22486979179666 185.37315010570455,93.09552549311047 185.25898520083865,93.11835097608127 185.27801268498297,93.24008675138612 185.37949260044843,93.25530370747583 185.28435517969774,93.25530370747583 185.21458773786435,92.99661497550551 185.360465116275,93.16400191820867 185.25264270615298,93.27812913499656 185.2019027484057,93.04987450347107 185.30338266384206,93.16400191820867 184.96723044398823,93.17161040550127 184.87843551798142,93.3009545545865 184.1046511628083,93.51399142229639 184.07293868920533,93.68137704870605 183.95243128965376,93.5368167600609 182.33509513741592,94.01614702395455 181.34566596194054,93.87919587633951 180.03911205072654,94.16831463140988 179.7790697674791,94.45743211598892 179.53171247357386,95.45411686322768 179.6141649048659,96.26819167601207 178.9926004228182,96.49643514278432 178.05391120509012,97.12790460876568 177.40697674421244,97.30288905110501 176.70295983087271,97.20398485828628 176.60147991543636,97.4398330726981 175.8847780126962,97.4170090888947 175.94186046512914,97.57677680926281 175.87209302326664,97.68328840733011 175.68816067653825,97.72893618230592 175.32029598308145,97.5843847862634 175.21247357293032,97.73654414170596 174.69873150106287,97.75936801469652 174.3498942917504,97.97999837856332 174.4133192388981,98.77882626664359 174.24841437631403,99.01466883653484 173.7283298097027,98.97662976953143 173.5887949260068,100.20147668188292 173.0179704017064,100.25473037829215 172.96088794927346,100.11018453058932 173.20824524312047,100.15583062206133 172.82135306554846,100.2242996999048 172.96088794927346,100.11018453058932 172.834038054978,99.9732460662126 173.20824524312047,99.83630731690937 173.01162790699163,100.23190737082768 173.2906976744125,100.247122710025 172.28224101482192,100.18626133212092 172.23150105707464,100.5057829380894 172.07293868923443,100.37645295114635 172.09196617337875,100.46013708935789 171.946088794939,100.44492179944064 171.63530655391514,101.715386393058 170.4556025369966,104.08127605055051 170.1575052854314,104.43120749365335 169.65644820296438,104.6594226498346 166.36469344611396,104.81156564768025 162.30549682874698,104.834387067036 161.81712473573862,105.06260082522931 161.72198731501703,106.61443339641119 159.24207188159926,106.7057165259248 158.360465116275,106.52315014031046 156.81923890064354,105.91459186438442 154.7706131078303,105.58748946616106 154.3520084566553,105.61791766480746 153.73044397466583,105.37449168174498 152.89323467231588,104.97131541689305 152.49365750528523,104.560529512637 152.2272727272939,104.4692434079625 151.84672304440755,104.1193121670949 151.580338266358,104.05084714146506 150.37526427060948,103.09993664381909 149.81078224102384,102.80324975646363 149.3414376321307,102.70435383015138 149.3160676532716,94.723723412033 148.472515856236,94.1378811380855 148.00317124734283,93.95527988240792 146.10676532768412,93.51399142229639 145.73255813954165,92.2433684629359 145.82135306554846,91.53576539798087 145.54228329809848,89.69444003060926 143.89323467231588,87.4041245714543 143.37949260041933,86.51384753712773 143.05602536999504,85.38766787231725 142.43446088794735,82.22208661593322 142.16807610992691,81.39261825741414 141.70507399577764,80.47942998376675 138.41331923892722,75.73825702999602 137.73467230441747,74.96198105663643 135.33720930232084,72.80053692159709 131.639534883725,67.36616977502126 130.7008456659387,66.51367926158855 127.95454545452958,64.96851202416292 127.04122621563147,64.25300356011576 121.26955602536327,57.70650061582273 120.74947145878104,57.31825728185504 118.78329809725983,56.42757273006282 117.86997885836172,55.64345582387614 114.26109936577268,51.15173204450548 113.41120507399319,49.91074404388928 113.50634249471477,49.80415502422693 114.5084566596197,49.826995542993245 114.9207188160508,49.39302432828117 115.32663847782533,49.31688873186067 115.51691331923939,49.537681718415115 115.70718816068256,50.200056225512526 116.28435517972684,51.25070553823025 117.17230443973676,52.03487487162056 117.40063424946857,52.68199785478646 117.24207188162836,52.89516638295754 116.93763213529019,52.86471377844282 116.55073995771818,52.44598903464794 114.91437632136513,50.07062724913703 114.60359408034128,49.91074404388928 113.52536997882999,49.826995542993245 113.29704016912729,49.70517935111275 113.10042283299845,49.019959062643466 113.0877378435689,47.42108392580121 112.92283298098482,46.79675068800134 111.88900634250604,45.18259334915638 110.4556025369966,43.29428347408248 110.30972515855683,43.30951199668198 110.10676532768412,43.56078210968553 108.28012684988789,47.35255983595562 107.96300211414928,47.17744239267631 104.5,43.697838129759475" stroke="#fff500" stroke-dasharray="none" stroke-linecap="round" stroke-linejoin="round" stroke-width="0.5"><title>2024-09-26 32.6km</title><desc>1727327929000</desc></polyline><polyline fill="none" opacity="1" points="95.5,200.13461931227084 95.32673215090472,200.3307753219924 95.27156615411513,200.41805849500452 95.22261604427695,200.5231724400719 95.22183905840575,200.56071279737716 95.29642970196437,201.4513057055965 95.24825657800102,201.9195542089019 95.21173824209109,202.03215494061624 95.16201114638898,202.3333540496942 95.13403965505495,202.39903458111803 95.03847039299944,202.5275791920658 94.79760477318632,202.68333118822193 94.79449682970153,202.7030345363455 94.83023817974026,202.77340323775115 94.83956201018373,202.7508853211375 94.83956201018373,202.76214428742514 94.86054062868425,202.75745305341206 94.85199378411198,202.78935339005875 94.84033899605856,202.78653865962588 94.82402229277795,202.81093295689607 94.81625243407325,202.80155054373427 94.81159051885334,202.81374767868147 94.78672697100046,202.81750063951313 94.79216587209521,202.83532717924027 94.78983491448162,202.82500655585136 94.78051108403815,202.84283307873102 94.7851729992617,202.83063598845274 94.77429519707584,202.84283307873102 94.7680793101099,202.82594479489399 93.96156797666845,203.45735453576617 93.12320022254426,203.91422746321496 93.11387639209715,203.9517517926779 92.52569808822955,204.3635696625406 92.48762578058086,204.33073758581577 92.50005755450547,204.34105625311804 92.494618653418,204.33355176913574 75.52524724457908,206.06689933248344 74.30537942810042,205.49760013151717 73.78246793734434,205.32502032625234 55.67325825667285,222.35953844483083 55.28631929323092,222.22756975643733 55.019036153822526,222.10027874226307 54.82945160145391,222.04318431932006 54.82789762971515,222.03195258150117 54.46349125650886,221.97392168441183 53.71059194812551,221.82322657864825 53.4223301902166,221.80169847420802 53.139507333402435,221.81854656088217 45.12256712294766,228.53809928910323 44.75349883452145,229.0393599560648 44.02546307398734,230.1250053277763 43.77371965198836,230.5307987675842 43.61754549204488,230.75706175075175 43.39377356137629,231.01978057772158 43.08686414258045,231.29277463597646 42.74887528897307,231.5208858186652 42.38369192990285,231.69663918182323 42.06357375130756,231.79947180723138 41.264055290699616,231.99111090296356 41.06825485136869,232.05187356090664 40.814957457627315,232.15283203450053 40.45443601377701,232.3472669896346 39.77845830655497,232.7996838999552 39.564010206337116,232.96045400208004 39.205042734221934,233.26796456753164 38.50575545089305,234.03435289605295 38.063650490654254,234.5371385791541 37.61766060106311,234.97448039159372 36.61379485654834,235.72575547756878 36.54231215647087,235.71734607158214 36.46694452704833,235.7593930132889 36.40944757263787,235.77153986649319 35.5842885783095,236.19012786784242 35.513582864106866,236.15275482787638 35.43976920642308,236.13873989296735 35.30379667910529,236.15836079497967 34.515933006554405,236.37325324501853 34.193483870349155,236.47696014913708 33.699320856798295,236.68997552800556 33.23235234870663,236.95623679263645 32.95574537885841,237.15148943363693 32.64572801657414,237.40559101353847 32.356689272801304,237.68303832203583 32.22460167483587,237.83623743600856 31.491903999078204,238.52839939127443 25.10741110226445,242.99098994812084 23.87899644121353,244.14568628808775 23.33666030369568,244.71597223878052 22.84871317710713,245.2619527758743 22.191383130775648,245.97587136040238 21.974604072940565,246.18770166910417 21.64671603564784,246.43778489222495 20.691023415092786,247.0844192515351 19.75708639891309,247.72913564709597 19.63665358900471,247.82336627546647 19.481256414928794,247.97450616576043 19.364708534376405,248.1293749588549 19.237282851638156,248.33648398534933 19.1463755048062,248.52866146502492 19.07100787537638,248.75348463054888 19.045367341655947,248.92606246563628 19.023611737284227,249.74785531335328 14.962306592871755,249.86538068772916 14.988724112463387,249.83739861142658 14.889269921059167,249.64898343081495 14.836434881872265,249.47828666102032 14.725325902410987,249.56969849631696 14.677929764315195,249.53145489566396 14.601008163150254,249.4251180750298 14.566820784853917,249.399000044451 14.57148270007383,249.4139246437344 14.604893092502607,249.43071478483853 14.59168433270679,249.43071478483853 14.566820784853917,249.3971344675938 14.607224050112563,249.38407541747983 14.594015290316747,249.39433610149808 14.574590643558622,249.399000044451 14.601008163150254,249.3794114658749 14.5,249.42698364539774 14.545842166357033,249.4316475694286 14.555165996800497,249.4213869329933 14.549727095705748,249.44470654232555 14.5101008163183,249.4176557892315 14.524863547852874,249.42045414721542 14.552835039186903,249.3971344675938 14.542734222872241,249.38594099736565 14.572259685948666,249.380344256414 14.549727095705748,249.3971344675938 14.536518335909932,249.39340331258154 14.561381883762806,249.38967215583853 14.55905092615285,249.37847867523033 14.573036671816226,249.38500820747777 14.541957236997405,249.3794114658749 14.555942982668057,249.35142769946833 14.57070571420627,249.3635540101941 14.556719968539255,249.37661309361738 14.568374756596313,249.40366398470087 14.569928728335071,249.37661309361738 14.574590643558622,249.38780657682128 14.580029544649733,249.3794114658749 14.57148270007383,249.3691507628282 14.604893092502607,249.35609166729319 14.613439937074872,249.37194913768417" stroke="red" stroke-dasharray="none" stroke-linecap="round" stroke-linejoin="round" stroke-width="0.5"><title>2024-09-25 160.1km</title><desc>1727226501000</desc></polyline></svg>