<?xml version="1.0" encoding="utf-8" ?>
<svg baseProfile="full" height="300mm" version="1.1" viewBox="0,0,200,300" width="200mm" xmlns="http://www.w3.org/2000/svg" xmlns:ev="http://www.w3.org/2001/xml-events" xmlns:xlink="http://www.w3.org/1999/xlink"><defs /><rect fill="#222222" height="300" width="200" x="0" y="0" /><text fill="#FFFFFF" style="font-size:12px; font-family:Arial; font-weight:bold;" x="10" y="20">Over 10km Workouts</text><text fill="#FFFFFF" style="font-size:9px; font-family:Arial" x="10" y="290">Kin Azem</text><text fill="#FFFFFF" style="font-size:4px; font-family:Arial" x="65" y="280">SPECIAL TRACKS</text><rect fill="yellow" height="2.6" width="2.6" x="65" y="283" /><text fill="#FFFFFF" style="font-size:3px; font-family:Arial" x="70" y="285.5">Over 20.0 km</text><rect fill="red" height="2.6" width="2.6" x="65" y="287" /><text fill="#FFFFFF" style="font-size:3px; font-family:Arial" x="70" y="289.5">Over 40.0 km</text><text fill="#FFFFFF" style="font-size:4px; font-family:Arial" x="120" y="280">STATISTICS</text><text fill="#FFFFFF" style="font-size:3px; font-family:Arial" x="120" y="285">Number: 2</text><text fill="#FFFFFF" style="font-size:3px; font-family:Arial" x="120" y="290">Weekly: 2.0</text><text fill="#FFFFFF" style="font-size:3px; font-family:Arial" x="141" y="285">Total: 192.7 km</text><text fill="#FFFFFF" style="font-size:3px; font-family:Arial" x="141" y="290">Avg: 96.4 km</text><text fill="#FFFFFF" style="font-size:3px; font-family:Arial" x="167" y="285">Min: 32.6 km</text><text fill="#FFFFFF" style="font-size:3px; font-family:Arial" x="167" y="290">Max: 160.1 km</text><polyline fill="none" opacity="1" points="141.0411583322275,118.80070510191581 140.9977208741475,118.9049094105576 140.91084595795837,118.85280727429927 141.04839790859842,118.87885834695771 141.0773562139657,118.67044951280695 140.86740849984926,118.80938879981841 141.05563748494023,118.73991918845422 141.13527282481664,117.68918348124134 141.3596996916749,117.59366132448486 141.42485587880947,117.17683594597474 141.25110604640213,116.2302863916193 141.68548062743503,115.9697660722668 142.27912588819163,115.9176618999627 142.36600080440985,115.76134916616866 142.82933369086822,115.93502996142342 143.42297895162483,115.7352970122156 143.52433302052668,115.81345344691363 143.46641640973394,115.90029383449291 143.50261429147213,115.81345344691363 143.60396836037398,115.9176618999627 143.4084997989412,115.93502996142342 143.8428743799741,115.86555769150436 143.16235420297016,115.99581814488192 143.4157393752539,115.92634593118419 143.0971980158356,115.58766796927375 143.82839522726135,115.59635203865037 143.98042633064324,115.30977721884847 144.85641506905085,115.41398637075326 145.89167448721128,115.0405695738882 146.56495508781518,114.46741459950863 147.29615229924093,114.25899352435226 147.1224024668336,113.4774093411761 147.4409438262519,112.25291110021499 147.73052688030293,111.88816308401147 149.42458774635452,111.51472875587206 150.41640970640583,111.69710389231477 151.32135675023892,111.35840685787116 152.37109532108298,111.1412925707773 152.50864727178123,111.06313127377507 152.5014076954394,110.81996227393392 152.6172409170249,111.03707749002933 153.34843812845065,110.8373315143399 153.46427135006525,110.69837747874408 153.65250033518532,110.7070621135208 153.7248960986908,110.88943921138707 153.8045314385672,110.62890036455065 153.8045314385672,110.9154930463701 153.78281270948355,110.59416178333777 153.77557313314173,110.69837747874408 153.89140635478543,110.67232356845489 153.78281270948355,110.73311601174646 153.77557313314173,110.62890036455065 154.0,110.75048527221952 153.86244804935995,110.81127765223937 153.9203646601527,110.72443138001836 153.8045314385672,110.64626964910713 153.8407293203054,110.74180064249958 153.74661482774536,110.71574674727162 153.86968762570177,110.80259302954073 153.85520847298903,110.6549542898938 153.7248960986908,110.68100820623658 153.74661482774536,110.81996227393392 153.86244804935995,110.8373315143399 153.75385440408718,110.8373315143399 153.67421906423988,110.54205388141418 153.8407293203054,110.73311601174646 153.717656522349,110.86338536738913 153.65973991152714,110.6028464301562 153.77557313314173,110.73311601174646 153.39187558658887,110.74180064249958 153.2905215176288,110.88943921138707 152.40729320285027,111.13260798624833 152.37109532108298,111.3236686141172 152.23354337044293,111.1586617368448 150.38745140098035,111.7057884115784 149.258077490289,111.54946691126679 147.76672476204112,111.87947858584084 147.46990213167737,112.20948881022923 147.18755865396815,113.34714451984473 147.2816731465573,114.27636196937237 146.572194664157,114.53688816270733 145.50073736425838,115.25767258869018 144.76230057651992,115.45740680803283 143.95870760158869,115.34451361891115 143.8428743799741,115.6137201744059 143.02480225233012,115.58766796927375 143.08995843949378,115.77003321545635 143.01032309964648,115.89160980023735 142.80037538547185,115.94371399063675 142.38047995709348,115.77871726373996 142.25740715913707,115.95239801883872 141.6710014747223,115.97845009747834 141.27282477545668,116.2302863916193 141.34522053893306,117.14210039337195 141.1569915538421,117.41130050599895 140.56334629305638,117.3678811982536 140.40407561336178,118.76597030024277 139.75251374181244,118.82675619262591 139.68735755464877,118.66176579882449 139.96970103232889,118.71386806759983 139.52808687492507,118.79202140299458 139.68735755464877,118.66176579882449 139.5425660276378,118.50545877567492 139.96970103232889,118.34915142729005 139.74527416544151,118.80070510191581 140.06381552488892,118.81807249673875 138.912722885143,118.74860289337084 138.85480627429206,119.11331759417226 138.6738168655429,118.96569519051263 138.69553559459746,119.06121560246538 138.52902533853194,119.04384826390014 138.17428609734634,120.49400720612175 136.82772489610943,123.1945279922802 136.48746480763657,123.59395369365666 135.91553827590542,123.85444757215737 132.1581981499039,124.02810965603567 127.52486928543658,124.05415893400641 126.96742190641817,124.31465121678048 126.8588282611745,126.08597478710726 124.02815390803153,126.19016899071721 123.02185279529658,125.98178043901135 121.26263574205223,125.28714775886328 118.92425258079311,124.91378003953287 118.446440541622,124.94851199867844 117.73696205930901,124.67065587590332 116.78133798099589,124.21045441204478 116.32524467087933,123.74156700236199 116.02118246417376,123.63736940278613 115.58680788311176,123.23794393225398 115.28274567634799,123.15979522220732 113.90722616974381,122.07438806615392 113.26290387453628,121.7357378236411 112.72717522454332,121.62285407023592 112.69821691914694,112.51344431291363 111.735353264492,111.84474058313936 111.19962461455725,111.6363122293551 109.03499128570547,111.13260798624833 108.60785628101439,109.68226827905164 108.70921034991625,108.87458192765916 108.39066899049794,106.77281973731442 106.50837913932628,104.15856235437968 105.92197345488239,103.14236465090653 105.55275506101316,101.85689827924216 104.84327657861286,98.24357761738065 104.53921437190729,97.29678936098935 104.01072529828525,96.25443985544553 100.25338517228374,90.84267600929888 99.47875050274888,89.95660366217635 96.74219064219506,87.48944514686445 92.52151762970607,81.28644181049458 91.45006032977835,80.3133751485584 88.31532376992982,78.54965965594602 87.27282477542758,77.73294976683246 80.6848102962831,70.26051028865186 80.0911650355556,69.81735386749642 77.84689636679832,68.8006910073309 76.80439737229608,67.90566870685143 72.68507842876716,62.77863609423366 71.7149751977413,61.36212291052652 71.82356884301407,61.240457953637815 72.96742190641817,61.26652903244394 73.43799436921836,60.7711769849775 73.90132725567673,60.68427277959563 74.11851454616408,60.93629469774896 74.33570183673874,61.69235536988708 74.9945032846299,62.89160838616954 76.00804397370666,63.786690529144835 76.26866872236133,64.5253425037663 76.08767931358307,64.76866156112374 75.74017964873929,64.73390174414817 75.29856549136457,64.2559526264813 73.43075479287654,61.54461997574981 73.07601555166184,61.36212291052652 71.84528757203952,61.26652903244394 71.58466282344307,61.12748317405931 71.3602359565557,60.34534541618632 71.34575680387206,58.52032558575593 71.15752781875199,57.80768673516286 69.9774768735806,55.96522319005453 68.34133261829265,53.80983100928279 68.17482236222713,53.82721345216123 67.94315591902705,54.11402317760803 65.85815793002257,58.442109457471815 65.49617911246605,58.24222342555004 61.543370424973546,54.270464383524086 60.60222549937316,55.183031578417285 60.22576752916211,55.617583481282054 60.290923716296675,55.669729540357366 60.131653036602074,55.56543738592882 59.834830406238325,55.80878552059585 59.168789381947136,55.91307733649592 47.12213433434954,54.722403811334516 46.789113822218496,55.183031578417285 46.89046789112035,55.11350304022926 47.94020646199351,55.765330554466345 49.91661080572521,57.58172666087194 49.279528086888604,57.04289604319638 47.90400858022622,57.52958193163067 46.87598873843672,58.12924412833672 46.94114492557128,58.18138844050554 46.97734280733857,58.094481233398255 46.71671805871301,58.04233686076623 47.09317602895317,57.96412023382436 47.15833221608773,57.83375900759711 46.74567636413849,57.3905291430201 46.217187290487345,56.15642434274196 46.173749832378235,55.78271254393621 46.0,55.64365651535627 46.81807212761487,55.14826731739595 46.86150958572398,54.9396814126012 47.63614425525884,54.21831735117303 47.7374983241607,53.80983100928279 47.50583188096061,54.09664080121729 47.491352728247875,54.39214065134729 47.368279930291465,54.29653788611904 47.44791527016787,54.20093499898212 47.52755061001517,54.27915555207437" stroke="#ffff00" stroke-dasharray="none" stroke-linecap="round" stroke-linejoin="round" stroke-width="0.5"><title>2024-09-26 32.6km</title><desc>1727327929000</desc></polyline><polyline fill="none" opacity="1" points="154.0,176.1144193369264 153.8225333283808,176.12532334138905 153.69920903115417,176.18347783563786 153.45657098295487,176.39670815383306 153.35530469011064,176.4609186860789 153.30517286196846,176.5857040398987 152.75372275242262,177.15751649244157 152.6604775520791,177.33922986244852 152.57124289798958,177.6432896865399 152.49303724608762,177.83831932120665 152.2754651119576,178.1375190536919 151.92454231497322,178.48516120149452 150.5619592261137,179.71211039396712 150.33837127260267,179.9652336422305 150.26718407664885,180.0778654208989 150.20401797318482,180.21350634901137 150.20301533662496,180.26194910228514 150.29926844665533,181.41118623312195 150.23710497975844,182.01542253625303 150.18998106130675,182.1607245487121 150.1258123212865,182.54939730450587 150.08971740502602,182.63415264534524 149.96639310779938,182.8000289267602 149.65557577332947,183.0010141081293 149.65156522707548,183.02643966346022 149.69768650896367,183.11724470329227 149.70971814771838,183.088187178083 149.70971814771838,183.10271595098675 149.73678933491465,183.09666229811228 149.72576033272708,183.13782706713573 149.7107207842855,183.13419488828458 149.68966541646296,183.1656737288913 149.67963905083525,183.1535664939447 149.67362323146153,183.16930589658477 149.6415388614514,183.17414878484306 149.64855731738862,183.19715247281238 149.64554940770176,183.18383455448839 149.63351776894342,183.20683822071805 149.63953358832805,183.19109887571904 149.6254966764427,183.20683822071805 149.61747558393836,183.18504527504865 148.57673883173993,183.99982777812693 147.49489398046717,184.589384833268 147.48286234170882,184.63780690392468 146.7238664636643,185.16922410118787 146.67473727208562,185.12685699798476 146.69077945708705,185.1401723921399 146.68376100114983,185.13048847083246 124.78617846930865,187.36723138901834 123.21203906568917,186.63259744541938 122.53726465892032,186.40989735605945 99.16881428942361,208.3915463756266 98.66950128114695,208.22125160299856 98.32459430353629,208.05699298544096 98.07995098221,207.98331731364487 98.07794570908663,207.96882367684884 97.60770916112233,207.89393956194544 96.63615433176165,207.69947988302738 96.26417616695471,207.6716996292762 95.89921645808863,207.69344070380157 85.55401240298306,216.36447258225235 85.07776003564504,217.01130837600704 84.13828957629448,218.41224471917576 83.81343532993924,218.9358878833791 83.61190538081428,219.22786171248845 83.32314605071952,219.5668788191124 82.92710460841045,219.91915526927005 82.49095770359054,220.2135140483333 82.01971851907001,220.44030935396222 81.6066322551851,220.57300642609243 80.57491923205089,220.82030096718154 80.32225481822752,220.8987101954972 79.99539529874892,221.0289888283678 79.5301719336021,221.27989119679023 78.65787812395502,221.86369812716293 78.3811504326186,222.0711587628648 77.91793234059514,222.4679759356486 77.01555943406493,223.45693723957265 76.44505922982353,224.10574094162348 75.86954584276828,224.67009469414643 74.57413940361585,225.63955359765532 74.48189683983583,225.62870194869265 74.38464109324195,225.68296007965455 74.310445987594,225.69863459782846 73.24564595788615,226.2387880947108 73.15440603066963,226.1905612507453 73.0591555572064,226.17247612629035 72.88369415871057,226.197795291675 71.86702068401792,226.47509638001975 71.45092651044979,226.6089216371456 70.81324965650492,226.88380051904096 70.21066508224976,227.2273888510308 69.8537264658953,227.4793463760252 69.45367447732497,227.8072436318098 69.08069367596181,228.16526663629793 68.91024546028348,228.36295753251397 67.96475918154465,229.25613578736284 59.726094544912485,235.01474302566476 58.14092613910179,236.50478398207088 57.441085818260035,237.2406912452916 56.81143005681588,237.94523436499549 55.963199524674565,238.8664877661422 55.68346392364765,239.13983741214815 55.26035129414231,239.46254930796204 54.027108321879496,240.29697793291052 52.82193917338009,241.12893158288898 52.66653050614332,241.25052848309588 52.46600319357822,241.44556211998406 52.31560770915894,241.64540760021282 52.1511753128616,241.91266481861476 52.033866835012304,242.16065410004285 51.93661108841479,242.4507699625292 51.90352408184117,242.67346750953584 51.87545025808504,243.73392380301993 46.63466894426165,243.8855806630745 46.66875858739513,243.84947208777885 46.54042110735827,243.60633774483267 46.472241821084026,243.3860675583628 46.32886479260196,243.50402703721284 46.26770396226857,243.45467680605543 46.16844294255134,243.31745785728526 46.12432693378287,243.28375468016748 46.13034275316386,243.30301365191735 46.17345612536519,243.32467995243496 46.15641130379663,243.32467995243496 46.12432693378287,243.28134730618785 46.17646403505205,243.26449567268992 46.15941921348349,243.27773624417114 46.13435329941785,243.28375468016748 46.16844294255134,243.2584772255277 46.0381001893802,243.319865222893 46.09725574659387,243.32588363447303 46.10928738534858,243.31264312439362 46.10226892940409,243.34273516832673 46.051134464702045,243.30782838927553 46.070184559393965,243.31143944082396 46.106279475654446,243.28134730618785 46.09324520033988,243.26690305057946 46.13134538972736,243.25968091524192 46.10226892940409,243.28134730618785 46.08522410783553,243.2765325565506 46.11730847784929,243.27171780468143 46.1143005681588,243.2572735356789 46.132348026290856,243.26569936170563 46.09224256377274,243.2584772255277 46.1102900219048,243.22236646929196 46.12934011660036,243.23801447908136 46.11129265847194,243.2548661555602 46.12633220691714,243.28977311267772 46.1283374800405,243.2548661555602 46.13435329941785,243.2693104279124 46.14137175535143,243.2584772255277 46.13034275316386,243.24523662949377 46.17345612536519,243.22838493738345 46.18448512755276,243.2488477028137 46.06617401314361,243.28014361898568 46.06717664970347,243.2620882942474 46.068179286270606,243.2981989123291 46.04612128188819,243.32949467974322 46.0551450109524,243.34634620773795 46.04812655501155,243.33551308573715 46.02907646031963,243.359586674831 46.023060640945914,243.347549887264 46.0551450109524,243.33551308573715 46.01102900218757,243.34634620773795 46.01002636562771,243.36319770837963 46.0,243.347549887264 46.02105536781528,243.34393884826932 46.02005273125178,243.36680874067588 46.01203163875107,243.34995724589407 46.09725574659387,243.2632919835387 46.08321883470853,243.2620882942474 46.051134464702045,243.32347627026047 46.02606855063277,243.3331057237583 46.03208437000649,243.31264312439362 46.02606855063277,243.3270873163674 46.014036911878065,243.31143944082396 46.1122952950318,243.26088460481242 46.105276839094586,243.27412518089477 46.106279475654446,243.26088460481242 46.09324520033988,243.26690305057946 46.06416874002025,243.23319970934972 46.09224256377274,243.32467995243496 46.12131902409601,243.34514252807094 46.10828474878144,243.35356828278873 46.13635857254121,243.32347627026047 46.15741394035649,243.33069836122013 46.33488061197568,243.54615509773885 46.463218092019815,243.4149557179162 46.48828400608909,243.41254837435554 46.56047383861005,243.64003987483193 46.67377177020899,243.85789743324858 46.64269003676236,243.8819698111938 46.67978758958634,243.85428657173907" stroke="red" stroke-dasharray="none" stroke-linecap="round" stroke-linejoin="round" stroke-width="0.5"><title>2024-09-25 160.1km</title><desc>1727226501000</desc></polyline></svg>