<?xml version="1.0" encoding="utf-8" ?>
<svg baseProfile="full" height="200mm" version="1.1" viewBox="0,0,200,200" width="200mm" xmlns="http://www.w3.org/2000/svg" xmlns:ev="http://www.w3.org/2001/xml-events" xmlns:xlink="http://www.w3.org/1999/xlink"><defs /><rect fill="#1a1a1a" height="200" width="200" x="0" y="0" /><rect fill="#1a1a1a" height="200" width="180" x="10" y="0" /><text alignment-baseline="middle" fill="#e1ed5e" style="dominant-baseline: central; font-size:9.0px; font-family:Arial;" text-anchor="middle" x="100.0" y="100.0">2026</text><line stroke="#e1ed5e" stroke-width="0.3" x1="100.0" x2="100.0" y1="15.0" y2="10.0" /><path d="M 100.0 14.0 a86.0,86.0 0 0,1 42.46469731375804,11.215312516191453" fill="none" id="id25" stroke="none" /><text fill="#e1ed5e" style="font-size:6.75px; font-family:Arial;" text-anchor="middle"><textPath startOffset="22.20632615414155" xlink:href="#id25">January</textPath></text><line stroke="#e1ed5e" stroke-width="0.3" x1="143.23703022742887" x2="145.7803849466894" y1="26.81831364943548" y2="22.513508569990506" /><path d="M 143.74570117128098 25.957352633546492 a86.0,86.0 0 0,1 28.547481713284135,27.462654790039103" fill="none" id="id26" stroke="none" /><text fill="#e1ed5e" style="font-size:6.75px; font-family:Arial;" text-anchor="middle"><textPath startOffset="19.985693538727396" xlink:href="#id26">February</textPath></text><path d="M 110.68208982089419 81.91981866633111 l 21.479905600014668 -36.356236915244864 a63.227506523863745,63.227506523863745 0 0,0 0.9322683084885721,0.5616812246430641 l -22.10253597472088 35.98110908114319" fill="red" stroke="none" /><path d="M 112.48926042617603 83.11751280151076 l 28.474471856976923 -38.49066239355715 a68.878248078105,68.878248078105 0 0,0 0.9470885264255755,0.7133274428994567 l -29.13280653716088 37.99481836115184" fill="red" stroke="none" /><path d="M 113.06298171725822 83.55741782278167 l 16.94781411045781 -21.332482297457563 a48.245241861542965,48.245241861542965 0 0,0 0.6457892153673271,0.5221833005307661 l -17.31250672438963 21.037592899662666" fill="red" stroke="none" /><path d="M 117.65298651832404 88.62581576622439 l 44.708450318301345 -28.80657900005251 a74.18519082931155,74.18519082931155 0 0,0 0.6824062683547903,1.0794028363174593 l -45.19768418290209 28.032728516020843" fill="red" stroke="none" /><line stroke="#e1ed5e" stroke-width="0.3" x1="172.23445277983987" x2="176.4835382374775" y1="55.19839476539836" y2="52.563006222186495" /><path d="M 173.08426987136738 54.67131705675599 a86.0,86.0 0 0,1 12.851231095245387,41.99856678651699" fill="none" id="id27" stroke="none" /><text fill="#e1ed5e" style="font-size:6.75px; font-family:Arial;" text-anchor="middle"><textPath startOffset="22.20632615414155" xlink:href="#id27">March</textPath></text><path d="M 118.3937258080291 89.86733742301442 l 24.32937228626114 -13.402467920824328 a48.77668990740648,48.77668990740648 0 0,0 0.3987886954301972,0.7388948871257969 l -24.556469080909803 12.981692050366073" fill="red" stroke="none" /><path d="M 119.04729006885535 91.15688171328212 l 57.14187020656606 -26.529354860153646 a84.0,84.0 0 0,0 0.5975907321466121,1.3167119646317489 l -57.59006325567602 25.541820886679833" fill="red" stroke="none" /><path d="M 119.47837535516314 92.15188598940014 l 31.803769676843192 -12.814190395225257 a55.288237649998486,55.288237649998486 0 0,0 0.34806960157158173,0.88579917023335 l -32.01963282829647 12.264842220096122" fill="red" stroke="none" /><line stroke="#e1ed5e" stroke-width="0.3" x1="184.98032266829074" x2="189.97916517819016" y1="98.17113171792111" y2="98.06355123074" /><path d="M 185.9800911702706 98.14961562048488 a86.0,86.0 0 0,1 -9.607161424134198,41.387399972396054" fill="none" id="id28" stroke="none" /><text fill="#e1ed5e" style="font-size:6.75px; font-family:Arial;" text-anchor="middle"><textPath startOffset="21.466115282336823" xlink:href="#id28">April</textPath></text><line stroke="#e1ed5e" stroke-width="0.3" x1="174.80103733775053" x2="179.2010983576182" y1="140.37084112569926" y2="142.7455964860345" /><path d="M 175.68104954172406 140.8457921977663 a86.0,86.0 0 0,1 -30.038265399797805,32.042727171017184" fill="none" id="id29" stroke="none" /><text fill="#e1ed5e" style="font-size:6.75px; font-family:Arial;" text-anchor="middle"><textPath startOffset="22.206326154141568" xlink:href="#id29">May</textPath></text><path d="M 117.55443506779139 111.5257021239791 l 22.190793226898588 14.569792285558592 a47.5463773664749,47.5463773664749 0 0,0 -0.45507972379197303,0.680282441041249 l -21.936710397695894 -14.949611640805648" fill="red" stroke="none" /><path d="M 116.93607887273984 112.41649034213515 l 41.739057758984316 30.600507440268494 a72.7546133036443,72.7546133036443 0 0,0 -0.7491602582318309,1.0036225919212383 l -41.20613623405739 -31.314442911699047" fill="red" stroke="none" /><path d="M 116.0416608686014 113.55231037782055 l 46.53832882567257 39.31649483658333 a81.92292520982156,81.92292520982156 0 0,0 -0.9193214744555872,1.0693785668423559 l -45.85466484164621 -40.11175050258722" fill="red" stroke="none" /><path d="M 112.92097659922987 116.55440617244103 l 16.762698991942536 21.476436051708667 a48.24381366434595,48.24381366434595 0 0,0 -0.6590363889625659,0.5053210003031994 l -16.390533874486476 -21.761796393839237" fill="red" stroke="none" /><path d="M 111.7513745106137 117.40417183066458 l 15.576437974575784 23.06921652223372 a48.83548402534987,48.83548402534987 0 0,0 -0.7007317588627724,0.4644068000393179 l -15.177031516973047 -23.33392134336436" fill="red" stroke="none" /><line stroke="#e1ed5e" stroke-width="0.3" x1="143.8653032363475" x2="146.44561519142675" y1="172.8068346515853" y2="177.08958963109032" /><path d="M 144.38136562736335 173.6633856474863 a86.0,86.0 0 0,1 -40.68145358897372,12.25698825130547" fill="none" id="id30" stroke="none" /><text fill="#e1ed5e" style="font-size:6.75px; font-family:Arial;" text-anchor="middle"><textPath startOffset="21.466115282336833" xlink:href="#id30">June</textPath></text><path d="M 109.2508944713604 118.85261126421891 l 24.32956072156241 49.5817730850598 a76.22933773967014,76.22933773967014 0 0,0 -1.1829607379090605,0.5678930426020041 l -23.472487315653115 -49.99322040416136" fill="red" stroke="none" /><path d="M 106.57524785965236 119.94407469862006 l 17.9884547248442 54.56267085329398 a78.45145388963334,78.45145388963334 0 0,0 -1.2861505247991942,0.4117847827457892 l -17.046582854954064 -54.864228482699474" fill="red" stroke="none" /><path d="M 103.06178313531738 120.77559828337769 l 4.292302921677203 29.125237572415546 a50.43982554331946,50.43982554331946 0 0,0 -0.8600504472660425,0.11919515519355008 l -3.79032388322433 -29.194807293101697" fill="red" stroke="none" /><line stroke="#e1ed5e" stroke-width="0.3" x1="102.19456741930631" x2="102.32365962044197" y1="184.97166512339345" y2="189.96999836594603" /><path d="M 102.22038585953345 185.97133177190398 a86.0,86.0 0 0,1 -42.740103519485714,-10.115201625700543" fill="none" id="id31" stroke="none" /><text fill="#e1ed5e" style="font-size:6.75px; font-family:Arial;" text-anchor="middle"><textPath startOffset="22.20632615414155" xlink:href="#id31">July</textPath></text><line stroke="#e1ed5e" stroke-width="0.3" x1="58.666819895761336" x2="56.23545636021788" y1="174.27360380694188" y2="178.64263932499728" /><path d="M 58.180547188652646 175.14741091055294 a86.0,86.0 0 0,1 -31.652253787137756,-30.449443065178592" fill="none" id="id32" stroke="none" /><text fill="#e1ed5e" style="font-size:6.75px; font-family:Arial;" text-anchor="middle"><textPath startOffset="22.20632615414155" xlink:href="#id32">August</textPath></text><line stroke="#e1ed5e" stroke-width="0.3" x1="26.63291911575756" x2="22.317208475507996" y1="142.92168965132927" y2="145.44649492493687" /><path d="M 25.769776987707644 143.4266507060508 a86.0,86.0 0 0,1 -11.730757126820373,-40.83630448921669" fill="none" id="id33" stroke="none" /><text fill="#e1ed5e" style="font-size:6.75px; font-family:Arial;" text-anchor="middle"><textPath startOffset="21.46611528233685" xlink:href="#id33">September</textPath></text><line stroke="#e1ed5e" stroke-width="0.3" x1="15.007084014347285" x2="10.007500721073583" y1="101.09737516637583" y2="101.16192664675087" /><path d="M 14.007167355692545 101.11028546245083 a86.0,86.0 0 0,1 10.666146001902534,-42.60595125391555" fill="none" id="id34" stroke="none" /><text fill="#e1ed5e" style="font-size:6.75px; font-family:Arial;" text-anchor="middle"><textPath startOffset="22.20632615414155" xlink:href="#id34">October</textPath></text><line stroke="#e1ed5e" stroke-width="0.3" x1="26.266209847984243" x2="21.928928074336255" y1="57.711370442889674" y2="55.22380399835377" /><path d="M 25.398753493254645 57.213857153982495 a86.0,86.0 0 0,1 29.58750427330803,-30.492523968695096" fill="none" id="id35" stroke="none" /><text fill="#e1ed5e" style="font-size:6.75px; font-family:Arial;" text-anchor="middle"><textPath startOffset="21.46611528233685" xlink:href="#id35">November</textPath></text><line stroke="#e1ed5e" stroke-width="0.3" x1="56.762969772571076" x2="54.21961505331055" y1="26.818313649435495" y2="22.513508569990535" /><path d="M 56.25429882871897 25.957352633546506 a86.0,86.0 0 0,1 42.265352541879196,-11.944610805530505" fill="none" id="id36" stroke="none" /><text fill="#e1ed5e" style="font-size:6.75px; font-family:Arial;" text-anchor="middle"><textPath startOffset="22.20632615414155" xlink:href="#id36">December</textPath></text></svg>