<?xml version="1.0" encoding="utf-8" ?>
<svg baseProfile="full" height="200mm" version="1.1" viewBox="0,0,200,200" width="200mm" xmlns="http://www.w3.org/2000/svg" xmlns:ev="http://www.w3.org/2001/xml-events" xmlns:xlink="http://www.w3.org/1999/xlink"><defs /><rect fill="#1a1a1a" height="200" width="200" x="0" y="0" /><rect fill="#1a1a1a" height="200" width="180" x="10" y="0" /><text alignment-baseline="middle" fill="#e1ed5e" style="dominant-baseline: central; font-size:9.0px; font-family:Arial;" text-anchor="middle" x="100.0" y="100.0">2026</text><line stroke="#e1ed5e" stroke-width="0.3" x1="100.0" x2="100.0" y1="15.0" y2="10.0" /><path d="M 100.0 14.0 a86.0,86.0 0 0,1 42.46469731375804,11.215312516191453" fill="none" id="id25" stroke="none" /><text fill="#e1ed5e" style="font-size:6.75px; font-family:Arial;" text-anchor="middle"><textPath startOffset="22.20632615414155" xlink:href="#id25">January</textPath></text><line stroke="#e1ed5e" stroke-width="0.3" x1="143.23703022742887" x2="145.7803849466894" y1="26.81831364943548" y2="22.513508569990506" /><path d="M 143.74570117128098 25.957352633546492 a86.0,86.0 0 0,1 28.547481713284135,27.462654790039103" fill="none" id="id26" stroke="none" /><text fill="#e1ed5e" style="font-size:6.75px; font-family:Arial;" text-anchor="middle"><textPath startOffset="19.985693538727396" xlink:href="#id26">February</textPath></text><path d="M 110.68208982089419 81.91981866633111 l 6.2507598069917645 -10.579846516789518 a33.28841529586004,33.28841529586004 0 0,0 0.4908264824332997,0.29571746377106695 l -6.431948355642701 10.470682443559836" fill="#ff4906" stroke="none" /><path d="M 112.48926042617603 83.11751280151076 l 8.286213520826085 -11.200974990968867 a34.93280930972038,34.93280930972038 0 0,0 0.48033252610508226,0.361776500324756 l -8.47779220068955 11.056681901138262" fill="#ff6309" stroke="none" /><path d="M 113.06298171725822 83.55741782278167 l 4.931898548843957 -6.207858889669421 a28.928501452994556,28.928501452994556 0 0,0 0.3872239734789976,0.31310819026435377 l -5.038025920887446 6.122044602140938" fill="#ff0300" stroke="none" /><path d="M 117.65298651832404 88.62581576622439 l 13.010382330653036 -8.382858358108342 a36.47715615485854,36.47715615485854 0 0,0 0.3355419017402694,0.5307467079911071 l -13.15275182863926 8.157664002403028" fill="#ff7a0b" stroke="none" /><line stroke="#e1ed5e" stroke-width="0.3" x1="172.23445277983987" x2="176.4835382374775" y1="55.19839476539836" y2="52.563006222186495" /><path d="M 173.08426987136738 54.67131705675599 a86.0,86.0 0 0,1 12.851231095245387,41.99856678651699" fill="none" id="id27" stroke="none" /><text fill="#e1ed5e" style="font-size:6.75px; font-family:Arial;" text-anchor="middle"><textPath startOffset="22.20632615414155" xlink:href="#id27">March</textPath></text><path d="M 118.3937258080291 89.86733742301442 l 7.079968843820085 -3.900185101089455 a29.08315548855911,29.08315548855911 0 0,0 0.23777820221693577,0.44056689645760144 l -7.1460551452554855 3.777737221299395" fill="#ff0600" stroke="none" /><path d="M 119.04729006885535 91.15688171328212 l 16.628569614537753 -7.720174760225983 a39.3333146417651,39.3333146417651 0 0,0 0.2798240987443507,0.6165553094933007 l -16.758996030245452 7.432797441890619" fill="#ffa50f" stroke="none" /><path d="M 119.47837535516314 92.15188598940014 l 9.255055813964988 -3.7289934030976024 a30.978048402365694,30.978048402365694 0 0,0 0.1950237052795062,0.4963140576839283 l -9.317873069126195 3.56913034051789" fill="#ff2503" stroke="none" /><line stroke="#e1ed5e" stroke-width="0.3" x1="184.98032266829074" x2="189.97916517819016" y1="98.17113171792111" y2="98.06355123074" /><path d="M 185.9800911702706 98.14961562048488 a86.0,86.0 0 0,1 -9.607161424134198,41.387399972396054" fill="none" id="id28" stroke="none" /><text fill="#e1ed5e" style="font-size:6.75px; font-family:Arial;" text-anchor="middle"><textPath startOffset="21.466115282336823" xlink:href="#id28">April</textPath></text><line stroke="#e1ed5e" stroke-width="0.3" x1="174.80103733775053" x2="179.2010983576182" y1="140.37084112569926" y2="142.7455964860345" /><path d="M 175.68104954172406 140.8457921977663 a86.0,86.0 0 0,1 -30.038265399797805,32.042727171017184" fill="none" id="id29" stroke="none" /><text fill="#e1ed5e" style="font-size:6.75px; font-family:Arial;" text-anchor="middle"><textPath startOffset="22.206326154141568" xlink:href="#id29">May</textPath></text><path d="M 117.55443506779139 111.5257021239791 l 6.45763165681082 4.23988232121123 a28.725128394581205,28.725128394581205 0 0,0 -0.2749362668566258,0.41099241510810786 l -6.383692284543473 -4.350411650525145" fill="#ff0000" stroke="none" /><path d="M 116.93607887273984 112.41649034213515 l 12.146274265813753 8.90490049365264 a36.0608509501364,36.0608509501364 0 0,0 -0.3713215586359324,0.4974459082947046 l -11.991191440482728 -9.11265928145666" fill="#ff740a" stroke="none" /><path d="M 116.0416608686014 113.55231037782055 l 13.54288611528543 11.4412963563558 a38.72887550426003,38.72887550426003 0 0,0 -0.4346071242133171,0.5055462714018952 l -13.343936481501334 -11.672719726919222" fill="#ff9c0e" stroke="none" /><path d="M 112.92097659922987 116.55440617244103 l 4.878029124833035 6.249750151106705 a28.92808584047736,28.92808584047736 0 0,0 -0.3951731793955762,0.30300194291169985 l -4.7697272169439655 -6.332791435845777" fill="#ff0300" stroke="none" /><path d="M 111.7513745106137 117.40417183066458 l 4.532821244219621 6.71325722287487 a29.10026487051691,29.10026487051691 0 0,0 -0.4175545751835879,0.2767324038766198 l -4.416591970296069 -6.790287647842808" fill="#ff0601" stroke="none" /><line stroke="#e1ed5e" stroke-width="0.3" x1="143.8653032363475" x2="146.44561519142675" y1="172.8068346515853" y2="177.08958963109032" /><path d="M 144.38136562736335 173.6633856474863 a86.0,86.0 0 0,1 -40.68145358897372,12.25698825130547" fill="none" id="id30" stroke="none" /><text fill="#e1ed5e" style="font-size:6.75px; font-family:Arial;" text-anchor="middle"><textPath startOffset="21.466115282336833" xlink:href="#id30">June</textPath></text><path d="M 109.2508944713604 118.85261126421891 l 7.0800236794338565 14.428543594682559 a37.07201311488387,37.07201311488387 0 0,0 -0.5752999736128518,0.27617894825599076 l -6.8306110378207725 -14.54827681943811" fill="#ff830c" stroke="none" /><path d="M 106.57524785965236 119.94407469862006 l 5.234730164916108 15.878009721404835 a37.718660012468376,37.718660012468376 0 0,0 -0.6183680730507022,0.19798192957070218 l -4.960640746774466 -15.965764497635243" fill="#ff8d0d" stroke="none" /><path d="M 103.06178313531738 120.77559828337769 l 1.2490815873154888 8.475589594146873 a29.567136264830935,29.567136264830935 0 0,0 -0.5041498160437604,0.0698705706800792 l -1.103003180084898 -8.495834730319556" fill="#ff0e01" stroke="none" /><path d="M 102.70371172650421 120.8252237178851 l 1.1064604789091153 8.522464426365959 a29.593989451358492,29.593989451358492 0 0,0 -0.5057367265047281,0.0612376745007774 l -0.9595963293530068 -8.540247629592088" fill="#ff0e01" stroke="none" /><path d="M 101.62511606390274 120.93702456842531 l 4.8753481917081976 62.81107370527595 a84.0,84.0 0 0,0 -1.4425489568842786,0.09948662193485935 l -3.7934364740449884 -62.885688671727095" fill="#4dd2ff" stroke="none" /><path d="M 101.26447882468166 120.96189622390904 l 0.9090390144102724 15.069593188600756 a36.09698614954794,36.09698614954794 0 0,0 -0.6205448902047702,0.032075082707270774 l -0.6495060557920225 -15.083008078070229" fill="#ff740a" stroke="none" /><line stroke="#e1ed5e" stroke-width="0.3" x1="102.19456741930631" x2="102.32365962044197" y1="184.97166512339345" y2="189.96999836594603" /><path d="M 102.22038585953345 185.97133177190398 a86.0,86.0 0 0,1 -42.740103519485714,-10.115201625700543" fill="none" id="id31" stroke="none" /><text fill="#e1ed5e" style="font-size:6.75px; font-family:Arial;" text-anchor="middle"><textPath startOffset="22.20632615414155" xlink:href="#id31">July</textPath></text><path d="M 98.37488393609728 120.93702456842531 l -0.653247695202449 8.416053073080457 a29.441367299211326,29.441367299211326 0 0,0 -0.5049274155366342,-0.0435672620362619 l 0.7980194284806249 -8.403561558765531" fill="#ff0c01" stroke="none" /><path d="M 98.01472825383883 120.90594882070398 l -0.8229144250391424 8.665718880527825 a29.70470400802198,29.70470400802198 0 0,0 -0.5086115851792328,-0.052719670391127356 l 0.9719586068239685 -8.650269841680938" fill="#ff1001" stroke="none" /><path d="M 97.2962882734958 120.8252237178851 l -1.0745183672442649 8.276431680004299 a29.345891868178263,29.345891868178263 0 0,0 -0.5003773735294053,-0.06934774452216089 l 1.2168243319605012 -8.256709369989533" fill="#ff0a01" stroke="none" /><path d="M 96.58105272829116 120.7198165907248 l -2.586236231435271 15.673345072924386 a36.885287646742555,36.885287646742555 0 0,0 -0.625558720616031,-0.10876140203561285 l 2.8556439235233517 -15.626505092367767" fill="#ff800b" stroke="none" /><path d="M 96.22490169976321 120.6578951692458 l -1.8917476193127025 10.351922227821415 a31.523355114507844,31.523355114507844 0 0,0 -0.5329434268098703,-0.10213987616415524 l 2.0696586606942677 -10.317825153308792" fill="#ff2d04" stroke="none" /><path d="M 95.51606077576429 120.51570834832081 l -2.23087933153002 10.207111969446451 a31.448059980142958,31.448059980142958 0 0,0 -0.5278479754135754,-0.1201364806786617 l 2.406247456336458 -10.167198755190103" fill="#ff2c04" stroke="none" /><path d="M 95.16358092515715 120.4354850818985 l -2.3434405482704213 9.901818602444473 a31.17534890011116,31.17534890011116 0 0,0 -0.5211430394461136,-0.1280842797486991 l 2.513536872459745 -9.860013064381745" fill="#ff2803" stroke="none" /><path d="M 94.46302465271185 120.25689768951611 l -4.1496099260925705 15.181253022090297 a36.73816081565606,36.73816081565606 0 0,0 -0.608574337567958,-0.1719891866814571 l 4.4103154317651425 -15.10757504207032" fill="#ff7e0b" stroke="none" /><path d="M 94.11515582081647 120.15858648285463 l -3.361824346904743 11.515959433041083 a32.996632219205914,32.996632219205914 0 0,0 -0.5438552462027836,-0.16385912436828629 l 3.5595545675477727 -11.456384939567071" fill="#ff4506" stroke="none" /><path d="M 93.42475214034765 119.94407469862007 l -7.502533911531842 22.75672338965372 a44.96156243918368,44.96156243918368 0 0,0 -0.7329382703507308,-0.24865245552763496 l 7.893141914819798 -22.624207947227966" fill="#fff517" stroke="none" /><path d="M 92.7421414339146 119.70592522655815 l -4.637108170798529 12.590284868351132 a34.41708035505184,34.41708035505184 0 0,0 -0.5541637991680609,-0.20953733093399976 l 4.853142190726873 -12.508599287310497" fill="#ff5b08" stroke="none" /><line stroke="#e1ed5e" stroke-width="0.3" x1="58.666819895761336" x2="56.23545636021788" y1="174.27360380694188" y2="178.64263932499728" /><path d="M 58.180547188652646 175.14741091055294 a86.0,86.0 0 0,1 -31.652253787137756,-30.449443065178592" fill="none" id="id32" stroke="none" /><text fill="#e1ed5e" style="font-size:6.75px; font-family:Arial;" text-anchor="middle"><textPath startOffset="22.20632615414155" xlink:href="#id32">August</textPath></text><line stroke="#e1ed5e" stroke-width="0.3" x1="26.63291911575756" x2="22.317208475507996" y1="142.92168965132927" y2="145.44649492493687" /><path d="M 25.769776987707644 143.4266507060508 a86.0,86.0 0 0,1 -11.730757126820373,-40.83630448921669" fill="none" id="id33" stroke="none" /><text fill="#e1ed5e" style="font-size:6.75px; font-family:Arial;" text-anchor="middle"><textPath startOffset="21.46611528233685" xlink:href="#id33">September</textPath></text><line stroke="#e1ed5e" stroke-width="0.3" x1="15.007084014347285" x2="10.007500721073583" y1="101.09737516637583" y2="101.16192664675087" /><path d="M 14.007167355692545 101.11028546245083 a86.0,86.0 0 0,1 10.666146001902534,-42.60595125391555" fill="none" id="id34" stroke="none" /><text fill="#e1ed5e" style="font-size:6.75px; font-family:Arial;" text-anchor="middle"><textPath startOffset="22.20632615414155" xlink:href="#id34">October</textPath></text><line stroke="#e1ed5e" stroke-width="0.3" x1="26.266209847984243" x2="21.928928074336255" y1="57.711370442889674" y2="55.22380399835377" /><path d="M 25.398753493254645 57.213857153982495 a86.0,86.0 0 0,1 29.58750427330803,-30.492523968695096" fill="none" id="id35" stroke="none" /><text fill="#e1ed5e" style="font-size:6.75px; font-family:Arial;" text-anchor="middle"><textPath startOffset="21.46611528233685" xlink:href="#id35">November</textPath></text><line stroke="#e1ed5e" stroke-width="0.3" x1="56.762969772571076" x2="54.21961505331055" y1="26.818313649435495" y2="22.513508569990535" /><path d="M 56.25429882871897 25.957352633546506 a86.0,86.0 0 0,1 42.265352541879196,-11.944610805530505" fill="none" id="id36" stroke="none" /><text fill="#e1ed5e" style="font-size:6.75px; font-family:Arial;" text-anchor="middle"><textPath startOffset="22.20632615414155" xlink:href="#id36">December</textPath></text></svg>