<?xml version="1.0" encoding="utf-8" ?>
<svg baseProfile="full" height="200mm" version="1.1" viewBox="0,0,200,200" width="200mm" xmlns="http://www.w3.org/2000/svg" xmlns:ev="http://www.w3.org/2001/xml-events" xmlns:xlink="http://www.w3.org/1999/xlink"><defs /><rect fill="#1a1a1a" height="200" width="200" x="0" y="0" /><rect fill="#1a1a1a" height="200" width="180" x="10" y="0" /><text alignment-baseline="middle" fill="#e1ed5e" style="dominant-baseline: central; font-size:9.0px; font-family:Arial;" text-anchor="middle" x="100.0" y="100.0">2024</text><line stroke="#e1ed5e" stroke-width="0.3" x1="100.0" x2="100.0" y1="15.0" y2="10.0" /><path d="M 100.0 14.0 a86.0,86.0 0 0,1 42.35913384403234,11.155469271406648" fill="none" id="id1" stroke="none" /><text fill="#e1ed5e" style="font-size:6.75px; font-family:Arial;" text-anchor="middle"><textPath startOffset="22.145653131862478" xlink:href="#id1">January</textPath></text><line stroke="#e1ed5e" stroke-width="0.3" x1="143.13028292997686" x2="145.6673583964461" y1="26.7553504044142" y2="22.446841604673864" /><path d="M 143.63769802327073 25.89364864446614 a86.0,86.0 0 0,1 29.32050498858742,28.57503671076993" fill="none" id="id2" stroke="none" /><text fill="#e1ed5e" style="font-size:6.75px; font-family:Arial;" text-anchor="middle"><textPath startOffset="20.669276256404974" xlink:href="#id2">February</textPath></text><line stroke="#e1ed5e" stroke-width="0.3" x1="172.87174338648825" x2="177.1583165268699" y1="56.24261187166439" y2="53.66864786411523" /><path d="M 173.72905801456457 55.72781907015455 a86.0,86.0 0 0,1 12.242430191666344,42.057860355516425" fill="none" id="id3" stroke="none" /><text fill="#e1ed5e" style="font-size:6.75px; font-family:Arial;" text-anchor="middle"><textPath startOffset="22.145653131862474" xlink:href="#id3">March</textPath></text><line stroke="#e1ed5e" stroke-width="0.3" x1="184.99686870605535" x2="189.99668451229388" y1="99.2704041080226" y2="99.22748670261217" /><path d="M 185.99683186730306 99.26182062694052 a86.0,86.0 0 0,1 -10.086455211305974,41.156179273409016" fill="none" id="id4" stroke="none" /><text fill="#e1ed5e" style="font-size:6.75px; font-family:Arial;" text-anchor="middle"><textPath startOffset="21.40746469413373" xlink:href="#id4">April</textPath></text><line stroke="#e1ed5e" stroke-width="0.3" x1="174.33088141563837" x2="178.70328620479359" y1="141.23008692659167" y2="143.65538615756765" /><path d="M 175.20536237346943 141.71514677278685 a86.0,86.0 0 0,1 -30.301960400862466,31.631185727798858" fill="none" id="id5" stroke="none" /><text fill="#e1ed5e" style="font-size:6.75px; font-family:Arial;" text-anchor="middle"><textPath startOffset="22.145653131862474" xlink:href="#id5">May</textPath></text><line stroke="#e1ed5e" stroke-width="0.3" x1="143.1302829299769" x2="145.66735839644613" y1="173.24464959558577" y2="177.55315839532614" /><path d="M 143.63769802327073 174.10635135553383 a86.0,86.0 0 0,1 -40.68552437913181,11.842963189579606" fill="none" id="id6" stroke="none" /><text fill="#e1ed5e" style="font-size:6.75px; font-family:Arial;" text-anchor="middle"><textPath startOffset="21.407464694133747" xlink:href="#id6">June</textPath></text><line stroke="#e1ed5e" stroke-width="0.3" x1="101.45913802915013" x2="101.54496967792366" y1="184.9874750549273" y2="189.98673829345242" /><path d="M 101.47630435890484 185.9873277026323 a86.0,86.0 0 0,1 -42.54439059252881,-10.42667462771756" fill="none" id="id7" stroke="none" /><text fill="#e1ed5e" style="font-size:6.75px; font-family:Arial;" text-anchor="middle"><textPath startOffset="22.145653131862474" xlink:href="#id7">July</textPath></text><line stroke="#e1ed5e" stroke-width="0.3" x1="58.13341422392154" x2="55.67067388415222" y1="173.97424548756322" y2="178.32567169271397" /><path d="M 57.64086615596768 174.84453072859336 a86.0,86.0 0 0,1 -31.369924170532247,-30.572349798747897" fill="none" id="id8" stroke="none" /><text fill="#e1ed5e" style="font-size:6.75px; font-family:Arial;" text-anchor="middle"><textPath startOffset="22.145653131862474" xlink:href="#id8">August</textPath></text><path d="M 86.13680546590413 115.77377054828092 l -0.6460234330862967 0.7350560779662716 a21.978597830496145,21.978597830496145 0 0,0 -0.28125799516372857,-0.25150263359826763 l 0.6585464550733962 -0.7238579144846217" fill="#ff0500" stroke="none" /><path d="M 85.60350026404147 115.28858382429668 l -0.6678628664387224 0.709247220085031 a21.974203483655284,21.974203483655284 0 0,0 -0.2724042746661775,-0.2609571330962114 l 0.6799396269702144 -0.6976779566832372" fill="#ff0500" stroke="none" /><path d="M 85.08716467003676 114.78537596483092 l -0.6816105655790151 0.6757848692554175 a21.9598323565204,21.9598323565204 0 0,0 -0.26311350787695503,-0.2699776381166778 l 0.6931108746067797 -0.6639845390710023" fill="#ff0500" stroke="none" /><path d="M 83.64595745247003 113.17365903436017 l -0.9885137059125665 0.7962766682694467 a22.26933678714803,22.26933678714803 0 0,0 -0.2372570574587527,-0.2997665415225654 l 1.0020371940128807 -0.7791901828322008" fill="#ff0901" stroke="none" /><path d="M 82.98947788004972 112.3143062007846 l -1.0281338098591914 0.7442895909195257 a22.26926203997706,22.26926203997706 0 0,0 -0.2215101241443379,-0.311581730081849 l 1.04075903253349 -0.7265306341281728" fill="#ff0901" stroke="none" /><path d="M 82.78059297857968 112.02048342749411 l -0.5219988776308032 0.3643957570621405 a21.636605918926858,21.636605918926858 0 0,0 -0.2099886831790276,-0.3063797643460279 l 0.5281772976251559 -0.3553812576460615" fill="#ff0000" stroke="none" /><path d="M 82.37810715431573 111.42229804090323 l -1.5996786046530818 1.0368923447675282 a22.906336112237906,22.906336112237906 0 0,0 -0.2110462279709061,-0.3317997242169945 l 1.6172425242498778 -1.0092789458718618" fill="#ff1202" stroke="none" /><path d="M 81.99639281039703 110.81064883170644 l -1.087812895418846 0.6532003882958687 a22.268860765690786,22.268860765690786 0 0,0 -0.1939790514049783,-0.32941883715691656 l 1.0988656569535942 -0.6344303828453933" fill="#ff0901" stroke="none" /><line stroke="#e1ed5e" stroke-width="0.3" x1="26.387840678322732" x2="22.057713659400548" y1="142.50000000000003" y2="145.00000000000006" /><path d="M 25.521815274538298 143.00000000000003 a86.0,86.0 0 0,1 -11.493303480769221,-40.785679425670985" fill="none" id="id9" stroke="none" /><text fill="#e1ed5e" style="font-size:6.75px; font-family:Arial;" text-anchor="middle"><textPath startOffset="21.40746469413373" xlink:href="#id9">September</textPath></text><path d="M 81.63589988554817 110.18625677009913 l -0.5559772987277461 0.30839123550247444 a21.63577976598453,21.63577976598453 0 0,0 -0.17736667149584726,-0.32633469832780626 l 0.5611893198389231 -0.2988017037000812" fill="#ff0000" stroke="none" /><path d="M 80.83023694016515 108.57439118712176 l -1.7366106095134664 0.7767638368401781 a22.90241385279266,22.90241385279266 0 0,0 -0.1574444085889758,-0.3602636185365925 l 1.7496889001194103 -0.7468381485277362" fill="#ff1202" stroke="none" /><path d="M 80.5471966667186 107.91128576633889 l -1.176586019206068 0.47850729106446693 a22.27016687415199,22.27016687415199 0 0,0 -0.14098216633215657,-0.35536715552440407 l 1.184626860504349 -0.45823911832649755" fill="#ff0901" stroke="none" /><path d="M 80.41425534168474 107.57618678355246 l -1.184039801254385 0.4580120311971424 a22.26953742429117,22.26953742429117 0 0,0 -0.13485723076266357,-0.3577248266008092 l 1.1917277158314845 -0.4376189244021883" fill="#ff0901" stroke="none" /><path d="M 80.16572619554312 106.89939002012753 l -1.797768037790931 0.6253570451191339 a22.903428840693234,22.903428840693234 0 0,0 -0.1259847584323792,-0.37245155228080634 l 1.8082382177956775 -0.5944038183641659" fill="#ff1202" stroke="none" /><path d="M 79.73907114497094 105.5222062557868 l -0.6133321028079229 0.16716639198701377 a21.635705018813557,21.635705018813557 0 0,0 -0.09458977671109167,-0.35917278910464784 l 0.6161113603237472 -0.1566130985095633" fill="#ff0000" stroke="none" /><path d="M 79.48165901384964 104.47187691870673 l -1.8583569943998677 0.40502025751416076 a22.901981106013345,22.901981106013345 0 0,0 -0.08042116730545351,-0.384844398346881 l 1.865035872529688 -0.3730594078818707" fill="#ff1202" stroke="none" /><path d="M 79.13060592940153 102.33845913500099 l -62.6081822117954 7.015377405002945 a84.0,84.0 0 0,0 -0.14827043007333573,-1.4343819108682743 l 62.7193850343504 -5.9395909718517395" fill="#4dd2ff" stroke="none" /><path d="M 79.0935383218832 101.97986365728391 l -12.770159719130914 1.2093474024866977 a33.82729513155502,33.82729513155502 0 0,0 -0.04978472125955787,-0.5785739254983953 l 12.789038063088213 -0.9899524296126405" fill="#ffa80f" stroke="none" /><path d="M 79.06263194458094 101.62068470465958 l -3.0041819199276945 0.2325426803767481 a24.01316861562994,24.01316861562994 0 0,0 -0.028285270067906595,-0.4112616190238977 l 3.0077311511606672 -0.18093763719850706" fill="#ff2203" stroke="none" /><line stroke="#e1ed5e" stroke-width="0.3" x1="15.003131293944662" x2="10.003315487706104" y1="100.72959589197737" y2="100.7725132973878" /><path d="M 14.003168132696942 100.73817937305945 a86.0,86.0 0 0,1 10.791469493833604,-42.45332614584628" fill="none" id="id10" stroke="none" /><text fill="#e1ed5e" style="font-size:6.75px; font-family:Arial;" text-anchor="middle"><textPath startOffset="22.145653131862435" xlink:href="#id10">October</textPath></text><path d="M 79.13060592940154 97.66154086499901 l -1.079048055153267 -0.12090958525878523 a22.085801009917333,22.085801009917333 0 0,0 0.04545248775870179,-0.37641180150762715 l 1.076813481134897 0.13941506368984866" fill="#ff0701" stroke="none" /><path d="M 79.2786578344484 96.59031103205396 l -2.049924290189154 -0.33731426186294566 a23.077491397518568,23.077491397518568 0 0,0 0.06767769140655111,-0.3903469393863659 l 2.0438317812903684 0.37245423416990425" fill="#ff1502" stroke="none" /><path d="M 79.64726062577567 94.8264132398404 l -1.2297710862351672 -0.3126030011385543 a22.268880435998938,22.268880435998938 0 0,0 0.09735797498697861,-0.3696840888467007 l 1.224223630443463 0.3336675943580396" fill="#ff0901" stroke="none" /><path d="M 79.83685265289637 94.1308016681162 l -1.827051917794463 -0.5318281855300099 a22.902882006126646,22.902882006126646 0 0,0 0.11312243829514802,-0.37654780600543736 l 1.8176531594956855 0.5631135951261707" fill="#ff1202" stroke="none" /><path d="M 80.28708602549916 92.7611449362534 l -0.5978580475339355 -0.21954175625129888 a21.63689310542586,21.63689310542586 0 0,0 0.1310261381236739,-0.34756239821470253 l 0.5940012255958256 0.22977243466014632" fill="#ff0000" stroke="none" /><path d="M 81.1358732173502 90.77261029715801 l -1.1402701051912143 -0.5577632481126695 a22.269376127764335,22.269376127764335 0 0,0 0.17092285604730345,-0.3419602087767148 l 1.130527335932167 0.5772553130531546" fill="#ff0901" stroke="none" /><path d="M 81.46374523516351 90.13048839642627 l -1.6785849036599207 -0.8937519145282103 a22.901693919514344,22.901693919514344 0 0,0 0.18774443380620204,-0.34542861210713627 l 1.6629951202383682 0.9224353601099662" fill="#ff1202" stroke="none" /><line stroke="#e1ed5e" stroke-width="0.3" x1="26.387840678322718" x2="22.05771365940052" y1="57.49999999999999" y2="54.99999999999999" /><path d="M 25.521815274538284 56.99999999999999 a86.0,86.0 0 0,1 29.574782752854787,-30.34633250058573" fill="none" id="id11" stroke="none" /><text fill="#e1ed5e" style="font-size:6.75px; font-family:Arial;" text-anchor="middle"><textPath startOffset="21.40746469413373" xlink:href="#id11">November</textPath></text><path d="M 81.81346652052679 89.5 l -1.6487345810862966 -0.9518973542124185 a22.903794708424837,22.903794708424837 0 0,0 0.19950981856958797,-0.3388112889436202 l 1.6321510523869294 0.9800598114496115" fill="#ff1202" stroke="none" /><path d="M 82.18462484594161 88.88188828441811 l -1.1917756968714421 -0.7437561781972186 a22.404814067505,22.404814067505 0 0,0 0.20642548307017153,-0.3245351457477116 l 1.1788325221753808 0.7641049986236021" fill="#ff0b01" stroke="none" /><path d="M 82.78059297857968 87.97951657250589 l -1.0402332239630863 -0.7261635789096804 a22.268620787931347,22.268620787931347 0 0,0 0.22150374567430714,-0.3115727579649531 l 1.0276143797588069 0.7439135635841538" fill="#ff0901" stroke="none" /><path d="M 83.2033758604659 87.39550010848427 l -2.028032340500542 -1.5218732766463225 a23.53554992936174,23.53554992936174 0 0,0 0.24527183637713343,-0.32106870714938673 l 2.001608526769102 1.5564628970365935" fill="#ff1b02" stroke="none" /><path d="M 83.8745106332314 86.54754324733833 l -2.402102180226456 -2.003919072469438 a24.128224182064876,24.128224182064876 0 0,0 0.2680593273616591,-0.315773213606443 l 2.3673482893576825 2.0448590685254375" fill="#ff2403" stroke="none" /><path d="M 84.34580500576568 86.00192230759919 l -0.9454844098350762 -0.8454579894207132 a22.26836113986376,22.26836113986376 0 0,0 0.2572550290959332,-0.2827683414244624 l 0.9308316798972772 0.8615639064028333" fill="#ff0901" stroke="none" /><path d="M 84.83555147118756 85.47280134310135 l -2.2882118896503783 -2.1920552288380297 a24.16875681904016,24.16875681904016 0 0,0 0.2895799150212881,-0.29713450340997494 l 2.250245173478288 2.231012424315735" fill="#ff2403" stroke="none" /><line stroke="#e1ed5e" stroke-width="0.3" x1="56.869717070023135" x2="54.33264160355391" y1="26.7553504044142" y2="22.446841604673864" /><path d="M 56.362301976729285 25.89364864446614 a86.0,86.0 0 0,1 42.16139366436587,-11.88097634709845" fill="none" id="id12" stroke="none" /><text fill="#e1ed5e" style="font-size:6.75px; font-family:Arial;" text-anchor="middle"><textPath startOffset="22.145653131862474" xlink:href="#id12">December</textPath></text><path d="M 89.65649057296885 81.72400993836675 l -0.7620430260563111 -1.3464570094890413 a22.547144483221665,22.547144483221665 0 0,0 0.3384818256580809,-0.18775016290898083 l 0.7388170122421277 1.359340087831168" fill="#ff0d01" stroke="none" /><path d="M 90.28995756902619 81.37971332152246 l -0.5867505462478754 -1.1251715383897676 a22.26897091941643,22.26897091941643 0 0,0 0.34047430298459397,-0.17384860507939162 l 0.567349021549699 1.1350780951419932" fill="#ff0901" stroke="none" /><path d="M 90.93487009805054 81.0573650232925 l -1.3679393186578626 -2.858467056059438 a24.168925983690254,24.168925983690254 0 0,0 0.37578224320374676,-0.17588506417715086 l 1.3186683615825934 2.8815283518071317" fill="#ff2403" stroke="none" /><path d="M 91.5904679813234 80.7573450057729 l -0.6626632779483083 -1.5163032623674575 a22.654780409422166,22.654780409422166 0 0,0 0.3576919315943071,-0.1526774159206069 l 0.6365362711835699 1.5274553279474683" fill="#ff0f01" stroke="none" /></svg>